  0
SECTION
  2
BLOCKS
  0
ENDSEC
  0
SECTION
  2
ENTITIES
  0
LINE
  8
0
 10
18.0902
 20
-9.51056
 11
20
 21
-8.66025
  0
LINE
  8
0
 10
20
 20
-8.66025
 11
21.6913
 21
-7.43144
  0
LINE
  8
0
 10
21.6913
 20
-7.43144
 11
23.0902
 21
-5.87784
  0
LINE
  8
0
 10
23.0902
 20
-5.87784
 11
24.1355
 21
-4.06735
  0
LINE
  8
0
 10
24.1355
 20
-4.06735
 11
24.7815
 21
-2.07912
  0
LINE
  8
0
 10
24.7815
 20
-2.07912
 11
25
 21
0
  0
LINE
  8
0
 10
25
 20
0
 11
24.7815
 21
2.07912
  0
LINE
  8
0
 10
24.7815
 20
2.07912
 11
24.1355
 21
4.06735
  0
LINE
  8
0
 10
24.1355
 20
4.06735
 11
23.0902
 21
5.87784
  0
LINE
  8
0
 10
23.0902
 20
5.87784
 11
21.6913
 21
7.43144
  0
LINE
  8
0
 10
21.6913
 20
7.43144
 11
20
 21
8.66025
  0
LINE
  8
0
 10
20
 20
8.66025
 11
18.0902
 21
9.51056
  0
LINE
  8
0
 10
18.0902
 20
9.51056
 11
16.0453
 21
9.94521
  0
LINE
  8
0
 10
16.0453
 20
9.94521
 11
13.9547
 21
9.94521
  0
LINE
  8
0
 10
13.9547
 20
9.94521
 11
11.9098
 21
9.51056
  0
LINE
  8
0
 10
11.9098
 20
9.51056
 11
1.76611
 21
5.92134
  0
LINE
  8
0
 10
1.76611
 20
5.92134
 11
-1.90982
 21
10.8778
  0
LINE
  8
0
 10
-1.90982
 20
10.8778
 11
-3.30869
 21
12.4314
  0
LINE
  8
0
 10
-3.30869
 20
12.4314
 11
-5
 21
13.6602
  0
LINE
  8
0
 10
-5
 20
13.6602
 11
-6.90982
 21
14.5106
  0
LINE
  8
0
 10
-6.90982
 20
14.5106
 11
-8.95471
 21
14.9452
  0
LINE
  8
0
 10
-8.95471
 20
14.9452
 11
-11.0453
 21
14.9452
  0
LINE
  8
0
 10
-11.0453
 20
14.9452
 11
-13.0902
 21
14.5106
  0
LINE
  8
0
 10
-13.0902
 20
14.5106
 11
-15
 21
13.6602
  0
LINE
  8
0
 10
-15
 20
13.6602
 11
-16.6913
 21
12.4314
  0
LINE
  8
0
 10
-16.6913
 20
12.4314
 11
-18.0902
 21
10.8778
  0
LINE
  8
0
 10
-18.0902
 20
10.8778
 11
-19.1355
 21
9.06735
  0
LINE
  8
0
 10
-19.1355
 20
9.06735
 11
-19.7815
 21
7.07912
  0
LINE
  8
0
 10
-19.7815
 20
7.07912
 11
-20
 21
5
  0
LINE
  8
0
 10
-20
 20
5
 11
-19.7815
 21
2.92087
  0
LINE
  8
0
 10
-19.7815
 20
2.92087
 11
-19.1355
 21
0.932632
  0
LINE
  8
0
 10
-19.1355
 20
0.932632
 11
-18.0902
 21
-0.877838
  0
LINE
  8
0
 10
-18.0902
 20
-0.877838
 11
-16.6913
 21
-2.43144
  0
LINE
  8
0
 10
-16.6913
 20
-2.43144
 11
-15
 21
-3.66025
  0
LINE
  8
0
 10
-15
 20
-3.66025
 11
-13.0902
 21
-4.51056
  0
LINE
  8
0
 10
-13.0902
 20
-4.51056
 11
-11.0453
 21
-4.94521
  0
LINE
  8
0
 10
-11.0453
 20
-4.94521
 11
-0.84964
 21
-4.99579
  0
LINE
  8
0
 10
-0.84964
 20
-4.99579
 11
11.9098
 21
-9.51056
  0
LINE
  8
0
 10
11.9098
 20
-9.51056
 11
13.9547
 21
-9.94521
  0
LINE
  8
0
 10
13.9547
 20
-9.94521
 11
16.0453
 21
-9.94521
  0
LINE
  8
0
 10
16.0453
 20
-9.94521
 11
18.0902
 21
-9.51056
  0
ENDSEC
  0
SECTION
  2
OBJECTS
  0
DICTIONARY
  0
ENDSEC
  0
EOF
