  0
SECTION
  2
BLOCKS
  0
ENDSEC
  0
SECTION
  2
ENTITIES
  0
LINE
  8
0
 10
1.02454
 20
-9.94321
 11
1.04907
 21
-9.94231
  0
LINE
  8
0
 10
1.04907
 20
-9.94231
 11
1.07356
 21
-9.9408
  0
LINE
  8
0
 10
1.07356
 20
-9.9408
 11
1.11021
 21
-9.93742
  0
LINE
  8
0
 10
1.11021
 20
-9.93742
 11
1.2119
 21
-9.92615
  0
LINE
  8
0
 10
1.2119
 20
-9.92615
 11
1.23628
 21
-9.92314
  0
LINE
  8
0
 10
1.23628
 20
-9.92314
 11
1.45532
 21
-9.89339
  0
LINE
  8
0
 10
1.45532
 20
-9.89339
 11
1.4796
 21
-9.88979
  0
LINE
  8
0
 10
1.4796
 20
-9.88979
 11
1.69751
 21
-9.85472
  0
LINE
  8
0
 10
1.69751
 20
-9.85472
 11
1.72165
 21
-9.85052
  0
LINE
  8
0
 10
1.72165
 20
-9.85052
 11
1.93903
 21
-9.81006
  0
LINE
  8
0
 10
1.93903
 20
-9.81006
 11
1.96312
 21
-9.80527
  0
LINE
  8
0
 10
1.96312
 20
-9.80527
 11
2.17885
 21
-9.7596
  0
LINE
  8
0
 10
2.17885
 20
-9.7596
 11
2.20282
 21
-9.75421
  0
LINE
  8
0
 10
2.20282
 20
-9.75421
 11
2.41785
 21
-9.70314
  0
LINE
  8
0
 10
2.41785
 20
-9.70314
 11
2.44164
 21
-9.69719
  0
LINE
  8
0
 10
2.44164
 20
-9.69719
 11
2.65497
 21
-9.64096
  0
LINE
  8
0
 10
2.65497
 20
-9.64096
 11
2.67859
 21
-9.63441
  0
LINE
  8
0
 10
2.67859
 20
-9.63441
 11
2.89108
 21
-9.5728
  0
LINE
  8
0
 10
2.89108
 20
-9.5728
 11
2.91466
 21
-9.56566
  0
LINE
  8
0
 10
2.91466
 20
-9.56566
 11
3.12549
 21
-9.49886
  0
LINE
  8
0
 10
3.12549
 20
-9.49886
 11
3.14873
 21
-9.49118
  0
LINE
  8
0
 10
3.14873
 20
-9.49118
 11
3.36465
 21
-9.4169
  0
LINE
  8
0
 10
3.36465
 20
-9.4169
 11
3.37268
 21
-9.41409
  0
LINE
  8
0
 10
3.37268
 20
-9.41409
 11
16.6772
 21
-4.71028
  0
LINE
  8
0
 10
16.6772
 20
-4.71028
 11
16.6922
 21
-4.70482
  0
LINE
  8
0
 10
16.6922
 20
-4.70482
 11
16.7877
 21
-4.66936
  0
LINE
  8
0
 10
16.7877
 20
-4.66936
 11
16.8108
 21
-4.66043
  0
LINE
  8
0
 10
16.8108
 20
-4.66043
 11
16.9022
 21
-4.62386
  0
LINE
  8
0
 10
16.9022
 20
-4.62386
 11
16.9245
 21
-4.61461
  0
LINE
  8
0
 10
16.9245
 20
-4.61461
 11
17.0147
 21
-4.57599
  0
LINE
  8
0
 10
17.0147
 20
-4.57599
 11
17.0373
 21
-4.56596
  0
LINE
  8
0
 10
17.0373
 20
-4.56596
 11
17.1268
 21
-4.52495
  0
LINE
  8
0
 10
17.1268
 20
-4.52495
 11
17.149
 21
-4.51445
  0
LINE
  8
0
 10
17.149
 20
-4.51445
 11
17.2371
 21
-4.47147
  0
LINE
  8
0
 10
17.2371
 20
-4.47147
 11
17.259
 21
-4.46045
  0
LINE
  8
0
 10
17.259
 20
-4.46045
 11
17.346
 21
-4.4153
  0
LINE
  8
0
 10
17.346
 20
-4.4153
 11
17.3676
 21
-4.40376
  0
LINE
  8
0
 10
17.3676
 20
-4.40376
 11
17.4538
 21
-4.35629
  0
LINE
  8
0
 10
17.4538
 20
-4.35629
 11
17.4751
 21
-4.34422
  0
LINE
  8
0
 10
17.4751
 20
-4.34422
 11
17.5598
 21
-4.29492
  0
LINE
  8
0
 10
17.5598
 20
-4.29492
 11
17.5809
 21
-4.28221
  0
LINE
  8
0
 10
17.5809
 20
-4.28221
 11
17.6646
 21
-4.23065
  0
LINE
  8
0
 10
17.6646
 20
-4.23065
 11
17.6854
 21
-4.2175
  0
LINE
  8
0
 10
17.6854
 20
-4.2175
 11
17.7673
 21
-4.16417
  0
LINE
  8
0
 10
17.7673
 20
-4.16417
 11
17.7876
 21
-4.1506
  0
LINE
  8
0
 10
17.7876
 20
-4.1506
 11
17.869
 21
-4.09479
  0
LINE
  8
0
 10
17.869
 20
-4.09479
 11
17.889
 21
-4.08067
  0
LINE
  8
0
 10
17.889
 20
-4.08067
 11
17.9684
 21
-4.02328
  0
LINE
  8
0
 10
17.9684
 20
-4.02328
 11
17.9882
 21
-4.00867
  0
LINE
  8
0
 10
17.9882
 20
-4.00867
 11
18.0664
 21
-3.94917
  0
LINE
  8
0
 10
18.0664
 20
-3.94917
 11
18.0858
 21
-3.93398
  0
LINE
  8
0
 10
18.0858
 20
-3.93398
 11
18.1622
 21
-3.8728
  0
LINE
  8
0
 10
18.1622
 20
-3.8728
 11
18.1811
 21
-3.85732
  0
LINE
  8
0
 10
18.1811
 20
-3.85732
 11
18.2566
 21
-3.79378
  0
LINE
  8
0
 10
18.2566
 20
-3.79378
 11
18.2753
 21
-3.77773
  0
LINE
  8
0
 10
18.2753
 20
-3.77773
 11
18.3487
 21
-3.71278
  0
LINE
  8
0
 10
18.3487
 20
-3.71278
 11
18.3668
 21
-3.69635
  0
LINE
  8
0
 10
18.3668
 20
-3.69635
 11
18.4387
 21
-3.62962
  0
LINE
  8
0
 10
18.4387
 20
-3.62962
 11
18.4565
 21
-3.61269
  0
LINE
  8
0
 10
18.4565
 20
-3.61269
 11
18.5267
 21
-3.54413
  0
LINE
  8
0
 10
18.5267
 20
-3.54413
 11
18.5441
 21
-3.52672
  0
LINE
  8
0
 10
18.5441
 20
-3.52672
 11
18.6127
 21
-3.45645
  0
LINE
  8
0
 10
18.6127
 20
-3.45645
 11
18.6296
 21
-3.43866
  0
LINE
  8
0
 10
18.6296
 20
-3.43866
 11
18.6964
 21
-3.36682
  0
LINE
  8
0
 10
18.6964
 20
-3.36682
 11
18.7128
 21
-3.34869
  0
LINE
  8
0
 10
18.7128
 20
-3.34869
 11
18.7777
 21
-3.27525
  0
LINE
  8
0
 10
18.7777
 20
-3.27525
 11
18.7938
 21
-3.25664
  0
LINE
  8
0
 10
18.7938
 20
-3.25664
 11
18.8573
 21
-3.18112
  0
LINE
  8
0
 10
18.8573
 20
-3.18112
 11
18.8728
 21
-3.16225
  0
LINE
  8
0
 10
18.8728
 20
-3.16225
 11
18.934
 21
-3.08583
  0
LINE
  8
0
 10
18.934
 20
-3.08583
 11
18.9492
 21
-3.06638
  0
LINE
  8
0
 10
18.9492
 20
-3.06638
 11
19.0087
 21
-2.98817
  0
LINE
  8
0
 10
19.0087
 20
-2.98817
 11
19.0233
 21
-2.96844
  0
LINE
  8
0
 10
19.0233
 20
-2.96844
 11
19.0807
 21
-2.88904
  0
LINE
  8
0
 10
19.0807
 20
-2.88904
 11
19.0948
 21
-2.869
  0
LINE
  8
0
 10
19.0948
 20
-2.869
 11
19.1506
 21
-2.78764
  0
LINE
  8
0
 10
19.1506
 20
-2.78764
 11
19.1642
 21
-2.76733
  0
LINE
  8
0
 10
19.1642
 20
-2.76733
 11
19.2175
 21
-2.68538
  0
LINE
  8
0
 10
19.2175
 20
-2.68538
 11
19.2307
 21
-2.66461
  0
LINE
  8
0
 10
19.2307
 20
-2.66461
 11
19.2822
 21
-2.58095
  0
LINE
  8
0
 10
19.2822
 20
-2.58095
 11
19.2949
 21
-2.55975
  0
LINE
  8
0
 10
19.2949
 20
-2.55975
 11
19.3442
 21
-2.47514
  0
LINE
  8
0
 10
19.3442
 20
-2.47514
 11
19.3563
 21
-2.45383
  0
LINE
  8
0
 10
19.3563
 20
-2.45383
 11
19.4038
 21
-2.36757
  0
LINE
  8
0
 10
19.4038
 20
-2.36757
 11
19.4153
 21
-2.34599
  0
LINE
  8
0
 10
19.4153
 20
-2.34599
 11
19.4604
 21
-2.25897
  0
LINE
  8
0
 10
19.4604
 20
-2.25897
 11
19.4715
 21
-2.23708
  0
LINE
  8
0
 10
19.4715
 20
-2.23708
 11
19.5145
 21
-2.14902
  0
LINE
  8
0
 10
19.5145
 20
-2.14902
 11
19.5249
 21
-2.12682
  0
LINE
  8
0
 10
19.5249
 20
-2.12682
 11
19.566
 21
-2.03728
  0
LINE
  8
0
 10
19.566
 20
-2.03728
 11
19.576
 21
-2.01466
  0
LINE
  8
0
 10
19.576
 20
-2.01466
 11
19.6146
 21
-1.92453
  0
LINE
  8
0
 10
19.6146
 20
-1.92453
 11
19.6239
 21
-1.90221
  0
LINE
  8
0
 10
19.6239
 20
-1.90221
 11
19.6604
 21
-1.81081
  0
LINE
  8
0
 10
19.6604
 20
-1.81081
 11
19.6694
 21
-1.78766
  0
LINE
  8
0
 10
19.6694
 20
-1.78766
 11
19.7034
 21
-1.69606
  0
LINE
  8
0
 10
19.7034
 20
-1.69606
 11
19.7117
 21
-1.67296
  0
LINE
  8
0
 10
19.7117
 20
-1.67296
 11
19.7435
 21
-1.58029
  0
LINE
  8
0
 10
19.7435
 20
-1.58029
 11
19.7512
 21
-1.55713
  0
LINE
  8
0
 10
19.7512
 20
-1.55713
 11
19.7809
 21
-1.46329
  0
LINE
  8
0
 10
19.7809
 20
-1.46329
 11
19.7881
 21
-1.43964
  0
LINE
  8
0
 10
19.7881
 20
-1.43964
 11
19.8156
 21
-1.34485
  0
LINE
  8
0
 10
19.8156
 20
-1.34485
 11
19.8221
 21
-1.32118
  0
LINE
  8
0
 10
19.8221
 20
-1.32118
 11
19.847
 21
-1.22696
  0
LINE
  8
0
 10
19.847
 20
-1.22696
 11
19.8529
 21
-1.20329
  0
LINE
  8
0
 10
19.8529
 20
-1.20329
 11
19.8757
 21
-1.10733
  0
LINE
  8
0
 10
19.8757
 20
-1.10733
 11
19.8811
 21
-1.08328
  0
LINE
  8
0
 10
19.8811
 20
-1.08328
 11
19.9014
 21
-0.987473
  0
LINE
  8
0
 10
19.9014
 20
-0.987473
 11
19.9062
 21
-0.963455
  0
LINE
  8
0
 10
19.9062
 20
-0.963455
 11
19.9242
 21
-0.86676
  0
LINE
  8
0
 10
19.9242
 20
-0.86676
 11
19.9284
 21
-0.842545
  0
LINE
  8
0
 10
19.9284
 20
-0.842545
 11
19.9439
 21
-0.745804
  0
LINE
  8
0
 10
19.9439
 20
-0.745804
 11
19.9475
 21
-0.721466
  0
LINE
  8
0
 10
19.9475
 20
-0.721466
 11
19.9607
 21
-0.624115
  0
LINE
  8
0
 10
19.9607
 20
-0.624115
 11
19.9637
 21
-0.600006
  0
LINE
  8
0
 10
19.9637
 20
-0.600006
 11
19.9746
 21
-0.502335
  0
LINE
  8
0
 10
19.9746
 20
-0.502335
 11
19.977
 21
-0.477707
  0
LINE
  8
0
 10
19.977
 20
-0.477707
 11
19.9854
 21
-0.380402
  0
LINE
  8
0
 10
19.9854
 20
-0.380402
 11
19.9872
 21
-0.355835
  0
LINE
  8
0
 10
19.9872
 20
-0.355835
 11
19.9932
 21
-0.257538
  0
LINE
  8
0
 10
19.9932
 20
-0.257538
 11
19.9944
 21
-0.233185
  0
LINE
  8
0
 10
19.9944
 20
-0.233185
 11
19.998
 21
-0.13472
  0
LINE
  8
0
 10
19.998
 20
-0.13472
 11
19.9986
 21
-0.110184
  0
LINE
  8
0
 10
19.9986
 20
-0.110184
 11
19.9998
 21
-0.0123138
  0
LINE
  8
0
 10
19.9998
 20
-0.0123138
 11
19.9998
 21
0.0123138
  0
LINE
  8
0
 10
19.9998
 20
0.0123138
 11
19.9986
 21
0.110184
  0
LINE
  8
0
 10
19.9986
 20
0.110184
 11
19.998
 21
0.13472
  0
LINE
  8
0
 10
19.998
 20
0.13472
 11
19.9944
 21
0.233185
  0
LINE
  8
0
 10
19.9944
 20
0.233185
 11
19.9932
 21
0.257538
  0
LINE
  8
0
 10
19.9932
 20
0.257538
 11
19.9872
 21
0.355835
  0
LINE
  8
0
 10
19.9872
 20
0.355835
 11
19.9854
 21
0.380402
  0
LINE
  8
0
 10
19.9854
 20
0.380402
 11
19.977
 21
0.477707
  0
LINE
  8
0
 10
19.977
 20
0.477707
 11
19.9746
 21
0.502335
  0
LINE
  8
0
 10
19.9746
 20
0.502335
 11
19.9637
 21
0.600006
  0
LINE
  8
0
 10
19.9637
 20
0.600006
 11
19.9607
 21
0.624115
  0
LINE
  8
0
 10
19.9607
 20
0.624115
 11
19.9475
 21
0.721466
  0
LINE
  8
0
 10
19.9475
 20
0.721466
 11
19.9439
 21
0.745804
  0
LINE
  8
0
 10
19.9439
 20
0.745804
 11
19.9284
 21
0.842545
  0
LINE
  8
0
 10
19.9284
 20
0.842545
 11
19.9242
 21
0.86676
  0
LINE
  8
0
 10
19.9242
 20
0.86676
 11
19.9062
 21
0.963455
  0
LINE
  8
0
 10
19.9062
 20
0.963455
 11
19.9014
 21
0.987473
  0
LINE
  8
0
 10
19.9014
 20
0.987473
 11
19.8811
 21
1.08328
  0
LINE
  8
0
 10
19.8811
 20
1.08328
 11
19.8757
 21
1.10733
  0
LINE
  8
0
 10
19.8757
 20
1.10733
 11
19.8529
 21
1.20329
  0
LINE
  8
0
 10
19.8529
 20
1.20329
 11
19.847
 21
1.22696
  0
LINE
  8
0
 10
19.847
 20
1.22696
 11
19.8221
 21
1.32118
  0
LINE
  8
0
 10
19.8221
 20
1.32118
 11
19.8156
 21
1.34485
  0
LINE
  8
0
 10
19.8156
 20
1.34485
 11
19.7881
 21
1.43964
  0
LINE
  8
0
 10
19.7881
 20
1.43964
 11
19.7809
 21
1.46329
  0
LINE
  8
0
 10
19.7809
 20
1.46329
 11
19.7512
 21
1.55713
  0
LINE
  8
0
 10
19.7512
 20
1.55713
 11
19.7435
 21
1.58029
  0
LINE
  8
0
 10
19.7435
 20
1.58029
 11
19.7117
 21
1.67296
  0
LINE
  8
0
 10
19.7117
 20
1.67296
 11
19.7034
 21
1.69606
  0
LINE
  8
0
 10
19.7034
 20
1.69606
 11
19.6694
 21
1.78766
  0
LINE
  8
0
 10
19.6694
 20
1.78766
 11
19.6604
 21
1.81081
  0
LINE
  8
0
 10
19.6604
 20
1.81081
 11
19.6239
 21
1.90221
  0
LINE
  8
0
 10
19.6239
 20
1.90221
 11
19.6146
 21
1.92453
  0
LINE
  8
0
 10
19.6146
 20
1.92453
 11
19.576
 21
2.01466
  0
LINE
  8
0
 10
19.576
 20
2.01466
 11
19.566
 21
2.03728
  0
LINE
  8
0
 10
19.566
 20
2.03728
 11
19.5249
 21
2.12682
  0
LINE
  8
0
 10
19.5249
 20
2.12682
 11
19.5145
 21
2.14902
  0
LINE
  8
0
 10
19.5145
 20
2.14902
 11
19.4715
 21
2.23708
  0
LINE
  8
0
 10
19.4715
 20
2.23708
 11
19.4604
 21
2.25897
  0
LINE
  8
0
 10
19.4604
 20
2.25897
 11
19.4153
 21
2.34599
  0
LINE
  8
0
 10
19.4153
 20
2.34599
 11
19.4038
 21
2.36757
  0
LINE
  8
0
 10
19.4038
 20
2.36757
 11
19.3563
 21
2.45383
  0
LINE
  8
0
 10
19.3563
 20
2.45383
 11
19.3442
 21
2.47514
  0
LINE
  8
0
 10
19.3442
 20
2.47514
 11
19.2949
 21
2.55975
  0
LINE
  8
0
 10
19.2949
 20
2.55975
 11
19.2822
 21
2.58095
  0
LINE
  8
0
 10
19.2822
 20
2.58095
 11
19.2307
 21
2.66461
  0
LINE
  8
0
 10
19.2307
 20
2.66461
 11
19.2175
 21
2.68538
  0
LINE
  8
0
 10
19.2175
 20
2.68538
 11
19.1642
 21
2.76733
  0
LINE
  8
0
 10
19.1642
 20
2.76733
 11
19.1506
 21
2.78764
  0
LINE
  8
0
 10
19.1506
 20
2.78764
 11
19.0948
 21
2.869
  0
LINE
  8
0
 10
19.0948
 20
2.869
 11
19.0807
 21
2.88904
  0
LINE
  8
0
 10
19.0807
 20
2.88904
 11
19.0233
 21
2.96844
  0
LINE
  8
0
 10
19.0233
 20
2.96844
 11
19.0087
 21
2.98817
  0
LINE
  8
0
 10
19.0087
 20
2.98817
 11
18.9492
 21
3.06638
  0
LINE
  8
0
 10
18.9492
 20
3.06638
 11
18.934
 21
3.08583
  0
LINE
  8
0
 10
18.934
 20
3.08583
 11
18.8728
 21
3.16225
  0
LINE
  8
0
 10
18.8728
 20
3.16225
 11
18.8573
 21
3.18112
  0
LINE
  8
0
 10
18.8573
 20
3.18112
 11
18.7938
 21
3.25664
  0
LINE
  8
0
 10
18.7938
 20
3.25664
 11
18.7777
 21
3.27525
  0
LINE
  8
0
 10
18.7777
 20
3.27525
 11
18.7128
 21
3.34869
  0
LINE
  8
0
 10
18.7128
 20
3.34869
 11
18.6964
 21
3.36682
  0
LINE
  8
0
 10
18.6964
 20
3.36682
 11
18.6296
 21
3.43866
  0
LINE
  8
0
 10
18.6296
 20
3.43866
 11
18.6127
 21
3.45645
  0
LINE
  8
0
 10
18.6127
 20
3.45645
 11
18.5441
 21
3.52672
  0
LINE
  8
0
 10
18.5441
 20
3.52672
 11
18.5267
 21
3.54413
  0
LINE
  8
0
 10
18.5267
 20
3.54413
 11
18.4565
 21
3.61269
  0
LINE
  8
0
 10
18.4565
 20
3.61269
 11
18.4387
 21
3.62962
  0
LINE
  8
0
 10
18.4387
 20
3.62962
 11
18.3668
 21
3.69635
  0
LINE
  8
0
 10
18.3668
 20
3.69635
 11
18.3487
 21
3.71278
  0
LINE
  8
0
 10
18.3487
 20
3.71278
 11
18.2753
 21
3.77773
  0
LINE
  8
0
 10
18.2753
 20
3.77773
 11
18.2566
 21
3.79378
  0
LINE
  8
0
 10
18.2566
 20
3.79378
 11
18.1811
 21
3.85732
  0
LINE
  8
0
 10
18.1811
 20
3.85732
 11
18.1622
 21
3.8728
  0
LINE
  8
0
 10
18.1622
 20
3.8728
 11
18.0858
 21
3.93398
  0
LINE
  8
0
 10
18.0858
 20
3.93398
 11
18.0664
 21
3.94917
  0
LINE
  8
0
 10
18.0664
 20
3.94917
 11
17.9882
 21
4.00867
  0
LINE
  8
0
 10
17.9882
 20
4.00867
 11
17.9684
 21
4.02328
  0
LINE
  8
0
 10
17.9684
 20
4.02328
 11
17.889
 21
4.08067
  0
LINE
  8
0
 10
17.889
 20
4.08067
 11
17.869
 21
4.09479
  0
LINE
  8
0
 10
17.869
 20
4.09479
 11
17.7876
 21
4.1506
  0
LINE
  8
0
 10
17.7876
 20
4.1506
 11
17.7673
 21
4.16417
  0
LINE
  8
0
 10
17.7673
 20
4.16417
 11
17.6854
 21
4.2175
  0
LINE
  8
0
 10
17.6854
 20
4.2175
 11
17.6646
 21
4.23065
  0
LINE
  8
0
 10
17.6646
 20
4.23065
 11
17.5809
 21
4.28221
  0
LINE
  8
0
 10
17.5809
 20
4.28221
 11
17.5598
 21
4.29492
  0
LINE
  8
0
 10
17.5598
 20
4.29492
 11
17.4751
 21
4.34422
  0
LINE
  8
0
 10
17.4751
 20
4.34422
 11
17.4538
 21
4.35629
  0
LINE
  8
0
 10
17.4538
 20
4.35629
 11
17.3676
 21
4.40376
  0
LINE
  8
0
 10
17.3676
 20
4.40376
 11
17.346
 21
4.4153
  0
LINE
  8
0
 10
17.346
 20
4.4153
 11
17.259
 21
4.46045
  0
LINE
  8
0
 10
17.259
 20
4.46045
 11
17.2371
 21
4.47147
  0
LINE
  8
0
 10
17.2371
 20
4.47147
 11
17.149
 21
4.51445
  0
LINE
  8
0
 10
17.149
 20
4.51445
 11
17.1268
 21
4.52495
  0
LINE
  8
0
 10
17.1268
 20
4.52495
 11
17.0373
 21
4.56596
  0
LINE
  8
0
 10
17.0373
 20
4.56596
 11
17.0147
 21
4.57599
  0
LINE
  8
0
 10
17.0147
 20
4.57599
 11
16.9245
 21
4.61461
  0
LINE
  8
0
 10
16.9245
 20
4.61461
 11
16.9022
 21
4.62386
  0
LINE
  8
0
 10
16.9022
 20
4.62386
 11
16.8108
 21
4.66043
  0
LINE
  8
0
 10
16.8108
 20
4.66043
 11
16.7877
 21
4.66936
  0
LINE
  8
0
 10
16.7877
 20
4.66936
 11
16.6922
 21
4.70482
  0
LINE
  8
0
 10
16.6922
 20
4.70482
 11
16.6772
 21
4.71028
  0
LINE
  8
0
 10
16.6772
 20
4.71028
 11
3.37268
 21
9.41409
  0
LINE
  8
0
 10
3.37268
 20
9.41409
 11
3.36465
 21
9.4169
  0
LINE
  8
0
 10
3.36465
 20
9.4169
 11
3.14873
 21
9.49118
  0
LINE
  8
0
 10
3.14873
 20
9.49118
 11
3.12549
 21
9.49886
  0
LINE
  8
0
 10
3.12549
 20
9.49886
 11
2.91466
 21
9.56566
  0
LINE
  8
0
 10
2.91466
 20
9.56566
 11
2.89108
 21
9.5728
  0
LINE
  8
0
 10
2.89108
 20
9.5728
 11
2.67859
 21
9.63441
  0
LINE
  8
0
 10
2.67859
 20
9.63441
 11
2.65497
 21
9.64096
  0
LINE
  8
0
 10
2.65497
 20
9.64096
 11
2.44164
 21
9.69719
  0
LINE
  8
0
 10
2.44164
 20
9.69719
 11
2.41785
 21
9.70314
  0
LINE
  8
0
 10
2.41785
 20
9.70314
 11
2.20282
 21
9.75421
  0
LINE
  8
0
 10
2.20282
 20
9.75421
 11
2.17885
 21
9.7596
  0
LINE
  8
0
 10
2.17885
 20
9.7596
 11
1.96312
 21
9.80527
  0
LINE
  8
0
 10
1.96312
 20
9.80527
 11
1.93903
 21
9.81006
  0
LINE
  8
0
 10
1.93903
 20
9.81006
 11
1.72165
 21
9.85052
  0
LINE
  8
0
 10
1.72165
 20
9.85052
 11
1.69751
 21
9.85472
  0
LINE
  8
0
 10
1.69751
 20
9.85472
 11
1.4796
 21
9.88979
  0
LINE
  8
0
 10
1.4796
 20
9.88979
 11
1.45532
 21
9.89339
  0
LINE
  8
0
 10
1.45532
 20
9.89339
 11
1.23628
 21
9.92314
  0
LINE
  8
0
 10
1.23628
 20
9.92314
 11
1.2119
 21
9.92615
  0
LINE
  8
0
 10
1.2119
 20
9.92615
 11
1.11021
 21
9.93742
  0
LINE
  8
0
 10
1.11021
 20
9.93742
 11
1.0858
 21
9.93982
  0
LINE
  8
0
 10
1.0858
 20
9.93982
 11
1.06131
 21
9.94164
  0
LINE
  8
0
 10
1.06131
 20
9.94164
 11
1.0368
 21
9.94284
  0
LINE
  8
0
 10
1.0368
 20
9.94284
 11
1.01227
 21
9.94344
  0
LINE
  8
0
 10
1.01227
 20
9.94344
 11
0.987732
 21
9.94344
  0
LINE
  8
0
 10
0.987732
 20
9.94344
 11
0.963196
 21
9.94284
  0
LINE
  8
0
 10
0.963196
 20
9.94284
 11
0.938675
 21
9.94164
  0
LINE
  8
0
 10
0.938675
 20
9.94164
 11
0.9142
 21
9.93982
  0
LINE
  8
0
 10
0.9142
 20
9.93982
 11
0.889771
 21
9.93742
  0
LINE
  8
0
 10
0.889771
 20
9.93742
 11
0.865417
 21
9.93442
  0
LINE
  8
0
 10
0.865417
 20
9.93442
 11
0.841141
 21
9.93082
  0
LINE
  8
0
 10
0.841141
 20
9.93082
 11
0.816956
 21
9.92662
  0
LINE
  8
0
 10
0.816956
 20
9.92662
 11
0.792892
 21
9.92183
  0
LINE
  8
0
 10
0.792892
 20
9.92183
 11
0.768936
 21
9.91646
  0
LINE
  8
0
 10
0.768936
 20
9.91646
 11
0.745132
 21
9.91049
  0
LINE
  8
0
 10
0.745132
 20
9.91049
 11
0.721481
 21
9.90395
  0
LINE
  8
0
 10
0.721481
 20
9.90395
 11
0.697998
 21
9.89682
  0
LINE
  8
0
 10
0.697998
 20
9.89682
 11
0.674683
 21
9.88911
  0
LINE
  8
0
 10
0.674683
 20
9.88911
 11
0.651581
 21
9.88084
  0
LINE
  8
0
 10
0.651581
 20
9.88084
 11
0.628677
 21
9.87201
  0
LINE
  8
0
 10
0.628677
 20
9.87201
 11
0.606003
 21
9.86263
  0
LINE
  8
0
 10
0.606003
 20
9.86263
 11
0.583572
 21
9.85268
  0
LINE
  8
0
 10
0.583572
 20
9.85268
 11
0.561386
 21
9.84218
  0
LINE
  8
0
 10
0.561386
 20
9.84218
 11
0.539459
 21
9.83115
  0
LINE
  8
0
 10
0.539459
 20
9.83115
 11
0.517807
 21
9.81958
  0
LINE
  8
0
 10
0.517807
 20
9.81958
 11
0.49646
 21
9.80748
  0
LINE
  8
0
 10
0.49646
 20
9.80748
 11
0.475403
 21
9.79486
  0
LINE
  8
0
 10
0.475403
 20
9.79486
 11
0.454666
 21
9.78174
  0
LINE
  8
0
 10
0.454666
 20
9.78174
 11
0.434265
 21
9.7681
  0
LINE
  8
0
 10
0.434265
 20
9.7681
 11
0.4142
 21
9.75397
  0
LINE
  8
0
 10
0.4142
 20
9.75397
 11
0.394485
 21
9.73935
  0
LINE
  8
0
 10
0.394485
 20
9.73935
 11
0.375137
 21
9.72424
  0
LINE
  8
0
 10
0.375137
 20
9.72424
 11
0.356171
 21
9.70868
  0
LINE
  8
0
 10
0.356171
 20
9.70868
 11
0.337585
 21
9.69264
  0
LINE
  8
0
 10
0.337585
 20
9.69264
 11
0.319397
 21
9.67616
  0
LINE
  8
0
 10
0.319397
 20
9.67616
 11
0.30162
 21
9.65924
  0
LINE
  8
0
 10
0.30162
 20
9.65924
 11
0.284271
 21
9.64189
  0
LINE
  8
0
 10
0.284271
 20
9.64189
 11
0.267349
 21
9.62411
  0
LINE
  8
0
 10
0.267349
 20
9.62411
 11
0.250854
 21
9.60593
  0
LINE
  8
0
 10
0.250854
 20
9.60593
 11
0.234833
 21
9.58734
  0
LINE
  8
0
 10
0.234833
 20
9.58734
 11
0.219254
 21
9.56837
  0
LINE
  8
0
 10
0.219254
 20
9.56837
 11
0.204163
 21
9.54903
  0
LINE
  8
0
 10
0.204163
 20
9.54903
 11
0.189545
 21
9.52931
  0
LINE
  8
0
 10
0.189545
 20
9.52931
 11
0.175415
 21
9.50925
  0
LINE
  8
0
 10
0.175415
 20
9.50925
 11
0.161774
 21
9.48883
  0
LINE
  8
0
 10
0.161774
 20
9.48883
 11
0.148636
 21
9.46809
  0
LINE
  8
0
 10
0.148636
 20
9.46809
 11
0.136032
 21
9.44705
  0
LINE
  8
0
 10
0.136032
 20
9.44705
 11
0.123932
 21
9.42569
  0
LINE
  8
0
 10
0.123932
 20
9.42569
 11
0.112366
 21
9.40405
  0
LINE
  8
0
 10
0.112366
 20
9.40405
 11
0.101318
 21
9.38213
  0
LINE
  8
0
 10
0.101318
 20
9.38213
 11
0.0908356
 21
9.35994
  0
LINE
  8
0
 10
0.0908356
 20
9.35994
 11
0.0808868
 21
9.33749
  0
LINE
  8
0
 10
0.0808868
 20
9.33749
 11
0.0714874
 21
9.31482
  0
LINE
  8
0
 10
0.0714874
 20
9.31482
 11
0.0626526
 21
9.29193
  0
LINE
  8
0
 10
0.0626526
 20
9.29193
 11
0.0543976
 21
9.26881
  0
LINE
  8
0
 10
0.0543976
 20
9.26881
 11
0.0466919
 21
9.24551
  0
LINE
  8
0
 10
0.0466919
 20
9.24551
 11
0.039566
 21
9.22203
  0
LINE
  8
0
 10
0.039566
 20
9.22203
 11
0.03302
 21
9.19838
  0
LINE
  8
0
 10
0.03302
 20
9.19838
 11
0.0270538
 21
9.17456
  0
LINE
  8
0
 10
0.0270538
 20
9.17456
 11
0.0216827
 21
9.15062
  0
LINE
  8
0
 10
0.0216827
 20
9.15062
 11
0.0168915
 21
9.12654
  0
LINE
  8
0
 10
0.0168915
 20
9.12654
 11
0.0126953
 21
9.10237
  0
LINE
  8
0
 10
0.0126953
 20
9.10237
 11
0.00909424
 21
9.07809
  0
LINE
  8
0
 10
0.00909424
 20
9.07809
 11
0.00608826
 21
9.05373
  0
LINE
  8
0
 10
0.00608826
 20
9.05373
 11
0.00369263
 21
9.02931
  0
LINE
  8
0
 10
0.00369263
 20
9.02931
 11
0.00187683
 21
9.00482
  0
LINE
  8
0
 10
0.00187683
 20
9.00482
 11
0.000671387
 21
8.98032
  0
LINE
  8
0
 10
0.000671387
 20
8.98032
 11
0
 21
8.94351
  0
LINE
  8
0
 10
0
 20
8.94351
 11
0
 21
7.93709
  0
LINE
  8
0
 10
0
 20
7.93709
 11
0.000305176
 21
7.91255
  0
LINE
  8
0
 10
0.000305176
 20
7.91255
 11
0.00120544
 21
7.88802
  0
LINE
  8
0
 10
0.00120544
 20
7.88802
 11
0.00271606
 21
7.86353
  0
LINE
  8
0
 10
0.00271606
 20
7.86353
 11
0.00482178
 21
7.83907
  0
LINE
  8
0
 10
0.00482178
 20
7.83907
 11
0.00752258
 21
7.81468
  0
LINE
  8
0
 10
0.00752258
 20
7.81468
 11
0.0108185
 21
7.79036
  0
LINE
  8
0
 10
0.0108185
 20
7.79036
 11
0.0147247
 21
7.76613
  0
LINE
  8
0
 10
0.0147247
 20
7.76613
 11
0.0192108
 21
7.742
  0
LINE
  8
0
 10
0.0192108
 20
7.742
 11
0.024292
 21
7.71799
  0
LINE
  8
0
 10
0.024292
 20
7.71799
 11
0.0299683
 21
7.69411
  0
LINE
  8
0
 10
0.0299683
 20
7.69411
 11
0.0362244
 21
7.67038
  0
LINE
  8
0
 10
0.0362244
 20
7.67038
 11
0.0430603
 21
7.6468
  0
LINE
  8
0
 10
0.0430603
 20
7.6468
 11
0.0504761
 21
7.62341
  0
LINE
  8
0
 10
0.0504761
 20
7.62341
 11
0.0584564
 21
7.6002
  0
LINE
  8
0
 10
0.0584564
 20
7.6002
 11
0.0670013
 21
7.57719
  0
LINE
  8
0
 10
0.0670013
 20
7.57719
 11
0.0761261
 21
7.5544
  0
LINE
  8
0
 10
0.0761261
 20
7.5544
 11
0.0857849
 21
7.53185
  0
LINE
  8
0
 10
0.0857849
 20
7.53185
 11
0.0960083
 21
7.50954
  0
LINE
  8
0
 10
0.0960083
 20
7.50954
 11
0.106781
 21
7.48747
  0
LINE
  8
0
 10
0.106781
 20
7.48747
 11
0.118073
 21
7.4657
  0
LINE
  8
0
 10
0.118073
 20
7.4657
 11
0.129913
 21
7.44418
  0
LINE
  8
0
 10
0.129913
 20
7.44418
 11
0.142273
 21
7.42299
  0
LINE
  8
0
 10
0.142273
 20
7.42299
 11
0.155151
 21
7.40208
  0
LINE
  8
0
 10
0.155151
 20
7.40208
 11
0.168533
 21
7.38152
  0
LINE
  8
0
 10
0.168533
 20
7.38152
 11
0.182419
 21
7.36128
  0
LINE
  8
0
 10
0.182419
 20
7.36128
 11
0.196793
 21
7.34138
  0
LINE
  8
0
 10
0.196793
 20
7.34138
 11
0.211655
 21
7.32185
  0
LINE
  8
0
 10
0.211655
 20
7.32185
 11
0.22699
 21
7.30269
  0
LINE
  8
0
 10
0.22699
 20
7.30269
 11
0.242798
 21
7.28392
  0
LINE
  8
0
 10
0.242798
 20
7.28392
 11
0.259048
 21
7.26553
  0
LINE
  8
0
 10
0.259048
 20
7.26553
 11
0.275757
 21
7.24754
  0
LINE
  8
0
 10
0.275757
 20
7.24754
 11
0.292892
 21
7.22998
  0
LINE
  8
0
 10
0.292892
 20
7.22998
 11
0.310455
 21
7.21284
  0
LINE
  8
0
 10
0.310455
 20
7.21284
 11
0.328445
 21
7.19614
  0
LINE
  8
0
 10
0.328445
 20
7.19614
 11
0.346832
 21
7.17989
  0
LINE
  8
0
 10
0.346832
 20
7.17989
 11
0.365601
 21
7.16408
  0
LINE
  8
0
 10
0.365601
 20
7.16408
 11
0.384766
 21
7.14874
  0
LINE
  8
0
 10
0.384766
 20
7.14874
 11
0.404297
 21
7.13388
  0
LINE
  8
0
 10
0.404297
 20
7.13388
 11
0.424194
 21
7.11951
  0
LINE
  8
0
 10
0.424194
 20
7.11951
 11
0.444427
 21
7.10562
  0
LINE
  8
0
 10
0.444427
 20
7.10562
 11
0.464996
 21
7.09224
  0
LINE
  8
0
 10
0.464996
 20
7.09224
 11
0.485901
 21
7.07936
  0
LINE
  8
0
 10
0.485901
 20
7.07936
 11
0.507095
 21
7.067
  0
LINE
  8
0
 10
0.507095
 20
7.067
 11
0.52861
 21
7.05516
  0
LINE
  8
0
 10
0.52861
 20
7.05516
 11
0.550385
 21
7.04387
  0
LINE
  8
0
 10
0.550385
 20
7.04387
 11
0.572449
 21
7.0331
  0
LINE
  8
0
 10
0.572449
 20
7.0331
 11
0.594757
 21
7.02287
  0
LINE
  8
0
 10
0.594757
 20
7.02287
 11
0.61731
 21
7.01321
  0
LINE
  8
0
 10
0.61731
 20
7.01321
 11
0.640106
 21
7.00409
  0
LINE
  8
0
 10
0.640106
 20
7.00409
 11
0.663116
 21
6.99554
  0
LINE
  8
0
 10
0.663116
 20
6.99554
 11
0.686325
 21
6.98756
  0
LINE
  8
0
 10
0.686325
 20
6.98756
 11
0.709717
 21
6.98015
  0
LINE
  8
0
 10
0.709717
 20
6.98015
 11
0.733292
 21
6.97331
  0
LINE
  8
0
 10
0.733292
 20
6.97331
 11
0.757019
 21
6.96706
  0
LINE
  8
0
 10
0.757019
 20
6.96706
 11
0.780899
 21
6.96138
  0
LINE
  8
0
 10
0.780899
 20
6.96138
 11
0.804916
 21
6.9563
  0
LINE
  8
0
 10
0.804916
 20
6.9563
 11
0.829041
 21
6.95181
  0
LINE
  8
0
 10
0.829041
 20
6.95181
 11
0.865417
 21
6.94618
  0
LINE
  8
0
 10
0.865417
 20
6.94618
 11
1.02115
 21
6.92503
  0
LINE
  8
0
 10
1.02115
 20
6.92503
 11
1.03349
 21
6.9232
  0
LINE
  8
0
 10
1.03349
 20
6.9232
 11
1.19038
 21
6.89796
  0
LINE
  8
0
 10
1.19038
 20
6.89796
 11
1.20264
 21
6.89584
  0
LINE
  8
0
 10
1.20264
 20
6.89584
 11
1.35966
 21
6.86661
  0
LINE
  8
0
 10
1.35966
 20
6.86661
 11
1.37163
 21
6.86423
  0
LINE
  8
0
 10
1.37163
 20
6.86423
 11
1.52744
 21
6.83124
  0
LINE
  8
0
 10
1.52744
 20
6.83124
 11
1.5399
 21
6.82843
  0
LINE
  8
0
 10
1.5399
 20
6.82843
 11
1.6951
 21
6.79156
  0
LINE
  8
0
 10
1.6951
 20
6.79156
 11
1.70657
 21
6.7887
  0
LINE
  8
0
 10
1.70657
 20
6.7887
 11
1.8611
 21
6.74799
  0
LINE
  8
0
 10
1.8611
 20
6.74799
 11
1.87309
 21
6.74466
  0
LINE
  8
0
 10
1.87309
 20
6.74466
 11
2.02577
 21
6.70038
  0
LINE
  8
0
 10
2.02577
 20
6.70038
 11
2.03801
 21
6.69667
  0
LINE
  8
0
 10
2.03801
 20
6.69667
 11
2.18965
 21
6.64862
  0
LINE
  8
0
 10
2.18965
 20
6.64862
 11
2.20197
 21
6.64455
  0
LINE
  8
0
 10
2.20197
 20
6.64455
 11
2.35262
 21
6.59273
  0
LINE
  8
0
 10
2.35262
 20
6.59273
 11
2.36339
 21
6.58888
  0
LINE
  8
0
 10
2.36339
 20
6.58888
 11
2.5141
 21
6.53287
  0
LINE
  8
0
 10
2.5141
 20
6.53287
 11
2.52466
 21
6.52878
  0
LINE
  8
0
 10
2.52466
 20
6.52878
 11
2.67346
 21
6.46927
  0
LINE
  8
0
 10
2.67346
 20
6.46927
 11
2.68388
 21
6.46495
  0
LINE
  8
0
 10
2.68388
 20
6.46495
 11
2.83118
 21
6.40182
  0
LINE
  8
0
 10
2.83118
 20
6.40182
 11
2.84221
 21
6.39693
  0
LINE
  8
0
 10
2.84221
 20
6.39693
 11
2.98726
 21
6.33047
  0
LINE
  8
0
 10
2.98726
 20
6.33047
 11
2.99875
 21
6.32504
  0
LINE
  8
0
 10
2.99875
 20
6.32504
 11
3.14114
 21
6.25555
  0
LINE
  8
0
 10
3.14114
 20
6.25555
 11
3.15292
 21
6.24963
  0
LINE
  8
0
 10
3.15292
 20
6.24963
 11
3.29439
 21
6.17624
  0
LINE
  8
0
 10
3.29439
 20
6.17624
 11
3.30562
 21
6.17023
  0
LINE
  8
0
 10
3.30562
 20
6.17023
 11
3.44467
 21
6.0937
  0
LINE
  8
0
 10
3.44467
 20
6.0937
 11
3.45563
 21
6.08749
  0
LINE
  8
0
 10
3.45563
 20
6.08749
 11
3.59358
 21
6.00708
  0
LINE
  8
0
 10
3.59358
 20
6.00708
 11
3.60406
 21
6.00079
  0
LINE
  8
0
 10
3.60406
 20
6.00079
 11
3.73932
 21
5.91745
  0
LINE
  8
0
 10
3.73932
 20
5.91745
 11
3.75038
 21
5.91046
  0
LINE
  8
0
 10
3.75038
 20
5.91046
 11
3.88354
 21
5.82382
  0
LINE
  8
0
 10
3.88354
 20
5.82382
 11
3.89415
 21
5.81673
  0
LINE
  8
0
 10
3.89415
 20
5.81673
 11
4.02591
 21
5.72635
  0
LINE
  8
0
 10
4.02591
 20
5.72635
 11
4.03519
 21
5.71982
  0
LINE
  8
0
 10
4.03519
 20
5.71982
 11
4.1656
 21
5.62555
  0
LINE
  8
0
 10
4.1656
 20
5.62555
 11
4.17413
 21
5.61923
  0
LINE
  8
0
 10
4.17413
 20
5.61923
 11
4.30179
 21
5.52208
  0
LINE
  8
0
 10
4.30179
 20
5.52208
 11
4.31139
 21
5.51459
  0
LINE
  8
0
 10
4.31139
 20
5.51459
 11
4.4362
 21
5.4147
  0
LINE
  8
0
 10
4.4362
 20
5.4147
 11
4.44508
 21
5.40742
  0
LINE
  8
0
 10
4.44508
 20
5.40742
 11
4.5675
 21
5.30443
  0
LINE
  8
0
 10
4.5675
 20
5.30443
 11
4.57697
 21
5.29625
  0
LINE
  8
0
 10
4.57697
 20
5.29625
 11
4.69658
 21
5.19049
  0
LINE
  8
0
 10
4.69658
 20
5.19049
 11
4.70529
 21
5.18257
  0
LINE
  8
0
 10
4.70529
 20
5.18257
 11
4.82214
 21
5.07404
  0
LINE
  8
0
 10
4.82214
 20
5.07404
 11
4.83127
 21
5.06534
  0
LINE
  8
0
 10
4.83127
 20
5.06534
 11
4.94533
 21
4.95404
  0
LINE
  8
0
 10
4.94533
 20
4.95404
 11
4.95404
 21
4.94533
  0
LINE
  8
0
 10
4.95404
 20
4.94533
 11
5.06534
 21
4.83127
  0
LINE
  8
0
 10
5.06534
 20
4.83127
 11
5.07404
 21
4.82214
  0
LINE
  8
0
 10
5.07404
 20
4.82214
 11
5.18257
 21
4.70529
  0
LINE
  8
0
 10
5.18257
 20
4.70529
 11
5.19049
 21
4.69658
  0
LINE
  8
0
 10
5.19049
 20
4.69658
 11
5.29625
 21
4.57697
  0
LINE
  8
0
 10
5.29625
 20
4.57697
 11
5.30443
 21
4.5675
  0
LINE
  8
0
 10
5.30443
 20
4.5675
 11
5.40742
 21
4.44508
  0
LINE
  8
0
 10
5.40742
 20
4.44508
 11
5.4147
 21
4.4362
  0
LINE
  8
0
 10
5.4147
 20
4.4362
 11
5.51459
 21
4.31139
  0
LINE
  8
0
 10
5.51459
 20
4.31139
 11
5.52208
 21
4.30179
  0
LINE
  8
0
 10
5.52208
 20
4.30179
 11
5.61923
 21
4.17413
  0
LINE
  8
0
 10
5.61923
 20
4.17413
 11
5.62555
 21
4.1656
  0
LINE
  8
0
 10
5.62555
 20
4.1656
 11
5.71982
 21
4.03519
  0
LINE
  8
0
 10
5.71982
 20
4.03519
 11
5.72635
 21
4.02591
  0
LINE
  8
0
 10
5.72635
 20
4.02591
 11
5.81673
 21
3.89415
  0
LINE
  8
0
 10
5.81673
 20
3.89415
 11
5.82382
 21
3.88354
  0
LINE
  8
0
 10
5.82382
 20
3.88354
 11
5.91046
 21
3.75038
  0
LINE
  8
0
 10
5.91046
 20
3.75038
 11
5.91745
 21
3.73932
  0
LINE
  8
0
 10
5.91745
 20
3.73932
 11
6.00079
 21
3.60406
  0
LINE
  8
0
 10
6.00079
 20
3.60406
 11
6.00708
 21
3.59358
  0
LINE
  8
0
 10
6.00708
 20
3.59358
 11
6.08749
 21
3.45563
  0
LINE
  8
0
 10
6.08749
 20
3.45563
 11
6.0937
 21
3.44467
  0
LINE
  8
0
 10
6.0937
 20
3.44467
 11
6.17023
 21
3.30562
  0
LINE
  8
0
 10
6.17023
 20
3.30562
 11
6.17636
 21
3.29414
  0
LINE
  8
0
 10
6.17636
 20
3.29414
 11
6.24963
 21
3.15292
  0
LINE
  8
0
 10
6.24963
 20
3.15292
 11
6.25555
 21
3.14114
  0
LINE
  8
0
 10
6.25555
 20
3.14114
 11
6.32504
 21
2.99875
  0
LINE
  8
0
 10
6.32504
 20
2.99875
 11
6.33047
 21
2.98726
  0
LINE
  8
0
 10
6.33047
 20
2.98726
 11
6.39693
 21
2.84221
  0
LINE
  8
0
 10
6.39693
 20
2.84221
 11
6.40182
 21
2.83118
  0
LINE
  8
0
 10
6.40182
 20
2.83118
 11
6.46495
 21
2.68388
  0
LINE
  8
0
 10
6.46495
 20
2.68388
 11
6.46927
 21
2.67346
  0
LINE
  8
0
 10
6.46927
 20
2.67346
 11
6.52878
 21
2.52466
  0
LINE
  8
0
 10
6.52878
 20
2.52466
 11
6.53287
 21
2.5141
  0
LINE
  8
0
 10
6.53287
 20
2.5141
 11
6.58888
 21
2.36339
  0
LINE
  8
0
 10
6.58888
 20
2.36339
 11
6.59273
 21
2.35262
  0
LINE
  8
0
 10
6.59273
 20
2.35262
 11
6.64455
 21
2.20197
  0
LINE
  8
0
 10
6.64455
 20
2.20197
 11
6.64862
 21
2.18965
  0
LINE
  8
0
 10
6.64862
 20
2.18965
 11
6.69667
 21
2.03801
  0
LINE
  8
0
 10
6.69667
 20
2.03801
 11
6.70038
 21
2.02577
  0
LINE
  8
0
 10
6.70038
 20
2.02577
 11
6.74466
 21
1.87309
  0
LINE
  8
0
 10
6.74466
 20
1.87309
 11
6.74799
 21
1.8611
  0
LINE
  8
0
 10
6.74799
 20
1.8611
 11
6.7887
 21
1.70657
  0
LINE
  8
0
 10
6.7887
 20
1.70657
 11
6.79156
 21
1.6951
  0
LINE
  8
0
 10
6.79156
 20
1.6951
 11
6.82843
 21
1.5399
  0
LINE
  8
0
 10
6.82843
 20
1.5399
 11
6.83124
 21
1.52744
  0
LINE
  8
0
 10
6.83124
 20
1.52744
 11
6.86423
 21
1.37163
  0
LINE
  8
0
 10
6.86423
 20
1.37163
 11
6.86661
 21
1.35966
  0
LINE
  8
0
 10
6.86661
 20
1.35966
 11
6.89584
 21
1.20264
  0
LINE
  8
0
 10
6.89584
 20
1.20264
 11
6.89796
 21
1.19038
  0
LINE
  8
0
 10
6.89796
 20
1.19038
 11
6.9232
 21
1.03349
  0
LINE
  8
0
 10
6.9232
 20
1.03349
 11
6.92505
 21
1.021
  0
LINE
  8
0
 10
6.92505
 20
1.021
 11
6.94661
 21
0.862259
  0
LINE
  8
0
 10
6.94661
 20
0.862259
 11
6.94794
 21
0.851562
  0
LINE
  8
0
 10
6.94794
 20
0.851562
 11
6.96558
 21
0.692383
  0
LINE
  8
0
 10
6.96558
 20
0.692383
 11
6.96686
 21
0.679459
  0
LINE
  8
0
 10
6.96686
 20
0.679459
 11
6.98042
 21
0.52182
  0
LINE
  8
0
 10
6.98042
 20
0.52182
 11
6.98145
 21
0.50795
  0
LINE
  8
0
 10
6.98145
 20
0.50795
 11
6.9912
 21
0.349365
  0
LINE
  8
0
 10
6.9912
 20
0.349365
 11
6.99176
 21
0.337997
  0
LINE
  8
0
 10
6.99176
 20
0.337997
 11
6.99765
 21
0.178131
  0
LINE
  8
0
 10
6.99765
 20
0.178131
 11
6.99796
 21
0.165222
  0
LINE
  8
0
 10
6.99796
 20
0.165222
 11
6.99992
 21
0.00617981
  0
LINE
  8
0
 10
6.99992
 20
0.00617981
 11
6.99992
 21
-0.00617981
  0
LINE
  8
0
 10
6.99992
 20
-0.00617981
 11
6.99796
 21
-0.165222
  0
LINE
  8
0
 10
6.99796
 20
-0.165222
 11
6.99765
 21
-0.178131
  0
LINE
  8
0
 10
6.99765
 20
-0.178131
 11
6.99176
 21
-0.337997
  0
LINE
  8
0
 10
6.99176
 20
-0.337997
 11
6.9912
 21
-0.349365
  0
LINE
  8
0
 10
6.9912
 20
-0.349365
 11
6.98145
 21
-0.50795
  0
LINE
  8
0
 10
6.98145
 20
-0.50795
 11
6.98042
 21
-0.52182
  0
LINE
  8
0
 10
6.98042
 20
-0.52182
 11
6.96686
 21
-0.679459
  0
LINE
  8
0
 10
6.96686
 20
-0.679459
 11
6.96558
 21
-0.692383
  0
LINE
  8
0
 10
6.96558
 20
-0.692383
 11
6.94794
 21
-0.851562
  0
LINE
  8
0
 10
6.94794
 20
-0.851562
 11
6.94661
 21
-0.862259
  0
LINE
  8
0
 10
6.94661
 20
-0.862259
 11
6.92505
 21
-1.021
  0
LINE
  8
0
 10
6.92505
 20
-1.021
 11
6.9232
 21
-1.03349
  0
LINE
  8
0
 10
6.9232
 20
-1.03349
 11
6.89796
 21
-1.19038
  0
LINE
  8
0
 10
6.89796
 20
-1.19038
 11
6.89572
 21
-1.20329
  0
LINE
  8
0
 10
6.89572
 20
-1.20329
 11
6.86661
 21
-1.35966
  0
LINE
  8
0
 10
6.86661
 20
-1.35966
 11
6.86423
 21
-1.37163
  0
LINE
  8
0
 10
6.86423
 20
-1.37163
 11
6.83124
 21
-1.52744
  0
LINE
  8
0
 10
6.83124
 20
-1.52744
 11
6.82843
 21
-1.5399
  0
LINE
  8
0
 10
6.82843
 20
-1.5399
 11
6.79156
 21
-1.6951
  0
LINE
  8
0
 10
6.79156
 20
-1.6951
 11
6.7887
 21
-1.70657
  0
LINE
  8
0
 10
6.7887
 20
-1.70657
 11
6.74799
 21
-1.8611
  0
LINE
  8
0
 10
6.74799
 20
-1.8611
 11
6.74466
 21
-1.87309
  0
LINE
  8
0
 10
6.74466
 20
-1.87309
 11
6.70038
 21
-2.02577
  0
LINE
  8
0
 10
6.70038
 20
-2.02577
 11
6.69667
 21
-2.03801
  0
LINE
  8
0
 10
6.69667
 20
-2.03801
 11
6.64862
 21
-2.18965
  0
LINE
  8
0
 10
6.64862
 20
-2.18965
 11
6.64455
 21
-2.20197
  0
LINE
  8
0
 10
6.64455
 20
-2.20197
 11
6.59273
 21
-2.35262
  0
LINE
  8
0
 10
6.59273
 20
-2.35262
 11
6.58888
 21
-2.36339
  0
LINE
  8
0
 10
6.58888
 20
-2.36339
 11
6.53287
 21
-2.5141
  0
LINE
  8
0
 10
6.53287
 20
-2.5141
 11
6.52878
 21
-2.52466
  0
LINE
  8
0
 10
6.52878
 20
-2.52466
 11
6.46927
 21
-2.67346
  0
LINE
  8
0
 10
6.46927
 20
-2.67346
 11
6.46495
 21
-2.68388
  0
LINE
  8
0
 10
6.46495
 20
-2.68388
 11
6.40182
 21
-2.83118
  0
LINE
  8
0
 10
6.40182
 20
-2.83118
 11
6.39693
 21
-2.84221
  0
LINE
  8
0
 10
6.39693
 20
-2.84221
 11
6.33047
 21
-2.98726
  0
LINE
  8
0
 10
6.33047
 20
-2.98726
 11
6.32504
 21
-2.99875
  0
LINE
  8
0
 10
6.32504
 20
-2.99875
 11
6.25555
 21
-3.14114
  0
LINE
  8
0
 10
6.25555
 20
-3.14114
 11
6.24963
 21
-3.15292
  0
LINE
  8
0
 10
6.24963
 20
-3.15292
 11
6.17636
 21
-3.29414
  0
LINE
  8
0
 10
6.17636
 20
-3.29414
 11
6.17023
 21
-3.30562
  0
LINE
  8
0
 10
6.17023
 20
-3.30562
 11
6.0937
 21
-3.44467
  0
LINE
  8
0
 10
6.0937
 20
-3.44467
 11
6.08702
 21
-3.45645
  0
LINE
  8
0
 10
6.08702
 20
-3.45645
 11
6.00708
 21
-3.59358
  0
LINE
  8
0
 10
6.00708
 20
-3.59358
 11
6.00079
 21
-3.60406
  0
LINE
  8
0
 10
6.00079
 20
-3.60406
 11
5.91745
 21
-3.73932
  0
LINE
  8
0
 10
5.91745
 20
-3.73932
 11
5.91046
 21
-3.75038
  0
LINE
  8
0
 10
5.91046
 20
-3.75038
 11
5.82382
 21
-3.88354
  0
LINE
  8
0
 10
5.82382
 20
-3.88354
 11
5.81673
 21
-3.89415
  0
LINE
  8
0
 10
5.81673
 20
-3.89415
 11
5.72635
 21
-4.02591
  0
LINE
  8
0
 10
5.72635
 20
-4.02591
 11
5.71982
 21
-4.03519
  0
LINE
  8
0
 10
5.71982
 20
-4.03519
 11
5.62555
 21
-4.1656
  0
LINE
  8
0
 10
5.62555
 20
-4.1656
 11
5.61923
 21
-4.17413
  0
LINE
  8
0
 10
5.61923
 20
-4.17413
 11
5.52208
 21
-4.30179
  0
LINE
  8
0
 10
5.52208
 20
-4.30179
 11
5.51459
 21
-4.31139
  0
LINE
  8
0
 10
5.51459
 20
-4.31139
 11
5.4147
 21
-4.4362
  0
LINE
  8
0
 10
5.4147
 20
-4.4362
 11
5.40742
 21
-4.44508
  0
LINE
  8
0
 10
5.40742
 20
-4.44508
 11
5.30443
 21
-4.5675
  0
LINE
  8
0
 10
5.30443
 20
-4.5675
 11
5.29625
 21
-4.57697
  0
LINE
  8
0
 10
5.29625
 20
-4.57697
 11
5.19049
 21
-4.69658
  0
LINE
  8
0
 10
5.19049
 20
-4.69658
 11
5.18257
 21
-4.70529
  0
LINE
  8
0
 10
5.18257
 20
-4.70529
 11
5.07404
 21
-4.82214
  0
LINE
  8
0
 10
5.07404
 20
-4.82214
 11
5.06534
 21
-4.83127
  0
LINE
  8
0
 10
5.06534
 20
-4.83127
 11
4.95404
 21
-4.94533
  0
LINE
  8
0
 10
4.95404
 20
-4.94533
 11
4.94533
 21
-4.95404
  0
LINE
  8
0
 10
4.94533
 20
-4.95404
 11
4.83127
 21
-5.06534
  0
LINE
  8
0
 10
4.83127
 20
-5.06534
 11
4.82214
 21
-5.07404
  0
LINE
  8
0
 10
4.82214
 20
-5.07404
 11
4.70529
 21
-5.18257
  0
LINE
  8
0
 10
4.70529
 20
-5.18257
 11
4.69658
 21
-5.19049
  0
LINE
  8
0
 10
4.69658
 20
-5.19049
 11
4.57697
 21
-5.29625
  0
LINE
  8
0
 10
4.57697
 20
-5.29625
 11
4.5675
 21
-5.30443
  0
LINE
  8
0
 10
4.5675
 20
-5.30443
 11
4.44508
 21
-5.40742
  0
LINE
  8
0
 10
4.44508
 20
-5.40742
 11
4.4362
 21
-5.4147
  0
LINE
  8
0
 10
4.4362
 20
-5.4147
 11
4.31139
 21
-5.51459
  0
LINE
  8
0
 10
4.31139
 20
-5.51459
 11
4.30179
 21
-5.52208
  0
LINE
  8
0
 10
4.30179
 20
-5.52208
 11
4.17413
 21
-5.61923
  0
LINE
  8
0
 10
4.17413
 20
-5.61923
 11
4.1656
 21
-5.62555
  0
LINE
  8
0
 10
4.1656
 20
-5.62555
 11
4.03519
 21
-5.71982
  0
LINE
  8
0
 10
4.03519
 20
-5.71982
 11
4.02591
 21
-5.72635
  0
LINE
  8
0
 10
4.02591
 20
-5.72635
 11
3.89415
 21
-5.81673
  0
LINE
  8
0
 10
3.89415
 20
-5.81673
 11
3.88354
 21
-5.82382
  0
LINE
  8
0
 10
3.88354
 20
-5.82382
 11
3.75038
 21
-5.91046
  0
LINE
  8
0
 10
3.75038
 20
-5.91046
 11
3.73932
 21
-5.91745
  0
LINE
  8
0
 10
3.73932
 20
-5.91745
 11
3.60406
 21
-6.00079
  0
LINE
  8
0
 10
3.60406
 20
-6.00079
 11
3.59358
 21
-6.00708
  0
LINE
  8
0
 10
3.59358
 20
-6.00708
 11
3.45563
 21
-6.08749
  0
LINE
  8
0
 10
3.45563
 20
-6.08749
 11
3.44467
 21
-6.0937
  0
LINE
  8
0
 10
3.44467
 20
-6.0937
 11
3.30562
 21
-6.17023
  0
LINE
  8
0
 10
3.30562
 20
-6.17023
 11
3.29414
 21
-6.17636
  0
LINE
  8
0
 10
3.29414
 20
-6.17636
 11
3.15292
 21
-6.24963
  0
LINE
  8
0
 10
3.15292
 20
-6.24963
 11
3.14114
 21
-6.25555
  0
LINE
  8
0
 10
3.14114
 20
-6.25555
 11
2.99875
 21
-6.32504
  0
LINE
  8
0
 10
2.99875
 20
-6.32504
 11
2.98726
 21
-6.33047
  0
LINE
  8
0
 10
2.98726
 20
-6.33047
 11
2.84221
 21
-6.39693
  0
LINE
  8
0
 10
2.84221
 20
-6.39693
 11
2.83118
 21
-6.40182
  0
LINE
  8
0
 10
2.83118
 20
-6.40182
 11
2.68388
 21
-6.46495
  0
LINE
  8
0
 10
2.68388
 20
-6.46495
 11
2.67346
 21
-6.46927
  0
LINE
  8
0
 10
2.67346
 20
-6.46927
 11
2.52466
 21
-6.52878
  0
LINE
  8
0
 10
2.52466
 20
-6.52878
 11
2.5141
 21
-6.53287
  0
LINE
  8
0
 10
2.5141
 20
-6.53287
 11
2.36339
 21
-6.58888
  0
LINE
  8
0
 10
2.36339
 20
-6.58888
 11
2.35262
 21
-6.59273
  0
LINE
  8
0
 10
2.35262
 20
-6.59273
 11
2.20197
 21
-6.64455
  0
LINE
  8
0
 10
2.20197
 20
-6.64455
 11
2.18965
 21
-6.64862
  0
LINE
  8
0
 10
2.18965
 20
-6.64862
 11
2.03801
 21
-6.69667
  0
LINE
  8
0
 10
2.03801
 20
-6.69667
 11
2.02577
 21
-6.70038
  0
LINE
  8
0
 10
2.02577
 20
-6.70038
 11
1.87309
 21
-6.74466
  0
LINE
  8
0
 10
1.87309
 20
-6.74466
 11
1.8611
 21
-6.74799
  0
LINE
  8
0
 10
1.8611
 20
-6.74799
 11
1.70657
 21
-6.7887
  0
LINE
  8
0
 10
1.70657
 20
-6.7887
 11
1.6951
 21
-6.79156
  0
LINE
  8
0
 10
1.6951
 20
-6.79156
 11
1.5399
 21
-6.82843
  0
LINE
  8
0
 10
1.5399
 20
-6.82843
 11
1.52744
 21
-6.83124
  0
LINE
  8
0
 10
1.52744
 20
-6.83124
 11
1.37163
 21
-6.86423
  0
LINE
  8
0
 10
1.37163
 20
-6.86423
 11
1.35966
 21
-6.86661
  0
LINE
  8
0
 10
1.35966
 20
-6.86661
 11
1.20264
 21
-6.89584
  0
LINE
  8
0
 10
1.20264
 20
-6.89584
 11
1.19038
 21
-6.89796
  0
LINE
  8
0
 10
1.19038
 20
-6.89796
 11
1.03349
 21
-6.9232
  0
LINE
  8
0
 10
1.03349
 20
-6.9232
 11
1.02115
 21
-6.92503
  0
LINE
  8
0
 10
1.02115
 20
-6.92503
 11
0.865417
 21
-6.94618
  0
LINE
  8
0
 10
0.865417
 20
-6.94618
 11
0.841141
 21
-6.94978
  0
LINE
  8
0
 10
0.841141
 20
-6.94978
 11
0.816956
 21
-6.95398
  0
LINE
  8
0
 10
0.816956
 20
-6.95398
 11
0.792892
 21
-6.95877
  0
LINE
  8
0
 10
0.792892
 20
-6.95877
 11
0.768936
 21
-6.96414
  0
LINE
  8
0
 10
0.768936
 20
-6.96414
 11
0.745132
 21
-6.97011
  0
LINE
  8
0
 10
0.745132
 20
-6.97011
 11
0.721481
 21
-6.97665
  0
LINE
  8
0
 10
0.721481
 20
-6.97665
 11
0.697998
 21
-6.98378
  0
LINE
  8
0
 10
0.697998
 20
-6.98378
 11
0.674683
 21
-6.99149
  0
LINE
  8
0
 10
0.674683
 20
-6.99149
 11
0.651581
 21
-6.99976
  0
LINE
  8
0
 10
0.651581
 20
-6.99976
 11
0.628677
 21
-7.00858
  0
LINE
  8
0
 10
0.628677
 20
-7.00858
 11
0.606003
 21
-7.01797
  0
LINE
  8
0
 10
0.606003
 20
-7.01797
 11
0.583572
 21
-7.02792
  0
LINE
  8
0
 10
0.583572
 20
-7.02792
 11
0.561386
 21
-7.03842
  0
LINE
  8
0
 10
0.561386
 20
-7.03842
 11
0.539459
 21
-7.04945
  0
LINE
  8
0
 10
0.539459
 20
-7.04945
 11
0.517807
 21
-7.06102
  0
LINE
  8
0
 10
0.517807
 20
-7.06102
 11
0.49646
 21
-7.07312
  0
LINE
  8
0
 10
0.49646
 20
-7.07312
 11
0.475403
 21
-7.08574
  0
LINE
  8
0
 10
0.475403
 20
-7.08574
 11
0.454666
 21
-7.09886
  0
LINE
  8
0
 10
0.454666
 20
-7.09886
 11
0.434265
 21
-7.1125
  0
LINE
  8
0
 10
0.434265
 20
-7.1125
 11
0.4142
 21
-7.12663
  0
LINE
  8
0
 10
0.4142
 20
-7.12663
 11
0.394485
 21
-7.14125
  0
LINE
  8
0
 10
0.394485
 20
-7.14125
 11
0.375137
 21
-7.15636
  0
LINE
  8
0
 10
0.375137
 20
-7.15636
 11
0.356171
 21
-7.17192
  0
LINE
  8
0
 10
0.356171
 20
-7.17192
 11
0.337585
 21
-7.18796
  0
LINE
  8
0
 10
0.337585
 20
-7.18796
 11
0.319397
 21
-7.20444
  0
LINE
  8
0
 10
0.319397
 20
-7.20444
 11
0.30162
 21
-7.22136
  0
LINE
  8
0
 10
0.30162
 20
-7.22136
 11
0.284271
 21
-7.23871
  0
LINE
  8
0
 10
0.284271
 20
-7.23871
 11
0.267349
 21
-7.25648
  0
LINE
  8
0
 10
0.267349
 20
-7.25648
 11
0.250854
 21
-7.27467
  0
LINE
  8
0
 10
0.250854
 20
-7.27467
 11
0.234833
 21
-7.29326
  0
LINE
  8
0
 10
0.234833
 20
-7.29326
 11
0.219269
 21
-7.31223
  0
LINE
  8
0
 10
0.219269
 20
-7.31223
 11
0.204163
 21
-7.33157
  0
LINE
  8
0
 10
0.204163
 20
-7.33157
 11
0.189545
 21
-7.35129
  0
LINE
  8
0
 10
0.189545
 20
-7.35129
 11
0.175415
 21
-7.37135
  0
LINE
  8
0
 10
0.175415
 20
-7.37135
 11
0.161774
 21
-7.39177
  0
LINE
  8
0
 10
0.161774
 20
-7.39177
 11
0.148651
 21
-7.41251
  0
LINE
  8
0
 10
0.148651
 20
-7.41251
 11
0.136032
 21
-7.43355
  0
LINE
  8
0
 10
0.136032
 20
-7.43355
 11
0.123932
 21
-7.45491
  0
LINE
  8
0
 10
0.123932
 20
-7.45491
 11
0.112366
 21
-7.47655
  0
LINE
  8
0
 10
0.112366
 20
-7.47655
 11
0.101318
 21
-7.49847
  0
LINE
  8
0
 10
0.101318
 20
-7.49847
 11
0.0908356
 21
-7.52066
  0
LINE
  8
0
 10
0.0908356
 20
-7.52066
 11
0.0808868
 21
-7.54309
  0
LINE
  8
0
 10
0.0808868
 20
-7.54309
 11
0.0714874
 21
-7.56578
  0
LINE
  8
0
 10
0.0714874
 20
-7.56578
 11
0.0626526
 21
-7.58867
  0
LINE
  8
0
 10
0.0626526
 20
-7.58867
 11
0.0543976
 21
-7.61179
  0
LINE
  8
0
 10
0.0543976
 20
-7.61179
 11
0.0466919
 21
-7.63509
  0
LINE
  8
0
 10
0.0466919
 20
-7.63509
 11
0.039566
 21
-7.65857
  0
LINE
  8
0
 10
0.039566
 20
-7.65857
 11
0.03302
 21
-7.68222
  0
LINE
  8
0
 10
0.03302
 20
-7.68222
 11
0.0270538
 21
-7.70604
  0
LINE
  8
0
 10
0.0270538
 20
-7.70604
 11
0.0216827
 21
-7.72998
  0
LINE
  8
0
 10
0.0216827
 20
-7.72998
 11
0.0168915
 21
-7.75404
  0
LINE
  8
0
 10
0.0168915
 20
-7.75404
 11
0.0126953
 21
-7.77823
  0
LINE
  8
0
 10
0.0126953
 20
-7.77823
 11
0.00909424
 21
-7.80251
  0
LINE
  8
0
 10
0.00909424
 20
-7.80251
 11
0.00608826
 21
-7.82687
  0
LINE
  8
0
 10
0.00608826
 20
-7.82687
 11
0.00369263
 21
-7.85129
  0
LINE
  8
0
 10
0.00369263
 20
-7.85129
 11
0.00187683
 21
-7.87576
  0
LINE
  8
0
 10
0.00187683
 20
-7.87576
 11
0.000671387
 21
-7.90028
  0
LINE
  8
0
 10
0.000671387
 20
-7.90028
 11
0
 21
-7.93709
  0
LINE
  8
0
 10
0
 20
-7.93709
 11
0
 21
-8.94351
  0
LINE
  8
0
 10
0
 20
-8.94351
 11
0.000305176
 21
-8.96805
  0
LINE
  8
0
 10
0.000305176
 20
-8.96805
 11
0.00120544
 21
-8.99258
  0
LINE
  8
0
 10
0.00120544
 20
-8.99258
 11
0.00271606
 21
-9.01707
  0
LINE
  8
0
 10
0.00271606
 20
-9.01707
 11
0.00482178
 21
-9.04153
  0
LINE
  8
0
 10
0.00482178
 20
-9.04153
 11
0.00752258
 21
-9.06592
  0
LINE
  8
0
 10
0.00752258
 20
-9.06592
 11
0.0108185
 21
-9.09024
  0
LINE
  8
0
 10
0.0108185
 20
-9.09024
 11
0.0147247
 21
-9.11447
  0
LINE
  8
0
 10
0.0147247
 20
-9.11447
 11
0.0192108
 21
-9.1386
  0
LINE
  8
0
 10
0.0192108
 20
-9.1386
 11
0.024292
 21
-9.16261
  0
LINE
  8
0
 10
0.024292
 20
-9.16261
 11
0.0299683
 21
-9.18649
  0
LINE
  8
0
 10
0.0299683
 20
-9.18649
 11
0.0362244
 21
-9.21022
  0
LINE
  8
0
 10
0.0362244
 20
-9.21022
 11
0.0430603
 21
-9.2338
  0
LINE
  8
0
 10
0.0430603
 20
-9.2338
 11
0.0504761
 21
-9.25719
  0
LINE
  8
0
 10
0.0504761
 20
-9.25719
 11
0.0584564
 21
-9.2804
  0
LINE
  8
0
 10
0.0584564
 20
-9.2804
 11
0.0670013
 21
-9.30341
  0
LINE
  8
0
 10
0.0670013
 20
-9.30341
 11
0.0761261
 21
-9.3262
  0
LINE
  8
0
 10
0.0761261
 20
-9.3262
 11
0.0857849
 21
-9.34875
  0
LINE
  8
0
 10
0.0857849
 20
-9.34875
 11
0.0960083
 21
-9.37106
  0
LINE
  8
0
 10
0.0960083
 20
-9.37106
 11
0.106781
 21
-9.39313
  0
LINE
  8
0
 10
0.106781
 20
-9.39313
 11
0.118073
 21
-9.4149
  0
LINE
  8
0
 10
0.118073
 20
-9.4149
 11
0.129913
 21
-9.43642
  0
LINE
  8
0
 10
0.129913
 20
-9.43642
 11
0.142273
 21
-9.45761
  0
LINE
  8
0
 10
0.142273
 20
-9.45761
 11
0.155151
 21
-9.47852
  0
LINE
  8
0
 10
0.155151
 20
-9.47852
 11
0.168533
 21
-9.49908
  0
LINE
  8
0
 10
0.168533
 20
-9.49908
 11
0.182419
 21
-9.51932
  0
LINE
  8
0
 10
0.182419
 20
-9.51932
 11
0.196793
 21
-9.53922
  0
LINE
  8
0
 10
0.196793
 20
-9.53922
 11
0.211655
 21
-9.55875
  0
LINE
  8
0
 10
0.211655
 20
-9.55875
 11
0.22699
 21
-9.57791
  0
LINE
  8
0
 10
0.22699
 20
-9.57791
 11
0.242798
 21
-9.59668
  0
LINE
  8
0
 10
0.242798
 20
-9.59668
 11
0.259048
 21
-9.61507
  0
LINE
  8
0
 10
0.259048
 20
-9.61507
 11
0.275757
 21
-9.63306
  0
LINE
  8
0
 10
0.275757
 20
-9.63306
 11
0.292892
 21
-9.65062
  0
LINE
  8
0
 10
0.292892
 20
-9.65062
 11
0.310455
 21
-9.66776
  0
LINE
  8
0
 10
0.310455
 20
-9.66776
 11
0.328445
 21
-9.68446
  0
LINE
  8
0
 10
0.328445
 20
-9.68446
 11
0.346832
 21
-9.70071
  0
LINE
  8
0
 10
0.346832
 20
-9.70071
 11
0.365601
 21
-9.71652
  0
LINE
  8
0
 10
0.365601
 20
-9.71652
 11
0.384766
 21
-9.73186
  0
LINE
  8
0
 10
0.384766
 20
-9.73186
 11
0.404297
 21
-9.74672
  0
LINE
  8
0
 10
0.404297
 20
-9.74672
 11
0.424194
 21
-9.76109
  0
LINE
  8
0
 10
0.424194
 20
-9.76109
 11
0.444427
 21
-9.77498
  0
LINE
  8
0
 10
0.444427
 20
-9.77498
 11
0.464996
 21
-9.78836
  0
LINE
  8
0
 10
0.464996
 20
-9.78836
 11
0.485901
 21
-9.80124
  0
LINE
  8
0
 10
0.485901
 20
-9.80124
 11
0.507095
 21
-9.8136
  0
LINE
  8
0
 10
0.507095
 20
-9.8136
 11
0.52861
 21
-9.82544
  0
LINE
  8
0
 10
0.52861
 20
-9.82544
 11
0.550385
 21
-9.83673
  0
LINE
  8
0
 10
0.550385
 20
-9.83673
 11
0.572449
 21
-9.8475
  0
LINE
  8
0
 10
0.572449
 20
-9.8475
 11
0.594757
 21
-9.85773
  0
LINE
  8
0
 10
0.594757
 20
-9.85773
 11
0.61731
 21
-9.86739
  0
LINE
  8
0
 10
0.61731
 20
-9.86739
 11
0.640106
 21
-9.87651
  0
LINE
  8
0
 10
0.640106
 20
-9.87651
 11
0.663116
 21
-9.88506
  0
LINE
  8
0
 10
0.663116
 20
-9.88506
 11
0.686325
 21
-9.89304
  0
LINE
  8
0
 10
0.686325
 20
-9.89304
 11
0.709717
 21
-9.90045
  0
LINE
  8
0
 10
0.709717
 20
-9.90045
 11
0.733292
 21
-9.90729
  0
LINE
  8
0
 10
0.733292
 20
-9.90729
 11
0.757019
 21
-9.91354
  0
LINE
  8
0
 10
0.757019
 20
-9.91354
 11
0.780899
 21
-9.91922
  0
LINE
  8
0
 10
0.780899
 20
-9.91922
 11
0.804916
 21
-9.9243
  0
LINE
  8
0
 10
0.804916
 20
-9.9243
 11
0.829041
 21
-9.92879
  0
LINE
  8
0
 10
0.829041
 20
-9.92879
 11
0.853271
 21
-9.93269
  0
LINE
  8
0
 10
0.853271
 20
-9.93269
 11
0.877594
 21
-9.93599
  0
LINE
  8
0
 10
0.877594
 20
-9.93599
 11
0.901978
 21
-9.93869
  0
LINE
  8
0
 10
0.901978
 20
-9.93869
 11
0.926437
 21
-9.9408
  0
LINE
  8
0
 10
0.926437
 20
-9.9408
 11
0.950928
 21
-9.94231
  0
LINE
  8
0
 10
0.950928
 20
-9.94231
 11
0.975464
 21
-9.94321
  0
LINE
  8
0
 10
0.975464
 20
-9.94321
 11
1
 21
-9.94351
  0
LINE
  8
0
 10
1
 20
-9.94351
 11
1.02454
 21
-9.94321
  0
ENDSEC
  0
SECTION
  2
OBJECTS
  0
DICTIONARY
  0
ENDSEC
  0
EOF
