  0
SECTION
  2
BLOCKS
  0
ENDSEC
  0
SECTION
  2
ENTITIES
  0
LINE
  8
0
 10
18.0491
 20
0.000595093
 11
18.0981
 21
0.00241089
  0
LINE
  8
0
 10
18.0981
 20
0.00241089
 11
18.1471
 21
0.00541687
  0
LINE
  8
0
 10
18.1471
 20
0.00541687
 11
18.196
 21
0.0096283
  0
LINE
  8
0
 10
18.196
 20
0.0096283
 11
18.2448
 21
0.0150452
  0
LINE
  8
0
 10
18.2448
 20
0.0150452
 11
18.2935
 21
0.0216522
  0
LINE
  8
0
 10
18.2935
 20
0.0216522
 11
18.3419
 21
0.0294495
  0
LINE
  8
0
 10
18.3419
 20
0.0294495
 11
18.3902
 21
0.0384369
  0
LINE
  8
0
 10
18.3902
 20
0.0384369
 11
18.4382
 21
0.0485992
  0
LINE
  8
0
 10
18.4382
 20
0.0485992
 11
18.486
 21
0.0599365
  0
LINE
  8
0
 10
18.486
 20
0.0599365
 11
18.5334
 21
0.0724487
  0
LINE
  8
0
 10
18.5334
 20
0.0724487
 11
18.5806
 21
0.0861206
  0
LINE
  8
0
 10
18.5806
 20
0.0861206
 11
18.6274
 21
0.100937
  0
LINE
  8
0
 10
18.6274
 20
0.100937
 11
18.6738
 21
0.116913
  0
LINE
  8
0
 10
18.6738
 20
0.116913
 11
18.7198
 21
0.134018
  0
LINE
  8
0
 10
18.7198
 20
0.134018
 11
18.7654
 21
0.152237
  0
LINE
  8
0
 10
18.7654
 20
0.152237
 11
18.8105
 21
0.171585
  0
LINE
  8
0
 10
18.8105
 20
0.171585
 11
18.8551
 21
0.192017
  0
LINE
  8
0
 10
18.8551
 20
0.192017
 11
18.8992
 21
0.213547
  0
LINE
  8
0
 10
18.8992
 20
0.213547
 11
18.9428
 21
0.23616
  0
LINE
  8
0
 10
18.9428
 20
0.23616
 11
18.9858
 21
0.259827
  0
LINE
  8
0
 10
18.9858
 20
0.259827
 11
19.0282
 21
0.284546
  0
LINE
  8
0
 10
19.0282
 20
0.284546
 11
19.07
 21
0.310287
  0
LINE
  8
0
 10
19.07
 20
0.310287
 11
19.1111
 21
0.337067
  0
LINE
  8
0
 10
19.1111
 20
0.337067
 11
19.1516
 21
0.364838
  0
LINE
  8
0
 10
19.1516
 20
0.364838
 11
19.1914
 21
0.393585
  0
LINE
  8
0
 10
19.1914
 20
0.393585
 11
19.2305
 21
0.423309
  0
LINE
  8
0
 10
19.2305
 20
0.423309
 11
19.2688
 21
0.453979
  0
LINE
  8
0
 10
19.2688
 20
0.453979
 11
19.3064
 21
0.48558
  0
LINE
  8
0
 10
19.3064
 20
0.48558
 11
19.3431
 21
0.518097
  0
LINE
  8
0
 10
19.3431
 20
0.518097
 11
19.3791
 21
0.551498
  0
LINE
  8
0
 10
19.3791
 20
0.551498
 11
19.4142
 21
0.585785
  0
LINE
  8
0
 10
19.4142
 20
0.585785
 11
19.4485
 21
0.620926
  0
LINE
  8
0
 10
19.4485
 20
0.620926
 11
19.4819
 21
0.656876
  0
LINE
  8
0
 10
19.4819
 20
0.656876
 11
19.5144
 21
0.693649
  0
LINE
  8
0
 10
19.5144
 20
0.693649
 11
19.546
 21
0.731216
  0
LINE
  8
0
 10
19.546
 20
0.731216
 11
19.5767
 21
0.769531
  0
LINE
  8
0
 10
19.5767
 20
0.769531
 11
19.6064
 21
0.808609
  0
LINE
  8
0
 10
19.6064
 20
0.808609
 11
19.6352
 21
0.848389
  0
LINE
  8
0
 10
19.6352
 20
0.848389
 11
19.6629
 21
0.888855
  0
LINE
  8
0
 10
19.6629
 20
0.888855
 11
19.6897
 21
0.930008
  0
LINE
  8
0
 10
19.6897
 20
0.930008
 11
19.7155
 21
0.971802
  0
LINE
  8
0
 10
19.7155
 20
0.971802
 11
19.7402
 21
1.01421
  0
LINE
  8
0
 10
19.7402
 20
1.01421
 11
19.7638
 21
1.05721
  0
LINE
  8
0
 10
19.7638
 20
1.05721
 11
19.7865
 21
1.10078
  0
LINE
  8
0
 10
19.7865
 20
1.10078
 11
19.808
 21
1.14488
  0
LINE
  8
0
 10
19.808
 20
1.14488
 11
19.8284
 21
1.18951
  0
LINE
  8
0
 10
19.8284
 20
1.18951
 11
19.8478
 21
1.23463
  0
LINE
  8
0
 10
19.8478
 20
1.23463
 11
19.866
 21
1.28021
  0
LINE
  8
0
 10
19.866
 20
1.28021
 11
19.8831
 21
1.32622
  0
LINE
  8
0
 10
19.8831
 20
1.32622
 11
19.8991
 21
1.37263
  0
LINE
  8
0
 10
19.8991
 20
1.37263
 11
19.9139
 21
1.41943
  0
LINE
  8
0
 10
19.9139
 20
1.41943
 11
19.9276
 21
1.46657
  0
LINE
  8
0
 10
19.9276
 20
1.46657
 11
19.9401
 21
1.51404
  0
LINE
  8
0
 10
19.9401
 20
1.51404
 11
19.9514
 21
1.5618
  0
LINE
  8
0
 10
19.9514
 20
1.5618
 11
19.9616
 21
1.60982
  0
LINE
  8
0
 10
19.9616
 20
1.60982
 11
19.9706
 21
1.65808
  0
LINE
  8
0
 10
19.9706
 20
1.65808
 11
19.9783
 21
1.70654
  0
LINE
  8
0
 10
19.9783
 20
1.70654
 11
19.985
 21
1.75517
  0
LINE
  8
0
 10
19.985
 20
1.75517
 11
19.9904
 21
1.80397
  0
LINE
  8
0
 10
19.9904
 20
1.80397
 11
19.9946
 21
1.85287
  0
LINE
  8
0
 10
19.9946
 20
1.85287
 11
19.9976
 21
1.90187
  0
LINE
  8
0
 10
19.9976
 20
1.90187
 11
19.9994
 21
1.95091
  0
LINE
  8
0
 10
19.9994
 20
1.95091
 11
20
 21
2
  0
LINE
  8
0
 10
20
 20
2
 11
20
 21
18
  0
LINE
  8
0
 10
20
 20
18
 11
19.9994
 21
18.0491
  0
LINE
  8
0
 10
19.9994
 20
18.0491
 11
19.9976
 21
18.0981
  0
LINE
  8
0
 10
19.9976
 20
18.0981
 11
19.9946
 21
18.1471
  0
LINE
  8
0
 10
19.9946
 20
18.1471
 11
19.9904
 21
18.196
  0
LINE
  8
0
 10
19.9904
 20
18.196
 11
19.985
 21
18.2448
  0
LINE
  8
0
 10
19.985
 20
18.2448
 11
19.9783
 21
18.2935
  0
LINE
  8
0
 10
19.9783
 20
18.2935
 11
19.9706
 21
18.3419
  0
LINE
  8
0
 10
19.9706
 20
18.3419
 11
19.9616
 21
18.3902
  0
LINE
  8
0
 10
19.9616
 20
18.3902
 11
19.9514
 21
18.4382
  0
LINE
  8
0
 10
19.9514
 20
18.4382
 11
19.9401
 21
18.486
  0
LINE
  8
0
 10
19.9401
 20
18.486
 11
19.9276
 21
18.5334
  0
LINE
  8
0
 10
19.9276
 20
18.5334
 11
19.9139
 21
18.5806
  0
LINE
  8
0
 10
19.9139
 20
18.5806
 11
19.8991
 21
18.6274
  0
LINE
  8
0
 10
19.8991
 20
18.6274
 11
19.8831
 21
18.6738
  0
LINE
  8
0
 10
19.8831
 20
18.6738
 11
19.866
 21
18.7198
  0
LINE
  8
0
 10
19.866
 20
18.7198
 11
19.8478
 21
18.7654
  0
LINE
  8
0
 10
19.8478
 20
18.7654
 11
19.8284
 21
18.8105
  0
LINE
  8
0
 10
19.8284
 20
18.8105
 11
19.808
 21
18.8551
  0
LINE
  8
0
 10
19.808
 20
18.8551
 11
19.7865
 21
18.8992
  0
LINE
  8
0
 10
19.7865
 20
18.8992
 11
19.7638
 21
18.9428
  0
LINE
  8
0
 10
19.7638
 20
18.9428
 11
19.7402
 21
18.9858
  0
LINE
  8
0
 10
19.7402
 20
18.9858
 11
19.7155
 21
19.0282
  0
LINE
  8
0
 10
19.7155
 20
19.0282
 11
19.6897
 21
19.07
  0
LINE
  8
0
 10
19.6897
 20
19.07
 11
19.6629
 21
19.1111
  0
LINE
  8
0
 10
19.6629
 20
19.1111
 11
19.6352
 21
19.1516
  0
LINE
  8
0
 10
19.6352
 20
19.1516
 11
19.6064
 21
19.1914
  0
LINE
  8
0
 10
19.6064
 20
19.1914
 11
19.5767
 21
19.2305
  0
LINE
  8
0
 10
19.5767
 20
19.2305
 11
19.546
 21
19.2688
  0
LINE
  8
0
 10
19.546
 20
19.2688
 11
19.5144
 21
19.3064
  0
LINE
  8
0
 10
19.5144
 20
19.3064
 11
19.4819
 21
19.3431
  0
LINE
  8
0
 10
19.4819
 20
19.3431
 11
19.4485
 21
19.3791
  0
LINE
  8
0
 10
19.4485
 20
19.3791
 11
19.4142
 21
19.4142
  0
LINE
  8
0
 10
19.4142
 20
19.4142
 11
19.3791
 21
19.4485
  0
LINE
  8
0
 10
19.3791
 20
19.4485
 11
19.3431
 21
19.4819
  0
LINE
  8
0
 10
19.3431
 20
19.4819
 11
19.3064
 21
19.5144
  0
LINE
  8
0
 10
19.3064
 20
19.5144
 11
19.2688
 21
19.546
  0
LINE
  8
0
 10
19.2688
 20
19.546
 11
19.2305
 21
19.5767
  0
LINE
  8
0
 10
19.2305
 20
19.5767
 11
19.1914
 21
19.6064
  0
LINE
  8
0
 10
19.1914
 20
19.6064
 11
19.1516
 21
19.6352
  0
LINE
  8
0
 10
19.1516
 20
19.6352
 11
19.1111
 21
19.6629
  0
LINE
  8
0
 10
19.1111
 20
19.6629
 11
19.07
 21
19.6897
  0
LINE
  8
0
 10
19.07
 20
19.6897
 11
19.0282
 21
19.7155
  0
LINE
  8
0
 10
19.0282
 20
19.7155
 11
18.9858
 21
19.7402
  0
LINE
  8
0
 10
18.9858
 20
19.7402
 11
18.9428
 21
19.7638
  0
LINE
  8
0
 10
18.9428
 20
19.7638
 11
18.8992
 21
19.7865
  0
LINE
  8
0
 10
18.8992
 20
19.7865
 11
18.8551
 21
19.808
  0
LINE
  8
0
 10
18.8551
 20
19.808
 11
18.8105
 21
19.8284
  0
LINE
  8
0
 10
18.8105
 20
19.8284
 11
18.7654
 21
19.8478
  0
LINE
  8
0
 10
18.7654
 20
19.8478
 11
18.7198
 21
19.866
  0
LINE
  8
0
 10
18.7198
 20
19.866
 11
18.6738
 21
19.8831
  0
LINE
  8
0
 10
18.6738
 20
19.8831
 11
18.6274
 21
19.8991
  0
LINE
  8
0
 10
18.6274
 20
19.8991
 11
18.5806
 21
19.9139
  0
LINE
  8
0
 10
18.5806
 20
19.9139
 11
18.5334
 21
19.9276
  0
LINE
  8
0
 10
18.5334
 20
19.9276
 11
18.486
 21
19.9401
  0
LINE
  8
0
 10
18.486
 20
19.9401
 11
18.4382
 21
19.9514
  0
LINE
  8
0
 10
18.4382
 20
19.9514
 11
18.3902
 21
19.9616
  0
LINE
  8
0
 10
18.3902
 20
19.9616
 11
18.3419
 21
19.9706
  0
LINE
  8
0
 10
18.3419
 20
19.9706
 11
18.2935
 21
19.9783
  0
LINE
  8
0
 10
18.2935
 20
19.9783
 11
18.2448
 21
19.985
  0
LINE
  8
0
 10
18.2448
 20
19.985
 11
18.196
 21
19.9904
  0
LINE
  8
0
 10
18.196
 20
19.9904
 11
18.1471
 21
19.9946
  0
LINE
  8
0
 10
18.1471
 20
19.9946
 11
18.0981
 21
19.9976
  0
LINE
  8
0
 10
18.0981
 20
19.9976
 11
18.0491
 21
19.9994
  0
LINE
  8
0
 10
18.0491
 20
19.9994
 11
18
 21
20
  0
LINE
  8
0
 10
18
 20
20
 11
2
 21
20
  0
LINE
  8
0
 10
2
 20
20
 11
1.95091
 21
19.9994
  0
LINE
  8
0
 10
1.95091
 20
19.9994
 11
1.90187
 21
19.9976
  0
LINE
  8
0
 10
1.90187
 20
19.9976
 11
1.85287
 21
19.9946
  0
LINE
  8
0
 10
1.85287
 20
19.9946
 11
1.80397
 21
19.9904
  0
LINE
  8
0
 10
1.80397
 20
19.9904
 11
1.75517
 21
19.985
  0
LINE
  8
0
 10
1.75517
 20
19.985
 11
1.70654
 21
19.9783
  0
LINE
  8
0
 10
1.70654
 20
19.9783
 11
1.65808
 21
19.9706
  0
LINE
  8
0
 10
1.65808
 20
19.9706
 11
1.60982
 21
19.9616
  0
LINE
  8
0
 10
1.60982
 20
19.9616
 11
1.5618
 21
19.9514
  0
LINE
  8
0
 10
1.5618
 20
19.9514
 11
1.51404
 21
19.9401
  0
LINE
  8
0
 10
1.51404
 20
19.9401
 11
1.46657
 21
19.9276
  0
LINE
  8
0
 10
1.46657
 20
19.9276
 11
1.41943
 21
19.9139
  0
LINE
  8
0
 10
1.41943
 20
19.9139
 11
1.37263
 21
19.8991
  0
LINE
  8
0
 10
1.37263
 20
19.8991
 11
1.32622
 21
19.8831
  0
LINE
  8
0
 10
1.32622
 20
19.8831
 11
1.28021
 21
19.866
  0
LINE
  8
0
 10
1.28021
 20
19.866
 11
1.23463
 21
19.8478
  0
LINE
  8
0
 10
1.23463
 20
19.8478
 11
1.18951
 21
19.8284
  0
LINE
  8
0
 10
1.18951
 20
19.8284
 11
1.14488
 21
19.808
  0
LINE
  8
0
 10
1.14488
 20
19.808
 11
1.10078
 21
19.7865
  0
LINE
  8
0
 10
1.10078
 20
19.7865
 11
1.05721
 21
19.7638
  0
LINE
  8
0
 10
1.05721
 20
19.7638
 11
1.01421
 21
19.7402
  0
LINE
  8
0
 10
1.01421
 20
19.7402
 11
0.971802
 21
19.7155
  0
LINE
  8
0
 10
0.971802
 20
19.7155
 11
0.930008
 21
19.6897
  0
LINE
  8
0
 10
0.930008
 20
19.6897
 11
0.888855
 21
19.6629
  0
LINE
  8
0
 10
0.888855
 20
19.6629
 11
0.848389
 21
19.6352
  0
LINE
  8
0
 10
0.848389
 20
19.6352
 11
0.808609
 21
19.6064
  0
LINE
  8
0
 10
0.808609
 20
19.6064
 11
0.769531
 21
19.5767
  0
LINE
  8
0
 10
0.769531
 20
19.5767
 11
0.731216
 21
19.546
  0
LINE
  8
0
 10
0.731216
 20
19.546
 11
0.693649
 21
19.5144
  0
LINE
  8
0
 10
0.693649
 20
19.5144
 11
0.656876
 21
19.4819
  0
LINE
  8
0
 10
0.656876
 20
19.4819
 11
0.620926
 21
19.4485
  0
LINE
  8
0
 10
0.620926
 20
19.4485
 11
0.585785
 21
19.4142
  0
LINE
  8
0
 10
0.585785
 20
19.4142
 11
0.551498
 21
19.3791
  0
LINE
  8
0
 10
0.551498
 20
19.3791
 11
0.518097
 21
19.3431
  0
LINE
  8
0
 10
0.518097
 20
19.3431
 11
0.48558
 21
19.3064
  0
LINE
  8
0
 10
0.48558
 20
19.3064
 11
0.453979
 21
19.2688
  0
LINE
  8
0
 10
0.453979
 20
19.2688
 11
0.423309
 21
19.2305
  0
LINE
  8
0
 10
0.423309
 20
19.2305
 11
0.393585
 21
19.1914
  0
LINE
  8
0
 10
0.393585
 20
19.1914
 11
0.364838
 21
19.1516
  0
LINE
  8
0
 10
0.364838
 20
19.1516
 11
0.337067
 21
19.1111
  0
LINE
  8
0
 10
0.337067
 20
19.1111
 11
0.310287
 21
19.07
  0
LINE
  8
0
 10
0.310287
 20
19.07
 11
0.284546
 21
19.0282
  0
LINE
  8
0
 10
0.284546
 20
19.0282
 11
0.259827
 21
18.9858
  0
LINE
  8
0
 10
0.259827
 20
18.9858
 11
0.23616
 21
18.9428
  0
LINE
  8
0
 10
0.23616
 20
18.9428
 11
0.213547
 21
18.8992
  0
LINE
  8
0
 10
0.213547
 20
18.8992
 11
0.192017
 21
18.8551
  0
LINE
  8
0
 10
0.192017
 20
18.8551
 11
0.171585
 21
18.8105
  0
LINE
  8
0
 10
0.171585
 20
18.8105
 11
0.152237
 21
18.7654
  0
LINE
  8
0
 10
0.152237
 20
18.7654
 11
0.134018
 21
18.7198
  0
LINE
  8
0
 10
0.134018
 20
18.7198
 11
0.116913
 21
18.6738
  0
LINE
  8
0
 10
0.116913
 20
18.6738
 11
0.100937
 21
18.6274
  0
LINE
  8
0
 10
0.100937
 20
18.6274
 11
0.0861206
 21
18.5806
  0
LINE
  8
0
 10
0.0861206
 20
18.5806
 11
0.0724487
 21
18.5334
  0
LINE
  8
0
 10
0.0724487
 20
18.5334
 11
0.0599365
 21
18.486
  0
LINE
  8
0
 10
0.0599365
 20
18.486
 11
0.0485992
 21
18.4382
  0
LINE
  8
0
 10
0.0485992
 20
18.4382
 11
0.0384369
 21
18.3902
  0
LINE
  8
0
 10
0.0384369
 20
18.3902
 11
0.0294495
 21
18.3419
  0
LINE
  8
0
 10
0.0294495
 20
18.3419
 11
0.0216522
 21
18.2935
  0
LINE
  8
0
 10
0.0216522
 20
18.2935
 11
0.0150452
 21
18.2448
  0
LINE
  8
0
 10
0.0150452
 20
18.2448
 11
0.0096283
 21
18.196
  0
LINE
  8
0
 10
0.0096283
 20
18.196
 11
0.00541687
 21
18.1471
  0
LINE
  8
0
 10
0.00541687
 20
18.1471
 11
0.00241089
 21
18.0981
  0
LINE
  8
0
 10
0.00241089
 20
18.0981
 11
0.000595093
 21
18.0491
  0
LINE
  8
0
 10
0.000595093
 20
18.0491
 11
0
 21
18
  0
LINE
  8
0
 10
0
 20
18
 11
0
 21
2
  0
LINE
  8
0
 10
0
 20
2
 11
0.000595093
 21
1.95091
  0
LINE
  8
0
 10
0.000595093
 20
1.95091
 11
0.00241089
 21
1.90187
  0
LINE
  8
0
 10
0.00241089
 20
1.90187
 11
0.00541687
 21
1.85287
  0
LINE
  8
0
 10
0.00541687
 20
1.85287
 11
0.0096283
 21
1.80397
  0
LINE
  8
0
 10
0.0096283
 20
1.80397
 11
0.0150452
 21
1.75517
  0
LINE
  8
0
 10
0.0150452
 20
1.75517
 11
0.0216522
 21
1.70654
  0
LINE
  8
0
 10
0.0216522
 20
1.70654
 11
0.0294495
 21
1.65808
  0
LINE
  8
0
 10
0.0294495
 20
1.65808
 11
0.0384369
 21
1.60982
  0
LINE
  8
0
 10
0.0384369
 20
1.60982
 11
0.0485992
 21
1.5618
  0
LINE
  8
0
 10
0.0485992
 20
1.5618
 11
0.0599365
 21
1.51404
  0
LINE
  8
0
 10
0.0599365
 20
1.51404
 11
0.0724487
 21
1.46657
  0
LINE
  8
0
 10
0.0724487
 20
1.46657
 11
0.0861206
 21
1.41943
  0
LINE
  8
0
 10
0.0861206
 20
1.41943
 11
0.100937
 21
1.37263
  0
LINE
  8
0
 10
0.100937
 20
1.37263
 11
0.116913
 21
1.32622
  0
LINE
  8
0
 10
0.116913
 20
1.32622
 11
0.134018
 21
1.28021
  0
LINE
  8
0
 10
0.134018
 20
1.28021
 11
0.152237
 21
1.23463
  0
LINE
  8
0
 10
0.152237
 20
1.23463
 11
0.171585
 21
1.18951
  0
LINE
  8
0
 10
0.171585
 20
1.18951
 11
0.192017
 21
1.14488
  0
LINE
  8
0
 10
0.192017
 20
1.14488
 11
0.213547
 21
1.10078
  0
LINE
  8
0
 10
0.213547
 20
1.10078
 11
0.23616
 21
1.05721
  0
LINE
  8
0
 10
0.23616
 20
1.05721
 11
0.259827
 21
1.01421
  0
LINE
  8
0
 10
0.259827
 20
1.01421
 11
0.284546
 21
0.971802
  0
LINE
  8
0
 10
0.284546
 20
0.971802
 11
0.310287
 21
0.930008
  0
LINE
  8
0
 10
0.310287
 20
0.930008
 11
0.337067
 21
0.888855
  0
LINE
  8
0
 10
0.337067
 20
0.888855
 11
0.364838
 21
0.848389
  0
LINE
  8
0
 10
0.364838
 20
0.848389
 11
0.393585
 21
0.808609
  0
LINE
  8
0
 10
0.393585
 20
0.808609
 11
0.423309
 21
0.769531
  0
LINE
  8
0
 10
0.423309
 20
0.769531
 11
0.453979
 21
0.731216
  0
LINE
  8
0
 10
0.453979
 20
0.731216
 11
0.48558
 21
0.693649
  0
LINE
  8
0
 10
0.48558
 20
0.693649
 11
0.518097
 21
0.656876
  0
LINE
  8
0
 10
0.518097
 20
0.656876
 11
0.551498
 21
0.620926
  0
LINE
  8
0
 10
0.551498
 20
0.620926
 11
0.585785
 21
0.585785
  0
LINE
  8
0
 10
0.585785
 20
0.585785
 11
0.620926
 21
0.551498
  0
LINE
  8
0
 10
0.620926
 20
0.551498
 11
0.656876
 21
0.518097
  0
LINE
  8
0
 10
0.656876
 20
0.518097
 11
0.693649
 21
0.48558
  0
LINE
  8
0
 10
0.693649
 20
0.48558
 11
0.731216
 21
0.453979
  0
LINE
  8
0
 10
0.731216
 20
0.453979
 11
0.769531
 21
0.423309
  0
LINE
  8
0
 10
0.769531
 20
0.423309
 11
0.808609
 21
0.393585
  0
LINE
  8
0
 10
0.808609
 20
0.393585
 11
0.848389
 21
0.364838
  0
LINE
  8
0
 10
0.848389
 20
0.364838
 11
0.888855
 21
0.337067
  0
LINE
  8
0
 10
0.888855
 20
0.337067
 11
0.930008
 21
0.310287
  0
LINE
  8
0
 10
0.930008
 20
0.310287
 11
0.971802
 21
0.284546
  0
LINE
  8
0
 10
0.971802
 20
0.284546
 11
1.01421
 21
0.259827
  0
LINE
  8
0
 10
1.01421
 20
0.259827
 11
1.05721
 21
0.23616
  0
LINE
  8
0
 10
1.05721
 20
0.23616
 11
1.10078
 21
0.213547
  0
LINE
  8
0
 10
1.10078
 20
0.213547
 11
1.14488
 21
0.192017
  0
LINE
  8
0
 10
1.14488
 20
0.192017
 11
1.18951
 21
0.171585
  0
LINE
  8
0
 10
1.18951
 20
0.171585
 11
1.23463
 21
0.152237
  0
LINE
  8
0
 10
1.23463
 20
0.152237
 11
1.28021
 21
0.134018
  0
LINE
  8
0
 10
1.28021
 20
0.134018
 11
1.32622
 21
0.116913
  0
LINE
  8
0
 10
1.32622
 20
0.116913
 11
1.37263
 21
0.100937
  0
LINE
  8
0
 10
1.37263
 20
0.100937
 11
1.41943
 21
0.0861206
  0
LINE
  8
0
 10
1.41943
 20
0.0861206
 11
1.46657
 21
0.0724487
  0
LINE
  8
0
 10
1.46657
 20
0.0724487
 11
1.51404
 21
0.0599365
  0
LINE
  8
0
 10
1.51404
 20
0.0599365
 11
1.5618
 21
0.0485992
  0
LINE
  8
0
 10
1.5618
 20
0.0485992
 11
1.60982
 21
0.0384369
  0
LINE
  8
0
 10
1.60982
 20
0.0384369
 11
1.65808
 21
0.0294495
  0
LINE
  8
0
 10
1.65808
 20
0.0294495
 11
1.70654
 21
0.0216522
  0
LINE
  8
0
 10
1.70654
 20
0.0216522
 11
1.75517
 21
0.0150452
  0
LINE
  8
0
 10
1.75517
 20
0.0150452
 11
1.80397
 21
0.0096283
  0
LINE
  8
0
 10
1.80397
 20
0.0096283
 11
1.85287
 21
0.00541687
  0
LINE
  8
0
 10
1.85287
 20
0.00541687
 11
1.90187
 21
0.00241089
  0
LINE
  8
0
 10
1.90187
 20
0.00241089
 11
1.95091
 21
0.000595093
  0
LINE
  8
0
 10
1.95091
 20
0.000595093
 11
2
 21
0
  0
LINE
  8
0
 10
2
 20
0
 11
18
 21
0
  0
LINE
  8
0
 10
18
 20
0
 11
18.0491
 21
0.000595093
  0
LINE
  8
0
 10
10.8773
 20
6.0015
 11
10.7547
 21
6.00601
  0
LINE
  8
0
 10
10.7547
 20
6.00601
 11
10.6322
 21
6.01353
  0
LINE
  8
0
 10
10.6322
 20
6.01353
 11
10.5099
 21
6.02406
  0
LINE
  8
0
 10
10.5099
 20
6.02406
 11
10.3879
 21
6.0376
  0
LINE
  8
0
 10
10.3879
 20
6.0376
 11
10.2663
 21
6.05411
  0
LINE
  8
0
 10
10.2663
 20
6.05411
 11
10.1452
 21
6.07361
  0
LINE
  8
0
 10
10.1452
 20
6.07361
 11
10.0245
 21
6.09607
  0
LINE
  8
0
 10
10.0245
 20
6.09607
 11
9.90448
 21
6.12148
  0
LINE
  8
0
 10
9.90448
 20
6.12148
 11
9.7851
 21
6.14984
  0
LINE
  8
0
 10
9.7851
 20
6.14984
 11
9.66643
 21
6.18111
  0
LINE
  8
0
 10
9.66643
 20
6.18111
 11
9.54857
 21
6.21529
  0
LINE
  8
0
 10
9.54857
 20
6.21529
 11
9.43158
 21
6.25235
  0
LINE
  8
0
 10
9.43158
 20
6.25235
 11
9.31554
 21
6.29227
  0
LINE
  8
0
 10
9.31554
 20
6.29227
 11
9.20052
 21
6.33502
  0
LINE
  8
0
 10
9.20052
 20
6.33502
 11
9.08658
 21
6.3806
  0
LINE
  8
0
 10
9.08658
 20
6.3806
 11
8.97379
 21
6.42894
  0
LINE
  8
0
 10
8.97379
 20
6.42894
 11
8.86221
 21
6.48004
  0
LINE
  8
0
 10
8.86221
 20
6.48004
 11
8.75194
 21
6.53387
  0
LINE
  8
0
 10
8.75194
 20
6.53387
 11
8.64301
 21
6.59039
  0
LINE
  8
0
 10
8.64301
 20
6.59039
 11
8.53551
 21
6.64955
  0
LINE
  8
0
 10
8.53551
 20
6.64955
 11
8.42947
 21
6.71135
  0
LINE
  8
0
 10
8.42947
 20
6.71135
 11
8.325
 21
6.77573
  0
LINE
  8
0
 10
8.325
 20
6.77573
 11
8.22214
 21
6.84265
  0
LINE
  8
0
 10
8.22214
 20
6.84265
 11
8.12096
 21
6.91206
  0
LINE
  8
0
 10
8.12096
 20
6.91206
 11
8.0215
 21
6.98395
  0
LINE
  8
0
 10
8.0215
 20
6.98395
 11
7.92383
 21
7.05826
  0
LINE
  8
0
 10
7.92383
 20
7.05826
 11
7.82803
 21
7.13493
  0
LINE
  8
0
 10
7.82803
 20
7.13493
 11
7.73413
 21
7.21394
  0
LINE
  8
0
 10
7.73413
 20
7.21394
 11
7.6422
 21
7.29524
  0
LINE
  8
0
 10
7.6422
 20
7.29524
 11
7.55229
 21
7.37875
  0
LINE
  8
0
 10
7.55229
 20
7.37875
 11
7.46446
 21
7.46446
  0
LINE
  8
0
 10
7.46446
 20
7.46446
 11
7.37875
 21
7.55229
  0
LINE
  8
0
 10
7.37875
 20
7.55229
 11
7.29524
 21
7.6422
  0
LINE
  8
0
 10
7.29524
 20
7.6422
 11
7.21394
 21
7.73413
  0
LINE
  8
0
 10
7.21394
 20
7.73413
 11
7.13493
 21
7.82803
  0
LINE
  8
0
 10
7.13493
 20
7.82803
 11
7.05826
 21
7.92383
  0
LINE
  8
0
 10
7.05826
 20
7.92383
 11
6.98395
 21
8.0215
  0
LINE
  8
0
 10
6.98395
 20
8.0215
 11
6.91206
 21
8.12096
  0
LINE
  8
0
 10
6.91206
 20
8.12096
 11
6.84265
 21
8.22214
  0
LINE
  8
0
 10
6.84265
 20
8.22214
 11
6.77573
 21
8.325
  0
LINE
  8
0
 10
6.77573
 20
8.325
 11
6.71135
 21
8.42947
  0
LINE
  8
0
 10
6.71135
 20
8.42947
 11
6.64955
 21
8.53551
  0
LINE
  8
0
 10
6.64955
 20
8.53551
 11
6.59039
 21
8.64301
  0
LINE
  8
0
 10
6.59039
 20
8.64301
 11
6.53387
 21
8.75194
  0
LINE
  8
0
 10
6.53387
 20
8.75194
 11
6.48004
 21
8.86221
  0
LINE
  8
0
 10
6.48004
 20
8.86221
 11
6.42894
 21
8.97379
  0
LINE
  8
0
 10
6.42894
 20
8.97379
 11
6.3806
 21
9.08658
  0
LINE
  8
0
 10
6.3806
 20
9.08658
 11
6.33502
 21
9.20052
  0
LINE
  8
0
 10
6.33502
 20
9.20052
 11
6.29227
 21
9.31554
  0
LINE
  8
0
 10
6.29227
 20
9.31554
 11
6.25235
 21
9.43158
  0
LINE
  8
0
 10
6.25235
 20
9.43158
 11
6.21529
 21
9.54857
  0
LINE
  8
0
 10
6.21529
 20
9.54857
 11
6.18111
 21
9.66643
  0
LINE
  8
0
 10
6.18111
 20
9.66643
 11
6.14984
 21
9.7851
  0
LINE
  8
0
 10
6.14984
 20
9.7851
 11
6.12148
 21
9.90448
  0
LINE
  8
0
 10
6.12148
 20
9.90448
 11
6.09607
 21
10.0245
  0
LINE
  8
0
 10
6.09607
 20
10.0245
 11
6.07361
 21
10.1452
  0
LINE
  8
0
 10
6.07361
 20
10.1452
 11
6.05411
 21
10.2663
  0
LINE
  8
0
 10
6.05411
 20
10.2663
 11
6.0376
 21
10.3879
  0
LINE
  8
0
 10
6.0376
 20
10.3879
 11
6.02406
 21
10.5099
  0
LINE
  8
0
 10
6.02406
 20
10.5099
 11
6.01353
 21
10.6322
  0
LINE
  8
0
 10
6.01353
 20
10.6322
 11
6.00601
 21
10.7547
  0
LINE
  8
0
 10
6.00601
 20
10.7547
 11
6.0015
 21
10.8773
  0
LINE
  8
0
 10
6.0015
 20
10.8773
 11
6
 21
11
  0
LINE
  8
0
 10
6
 20
11
 11
6.0015
 21
11.1227
  0
LINE
  8
0
 10
6.0015
 20
11.1227
 11
6.00601
 21
11.2453
  0
LINE
  8
0
 10
6.00601
 20
11.2453
 11
6.01353
 21
11.3678
  0
LINE
  8
0
 10
6.01353
 20
11.3678
 11
6.02406
 21
11.4901
  0
LINE
  8
0
 10
6.02406
 20
11.4901
 11
6.0376
 21
11.612
  0
LINE
  8
0
 10
6.0376
 20
11.612
 11
6.05411
 21
11.7336
  0
LINE
  8
0
 10
6.05411
 20
11.7336
 11
6.07361
 21
11.8548
  0
LINE
  8
0
 10
6.07361
 20
11.8548
 11
6.09607
 21
11.9754
  0
LINE
  8
0
 10
6.09607
 20
11.9754
 11
6.12148
 21
12.0955
  0
LINE
  8
0
 10
6.12148
 20
12.0955
 11
6.14984
 21
12.2149
  0
LINE
  8
0
 10
6.14984
 20
12.2149
 11
6.18111
 21
12.3336
  0
LINE
  8
0
 10
6.18111
 20
12.3336
 11
6.21529
 21
12.4514
  0
LINE
  8
0
 10
6.21529
 20
12.4514
 11
6.25235
 21
12.5684
  0
LINE
  8
0
 10
6.25235
 20
12.5684
 11
6.29227
 21
12.6844
  0
LINE
  8
0
 10
6.29227
 20
12.6844
 11
6.33502
 21
12.7995
  0
LINE
  8
0
 10
6.33502
 20
12.7995
 11
6.3806
 21
12.9134
  0
LINE
  8
0
 10
6.3806
 20
12.9134
 11
6.42894
 21
13.0262
  0
LINE
  8
0
 10
6.42894
 20
13.0262
 11
6.48004
 21
13.1378
  0
LINE
  8
0
 10
6.48004
 20
13.1378
 11
6.53387
 21
13.248
  0
LINE
  8
0
 10
6.53387
 20
13.248
 11
6.59039
 21
13.357
  0
LINE
  8
0
 10
6.59039
 20
13.357
 11
6.64955
 21
13.4645
  0
LINE
  8
0
 10
6.64955
 20
13.4645
 11
6.71135
 21
13.5705
  0
LINE
  8
0
 10
6.71135
 20
13.5705
 11
6.77573
 21
13.675
  0
LINE
  8
0
 10
6.77573
 20
13.675
 11
6.84265
 21
13.7778
  0
LINE
  8
0
 10
6.84265
 20
13.7778
 11
6.91206
 21
13.879
  0
LINE
  8
0
 10
6.91206
 20
13.879
 11
6.98395
 21
13.9785
  0
LINE
  8
0
 10
6.98395
 20
13.9785
 11
7.05826
 21
14.0762
  0
LINE
  8
0
 10
7.05826
 20
14.0762
 11
7.13493
 21
14.172
  0
LINE
  8
0
 10
7.13493
 20
14.172
 11
7.21394
 21
14.2659
  0
LINE
  8
0
 10
7.21394
 20
14.2659
 11
7.29524
 21
14.3578
  0
LINE
  8
0
 10
7.29524
 20
14.3578
 11
7.37875
 21
14.4477
  0
LINE
  8
0
 10
7.37875
 20
14.4477
 11
7.46446
 21
14.5355
  0
LINE
  8
0
 10
7.46446
 20
14.5355
 11
7.55229
 21
14.6212
  0
LINE
  8
0
 10
7.55229
 20
14.6212
 11
7.6422
 21
14.7047
  0
LINE
  8
0
 10
7.6422
 20
14.7047
 11
7.73413
 21
14.786
  0
LINE
  8
0
 10
7.73413
 20
14.786
 11
7.82803
 21
14.8651
  0
LINE
  8
0
 10
7.82803
 20
14.8651
 11
7.92383
 21
14.9417
  0
LINE
  8
0
 10
7.92383
 20
14.9417
 11
8.0215
 21
15.016
  0
LINE
  8
0
 10
8.0215
 20
15.016
 11
8.12096
 21
15.0879
  0
LINE
  8
0
 10
8.12096
 20
15.0879
 11
8.22214
 21
15.1573
  0
LINE
  8
0
 10
8.22214
 20
15.1573
 11
8.325
 21
15.2243
  0
LINE
  8
0
 10
8.325
 20
15.2243
 11
8.42947
 21
15.2886
  0
LINE
  8
0
 10
8.42947
 20
15.2886
 11
8.53551
 21
15.3504
  0
LINE
  8
0
 10
8.53551
 20
15.3504
 11
8.64301
 21
15.4096
  0
LINE
  8
0
 10
8.64301
 20
15.4096
 11
8.75194
 21
15.4661
  0
LINE
  8
0
 10
8.75194
 20
15.4661
 11
8.86221
 21
15.5199
  0
LINE
  8
0
 10
8.86221
 20
15.5199
 11
8.97379
 21
15.571
  0
LINE
  8
0
 10
8.97379
 20
15.571
 11
9.08658
 21
15.6194
  0
LINE
  8
0
 10
9.08658
 20
15.6194
 11
9.20052
 21
15.665
  0
LINE
  8
0
 10
9.20052
 20
15.665
 11
9.31554
 21
15.7077
  0
LINE
  8
0
 10
9.31554
 20
15.7077
 11
9.43158
 21
15.7476
  0
LINE
  8
0
 10
9.43158
 20
15.7476
 11
9.54857
 21
15.7847
  0
LINE
  8
0
 10
9.54857
 20
15.7847
 11
9.66643
 21
15.8189
  0
LINE
  8
0
 10
9.66643
 20
15.8189
 11
9.7851
 21
15.8501
  0
LINE
  8
0
 10
9.7851
 20
15.8501
 11
9.90448
 21
15.8785
  0
LINE
  8
0
 10
9.90448
 20
15.8785
 11
10.0245
 21
15.9039
  0
LINE
  8
0
 10
10.0245
 20
15.9039
 11
10.1452
 21
15.9264
  0
LINE
  8
0
 10
10.1452
 20
15.9264
 11
10.2663
 21
15.9459
  0
LINE
  8
0
 10
10.2663
 20
15.9459
 11
10.3879
 21
15.9624
  0
LINE
  8
0
 10
10.3879
 20
15.9624
 11
10.5099
 21
15.9759
  0
LINE
  8
0
 10
10.5099
 20
15.9759
 11
10.6322
 21
15.9865
  0
LINE
  8
0
 10
10.6322
 20
15.9865
 11
10.7547
 21
15.994
  0
LINE
  8
0
 10
10.7547
 20
15.994
 11
10.8773
 21
15.9985
  0
LINE
  8
0
 10
10.8773
 20
15.9985
 11
11
 21
16
  0
LINE
  8
0
 10
11
 20
16
 11
11.1227
 21
15.9985
  0
LINE
  8
0
 10
11.1227
 20
15.9985
 11
11.2453
 21
15.994
  0
LINE
  8
0
 10
11.2453
 20
15.994
 11
11.3678
 21
15.9865
  0
LINE
  8
0
 10
11.3678
 20
15.9865
 11
11.4901
 21
15.9759
  0
LINE
  8
0
 10
11.4901
 20
15.9759
 11
11.612
 21
15.9624
  0
LINE
  8
0
 10
11.612
 20
15.9624
 11
11.7336
 21
15.9459
  0
LINE
  8
0
 10
11.7336
 20
15.9459
 11
11.8548
 21
15.9264
  0
LINE
  8
0
 10
11.8548
 20
15.9264
 11
11.9754
 21
15.9039
  0
LINE
  8
0
 10
11.9754
 20
15.9039
 11
12.0955
 21
15.8785
  0
LINE
  8
0
 10
12.0955
 20
15.8785
 11
12.2149
 21
15.8501
  0
LINE
  8
0
 10
12.2149
 20
15.8501
 11
12.3336
 21
15.8189
  0
LINE
  8
0
 10
12.3336
 20
15.8189
 11
12.4514
 21
15.7847
  0
LINE
  8
0
 10
12.4514
 20
15.7847
 11
12.5684
 21
15.7476
  0
LINE
  8
0
 10
12.5684
 20
15.7476
 11
12.6844
 21
15.7077
  0
LINE
  8
0
 10
12.6844
 20
15.7077
 11
12.7995
 21
15.665
  0
LINE
  8
0
 10
12.7995
 20
15.665
 11
12.9134
 21
15.6194
  0
LINE
  8
0
 10
12.9134
 20
15.6194
 11
13.0262
 21
15.571
  0
LINE
  8
0
 10
13.0262
 20
15.571
 11
13.1378
 21
15.5199
  0
LINE
  8
0
 10
13.1378
 20
15.5199
 11
13.248
 21
15.4661
  0
LINE
  8
0
 10
13.248
 20
15.4661
 11
13.357
 21
15.4096
  0
LINE
  8
0
 10
13.357
 20
15.4096
 11
13.4645
 21
15.3504
  0
LINE
  8
0
 10
13.4645
 20
15.3504
 11
13.5705
 21
15.2886
  0
LINE
  8
0
 10
13.5705
 20
15.2886
 11
13.675
 21
15.2243
  0
LINE
  8
0
 10
13.675
 20
15.2243
 11
13.7778
 21
15.1573
  0
LINE
  8
0
 10
13.7778
 20
15.1573
 11
13.879
 21
15.0879
  0
LINE
  8
0
 10
13.879
 20
15.0879
 11
13.9785
 21
15.016
  0
LINE
  8
0
 10
13.9785
 20
15.016
 11
14.0762
 21
14.9417
  0
LINE
  8
0
 10
14.0762
 20
14.9417
 11
14.172
 21
14.8651
  0
LINE
  8
0
 10
14.172
 20
14.8651
 11
14.2659
 21
14.786
  0
LINE
  8
0
 10
14.2659
 20
14.786
 11
14.3578
 21
14.7047
  0
LINE
  8
0
 10
14.3578
 20
14.7047
 11
14.4477
 21
14.6212
  0
LINE
  8
0
 10
14.4477
 20
14.6212
 11
14.5355
 21
14.5355
  0
LINE
  8
0
 10
14.5355
 20
14.5355
 11
14.6212
 21
14.4477
  0
LINE
  8
0
 10
14.6212
 20
14.4477
 11
14.7047
 21
14.3578
  0
LINE
  8
0
 10
14.7047
 20
14.3578
 11
14.786
 21
14.2659
  0
LINE
  8
0
 10
14.786
 20
14.2659
 11
14.8651
 21
14.172
  0
LINE
  8
0
 10
14.8651
 20
14.172
 11
14.9417
 21
14.0762
  0
LINE
  8
0
 10
14.9417
 20
14.0762
 11
15.016
 21
13.9785
  0
LINE
  8
0
 10
15.016
 20
13.9785
 11
15.0879
 21
13.879
  0
LINE
  8
0
 10
15.0879
 20
13.879
 11
15.1573
 21
13.7778
  0
LINE
  8
0
 10
15.1573
 20
13.7778
 11
15.2243
 21
13.675
  0
LINE
  8
0
 10
15.2243
 20
13.675
 11
15.2886
 21
13.5705
  0
LINE
  8
0
 10
15.2886
 20
13.5705
 11
15.3504
 21
13.4645
  0
LINE
  8
0
 10
15.3504
 20
13.4645
 11
15.4096
 21
13.357
  0
LINE
  8
0
 10
15.4096
 20
13.357
 11
15.4661
 21
13.248
  0
LINE
  8
0
 10
15.4661
 20
13.248
 11
15.5199
 21
13.1378
  0
LINE
  8
0
 10
15.5199
 20
13.1378
 11
15.571
 21
13.0262
  0
LINE
  8
0
 10
15.571
 20
13.0262
 11
15.6194
 21
12.9134
  0
LINE
  8
0
 10
15.6194
 20
12.9134
 11
15.665
 21
12.7995
  0
LINE
  8
0
 10
15.665
 20
12.7995
 11
15.7077
 21
12.6844
  0
LINE
  8
0
 10
15.7077
 20
12.6844
 11
15.7476
 21
12.5684
  0
LINE
  8
0
 10
15.7476
 20
12.5684
 11
15.7847
 21
12.4514
  0
LINE
  8
0
 10
15.7847
 20
12.4514
 11
15.8189
 21
12.3336
  0
LINE
  8
0
 10
15.8189
 20
12.3336
 11
15.8501
 21
12.2149
  0
LINE
  8
0
 10
15.8501
 20
12.2149
 11
15.8785
 21
12.0955
  0
LINE
  8
0
 10
15.8785
 20
12.0955
 11
15.9039
 21
11.9754
  0
LINE
  8
0
 10
15.9039
 20
11.9754
 11
15.9264
 21
11.8548
  0
LINE
  8
0
 10
15.9264
 20
11.8548
 11
15.9459
 21
11.7336
  0
LINE
  8
0
 10
15.9459
 20
11.7336
 11
15.9624
 21
11.612
  0
LINE
  8
0
 10
15.9624
 20
11.612
 11
15.9759
 21
11.4901
  0
LINE
  8
0
 10
15.9759
 20
11.4901
 11
15.9865
 21
11.3678
  0
LINE
  8
0
 10
15.9865
 20
11.3678
 11
15.994
 21
11.2453
  0
LINE
  8
0
 10
15.994
 20
11.2453
 11
15.9985
 21
11.1227
  0
LINE
  8
0
 10
15.9985
 20
11.1227
 11
16
 21
11
  0
LINE
  8
0
 10
16
 20
11
 11
15.9985
 21
10.8773
  0
LINE
  8
0
 10
15.9985
 20
10.8773
 11
15.994
 21
10.7547
  0
LINE
  8
0
 10
15.994
 20
10.7547
 11
15.9865
 21
10.6322
  0
LINE
  8
0
 10
15.9865
 20
10.6322
 11
15.9759
 21
10.5099
  0
LINE
  8
0
 10
15.9759
 20
10.5099
 11
15.9624
 21
10.3879
  0
LINE
  8
0
 10
15.9624
 20
10.3879
 11
15.9459
 21
10.2663
  0
LINE
  8
0
 10
15.9459
 20
10.2663
 11
15.9264
 21
10.1452
  0
LINE
  8
0
 10
15.9264
 20
10.1452
 11
15.9039
 21
10.0245
  0
LINE
  8
0
 10
15.9039
 20
10.0245
 11
15.8785
 21
9.90448
  0
LINE
  8
0
 10
15.8785
 20
9.90448
 11
15.8501
 21
9.7851
  0
LINE
  8
0
 10
15.8501
 20
9.7851
 11
15.8189
 21
9.66643
  0
LINE
  8
0
 10
15.8189
 20
9.66643
 11
15.7847
 21
9.54857
  0
LINE
  8
0
 10
15.7847
 20
9.54857
 11
15.7476
 21
9.43158
  0
LINE
  8
0
 10
15.7476
 20
9.43158
 11
15.7077
 21
9.31554
  0
LINE
  8
0
 10
15.7077
 20
9.31554
 11
15.665
 21
9.20052
  0
LINE
  8
0
 10
15.665
 20
9.20052
 11
15.6194
 21
9.08658
  0
LINE
  8
0
 10
15.6194
 20
9.08658
 11
15.571
 21
8.97379
  0
LINE
  8
0
 10
15.571
 20
8.97379
 11
15.5199
 21
8.86221
  0
LINE
  8
0
 10
15.5199
 20
8.86221
 11
15.4661
 21
8.75194
  0
LINE
  8
0
 10
15.4661
 20
8.75194
 11
15.4096
 21
8.64301
  0
LINE
  8
0
 10
15.4096
 20
8.64301
 11
15.3504
 21
8.53551
  0
LINE
  8
0
 10
15.3504
 20
8.53551
 11
15.2886
 21
8.42947
  0
LINE
  8
0
 10
15.2886
 20
8.42947
 11
15.2243
 21
8.325
  0
LINE
  8
0
 10
15.2243
 20
8.325
 11
15.1573
 21
8.22214
  0
LINE
  8
0
 10
15.1573
 20
8.22214
 11
15.0879
 21
8.12096
  0
LINE
  8
0
 10
15.0879
 20
8.12096
 11
15.016
 21
8.0215
  0
LINE
  8
0
 10
15.016
 20
8.0215
 11
14.9417
 21
7.92383
  0
LINE
  8
0
 10
14.9417
 20
7.92383
 11
14.8651
 21
7.82803
  0
LINE
  8
0
 10
14.8651
 20
7.82803
 11
14.786
 21
7.73413
  0
LINE
  8
0
 10
14.786
 20
7.73413
 11
14.7047
 21
7.6422
  0
LINE
  8
0
 10
14.7047
 20
7.6422
 11
14.6212
 21
7.55229
  0
LINE
  8
0
 10
14.6212
 20
7.55229
 11
14.5355
 21
7.46446
  0
LINE
  8
0
 10
14.5355
 20
7.46446
 11
14.4477
 21
7.37875
  0
LINE
  8
0
 10
14.4477
 20
7.37875
 11
14.3578
 21
7.29524
  0
LINE
  8
0
 10
14.3578
 20
7.29524
 11
14.2659
 21
7.21394
  0
LINE
  8
0
 10
14.2659
 20
7.21394
 11
14.172
 21
7.13493
  0
LINE
  8
0
 10
14.172
 20
7.13493
 11
14.0762
 21
7.05826
  0
LINE
  8
0
 10
14.0762
 20
7.05826
 11
13.9785
 21
6.98395
  0
LINE
  8
0
 10
13.9785
 20
6.98395
 11
13.879
 21
6.91206
  0
LINE
  8
0
 10
13.879
 20
6.91206
 11
13.7778
 21
6.84265
  0
LINE
  8
0
 10
13.7778
 20
6.84265
 11
13.675
 21
6.77573
  0
LINE
  8
0
 10
13.675
 20
6.77573
 11
13.5705
 21
6.71135
  0
LINE
  8
0
 10
13.5705
 20
6.71135
 11
13.4645
 21
6.64955
  0
LINE
  8
0
 10
13.4645
 20
6.64955
 11
13.357
 21
6.59039
  0
LINE
  8
0
 10
13.357
 20
6.59039
 11
13.248
 21
6.53387
  0
LINE
  8
0
 10
13.248
 20
6.53387
 11
13.1378
 21
6.48004
  0
LINE
  8
0
 10
13.1378
 20
6.48004
 11
13.0262
 21
6.42894
  0
LINE
  8
0
 10
13.0262
 20
6.42894
 11
12.9134
 21
6.3806
  0
LINE
  8
0
 10
12.9134
 20
6.3806
 11
12.7995
 21
6.33502
  0
LINE
  8
0
 10
12.7995
 20
6.33502
 11
12.6844
 21
6.29227
  0
LINE
  8
0
 10
12.6844
 20
6.29227
 11
12.5684
 21
6.25235
  0
LINE
  8
0
 10
12.5684
 20
6.25235
 11
12.4514
 21
6.21529
  0
LINE
  8
0
 10
12.4514
 20
6.21529
 11
12.3336
 21
6.18111
  0
LINE
  8
0
 10
12.3336
 20
6.18111
 11
12.2149
 21
6.14984
  0
LINE
  8
0
 10
12.2149
 20
6.14984
 11
12.0955
 21
6.12148
  0
LINE
  8
0
 10
12.0955
 20
6.12148
 11
11.9754
 21
6.09607
  0
LINE
  8
0
 10
11.9754
 20
6.09607
 11
11.8548
 21
6.07361
  0
LINE
  8
0
 10
11.8548
 20
6.07361
 11
11.7336
 21
6.05411
  0
LINE
  8
0
 10
11.7336
 20
6.05411
 11
11.612
 21
6.0376
  0
LINE
  8
0
 10
11.612
 20
6.0376
 11
11.4901
 21
6.02406
  0
LINE
  8
0
 10
11.4901
 20
6.02406
 11
11.3678
 21
6.01353
  0
LINE
  8
0
 10
11.3678
 20
6.01353
 11
11.2453
 21
6.00601
  0
LINE
  8
0
 10
11.2453
 20
6.00601
 11
11.1227
 21
6.0015
  0
LINE
  8
0
 10
11.1227
 20
6.0015
 11
11
 21
6
  0
LINE
  8
0
 10
11
 20
6
 11
10.8773
 21
6.0015
  0
ENDSEC
  0
SECTION
  2
OBJECTS
  0
DICTIONARY
  0
ENDSEC
  0
EOF
