  0
SECTION
  2
BLOCKS
  0
ENDSEC
  0
SECTION
  2
ENTITIES
  0
LINE
  8
0
 10
19.4142
 20
0.585785
 11
20
 21
2
  0
LINE
  8
0
 10
20
 20
2
 11
20
 21
18
  0
LINE
  8
0
 10
20
 20
18
 11
19.4142
 21
19.4142
  0
LINE
  8
0
 10
19.4142
 20
19.4142
 11
18
 21
20
  0
LINE
  8
0
 10
18
 20
20
 11
2
 21
20
  0
LINE
  8
0
 10
2
 20
20
 11
0.585785
 21
19.4142
  0
LINE
  8
0
 10
0.585785
 20
19.4142
 11
0
 21
18
  0
LINE
  8
0
 10
0
 20
18
 11
0
 21
2
  0
LINE
  8
0
 10
0
 20
2
 11
0.585785
 21
0.585785
  0
LINE
  8
0
 10
0.585785
 20
0.585785
 11
2
 21
0
  0
LINE
  8
0
 10
2
 20
0
 11
18
 21
0
  0
LINE
  8
0
 10
18
 20
0
 11
19.4142
 21
0.585785
  0
LINE
  8
0
 10
10.0245
 20
6.09607
 11
9.08658
 21
6.3806
  0
LINE
  8
0
 10
9.08658
 20
6.3806
 11
8.22214
 21
6.84265
  0
LINE
  8
0
 10
8.22214
 20
6.84265
 11
7.46446
 21
7.46446
  0
LINE
  8
0
 10
7.46446
 20
7.46446
 11
6.84265
 21
8.22214
  0
LINE
  8
0
 10
6.84265
 20
8.22214
 11
6.3806
 21
9.08658
  0
LINE
  8
0
 10
6.3806
 20
9.08658
 11
6.09607
 21
10.0245
  0
LINE
  8
0
 10
6.09607
 20
10.0245
 11
6
 21
11
  0
LINE
  8
0
 10
6
 20
11
 11
6.09607
 21
11.9754
  0
LINE
  8
0
 10
6.09607
 20
11.9754
 11
6.3806
 21
12.9134
  0
LINE
  8
0
 10
6.3806
 20
12.9134
 11
6.84265
 21
13.7778
  0
LINE
  8
0
 10
6.84265
 20
13.7778
 11
7.46446
 21
14.5355
  0
LINE
  8
0
 10
7.46446
 20
14.5355
 11
8.22214
 21
15.1573
  0
LINE
  8
0
 10
8.22214
 20
15.1573
 11
9.08658
 21
15.6194
  0
LINE
  8
0
 10
9.08658
 20
15.6194
 11
10.0245
 21
15.9039
  0
LINE
  8
0
 10
10.0245
 20
15.9039
 11
11
 21
16
  0
LINE
  8
0
 10
11
 20
16
 11
11.9754
 21
15.9039
  0
LINE
  8
0
 10
11.9754
 20
15.9039
 11
12.9134
 21
15.6194
  0
LINE
  8
0
 10
12.9134
 20
15.6194
 11
13.7778
 21
15.1573
  0
LINE
  8
0
 10
13.7778
 20
15.1573
 11
14.5355
 21
14.5355
  0
LINE
  8
0
 10
14.5355
 20
14.5355
 11
15.1573
 21
13.7778
  0
LINE
  8
0
 10
15.1573
 20
13.7778
 11
15.6194
 21
12.9134
  0
LINE
  8
0
 10
15.6194
 20
12.9134
 11
15.9039
 21
11.9754
  0
LINE
  8
0
 10
15.9039
 20
11.9754
 11
16
 21
11
  0
LINE
  8
0
 10
16
 20
11
 11
15.9039
 21
10.0245
  0
LINE
  8
0
 10
15.9039
 20
10.0245
 11
15.6194
 21
9.08658
  0
LINE
  8
0
 10
15.6194
 20
9.08658
 11
15.1573
 21
8.22214
  0
LINE
  8
0
 10
15.1573
 20
8.22214
 11
14.5355
 21
7.46446
  0
LINE
  8
0
 10
14.5355
 20
7.46446
 11
13.7778
 21
6.84265
  0
LINE
  8
0
 10
13.7778
 20
6.84265
 11
12.9134
 21
6.3806
  0
LINE
  8
0
 10
12.9134
 20
6.3806
 11
11.9754
 21
6.09607
  0
LINE
  8
0
 10
11.9754
 20
6.09607
 11
11
 21
6
  0
LINE
  8
0
 10
11
 20
6
 11
10.0245
 21
6.09607
  0
ENDSEC
  0
SECTION
  2
OBJECTS
  0
DICTIONARY
  0
ENDSEC
  0
EOF
