  0
SECTION
  2
BLOCKS
  0
ENDSEC
  0
SECTION
  2
ENTITIES
  0
LINE
  8
0
 10
20
 20
10
 11
0
 21
10
  0
LINE
  8
0
 10
0
 20
10
 11
0
 21
0
  0
LINE
  8
0
 10
0
 20
0
 11
20
 21
0
  0
LINE
  8
0
 10
20
 20
0
 11
20
 21
10
  0
LINE
  8
0
 10
4
 20
2
 11
3.60982
 21
2.03844
  0
LINE
  8
0
 10
3.60982
 20
2.03844
 11
3.23463
 21
2.15224
  0
LINE
  8
0
 10
3.23463
 20
2.15224
 11
2.88885
 21
2.33707
  0
LINE
  8
0
 10
2.88885
 20
2.33707
 11
2.58578
 21
2.58578
  0
LINE
  8
0
 10
2.58578
 20
2.58578
 11
2.33707
 21
2.88885
  0
LINE
  8
0
 10
2.33707
 20
2.88885
 11
2.15224
 21
3.23463
  0
LINE
  8
0
 10
2.15224
 20
3.23463
 11
2.03844
 21
3.60982
  0
LINE
  8
0
 10
2.03844
 20
3.60982
 11
2
 21
4
  0
LINE
  8
0
 10
2
 20
4
 11
2
 21
6
  0
LINE
  8
0
 10
2
 20
6
 11
2.03844
 21
6.39018
  0
LINE
  8
0
 10
2.03844
 20
6.39018
 11
2.15224
 21
6.76537
  0
LINE
  8
0
 10
2.15224
 20
6.76537
 11
2.33707
 21
7.11115
  0
LINE
  8
0
 10
2.33707
 20
7.11115
 11
2.58578
 21
7.41422
  0
LINE
  8
0
 10
2.58578
 20
7.41422
 11
2.88885
 21
7.66293
  0
LINE
  8
0
 10
2.88885
 20
7.66293
 11
3.23463
 21
7.84776
  0
LINE
  8
0
 10
3.23463
 20
7.84776
 11
3.60982
 21
7.96156
  0
LINE
  8
0
 10
3.60982
 20
7.96156
 11
4
 21
8
  0
LINE
  8
0
 10
4
 20
8
 11
16
 21
8
  0
LINE
  8
0
 10
16
 20
8
 11
16.3902
 21
7.96156
  0
LINE
  8
0
 10
16.3902
 20
7.96156
 11
16.7654
 21
7.84776
  0
LINE
  8
0
 10
16.7654
 20
7.84776
 11
17.1111
 21
7.66293
  0
LINE
  8
0
 10
17.1111
 20
7.66293
 11
17.4142
 21
7.41422
  0
LINE
  8
0
 10
17.4142
 20
7.41422
 11
17.6629
 21
7.11115
  0
LINE
  8
0
 10
17.6629
 20
7.11115
 11
17.8478
 21
6.76537
  0
LINE
  8
0
 10
17.8478
 20
6.76537
 11
17.9616
 21
6.39018
  0
LINE
  8
0
 10
17.9616
 20
6.39018
 11
18
 21
6
  0
LINE
  8
0
 10
18
 20
6
 11
18
 21
4
  0
LINE
  8
0
 10
18
 20
4
 11
17.9616
 21
3.60982
  0
LINE
  8
0
 10
17.9616
 20
3.60982
 11
17.8478
 21
3.23463
  0
LINE
  8
0
 10
17.8478
 20
3.23463
 11
17.6629
 21
2.88885
  0
LINE
  8
0
 10
17.6629
 20
2.88885
 11
17.4142
 21
2.58578
  0
LINE
  8
0
 10
17.4142
 20
2.58578
 11
17.1111
 21
2.33707
  0
LINE
  8
0
 10
17.1111
 20
2.33707
 11
16.7654
 21
2.15224
  0
LINE
  8
0
 10
16.7654
 20
2.15224
 11
16.3902
 21
2.03844
  0
LINE
  8
0
 10
16.3902
 20
2.03844
 11
16
 21
2
  0
LINE
  8
0
 10
16
 20
2
 11
4
 21
2
  0
ENDSEC
  0
SECTION
  2
OBJECTS
  0
DICTIONARY
  0
ENDSEC
  0
EOF
