  0
SECTION
  2
BLOCKS
  0
ENDSEC
  0
SECTION
  2
ENTITIES
  0
LINE
  8
0
 10
20
 20
10
 11
0
 21
10
  0
LINE
  8
0
 10
0
 20
10
 11
0
 21
0
  0
LINE
  8
0
 10
0
 20
0
 11
20
 21
0
  0
LINE
  8
0
 10
20
 20
0
 11
20
 21
10
  0
LINE
  8
0
 10
9.21964
 20
1.07686
 11
8.46925
 21
1.30447
  0
LINE
  8
0
 10
8.46925
 20
1.30447
 11
7.77771
 21
1.67412
  0
LINE
  8
0
 10
7.77771
 20
1.67412
 11
7.17157
 21
2.17157
  0
LINE
  8
0
 10
7.17157
 20
2.17157
 11
6.67412
 21
2.77771
  0
LINE
  8
0
 10
6.67412
 20
2.77771
 11
6.30447
 21
3.46925
  0
LINE
  8
0
 10
6.30447
 20
3.46925
 11
6.07686
 21
4.21964
  0
LINE
  8
0
 10
6.07686
 20
4.21964
 11
6
 21
5
  0
LINE
  8
0
 10
6
 20
5
 11
6.07686
 21
5.78035
  0
LINE
  8
0
 10
6.07686
 20
5.78035
 11
6.30447
 21
6.53073
  0
LINE
  8
0
 10
6.30447
 20
6.53073
 11
6.67412
 21
7.22227
  0
LINE
  8
0
 10
6.67412
 20
7.22227
 11
7.17157
 21
7.82841
  0
LINE
  8
0
 10
7.17157
 20
7.82841
 11
7.77771
 21
8.32587
  0
LINE
  8
0
 10
7.77771
 20
8.32587
 11
8.46925
 21
8.69551
  0
LINE
  8
0
 10
8.46925
 20
8.69551
 11
9.21964
 21
8.92313
  0
LINE
  8
0
 10
9.21964
 20
8.92313
 11
10
 21
9
  0
LINE
  8
0
 10
10
 20
9
 11
10.7803
 21
8.92313
  0
LINE
  8
0
 10
10.7803
 20
8.92313
 11
11.5307
 21
8.69551
  0
LINE
  8
0
 10
11.5307
 20
8.69551
 11
12.2223
 21
8.32587
  0
LINE
  8
0
 10
12.2223
 20
8.32587
 11
12.8284
 21
7.82841
  0
LINE
  8
0
 10
12.8284
 20
7.82841
 11
11.6263
 21
6.62634
  0
LINE
  8
0
 10
11.6263
 20
6.62634
 11
11.2778
 21
6.91237
  0
LINE
  8
0
 10
11.2778
 20
6.91237
 11
10.8802
 21
7.12491
  0
LINE
  8
0
 10
10.8802
 20
7.12491
 11
10.4487
 21
7.2558
  0
LINE
  8
0
 10
10.4487
 20
7.2558
 11
10
 21
7.29999
  0
LINE
  8
0
 10
10
 20
7.29999
 11
9.55128
 21
7.2558
  0
LINE
  8
0
 10
9.55128
 20
7.2558
 11
9.11983
 21
7.12491
  0
LINE
  8
0
 10
9.11983
 20
7.12491
 11
8.72218
 21
6.91237
  0
LINE
  8
0
 10
8.72218
 20
6.91237
 11
8.37364
 21
6.62634
  0
LINE
  8
0
 10
8.37364
 20
6.62634
 11
8.08762
 21
6.2778
  0
LINE
  8
0
 10
8.08762
 20
6.2778
 11
7.87508
 21
5.88016
  0
LINE
  8
0
 10
7.87508
 20
5.88016
 11
7.74419
 21
5.4487
  0
LINE
  8
0
 10
7.74419
 20
5.4487
 11
7.7
 21
5
  0
LINE
  8
0
 10
7.7
 20
5
 11
7.74419
 21
4.55128
  0
LINE
  8
0
 10
7.74419
 20
4.55128
 11
7.87508
 21
4.11983
  0
LINE
  8
0
 10
7.87508
 20
4.11983
 11
8.08762
 21
3.72218
  0
LINE
  8
0
 10
8.08762
 20
3.72218
 11
8.37364
 21
3.37364
  0
LINE
  8
0
 10
8.37364
 20
3.37364
 11
8.72218
 21
3.08762
  0
LINE
  8
0
 10
8.72218
 20
3.08762
 11
9.11983
 21
2.87508
  0
LINE
  8
0
 10
9.11983
 20
2.87508
 11
9.55128
 21
2.74419
  0
LINE
  8
0
 10
9.55128
 20
2.74419
 11
10
 21
2.7
  0
LINE
  8
0
 10
10
 20
2.7
 11
10.4487
 21
2.74419
  0
LINE
  8
0
 10
10.4487
 20
2.74419
 11
10.8802
 21
2.87508
  0
LINE
  8
0
 10
10.8802
 20
2.87508
 11
11.2778
 21
3.08762
  0
LINE
  8
0
 10
11.2778
 20
3.08762
 11
11.6263
 21
3.37364
  0
LINE
  8
0
 10
11.6263
 20
3.37364
 11
12.8284
 21
2.17159
  0
LINE
  8
0
 10
12.8284
 20
2.17159
 11
12.2223
 21
1.67412
  0
LINE
  8
0
 10
12.2223
 20
1.67412
 11
11.5307
 21
1.30447
  0
LINE
  8
0
 10
11.5307
 20
1.30447
 11
10.7803
 21
1.07686
  0
LINE
  8
0
 10
10.7803
 20
1.07686
 11
10
 21
1
  0
LINE
  8
0
 10
10
 20
1
 11
9.21964
 21
1.07686
  0
LINE
  8
0
 10
9.56104
 20
2.79323
 11
9.13896
 21
2.92126
  0
LINE
  8
0
 10
9.13896
 20
2.92126
 11
8.74995
 21
3.12918
  0
LINE
  8
0
 10
8.74995
 20
3.12918
 11
8.409
 21
3.409
  0
LINE
  8
0
 10
8.409
 20
3.409
 11
8.12918
 21
3.74995
  0
LINE
  8
0
 10
8.12918
 20
3.74995
 11
7.92126
 21
4.13896
  0
LINE
  8
0
 10
7.92126
 20
4.13896
 11
7.79323
 21
4.56104
  0
LINE
  8
0
 10
7.79323
 20
4.56104
 11
7.75
 21
5
  0
LINE
  8
0
 10
7.75
 20
5
 11
7.79323
 21
5.43895
  0
LINE
  8
0
 10
7.79323
 20
5.43895
 11
7.92126
 21
5.86102
  0
LINE
  8
0
 10
7.92126
 20
5.86102
 11
8.12918
 21
6.25003
  0
LINE
  8
0
 10
8.12918
 20
6.25003
 11
8.409
 21
6.59099
  0
LINE
  8
0
 10
8.409
 20
6.59099
 11
8.74995
 21
6.8708
  0
LINE
  8
0
 10
8.74995
 20
6.8708
 11
9.13896
 21
7.07872
  0
LINE
  8
0
 10
9.13896
 20
7.07872
 11
9.56104
 21
7.20676
  0
LINE
  8
0
 10
9.56104
 20
7.20676
 11
10
 21
7.25
  0
LINE
  8
0
 10
10
 20
7.25
 11
10.4389
 21
7.20676
  0
LINE
  8
0
 10
10.4389
 20
7.20676
 11
10.861
 21
7.07872
  0
LINE
  8
0
 10
10.861
 20
7.07872
 11
11.25
 21
6.8708
  0
LINE
  8
0
 10
11.25
 20
6.8708
 11
11.591
 21
6.59099
  0
LINE
  8
0
 10
11.591
 20
6.59099
 11
11.8708
 21
6.25003
  0
LINE
  8
0
 10
11.8708
 20
6.25003
 11
12.0787
 21
5.86102
  0
LINE
  8
0
 10
12.0787
 20
5.86102
 11
12.2068
 21
5.43895
  0
LINE
  8
0
 10
12.2068
 20
5.43895
 11
12.25
 21
5
  0
LINE
  8
0
 10
12.25
 20
5
 11
12.2068
 21
4.56104
  0
LINE
  8
0
 10
12.2068
 20
4.56104
 11
12.0787
 21
4.13896
  0
LINE
  8
0
 10
12.0787
 20
4.13896
 11
11.8708
 21
3.74995
  0
LINE
  8
0
 10
11.8708
 20
3.74995
 11
11.591
 21
3.409
  0
LINE
  8
0
 10
11.591
 20
3.409
 11
11.25
 21
3.12918
  0
LINE
  8
0
 10
11.25
 20
3.12918
 11
10.861
 21
2.92126
  0
LINE
  8
0
 10
10.861
 20
2.92126
 11
10.4389
 21
2.79323
  0
LINE
  8
0
 10
10.4389
 20
2.79323
 11
10
 21
2.75
  0
LINE
  8
0
 10
10
 20
2.75
 11
9.56104
 21
2.79323
  0
ENDSEC
  0
SECTION
  2
OBJECTS
  0
DICTIONARY
  0
ENDSEC
  0
EOF
