  0
SECTION
  2
BLOCKS
  0
ENDSEC
  0
SECTION
  2
ENTITIES
  0
LINE
  8
0
 10
75
 20
75
 11
-75
 21
75
  0
LINE
  8
0
 10
-75
 20
75
 11
-75
 21
-75
  0
LINE
  8
0
 10
-75
 20
-75
 11
75
 21
-75
  0
LINE
  8
0
 10
75
 20
-75
 11
75
 21
75
  0
LINE
  8
0
 10
0.922012
 20
-58.6927
 11
-0.818176
 21
-58.5943
  0
LINE
  8
0
 10
-0.818176
 20
-58.5943
 11
-2.55173
 21
-58.4443
  0
LINE
  8
0
 10
-2.55173
 20
-58.4443
 11
-4.2771
 21
-58.2432
  0
LINE
  8
0
 10
-4.2771
 20
-58.2432
 11
-5.9928
 21
-57.9912
  0
LINE
  8
0
 10
-5.9928
 20
-57.9912
 11
-7.69731
 21
-57.6887
  0
LINE
  8
0
 10
-7.69731
 20
-57.6887
 11
-9.38918
 21
-57.3363
  0
LINE
  8
0
 10
-9.38918
 20
-57.3363
 11
-11.0669
 21
-56.9344
  0
LINE
  8
0
 10
-11.0669
 20
-56.9344
 11
-12.7291
 21
-56.4834
  0
LINE
  8
0
 10
-12.7291
 20
-56.4834
 11
-14.3743
 21
-55.9841
  0
LINE
  8
0
 10
-14.3743
 20
-55.9841
 11
-16.0011
 21
-55.437
  0
LINE
  8
0
 10
-16.0011
 20
-55.437
 11
-17.608
 21
-54.8427
  0
LINE
  8
0
 10
-17.608
 20
-54.8427
 11
-19.1939
 21
-54.2019
  0
LINE
  8
0
 10
-19.1939
 20
-54.2019
 11
-20.7572
 21
-53.5154
  0
LINE
  8
0
 10
-20.7572
 20
-53.5154
 11
-22.2968
 21
-52.7839
  0
LINE
  8
0
 10
-22.2968
 20
-52.7839
 11
-23.8112
 21
-52.0083
  0
LINE
  8
0
 10
-23.8112
 20
-52.0083
 11
-25.2994
 21
-51.1894
  0
LINE
  8
0
 10
-25.2994
 20
-51.1894
 11
-26.7599
 21
-50.328
  0
LINE
  8
0
 10
-26.7599
 20
-50.328
 11
-28.1916
 21
-49.4251
  0
LINE
  8
0
 10
-28.1916
 20
-49.4251
 11
-29.5933
 21
-48.4817
  0
LINE
  8
0
 10
-29.5933
 20
-48.4817
 11
-30.964
 21
-47.4986
  0
LINE
  8
0
 10
-30.964
 20
-47.4986
 11
-32.3024
 21
-46.477
  0
LINE
  8
0
 10
-32.3024
 20
-46.477
 11
-33.6075
 21
-45.4179
  0
LINE
  8
0
 10
-33.6075
 20
-45.4179
 11
-34.8782
 21
-44.3223
  0
LINE
  8
0
 10
-34.8782
 20
-44.3223
 11
-36.1136
 21
-43.1914
  0
LINE
  8
0
 10
-36.1136
 20
-43.1914
 11
-37.3127
 21
-42.0262
  0
LINE
  8
0
 10
-37.3127
 20
-42.0262
 11
-38.4744
 21
-40.828
  0
LINE
  8
0
 10
-38.4744
 20
-40.828
 11
-39.598
 21
-39.598
  0
LINE
  8
0
 10
-39.598
 20
-39.598
 11
-40.6825
 21
-38.3372
  0
LINE
  8
0
 10
-40.6825
 20
-38.3372
 11
-41.7271
 21
-37.0471
  0
LINE
  8
0
 10
-41.7271
 20
-37.0471
 11
-42.7311
 21
-35.7287
  0
LINE
  8
0
 10
-42.7311
 20
-35.7287
 11
-43.6936
 21
-34.3835
  0
LINE
  8
0
 10
-43.6936
 20
-34.3835
 11
-44.614
 21
-33.0126
  0
LINE
  8
0
 10
-44.614
 20
-33.0126
 11
-45.4917
 21
-31.6175
  0
LINE
  8
0
 10
-45.4917
 20
-31.6175
 11
-46.3258
 21
-30.1994
  0
LINE
  8
0
 10
-46.3258
 20
-30.1994
 11
-47.116
 21
-28.7597
  0
LINE
  8
0
 10
-47.116
 20
-28.7597
 11
-47.8616
 21
-27.2998
  0
LINE
  8
0
 10
-47.8616
 20
-27.2998
 11
-48.5621
 21
-25.8209
  0
LINE
  8
0
 10
-48.5621
 20
-25.8209
 11
-49.2171
 21
-24.3246
  0
LINE
  8
0
 10
-49.2171
 20
-24.3246
 11
-49.8261
 21
-22.8122
  0
LINE
  8
0
 10
-49.8261
 20
-22.8122
 11
-50.3888
 21
-21.2851
  0
LINE
  8
0
 10
-50.3888
 20
-21.2851
 11
-50.9049
 21
-19.7447
  0
LINE
  8
0
 10
-50.9049
 20
-19.7447
 11
-51.3739
 21
-18.1925
  0
LINE
  8
0
 10
-51.3739
 20
-18.1925
 11
-51.7958
 21
-16.6298
  0
LINE
  8
0
 10
-51.7958
 20
-16.6298
 11
-52.1703
 21
-15.0582
  0
LINE
  8
0
 10
-52.1703
 20
-15.0582
 11
-52.4972
 21
-13.479
  0
LINE
  8
0
 10
-52.4972
 20
-13.479
 11
-52.7764
 21
-11.8937
  0
LINE
  8
0
 10
-52.7764
 20
-11.8937
 11
-53.0079
 21
-10.3037
  0
LINE
  8
0
 10
-53.0079
 20
-10.3037
 11
-53.1915
 21
-8.71043
  0
LINE
  8
0
 10
-53.1915
 20
-8.71043
 11
-53.3274
 21
-7.11539
  0
LINE
  8
0
 10
-53.3274
 20
-7.11539
 11
-53.4155
 21
-5.51996
  0
LINE
  8
0
 10
-53.4155
 20
-5.51996
 11
-53.4561
 21
-3.92555
  0
LINE
  8
0
 10
-53.4561
 20
-3.92555
 11
-53.4491
 21
-2.33363
  0
LINE
  8
0
 10
-53.4491
 20
-2.33363
 11
-53.3948
 21
-0.745575
  0
LINE
  8
0
 10
-53.3948
 20
-0.745575
 11
-53.2934
 21
0.837189
  0
LINE
  8
0
 10
-53.2934
 20
0.837189
 11
-53.1452
 21
2.4133
  0
LINE
  8
0
 10
-53.1452
 20
2.4133
 11
-52.9505
 21
3.98137
  0
LINE
  8
0
 10
-52.9505
 20
3.98137
 11
-52.7097
 21
5.54001
  0
LINE
  8
0
 10
-52.7097
 20
5.54001
 11
-52.423
 21
7.08786
  0
LINE
  8
0
 10
-52.423
 20
7.08786
 11
-52.091
 21
8.6236
  0
LINE
  8
0
 10
-52.091
 20
8.6236
 11
-51.7141
 21
10.1459
  0
LINE
  8
0
 10
-51.7141
 20
10.1459
 11
-51.2928
 21
11.6534
  0
LINE
  8
0
 10
-51.2928
 20
11.6534
 11
-50.8277
 21
13.1449
  0
LINE
  8
0
 10
-50.8277
 20
13.1449
 11
-50.3194
 21
14.6191
  0
LINE
  8
0
 10
-50.3194
 20
14.6191
 11
-49.7684
 21
16.0747
  0
LINE
  8
0
 10
-49.7684
 20
16.0747
 11
-49.1754
 21
17.5106
  0
LINE
  8
0
 10
-49.1754
 20
17.5106
 11
-48.5411
 21
18.9254
  0
LINE
  8
0
 10
-48.5411
 20
18.9254
 11
-47.8662
 21
20.318
  0
LINE
  8
0
 10
-47.8662
 20
20.318
 11
-47.1516
 21
21.6873
  0
LINE
  8
0
 10
-47.1516
 20
21.6873
 11
-46.3979
 21
23.0321
  0
LINE
  8
0
 10
-46.3979
 20
23.0321
 11
-45.606
 21
24.3513
  0
LINE
  8
0
 10
-45.606
 20
24.3513
 11
-44.7767
 21
25.6438
  0
LINE
  8
0
 10
-44.7767
 20
25.6438
 11
-43.911
 21
26.9087
  0
LINE
  8
0
 10
-43.911
 20
26.9087
 11
-43.0097
 21
28.1447
  0
LINE
  8
0
 10
-43.0097
 20
28.1447
 11
-42.0738
 21
29.3511
  0
LINE
  8
0
 10
-42.0738
 20
29.3511
 11
-41.1042
 21
30.5267
  0
LINE
  8
0
 10
-41.1042
 20
30.5267
 11
-40.1021
 21
31.6707
  0
LINE
  8
0
 10
-40.1021
 20
31.6707
 11
-39.0683
 21
32.7822
  0
LINE
  8
0
 10
-39.0683
 20
32.7822
 11
-38.0039
 21
33.8602
  0
LINE
  8
0
 10
-38.0039
 20
33.8602
 11
-36.91
 21
34.904
  0
LINE
  8
0
 10
-36.91
 20
34.904
 11
-35.7877
 21
35.9128
  0
LINE
  8
0
 10
-35.7877
 20
35.9128
 11
-34.6381
 21
36.8858
  0
LINE
  8
0
 10
-34.6381
 20
36.8858
 11
-33.4623
 21
37.8223
  0
LINE
  8
0
 10
-33.4623
 20
37.8223
 11
-32.2615
 21
38.7215
  0
LINE
  8
0
 10
-32.2615
 20
38.7215
 11
-31.0369
 21
39.5828
  0
LINE
  8
0
 10
-31.0369
 20
39.5828
 11
-29.7896
 21
40.4057
  0
LINE
  8
0
 10
-29.7896
 20
40.4057
 11
-28.5209
 21
41.1894
  0
LINE
  8
0
 10
-28.5209
 20
41.1894
 11
-27.2319
 21
41.9335
  0
LINE
  8
0
 10
-27.2319
 20
41.9335
 11
-25.924
 21
42.6375
  0
LINE
  8
0
 10
-25.924
 20
42.6375
 11
-24.5983
 21
43.3008
  0
LINE
  8
0
 10
-24.5983
 20
43.3008
 11
-23.2561
 21
43.9231
  0
LINE
  8
0
 10
-23.2561
 20
43.9231
 11
-21.8987
 21
44.504
  0
LINE
  8
0
 10
-21.8987
 20
44.504
 11
-20.5273
 21
45.0431
  0
LINE
  8
0
 10
-20.5273
 20
45.0431
 11
-19.1433
 21
45.54
  0
LINE
  8
0
 10
-19.1433
 20
45.54
 11
-17.7478
 21
45.9946
  0
LINE
  8
0
 10
-17.7478
 20
45.9946
 11
-16.3423
 21
46.4065
  0
LINE
  8
0
 10
-16.3423
 20
46.4065
 11
-14.928
 21
46.7757
  0
LINE
  8
0
 10
-14.928
 20
46.7757
 11
-13.5062
 21
47.1018
  0
LINE
  8
0
 10
-13.5062
 20
47.1018
 11
-12.0782
 21
47.3849
  0
LINE
  8
0
 10
-12.0782
 20
47.3849
 11
-10.6454
 21
47.6247
  0
LINE
  8
0
 10
-10.6454
 20
47.6247
 11
-9.20894
 21
47.8214
  0
LINE
  8
0
 10
-9.20894
 20
47.8214
 11
-7.77022
 21
47.9748
  0
LINE
  8
0
 10
-7.77022
 20
47.9748
 11
-6.33051
 21
48.0851
  0
LINE
  8
0
 10
-6.33051
 20
48.0851
 11
-4.89111
 21
48.1522
  0
LINE
  8
0
 10
-4.89111
 20
48.1522
 11
-3.45332
 21
48.1764
  0
LINE
  8
0
 10
-3.45332
 20
48.1764
 11
-2.0184
 21
48.1577
  0
LINE
  8
0
 10
-2.0184
 20
48.1577
 11
-0.587631
 21
48.0964
  0
LINE
  8
0
 10
-0.587631
 20
48.0964
 11
0.837708
 21
47.9927
  0
LINE
  8
0
 10
0.837708
 20
47.9927
 11
2.25639
 21
47.8468
  0
LINE
  8
0
 10
2.25639
 20
47.8468
 11
3.66716
 21
47.6591
  0
LINE
  8
0
 10
3.66716
 20
47.6591
 11
5.06879
 21
47.4299
  0
LINE
  8
0
 10
5.06879
 20
47.4299
 11
6.46005
 21
47.1596
  0
LINE
  8
0
 10
6.46005
 20
47.1596
 11
7.83975
 21
46.8486
  0
LINE
  8
0
 10
7.83975
 20
46.8486
 11
9.2067
 21
46.4973
  0
LINE
  8
0
 10
9.2067
 20
46.4973
 11
10.5597
 21
46.1062
  0
LINE
  8
0
 10
10.5597
 20
46.1062
 11
11.8977
 21
45.6759
  0
LINE
  8
0
 10
11.8977
 20
45.6759
 11
13.2194
 21
45.2068
  0
LINE
  8
0
 10
13.2194
 20
45.2068
 11
14.5238
 21
44.6996
  0
LINE
  8
0
 10
14.5238
 20
44.6996
 11
15.8098
 21
44.155
  0
LINE
  8
0
 10
15.8098
 20
44.155
 11
17.0762
 21
43.5734
  0
LINE
  8
0
 10
17.0762
 20
43.5734
 11
18.3221
 21
42.9557
  0
LINE
  8
0
 10
18.3221
 20
42.9557
 11
19.5465
 21
42.3024
  0
LINE
  8
0
 10
19.5465
 20
42.3024
 11
20.7482
 21
41.6144
  0
LINE
  8
0
 10
20.7482
 20
41.6144
 11
21.9263
 21
40.8925
  0
LINE
  8
0
 10
21.9263
 20
40.8925
 11
23.08
 21
40.1373
  0
LINE
  8
0
 10
23.08
 20
40.1373
 11
24.2081
 21
39.3498
  0
LINE
  8
0
 10
24.2081
 20
39.3498
 11
25.31
 21
38.5307
  0
LINE
  8
0
 10
25.31
 20
38.5307
 11
26.3845
 21
37.681
  0
LINE
  8
0
 10
26.3845
 20
37.681
 11
27.431
 21
36.8015
  0
LINE
  8
0
 10
27.431
 20
36.8015
 11
28.4486
 21
35.8932
  0
LINE
  8
0
 10
28.4486
 20
35.8932
 11
29.4364
 21
34.9569
  0
LINE
  8
0
 10
29.4364
 20
34.9569
 11
30.3939
 21
33.9937
  0
LINE
  8
0
 10
30.3939
 20
33.9937
 11
31.3201
 21
33.0045
  0
LINE
  8
0
 10
31.3201
 20
33.0045
 11
32.2145
 21
31.9904
  0
LINE
  8
0
 10
32.2145
 20
31.9904
 11
33.0763
 21
30.9523
  0
LINE
  8
0
 10
33.0763
 20
30.9523
 11
33.905
 21
29.8913
  0
LINE
  8
0
 10
33.905
 20
29.8913
 11
34.6999
 21
28.8084
  0
LINE
  8
0
 10
34.6999
 20
28.8084
 11
35.4605
 21
27.7048
  0
LINE
  8
0
 10
35.4605
 20
27.7048
 11
36.1862
 21
26.5814
  0
LINE
  8
0
 10
36.1862
 20
26.5814
 11
36.8765
 21
25.4394
  0
LINE
  8
0
 10
36.8765
 20
25.4394
 11
37.531
 21
24.2799
  0
LINE
  8
0
 10
37.531
 20
24.2799
 11
38.1492
 21
23.104
  0
LINE
  8
0
 10
38.1492
 20
23.104
 11
38.7308
 21
21.9128
  0
LINE
  8
0
 10
38.7308
 20
21.9128
 11
39.2754
 21
20.7076
  0
LINE
  8
0
 10
39.2754
 20
20.7076
 11
39.7826
 21
19.4893
  0
LINE
  8
0
 10
39.7826
 20
19.4893
 11
40.2522
 21
18.2592
  0
LINE
  8
0
 10
40.2522
 20
18.2592
 11
40.6839
 21
17.0184
  0
LINE
  8
0
 10
40.6839
 20
17.0184
 11
41.0775
 21
15.7682
  0
LINE
  8
0
 10
41.0775
 20
15.7682
 11
41.4329
 21
14.5096
  0
LINE
  8
0
 10
41.4329
 20
14.5096
 11
41.7497
 21
13.2438
  0
LINE
  8
0
 10
41.7497
 20
13.2438
 11
42.0281
 21
11.972
  0
LINE
  8
0
 10
42.0281
 20
11.972
 11
42.2678
 21
10.6954
  0
LINE
  8
0
 10
42.2678
 20
10.6954
 11
42.4689
 21
9.41512
  0
LINE
  8
0
 10
42.4689
 20
9.41512
 11
42.6313
 21
8.13234
  0
LINE
  8
0
 10
42.6313
 20
8.13234
 11
42.755
 21
6.84824
  0
LINE
  8
0
 10
42.755
 20
6.84824
 11
42.8402
 21
5.56396
  0
LINE
  8
0
 10
42.8402
 20
5.56396
 11
42.8869
 21
4.28067
  0
LINE
  8
0
 10
42.8869
 20
4.28067
 11
42.8952
 21
2.99953
  0
LINE
  8
0
 10
42.8952
 20
2.99953
 11
42.8654
 21
1.72165
  0
LINE
  8
0
 10
42.8654
 20
1.72165
 11
42.7977
 21
0.448181
  0
LINE
  8
0
 10
42.7977
 20
0.448181
 11
42.6921
 21
-0.819717
  0
LINE
  8
0
 10
42.6921
 20
-0.819717
 11
42.5491
 21
-2.08099
  0
LINE
  8
0
 10
42.5491
 20
-2.08099
 11
42.369
 21
-3.3345
  0
LINE
  8
0
 10
42.369
 20
-3.3345
 11
42.152
 21
-4.57916
  0
LINE
  8
0
 10
42.152
 20
-4.57916
 11
41.8985
 21
-5.8139
  0
LINE
  8
0
 10
41.8985
 20
-5.8139
 11
41.609
 21
-7.03763
  0
LINE
  8
0
 10
41.609
 20
-7.03763
 11
41.2839
 21
-8.24933
  0
LINE
  8
0
 10
41.2839
 20
-8.24933
 11
40.9235
 21
-9.44794
  0
LINE
  8
0
 10
40.9235
 20
-9.44794
 11
40.5285
 21
-10.6324
  0
LINE
  8
0
 10
40.5285
 20
-10.6324
 11
40.0993
 21
-11.8019
  0
LINE
  8
0
 10
40.0993
 20
-11.8019
 11
39.6365
 21
-12.9552
  0
LINE
  8
0
 10
39.6365
 20
-12.9552
 11
39.1406
 21
-14.0915
  0
LINE
  8
0
 10
39.1406
 20
-14.0915
 11
38.6123
 21
-15.2098
  0
LINE
  8
0
 10
38.6123
 20
-15.2098
 11
38.0522
 21
-16.3092
  0
LINE
  8
0
 10
38.0522
 20
-16.3092
 11
37.4609
 21
-17.3888
  0
LINE
  8
0
 10
37.4609
 20
-17.3888
 11
36.8391
 21
-18.4477
  0
LINE
  8
0
 10
36.8391
 20
-18.4477
 11
36.1876
 21
-19.485
  0
LINE
  8
0
 10
36.1876
 20
-19.485
 11
35.507
 21
-20.5
  0
LINE
  8
0
 10
35.507
 20
-20.5
 11
34.7982
 21
-21.4918
  0
LINE
  8
0
 10
34.7982
 20
-21.4918
 11
34.0618
 21
-22.4596
  0
LINE
  8
0
 10
34.0618
 20
-22.4596
 11
33.2987
 21
-23.4027
  0
LINE
  8
0
 10
33.2987
 20
-23.4027
 11
32.5097
 21
-24.3203
  0
LINE
  8
0
 10
32.5097
 20
-24.3203
 11
31.6956
 21
-25.2118
  0
LINE
  8
0
 10
31.6956
 20
-25.2118
 11
30.8573
 21
-26.0765
  0
LINE
  8
0
 10
30.8573
 20
-26.0765
 11
29.9957
 21
-26.9137
  0
LINE
  8
0
 10
29.9957
 20
-26.9137
 11
29.1117
 21
-27.7227
  0
LINE
  8
0
 10
29.1117
 20
-27.7227
 11
28.2061
 21
-28.5031
  0
LINE
  8
0
 10
28.2061
 20
-28.5031
 11
27.2799
 21
-29.2541
  0
LINE
  8
0
 10
27.2799
 20
-29.2541
 11
26.3341
 21
-29.9754
  0
LINE
  8
0
 10
26.3341
 20
-29.9754
 11
25.3695
 21
-30.6664
  0
LINE
  8
0
 10
25.3695
 20
-30.6664
 11
24.3871
 21
-31.3266
  0
LINE
  8
0
 10
24.3871
 20
-31.3266
 11
23.388
 21
-31.9556
  0
LINE
  8
0
 10
23.388
 20
-31.9556
 11
22.373
 21
-32.553
  0
LINE
  8
0
 10
22.373
 20
-32.553
 11
21.3433
 21
-33.1183
  0
LINE
  8
0
 10
21.3433
 20
-33.1183
 11
20.2998
 21
-33.6513
  0
LINE
  8
0
 10
20.2998
 20
-33.6513
 11
19.2434
 21
-34.1516
  0
LINE
  8
0
 10
19.2434
 20
-34.1516
 11
18.1753
 21
-34.6189
  0
LINE
  8
0
 10
18.1753
 20
-34.6189
 11
17.0965
 21
-35.053
  0
LINE
  8
0
 10
17.0965
 20
-35.053
 11
16.0079
 21
-35.4536
  0
LINE
  8
0
 10
16.0079
 20
-35.4536
 11
14.9106
 21
-35.8205
  0
LINE
  8
0
 10
14.9106
 20
-35.8205
 11
13.8058
 21
-36.1537
  0
LINE
  8
0
 10
13.8058
 20
-36.1537
 11
12.6942
 21
-36.4529
  0
LINE
  8
0
 10
12.6942
 20
-36.4529
 11
11.5772
 21
-36.7181
  0
LINE
  8
0
 10
11.5772
 20
-36.7181
 11
10.4556
 21
-36.9492
  0
LINE
  8
0
 10
10.4556
 20
-36.9492
 11
9.33044
 21
-37.1461
  0
LINE
  8
0
 10
9.33044
 20
-37.1461
 11
8.20288
 21
-37.3089
  0
LINE
  8
0
 10
8.20288
 20
-37.3089
 11
7.07388
 21
-37.4375
  0
LINE
  8
0
 10
7.07388
 20
-37.4375
 11
5.9445
 21
-37.5322
  0
LINE
  8
0
 10
5.9445
 20
-37.5322
 11
4.81573
 21
-37.5928
  0
LINE
  8
0
 10
4.81573
 20
-37.5928
 11
3.68863
 21
-37.6196
  0
LINE
  8
0
 10
3.68863
 20
-37.6196
 11
2.56416
 21
-37.6127
  0
LINE
  8
0
 10
2.56416
 20
-37.6127
 11
1.44337
 21
-37.5723
  0
LINE
  8
0
 10
1.44337
 20
-37.5723
 11
0.32724
 21
-37.4986
  0
LINE
  8
0
 10
0.32724
 20
-37.4986
 11
-0.783234
 21
-37.3918
  0
LINE
  8
0
 10
-0.783234
 20
-37.3918
 11
-1.88712
 21
-37.2522
  0
LINE
  8
0
 10
-1.88712
 20
-37.2522
 11
-2.9834
 21
-37.0802
  0
LINE
  8
0
 10
-2.9834
 20
-37.0802
 11
-4.07114
 21
-36.8759
  0
LINE
  8
0
 10
-4.07114
 20
-36.8759
 11
-5.1494
 21
-36.6399
  0
LINE
  8
0
 10
-5.1494
 20
-36.6399
 11
-6.21725
 21
-36.3725
  0
LINE
  8
0
 10
-6.21725
 20
-36.3725
 11
-7.27379
 21
-36.074
  0
LINE
  8
0
 10
-7.27379
 20
-36.074
 11
-8.3181
 21
-35.7449
  0
LINE
  8
0
 10
-8.3181
 20
-35.7449
 11
-9.3493
 21
-35.3857
  0
LINE
  8
0
 10
-9.3493
 20
-35.3857
 11
-10.3665
 21
-34.9969
  0
LINE
  8
0
 10
-10.3665
 20
-34.9969
 11
-11.369
 21
-34.579
  0
LINE
  8
0
 10
-11.369
 20
-34.579
 11
-12.3558
 21
-34.1324
  0
LINE
  8
0
 10
-12.3558
 20
-34.1324
 11
-13.3261
 21
-33.6579
  0
LINE
  8
0
 10
-13.3261
 20
-33.6579
 11
-14.2792
 21
-33.1559
  0
LINE
  8
0
 10
-14.2792
 20
-33.1559
 11
-15.2142
 21
-32.6271
  0
LINE
  8
0
 10
-15.2142
 20
-32.6271
 11
-16.1305
 21
-32.072
  0
LINE
  8
0
 10
-16.1305
 20
-32.072
 11
-17.0273
 21
-31.4914
  0
LINE
  8
0
 10
-17.0273
 20
-31.4914
 11
-17.9039
 21
-30.8859
  0
LINE
  8
0
 10
-17.9039
 20
-30.8859
 11
-18.7596
 21
-30.2562
  0
LINE
  8
0
 10
-18.7596
 20
-30.2562
 11
-19.5938
 21
-29.6029
  0
LINE
  8
0
 10
-19.5938
 20
-29.6029
 11
-20.4057
 21
-28.9269
  0
LINE
  8
0
 10
-20.4057
 20
-28.9269
 11
-21.1948
 21
-28.2289
  0
LINE
  8
0
 10
-21.1948
 20
-28.2289
 11
-21.9606
 21
-27.5095
  0
LINE
  8
0
 10
-21.9606
 20
-27.5095
 11
-22.7023
 21
-26.7697
  0
LINE
  8
0
 10
-22.7023
 20
-26.7697
 11
-23.4196
 21
-26.0101
  0
LINE
  8
0
 10
-23.4196
 20
-26.0101
 11
-24.1118
 21
-25.2316
  0
LINE
  8
0
 10
-24.1118
 20
-25.2316
 11
-24.7785
 21
-24.4349
  0
LINE
  8
0
 10
-24.7785
 20
-24.4349
 11
-25.4192
 21
-23.621
  0
LINE
  8
0
 10
-25.4192
 20
-23.621
 11
-26.0336
 21
-22.7906
  0
LINE
  8
0
 10
-26.0336
 20
-22.7906
 11
-26.621
 21
-21.9447
  0
LINE
  8
0
 10
-26.621
 20
-21.9447
 11
-27.1813
 21
-21.084
  0
LINE
  8
0
 10
-27.1813
 20
-21.084
 11
-27.7141
 21
-20.2094
  0
LINE
  8
0
 10
-27.7141
 20
-20.2094
 11
-28.2189
 21
-19.3219
  0
LINE
  8
0
 10
-28.2189
 20
-19.3219
 11
-28.6955
 21
-18.4222
  0
LINE
  8
0
 10
-28.6955
 20
-18.4222
 11
-29.1437
 21
-17.5113
  0
LINE
  8
0
 10
-29.1437
 20
-17.5113
 11
-29.5631
 21
-16.5901
  0
LINE
  8
0
 10
-29.5631
 20
-16.5901
 11
-29.9537
 21
-15.6594
  0
LINE
  8
0
 10
-29.9537
 20
-15.6594
 11
-30.3151
 21
-14.7202
  0
LINE
  8
0
 10
-30.3151
 20
-14.7202
 11
-30.6472
 21
-13.7734
  0
LINE
  8
0
 10
-30.6472
 20
-13.7734
 11
-30.95
 21
-12.8199
  0
LINE
  8
0
 10
-30.95
 20
-12.8199
 11
-31.2232
 21
-11.8606
  0
LINE
  8
0
 10
-31.2232
 20
-11.8606
 11
-31.4668
 21
-10.8963
  0
LINE
  8
0
 10
-31.4668
 20
-10.8963
 11
-31.6808
 21
-9.92815
  0
LINE
  8
0
 10
-31.6808
 20
-9.92815
 11
-31.8651
 21
-8.95686
  0
LINE
  8
0
 10
-31.8651
 20
-8.95686
 11
-32.0197
 21
-7.98341
  0
LINE
  8
0
 10
-32.0197
 20
-7.98341
 11
-32.1448
 21
-7.0087
  0
LINE
  8
0
 10
-32.1448
 20
-7.0087
 11
-32.2403
 21
-6.0336
  0
LINE
  8
0
 10
-32.2403
 20
-6.0336
 11
-32.3063
 21
-5.05902
  0
LINE
  8
0
 10
-32.3063
 20
-5.05902
 11
-32.3429
 21
-4.08586
  0
LINE
  8
0
 10
-32.3429
 20
-4.08586
 11
-32.3504
 21
-3.11497
  0
LINE
  8
0
 10
-32.3504
 20
-3.11497
 11
-32.3288
 21
-2.14726
  0
LINE
  8
0
 10
-32.3288
 20
-2.14726
 11
-32.2783
 21
-1.18358
  0
LINE
  8
0
 10
-32.2783
 20
-1.18358
 11
-32.1992
 21
-0.224792
  0
LINE
  8
0
 10
-32.1992
 20
-0.224792
 11
-32.0917
 21
0.728256
  0
LINE
  8
0
 10
-32.0917
 20
0.728256
 11
-31.9561
 21
1.67474
  0
LINE
  8
0
 10
-31.9561
 20
1.67474
 11
-31.7927
 21
2.61383
  0
LINE
  8
0
 10
-31.7927
 20
2.61383
 11
-31.6018
 21
3.54471
  0
LINE
  8
0
 10
-31.6018
 20
3.54471
 11
-31.3837
 21
4.46657
  0
LINE
  8
0
 10
-31.3837
 20
4.46657
 11
-31.1389
 21
5.37862
  0
LINE
  8
0
 10
-31.1389
 20
5.37862
 11
-30.8676
 21
6.28008
  0
LINE
  8
0
 10
-30.8676
 20
6.28008
 11
-30.5704
 21
7.17021
  0
LINE
  8
0
 10
-30.5704
 20
7.17021
 11
-30.2476
 21
8.04825
  0
LINE
  8
0
 10
-30.2476
 20
8.04825
 11
-29.8997
 21
8.91347
  0
LINE
  8
0
 10
-29.8997
 20
8.91347
 11
-29.5271
 21
9.76515
  0
LINE
  8
0
 10
-29.5271
 20
9.76515
 11
-29.1305
 21
10.6026
  0
LINE
  8
0
 10
-29.1305
 20
10.6026
 11
-28.7102
 21
11.4252
  0
LINE
  8
0
 10
-28.7102
 20
11.4252
 11
-28.2668
 21
12.2321
  0
LINE
  8
0
 10
-28.2668
 20
12.2321
 11
-27.8009
 21
13.0229
  0
LINE
  8
0
 10
-27.8009
 20
13.0229
 11
-27.3131
 21
13.7968
  0
LINE
  8
0
 10
-27.3131
 20
13.7968
 11
-26.8039
 21
14.5533
  0
LINE
  8
0
 10
-26.8039
 20
14.5533
 11
-26.2739
 21
15.2918
  0
LINE
  8
0
 10
-26.2739
 20
15.2918
 11
-25.7238
 21
16.0117
  0
LINE
  8
0
 10
-25.7238
 20
16.0117
 11
-25.1542
 21
16.7124
  0
LINE
  8
0
 10
-25.1542
 20
16.7124
 11
-24.5657
 21
17.3935
  0
LINE
  8
0
 10
-24.5657
 20
17.3935
 11
-23.9591
 21
18.0544
  0
LINE
  8
0
 10
-23.9591
 20
18.0544
 11
-23.3349
 21
18.6947
  0
LINE
  8
0
 10
-23.3349
 20
18.6947
 11
-22.6938
 21
19.314
  0
LINE
  8
0
 10
-22.6938
 20
19.314
 11
-22.0367
 21
19.9117
  0
LINE
  8
0
 10
-22.0367
 20
19.9117
 11
-21.3641
 21
20.4874
  0
LINE
  8
0
 10
-21.3641
 20
20.4874
 11
-20.6768
 21
21.0409
  0
LINE
  8
0
 10
-20.6768
 20
21.0409
 11
-19.9756
 21
21.5717
  0
LINE
  8
0
 10
-19.9756
 20
21.5717
 11
-19.2611
 21
22.0794
  0
LINE
  8
0
 10
-19.2611
 20
22.0794
 11
-18.5341
 21
22.5638
  0
LINE
  8
0
 10
-18.5341
 20
22.5638
 11
-17.7954
 21
23.0246
  0
LINE
  8
0
 10
-17.7954
 20
23.0246
 11
-17.0458
 21
23.4615
  0
LINE
  8
0
 10
-17.0458
 20
23.4615
 11
-16.2859
 21
23.8742
  0
LINE
  8
0
 10
-16.2859
 20
23.8742
 11
-15.5166
 21
24.2626
  0
LINE
  8
0
 10
-15.5166
 20
24.2626
 11
-14.7386
 21
24.6264
  0
LINE
  8
0
 10
-14.7386
 20
24.6264
 11
-13.9528
 21
24.9656
  0
LINE
  8
0
 10
-13.9528
 20
24.9656
 11
-13.1598
 21
25.2798
  0
LINE
  8
0
 10
-13.1598
 20
25.2798
 11
-12.3605
 21
25.569
  0
LINE
  8
0
 10
-12.3605
 20
25.569
 11
-11.5557
 21
25.8332
  0
LINE
  8
0
 10
-11.5557
 20
25.8332
 11
-10.7462
 21
26.0722
  0
LINE
  8
0
 10
-10.7462
 20
26.0722
 11
-9.93263
 21
26.286
  0
LINE
  8
0
 10
-9.93263
 20
26.286
 11
-9.11591
 21
26.4745
  0
LINE
  8
0
 10
-9.11591
 20
26.4745
 11
-8.29675
 21
26.6378
  0
LINE
  8
0
 10
-8.29675
 20
26.6378
 11
-7.47597
 21
26.7759
  0
LINE
  8
0
 10
-7.47597
 20
26.7759
 11
-6.65431
 21
26.8888
  0
LINE
  8
0
 10
-6.65431
 20
26.8888
 11
-5.83255
 21
26.9767
  0
LINE
  8
0
 10
-5.83255
 20
26.9767
 11
-5.01147
 21
27.0395
  0
LINE
  8
0
 10
-5.01147
 20
27.0395
 11
-4.1918
 21
27.0775
  0
LINE
  8
0
 10
-4.1918
 20
27.0775
 11
-3.37431
 21
27.0907
  0
LINE
  8
0
 10
-3.37431
 20
27.0907
 11
-2.55974
 21
27.0793
  0
LINE
  8
0
 10
-2.55974
 20
27.0793
 11
-1.74883
 21
27.0435
  0
LINE
  8
0
 10
-1.74883
 20
27.0435
 11
-0.942276
 21
26.9836
  0
LINE
  8
0
 10
-0.942276
 20
26.9836
 11
-0.140839
 21
26.8996
  0
LINE
  8
0
 10
-0.140839
 20
26.8996
 11
0.65477
 21
26.792
  0
LINE
  8
0
 10
0.65477
 20
26.792
 11
1.44389
 21
26.6609
  0
LINE
  8
0
 10
1.44389
 20
26.6609
 11
2.22583
 21
26.5067
  0
LINE
  8
0
 10
2.22583
 20
26.5067
 11
2.99988
 21
26.3297
  0
LINE
  8
0
 10
2.99988
 20
26.3297
 11
3.7654
 21
26.1301
  0
LINE
  8
0
 10
3.7654
 20
26.1301
 11
4.52173
 21
25.9084
  0
LINE
  8
0
 10
4.52173
 20
25.9084
 11
5.26823
 21
25.6649
  0
LINE
  8
0
 10
5.26823
 20
25.6649
 11
6.00429
 21
25.4
  0
LINE
  8
0
 10
6.00429
 20
25.4
 11
6.72929
 21
25.1141
  0
LINE
  8
0
 10
6.72929
 20
25.1141
 11
7.44263
 21
24.8076
  0
LINE
  8
0
 10
7.44263
 20
24.8076
 11
8.14374
 21
24.481
  0
LINE
  8
0
 10
8.14374
 20
24.481
 11
8.83205
 21
24.1347
  0
LINE
  8
0
 10
8.83205
 20
24.1347
 11
9.507
 21
23.7692
  0
LINE
  8
0
 10
9.507
 20
23.7692
 11
10.1681
 21
23.385
  0
LINE
  8
0
 10
10.1681
 20
23.385
 11
10.8148
 21
22.9826
  0
LINE
  8
0
 10
10.8148
 20
22.9826
 11
11.4466
 21
22.5625
  0
LINE
  8
0
 10
11.4466
 20
22.5625
 11
12.063
 21
22.1252
  0
LINE
  8
0
 10
12.063
 20
22.1252
 11
12.6636
 21
21.6712
  0
LINE
  8
0
 10
12.6636
 20
21.6712
 11
13.248
 21
21.2012
  0
LINE
  8
0
 10
13.248
 20
21.2012
 11
13.8156
 21
20.7157
  0
LINE
  8
0
 10
13.8156
 20
20.7157
 11
14.3662
 21
20.2152
  0
LINE
  8
0
 10
14.3662
 20
20.2152
 11
14.8992
 21
19.7003
  0
LINE
  8
0
 10
14.8992
 20
19.7003
 11
15.4144
 21
19.1717
  0
LINE
  8
0
 10
15.4144
 20
19.1717
 11
15.9115
 21
18.6299
  0
LINE
  8
0
 10
15.9115
 20
18.6299
 11
16.39
 21
18.0756
  0
LINE
  8
0
 10
16.39
 20
18.0756
 11
16.8497
 21
17.5094
  0
LINE
  8
0
 10
16.8497
 20
17.5094
 11
17.2902
 21
16.9318
  0
LINE
  8
0
 10
17.2902
 20
16.9318
 11
17.7114
 21
16.3436
  0
LINE
  8
0
 10
17.7114
 20
16.3436
 11
18.113
 21
15.7454
  0
LINE
  8
0
 10
18.113
 20
15.7454
 11
18.4948
 21
15.1378
  0
LINE
  8
0
 10
18.4948
 20
15.1378
 11
18.8565
 21
14.5215
  0
LINE
  8
0
 10
18.8565
 20
14.5215
 11
19.198
 21
13.897
  0
LINE
  8
0
 10
19.198
 20
13.897
 11
19.5191
 21
13.2652
  0
LINE
  8
0
 10
19.5191
 20
13.2652
 11
19.8197
 21
12.6265
  0
LINE
  8
0
 10
19.8197
 20
12.6265
 11
20.0997
 21
11.9818
  0
LINE
  8
0
 10
20.0997
 20
11.9818
 11
20.3589
 21
11.3316
  0
LINE
  8
0
 10
20.3589
 20
11.3316
 11
20.5973
 21
10.6766
  0
LINE
  8
0
 10
20.5973
 20
10.6766
 11
20.8149
 21
10.0175
  0
LINE
  8
0
 10
20.8149
 20
10.0175
 11
21.0115
 21
9.35493
  0
LINE
  8
0
 10
21.0115
 20
9.35493
 11
21.1873
 21
8.68954
  0
LINE
  8
0
 10
21.1873
 20
8.68954
 11
21.3421
 21
8.02199
  0
LINE
  8
0
 10
21.3421
 20
8.02199
 11
21.4761
 21
7.35292
  0
LINE
  8
0
 10
21.4761
 20
7.35292
 11
21.5893
 21
6.683
  0
LINE
  8
0
 10
21.5893
 20
6.683
 11
21.6817
 21
6.01286
  0
LINE
  8
0
 10
21.6817
 20
6.01286
 11
21.7534
 21
5.34314
  0
LINE
  8
0
 10
21.7534
 20
5.34314
 11
21.8046
 21
4.67448
  0
LINE
  8
0
 10
21.8046
 20
4.67448
 11
21.8353
 21
4.00752
  0
LINE
  8
0
 10
21.8353
 20
4.00752
 11
21.8457
 21
3.34285
  0
LINE
  8
0
 10
21.8457
 20
3.34285
 11
21.836
 21
2.68112
  0
LINE
  8
0
 10
21.836
 20
2.68112
 11
21.8064
 21
2.0229
  0
LINE
  8
0
 10
21.8064
 20
2.0229
 11
21.757
 21
1.36882
  0
LINE
  8
0
 10
21.757
 20
1.36882
 11
21.6881
 21
0.719467
  0
LINE
  8
0
 10
21.6881
 20
0.719467
 11
21.5999
 21
0.0753937
  0
LINE
  8
0
 10
21.5999
 20
0.0753937
 11
21.4926
 21
-0.56279
  0
LINE
  8
0
 10
21.4926
 20
-0.56279
 11
21.3666
 21
-1.19458
  0
LINE
  8
0
 10
21.3666
 20
-1.19458
 11
21.2222
 21
-1.81937
  0
LINE
  8
0
 10
21.2222
 20
-1.81937
 11
21.0595
 21
-2.43666
  0
LINE
  8
0
 10
21.0595
 20
-2.43666
 11
20.879
 21
-3.04591
  0
LINE
  8
0
 10
20.879
 20
-3.04591
 11
20.681
 21
-3.64661
  0
LINE
  8
0
 10
20.681
 20
-3.64661
 11
20.4657
 21
-4.23825
  0
LINE
  8
0
 10
20.4657
 20
-4.23825
 11
20.2337
 21
-4.82034
  0
LINE
  8
0
 10
20.2337
 20
-4.82034
 11
19.9853
 21
-5.39244
  0
LINE
  8
0
 10
19.9853
 20
-5.39244
 11
19.7208
 21
-5.95404
  0
LINE
  8
0
 10
19.7208
 20
-5.95404
 11
19.4406
 21
-6.50473
  0
LINE
  8
0
 10
19.4406
 20
-6.50473
 11
19.1452
 21
-7.04408
  0
LINE
  8
0
 10
19.1452
 20
-7.04408
 11
18.8351
 21
-7.57164
  0
LINE
  8
0
 10
18.8351
 20
-7.57164
 11
18.5105
 21
-8.08704
  0
LINE
  8
0
 10
18.5105
 20
-8.08704
 11
18.1721
 21
-8.58989
  0
LINE
  8
0
 10
18.1721
 20
-8.58989
 11
17.8201
 21
-9.0798
  0
LINE
  8
0
 10
17.8201
 20
-9.0798
 11
17.4552
 21
-9.55644
  0
LINE
  8
0
 10
17.4552
 20
-9.55644
 11
17.0954
 21
-9.99905
  0
LINE
  8
0
 10
17.0954
 20
-9.99905
 11
16.7036
 21
-10.4538
  0
LINE
  8
0
 10
16.7036
 20
-10.4538
 11
16.2999
 21
-10.8941
  0
LINE
  8
0
 10
16.2999
 20
-10.8941
 11
15.8848
 21
-11.3197
  0
LINE
  8
0
 10
15.8848
 20
-11.3197
 11
15.459
 21
-11.7302
  0
LINE
  8
0
 10
15.459
 20
-11.7302
 11
15.0227
 21
-12.1257
  0
LINE
  8
0
 10
15.0227
 20
-12.1257
 11
14.5767
 21
-12.5056
  0
LINE
  8
0
 10
14.5767
 20
-12.5056
 11
14.1214
 21
-12.8697
  0
LINE
  8
0
 10
14.1214
 20
-12.8697
 11
13.6575
 21
-13.2179
  0
LINE
  8
0
 10
13.6575
 20
-13.2179
 11
13.1854
 21
-13.55
  0
LINE
  8
0
 10
13.1854
 20
-13.55
 11
12.7057
 21
-13.8657
  0
LINE
  8
0
 10
12.7057
 20
-13.8657
 11
12.2189
 21
-14.165
  0
LINE
  8
0
 10
12.2189
 20
-14.165
 11
11.7256
 21
-14.4476
  0
LINE
  8
0
 10
11.7256
 20
-14.4476
 11
11.2264
 21
-14.7135
  0
LINE
  8
0
 10
11.2264
 20
-14.7135
 11
10.7217
 21
-14.9626
  0
LINE
  8
0
 10
10.7217
 20
-14.9626
 11
10.2122
 21
-15.1947
  0
LINE
  8
0
 10
10.2122
 20
-15.1947
 11
9.69849
 21
-15.4099
  0
LINE
  8
0
 10
9.69849
 20
-15.4099
 11
9.181
 21
-15.608
  0
LINE
  8
0
 10
9.181
 20
-15.608
 11
8.66034
 21
-15.7891
  0
LINE
  8
0
 10
8.66034
 20
-15.7891
 11
8.13707
 21
-15.9531
  0
LINE
  8
0
 10
8.13707
 20
-15.9531
 11
7.61174
 21
-16.1
  0
LINE
  8
0
 10
7.61174
 20
-16.1
 11
7.0849
 21
-16.2299
  0
LINE
  8
0
 10
7.0849
 20
-16.2299
 11
6.5571
 21
-16.3427
  0
LINE
  8
0
 10
6.5571
 20
-16.3427
 11
6.02887
 21
-16.4386
  0
LINE
  8
0
 10
6.02887
 20
-16.4386
 11
5.50076
 21
-16.5177
  0
LINE
  8
0
 10
5.50076
 20
-16.5177
 11
4.9733
 21
-16.5799
  0
LINE
  8
0
 10
4.9733
 20
-16.5799
 11
4.44702
 21
-16.6255
  0
LINE
  8
0
 10
4.44702
 20
-16.6255
 11
3.92244
 21
-16.6545
  0
LINE
  8
0
 10
3.92244
 20
-16.6545
 11
3.40009
 21
-16.6671
  0
LINE
  8
0
 10
3.40009
 20
-16.6671
 11
2.88045
 21
-16.6635
  0
LINE
  8
0
 10
2.88045
 20
-16.6635
 11
2.36404
 21
-16.6438
  0
LINE
  8
0
 10
2.36404
 20
-16.6438
 11
1.85136
 21
-16.6082
  0
LINE
  8
0
 10
1.85136
 20
-16.6082
 11
1.3429
 21
-16.557
  0
LINE
  8
0
 10
1.3429
 20
-16.557
 11
0.839111
 21
-16.4902
  0
LINE
  8
0
 10
0.839111
 20
-16.4902
 11
0.340469
 21
-16.4083
  0
LINE
  8
0
 10
0.340469
 20
-16.4083
 11
-0.152542
 21
-16.3114
  0
LINE
  8
0
 10
-0.152542
 20
-16.3114
 11
-0.639511
 21
-16.1997
  0
LINE
  8
0
 10
-0.639511
 20
-16.1997
 11
-1.12
 21
-16.0736
  0
LINE
  8
0
 10
-1.12
 20
-16.0736
 11
-1.59355
 21
-15.9333
  0
LINE
  8
0
 10
-1.59355
 20
-15.9333
 11
-2.05977
 21
-15.7792
  0
LINE
  8
0
 10
-2.05977
 20
-15.7792
 11
-2.51826
 21
-15.6116
  0
LINE
  8
0
 10
-2.51826
 20
-15.6116
 11
-2.96863
 21
-15.4307
  0
LINE
  8
0
 10
-2.96863
 20
-15.4307
 11
-3.41048
 21
-15.2369
  0
LINE
  8
0
 10
-3.41048
 20
-15.2369
 11
-3.84346
 21
-15.0305
  0
LINE
  8
0
 10
-3.84346
 20
-15.0305
 11
-4.26723
 21
-14.812
  0
LINE
  8
0
 10
-4.26723
 20
-14.812
 11
-4.68141
 21
-14.5817
  0
LINE
  8
0
 10
-4.68141
 20
-14.5817
 11
-5.08572
 21
-14.3399
  0
LINE
  8
0
 10
-5.08572
 20
-14.3399
 11
-5.47983
 21
-14.087
  0
LINE
  8
0
 10
-5.47983
 20
-14.087
 11
-5.86342
 21
-13.8235
  0
LINE
  8
0
 10
-5.86342
 20
-13.8235
 11
-6.23624
 21
-13.5496
  0
LINE
  8
0
 10
-6.23624
 20
-13.5496
 11
-6.59799
 21
-13.2659
  0
LINE
  8
0
 10
-6.59799
 20
-13.2659
 11
-6.94846
 21
-12.9728
  0
LINE
  8
0
 10
-6.94846
 20
-12.9728
 11
-7.28735
 21
-12.6706
  0
LINE
  8
0
 10
-7.28735
 20
-12.6706
 11
-7.61449
 21
-12.3598
  0
LINE
  8
0
 10
-7.61449
 20
-12.3598
 11
-7.92963
 21
-12.0409
  0
LINE
  8
0
 10
-7.92963
 20
-12.0409
 11
-8.23259
 21
-11.7142
  0
LINE
  8
0
 10
-8.23259
 20
-11.7142
 11
-8.52319
 21
-11.3802
  0
LINE
  8
0
 10
-8.52319
 20
-11.3802
 11
-8.80127
 21
-11.0393
  0
LINE
  8
0
 10
-8.80127
 20
-11.0393
 11
-9.06668
 21
-10.692
  0
LINE
  8
0
 10
-9.06668
 20
-10.692
 11
-9.31929
 21
-10.3388
  0
LINE
  8
0
 10
-9.31929
 20
-10.3388
 11
-9.55898
 21
-9.98007
  0
LINE
  8
0
 10
-9.55898
 20
-9.98007
 11
-9.78563
 21
-9.61629
  0
LINE
  8
0
 10
-9.78563
 20
-9.61629
 11
-9.99916
 21
-9.24791
  0
LINE
  8
0
 10
-9.99916
 20
-9.24791
 11
-10.1995
 21
-8.87538
  0
LINE
  8
0
 10
-10.1995
 20
-8.87538
 11
-10.3866
 21
-8.49918
  0
LINE
  8
0
 10
-10.3866
 20
-8.49918
 11
-10.5605
 21
-8.11975
  0
LINE
  8
0
 10
-10.5605
 20
-8.11975
 11
-10.721
 21
-7.73755
  0
LINE
  8
0
 10
-10.721
 20
-7.73755
 11
-10.8682
 21
-7.35301
  0
LINE
  8
0
 10
-10.8682
 20
-7.35301
 11
-11.0022
 21
-6.96663
  0
LINE
  8
0
 10
-11.0022
 20
-6.96663
 11
-11.1228
 21
-6.57881
  0
LINE
  8
0
 10
-11.1228
 20
-6.57881
 11
-11.2301
 21
-6.19002
  0
LINE
  8
0
 10
-11.2301
 20
-6.19002
 11
-11.3243
 21
-5.8007
  0
LINE
  8
0
 10
-11.3243
 20
-5.8007
 11
-11.4053
 21
-5.4113
  0
LINE
  8
0
 10
-11.4053
 20
-5.4113
 11
-11.4733
 21
-5.02223
  0
LINE
  8
0
 10
-11.4733
 20
-5.02223
 11
-11.5283
 21
-4.63394
  0
LINE
  8
0
 10
-11.5283
 20
-4.63394
 11
-11.5704
 21
-4.24686
  0
LINE
  8
0
 10
-11.5704
 20
-4.24686
 11
-11.5998
 21
-3.86137
  0
LINE
  8
0
 10
-11.5998
 20
-3.86137
 11
-11.6166
 21
-3.47794
  0
LINE
  8
0
 10
-11.6166
 20
-3.47794
 11
-11.621
 21
-3.09692
  0
LINE
  8
0
 10
-11.621
 20
-3.09692
 11
-11.613
 21
-2.71875
  0
LINE
  8
0
 10
-11.613
 20
-2.71875
 11
-11.5929
 21
-2.3438
  0
LINE
  8
0
 10
-11.5929
 20
-2.3438
 11
-11.5609
 21
-1.97246
  0
LINE
  8
0
 10
-11.5609
 20
-1.97246
 11
-11.5171
 21
-1.60512
  0
LINE
  8
0
 10
-11.5171
 20
-1.60512
 11
-11.4618
 21
-1.24211
  0
LINE
  8
0
 10
-11.4618
 20
-1.24211
 11
-11.3952
 21
-0.883835
  0
LINE
  8
0
 10
-11.3952
 20
-0.883835
 11
-11.3175
 21
-0.530609
  0
LINE
  8
0
 10
-11.3175
 20
-0.530609
 11
-11.229
 21
-0.182785
  0
LINE
  8
0
 10
-11.229
 20
-0.182785
 11
-11.1299
 21
0.159286
  0
LINE
  8
0
 10
-11.1299
 20
0.159286
 11
-11.0204
 21
0.495331
  0
LINE
  8
0
 10
-11.0204
 20
0.495331
 11
-10.9009
 21
0.825012
  0
LINE
  8
0
 10
-10.9009
 20
0.825012
 11
-10.7716
 21
1.14804
  0
LINE
  8
0
 10
-10.7716
 20
1.14804
 11
-10.1213
 21
2.12131
  0
LINE
  8
0
 10
-10.1213
 20
2.12131
 11
-9.14804
 21
2.77164
  0
LINE
  8
0
 10
-9.14804
 20
2.77164
 11
-8
 21
3
  0
LINE
  8
0
 10
-8
 20
3
 11
-6.85194
 21
2.77164
  0
LINE
  8
0
 10
-6.85194
 20
2.77164
 11
-5.87868
 21
2.12131
  0
LINE
  8
0
 10
-5.87868
 20
2.12131
 11
-5.22835
 21
1.14804
  0
LINE
  8
0
 10
-5.22835
 20
1.14804
 11
-5
 21
0
  0
LINE
  8
0
 10
-5
 20
0
 11
-5.22835
 21
-1.14804
  0
LINE
  8
0
 10
-5.22835
 20
-1.14804
 11
-5.29195
 21
-1.3056
  0
LINE
  8
0
 10
-5.29195
 20
-1.3056
 11
-5.35071
 21
-1.46796
  0
LINE
  8
0
 10
-5.35071
 20
-1.46796
 11
-5.40442
 21
-1.63493
  0
LINE
  8
0
 10
-5.40442
 20
-1.63493
 11
-5.45282
 21
-1.80638
  0
LINE
  8
0
 10
-5.45282
 20
-1.80638
 11
-5.49574
 21
-1.98213
  0
LINE
  8
0
 10
-5.49574
 20
-1.98213
 11
-5.53294
 21
-2.16202
  0
LINE
  8
0
 10
-5.53294
 20
-2.16202
 11
-5.56421
 21
-2.34583
  0
LINE
  8
0
 10
-5.56421
 20
-2.34583
 11
-5.58937
 21
-2.53337
  0
LINE
  8
0
 10
-5.58937
 20
-2.53337
 11
-5.60822
 21
-2.72446
  0
LINE
  8
0
 10
-5.60822
 20
-2.72446
 11
-5.62054
 21
-2.91887
  0
LINE
  8
0
 10
-5.62054
 20
-2.91887
 11
-5.62621
 21
-3.11639
  0
LINE
  8
0
 10
-5.62621
 20
-3.11639
 11
-5.625
 21
-3.31679
  0
LINE
  8
0
 10
-5.625
 20
-3.31679
 11
-5.61678
 21
-3.51982
  0
LINE
  8
0
 10
-5.61678
 20
-3.51982
 11
-5.60138
 21
-3.72525
  0
LINE
  8
0
 10
-5.60138
 20
-3.72525
 11
-5.57866
 21
-3.93285
  0
LINE
  8
0
 10
-5.57866
 20
-3.93285
 11
-5.54848
 21
-4.14232
  0
LINE
  8
0
 10
-5.54848
 20
-4.14232
 11
-5.5107
 21
-4.35342
  0
LINE
  8
0
 10
-5.5107
 20
-4.35342
 11
-5.46519
 21
-4.56589
  0
LINE
  8
0
 10
-5.46519
 20
-4.56589
 11
-5.41187
 21
-4.77945
  0
LINE
  8
0
 10
-5.41187
 20
-4.77945
 11
-5.3506
 21
-4.99382
  0
LINE
  8
0
 10
-5.3506
 20
-4.99382
 11
-5.2813
 21
-5.20871
  0
LINE
  8
0
 10
-5.2813
 20
-5.20871
 11
-5.20389
 21
-5.42383
  0
LINE
  8
0
 10
-5.20389
 20
-5.42383
 11
-5.1183
 21
-5.63889
  0
LINE
  8
0
 10
-5.1183
 20
-5.63889
 11
-5.02446
 21
-5.85359
  0
LINE
  8
0
 10
-5.02446
 20
-5.85359
 11
-4.92233
 21
-6.06763
  0
LINE
  8
0
 10
-4.92233
 20
-6.06763
 11
-4.81184
 21
-6.2807
  0
LINE
  8
0
 10
-4.81184
 20
-6.2807
 11
-4.69299
 21
-6.49249
  0
LINE
  8
0
 10
-4.69299
 20
-6.49249
 11
-4.56575
 21
-6.70271
  0
LINE
  8
0
 10
-4.56575
 20
-6.70271
 11
-4.43011
 21
-6.91103
  0
LINE
  8
0
 10
-4.43011
 20
-6.91103
 11
-4.28607
 21
-7.11713
  0
LINE
  8
0
 10
-4.28607
 20
-7.11713
 11
-4.13364
 21
-7.32069
  0
LINE
  8
0
 10
-4.13364
 20
-7.32069
 11
-3.97285
 21
-7.52141
  0
LINE
  8
0
 10
-3.97285
 20
-7.52141
 11
-3.80374
 21
-7.71896
  0
LINE
  8
0
 10
-3.80374
 20
-7.71896
 11
-3.62637
 21
-7.91302
  0
LINE
  8
0
 10
-3.62637
 20
-7.91302
 11
-3.44078
 21
-8.10329
  0
LINE
  8
0
 10
-3.44078
 20
-8.10329
 11
-3.24704
 21
-8.28943
  0
LINE
  8
0
 10
-3.24704
 20
-8.28943
 11
-3.04526
 21
-8.47112
  0
LINE
  8
0
 10
-3.04526
 20
-8.47112
 11
-2.83549
 21
-8.64807
  0
LINE
  8
0
 10
-2.83549
 20
-8.64807
 11
-2.61789
 21
-8.81995
  0
LINE
  8
0
 10
-2.61789
 20
-8.81995
 11
-2.39255
 21
-8.98645
  0
LINE
  8
0
 10
-2.39255
 20
-8.98645
 11
-2.15959
 21
-9.14726
  0
LINE
  8
0
 10
-2.15959
 20
-9.14726
 11
-1.91917
 21
-9.30208
  0
LINE
  8
0
 10
-1.91917
 20
-9.30208
 11
-1.67143
 21
-9.45059
  0
LINE
  8
0
 10
-1.67143
 20
-9.45059
 11
-1.41655
 21
-9.59253
  0
LINE
  8
0
 10
-1.41655
 20
-9.59253
 11
-1.15471
 21
-9.72757
  0
LINE
  8
0
 10
-1.15471
 20
-9.72757
 11
-0.886063
 21
-9.85542
  0
LINE
  8
0
 10
-0.886063
 20
-9.85542
 11
-0.61084
 21
-9.97583
  0
LINE
  8
0
 10
-0.61084
 20
-9.97583
 11
-0.329239
 21
-10.0885
  0
LINE
  8
0
 10
-0.329239
 20
-10.0885
 11
-0.0414734
 21
-10.1931
  0
LINE
  8
0
 10
-0.0414734
 20
-10.1931
 11
0.252213
 21
-10.2895
  0
LINE
  8
0
 10
0.252213
 20
-10.2895
 11
0.549438
 21
-10.3767
  0
LINE
  8
0
 10
0.549438
 20
-10.3767
 11
0.838547
 21
-10.4517
  0
LINE
  8
0
 10
0.838547
 20
-10.4517
 11
1.13255
 21
-10.5186
  0
LINE
  8
0
 10
1.13255
 20
-10.5186
 11
1.43153
 21
-10.5773
  0
LINE
  8
0
 10
1.43153
 20
-10.5773
 11
1.73468
 21
-10.6273
  0
LINE
  8
0
 10
1.73468
 20
-10.6273
 11
2.0426
 21
-10.6687
  0
LINE
  8
0
 10
2.0426
 20
-10.6687
 11
2.35455
 21
-10.7011
  0
LINE
  8
0
 10
2.35455
 20
-10.7011
 11
2.66978
 21
-10.7243
  0
LINE
  8
0
 10
2.66978
 20
-10.7243
 11
2.98895
 21
-10.7381
  0
LINE
  8
0
 10
2.98895
 20
-10.7381
 11
3.3111
 21
-10.7424
  0
LINE
  8
0
 10
3.3111
 20
-10.7424
 11
3.63655
 21
-10.7369
  0
LINE
  8
0
 10
3.63655
 20
-10.7369
 11
3.96443
 21
-10.7215
  0
LINE
  8
0
 10
3.96443
 20
-10.7215
 11
4.29442
 21
-10.696
  0
LINE
  8
0
 10
4.29442
 20
-10.696
 11
4.62654
 21
-10.6603
  0
LINE
  8
0
 10
4.62654
 20
-10.6603
 11
4.96049
 21
-10.6142
  0
LINE
  8
0
 10
4.96049
 20
-10.6142
 11
5.29567
 21
-10.5577
  0
LINE
  8
0
 10
5.29567
 20
-10.5577
 11
5.63219
 21
-10.4904
  0
LINE
  8
0
 10
5.63219
 20
-10.4904
 11
5.96941
 21
-10.4124
  0
LINE
  8
0
 10
5.96941
 20
-10.4124
 11
6.30634
 21
-10.3237
  0
LINE
  8
0
 10
6.30634
 20
-10.3237
 11
6.6442
 21
-10.2238
  0
LINE
  8
0
 10
6.6442
 20
-10.2238
 11
6.98108
 21
-10.1131
  0
LINE
  8
0
 10
6.98108
 20
-10.1131
 11
7.31758
 21
-9.9912
  0
LINE
  8
0
 10
7.31758
 20
-9.9912
 11
7.65274
 21
-9.85825
  0
LINE
  8
0
 10
7.65274
 20
-9.85825
 11
7.98679
 21
-9.71397
  0
LINE
  8
0
 10
7.98679
 20
-9.71397
 11
8.31902
 21
-9.55847
  0
LINE
  8
0
 10
8.31902
 20
-9.55847
 11
8.64877
 21
-9.39188
  0
LINE
  8
0
 10
8.64877
 20
-9.39188
 11
8.97614
 21
-9.21394
  0
LINE
  8
0
 10
8.97614
 20
-9.21394
 11
9.30032
 21
-9.0249
  0
LINE
  8
0
 10
9.30032
 20
-9.0249
 11
9.62144
 21
-8.82449
  0
LINE
  8
0
 10
9.62144
 20
-8.82449
 11
9.93904
 21
-8.61276
  0
LINE
  8
0
 10
9.93904
 20
-8.61276
 11
10.2521
 21
-8.3902
  0
LINE
  8
0
 10
10.2521
 20
-8.3902
 11
10.561
 21
-8.15633
  0
LINE
  8
0
 10
10.561
 20
-8.15633
 11
10.8651
 21
-7.91136
  0
LINE
  8
0
 10
10.8651
 20
-7.91136
 11
11.1638
 21
-7.65552
  0
LINE
  8
0
 10
11.1638
 20
-7.65552
 11
11.4568
 21
-7.38892
  0
LINE
  8
0
 10
11.4568
 20
-7.38892
 11
11.7439
 21
-7.1115
  0
LINE
  8
0
 10
11.7439
 20
-7.1115
 11
12.0246
 21
-6.82353
  0
LINE
  8
0
 10
12.0246
 20
-6.82353
 11
12.2985
 21
-6.52504
  0
LINE
  8
0
 10
12.2985
 20
-6.52504
 11
12.5652
 21
-6.21625
  0
LINE
  8
0
 10
12.5652
 20
-6.21625
 11
12.8246
 21
-5.89699
  0
LINE
  8
0
 10
12.8246
 20
-5.89699
 11
13.0758
 21
-5.56818
  0
LINE
  8
0
 10
13.0758
 20
-5.56818
 11
13.3188
 21
-5.22951
  0
LINE
  8
0
 10
13.3188
 20
-5.22951
 11
13.5535
 21
-4.8808
  0
LINE
  8
0
 10
13.5535
 20
-4.8808
 11
13.7787
 21
-4.52325
  0
LINE
  8
0
 10
13.7787
 20
-4.52325
 11
13.9949
 21
-4.15625
  0
LINE
  8
0
 10
13.9949
 20
-4.15625
 11
14.2013
 21
-3.78046
  0
LINE
  8
0
 10
14.2013
 20
-3.78046
 11
14.3977
 21
-3.3958
  0
LINE
  8
0
 10
14.3977
 20
-3.3958
 11
14.5837
 21
-3.00296
  0
LINE
  8
0
 10
14.5837
 20
-3.00296
 11
14.759
 21
-2.60207
  0
LINE
  8
0
 10
14.759
 20
-2.60207
 11
14.9234
 21
-2.19287
  0
LINE
  8
0
 10
14.9234
 20
-2.19287
 11
15.0764
 21
-1.77666
  0
LINE
  8
0
 10
15.0764
 20
-1.77666
 11
15.2178
 21
-1.35283
  0
LINE
  8
0
 10
15.2178
 20
-1.35283
 11
15.3472
 21
-0.922485
  0
LINE
  8
0
 10
15.3472
 20
-0.922485
 11
15.4644
 21
-0.485657
  0
LINE
  8
0
 10
15.4644
 20
-0.485657
 11
15.5691
 21
-0.04245
  0
LINE
  8
0
 10
15.5691
 20
-0.04245
 11
15.6612
 21
0.40712
  0
LINE
  8
0
 10
15.6612
 20
0.40712
 11
15.7401
 21
0.861465
  0
LINE
  8
0
 10
15.7401
 20
0.861465
 11
15.8058
 21
1.32115
  0
LINE
  8
0
 10
15.8058
 20
1.32115
 11
15.8581
 21
1.78558
  0
LINE
  8
0
 10
15.8581
 20
1.78558
 11
15.8966
 21
2.2543
  0
LINE
  8
0
 10
15.8966
 20
2.2543
 11
15.9212
 21
2.72679
  0
LINE
  8
0
 10
15.9212
 20
2.72679
 11
15.9316
 21
3.20288
  0
LINE
  8
0
 10
15.9316
 20
3.20288
 11
15.9278
 21
3.68211
  0
LINE
  8
0
 10
15.9278
 20
3.68211
 11
15.9094
 21
4.16357
  0
LINE
  8
0
 10
15.9094
 20
4.16357
 11
15.8764
 21
4.64813
  0
LINE
  8
0
 10
15.8764
 20
4.64813
 11
15.8287
 21
5.13368
  0
LINE
  8
0
 10
15.8287
 20
5.13368
 11
15.766
 21
5.62032
  0
LINE
  8
0
 10
15.766
 20
5.62032
 11
15.6882
 21
6.10854
  0
LINE
  8
0
 10
15.6882
 20
6.10854
 11
15.5954
 21
6.59618
  0
LINE
  8
0
 10
15.5954
 20
6.59618
 11
15.4872
 21
7.08449
  0
LINE
  8
0
 10
15.4872
 20
7.08449
 11
15.3637
 21
7.57228
  0
LINE
  8
0
 10
15.3637
 20
7.57228
 11
15.2249
 21
8.05835
  0
LINE
  8
0
 10
15.2249
 20
8.05835
 11
15.0706
 21
8.54337
  0
LINE
  8
0
 10
15.0706
 20
8.54337
 11
14.9011
 21
9.02579
  0
LINE
  8
0
 10
14.9011
 20
9.02579
 11
14.7158
 21
9.50632
  0
LINE
  8
0
 10
14.7158
 20
9.50632
 11
14.5152
 21
9.98341
  0
LINE
  8
0
 10
14.5152
 20
9.98341
 11
14.2992
 21
10.457
  0
LINE
  8
0
 10
14.2992
 20
10.457
 11
14.0675
 21
10.927
  0
LINE
  8
0
 10
14.0675
 20
10.927
 11
13.8208
 21
11.3917
  0
LINE
  8
0
 10
13.8208
 20
11.3917
 11
13.5586
 21
11.852
  0
LINE
  8
0
 10
13.5586
 20
11.852
 11
13.2811
 21
12.3066
  0
LINE
  8
0
 10
13.2811
 20
12.3066
 11
12.9885
 21
12.7553
  0
LINE
  8
0
 10
12.9885
 20
12.7553
 11
12.6814
 21
13.1967
  0
LINE
  8
0
 10
12.6814
 20
13.1967
 11
12.3587
 21
13.632
  0
LINE
  8
0
 10
12.3587
 20
13.632
 11
12.0148
 21
14.0675
  0
LINE
  8
0
 10
12.0148
 20
14.0675
 11
11.6548
 21
14.4957
  0
LINE
  8
0
 10
11.6548
 20
14.4957
 11
11.28
 21
14.9148
  0
LINE
  8
0
 10
11.28
 20
14.9148
 11
10.8905
 21
15.3244
  0
LINE
  8
0
 10
10.8905
 20
15.3244
 11
10.4866
 21
15.7239
  0
LINE
  8
0
 10
10.4866
 20
15.7239
 11
10.0685
 21
16.1129
  0
LINE
  8
0
 10
10.0685
 20
16.1129
 11
9.63647
 21
16.4908
  0
LINE
  8
0
 10
9.63647
 20
16.4908
 11
9.19087
 21
16.8573
  0
LINE
  8
0
 10
9.19087
 20
16.8573
 11
8.73198
 21
17.2117
  0
LINE
  8
0
 10
8.73198
 20
17.2117
 11
8.26012
 21
17.5536
  0
LINE
  8
0
 10
8.26012
 20
17.5536
 11
7.7756
 21
17.8827
  0
LINE
  8
0
 10
7.7756
 20
17.8827
 11
7.27881
 21
18.1983
  0
LINE
  8
0
 10
7.27881
 20
18.1983
 11
6.7701
 21
18.5002
  0
LINE
  8
0
 10
6.7701
 20
18.5002
 11
6.24985
 21
18.7877
  0
LINE
  8
0
 10
6.24985
 20
18.7877
 11
5.71846
 21
19.0607
  0
LINE
  8
0
 10
5.71846
 20
19.0607
 11
5.17638
 21
19.3185
  0
LINE
  8
0
 10
5.17638
 20
19.3185
 11
4.62399
 21
19.5609
  0
LINE
  8
0
 10
4.62399
 20
19.5609
 11
4.06177
 21
19.7874
  0
LINE
  8
0
 10
4.06177
 20
19.7874
 11
3.49016
 21
19.9977
  0
LINE
  8
0
 10
3.49016
 20
19.9977
 11
2.90962
 21
20.1914
  0
LINE
  8
0
 10
2.90962
 20
20.1914
 11
2.32066
 21
20.3682
  0
LINE
  8
0
 10
2.32066
 20
20.3682
 11
1.72375
 21
20.5277
  0
LINE
  8
0
 10
1.72375
 20
20.5277
 11
1.11943
 21
20.6697
  0
LINE
  8
0
 10
1.11943
 20
20.6697
 11
0.508179
 21
20.7938
  0
LINE
  8
0
 10
0.508179
 20
20.7938
 11
-0.109421
 21
20.8997
  0
LINE
  8
0
 10
-0.109421
 20
20.8997
 11
-0.73288
 21
20.9872
  0
LINE
  8
0
 10
-0.73288
 20
20.9872
 11
-1.36162
 21
21.056
  0
LINE
  8
0
 10
-1.36162
 20
21.056
 11
-1.99509
 21
21.1059
  0
LINE
  8
0
 10
-1.99509
 20
21.1059
 11
-2.63271
 21
21.1367
  0
LINE
  8
0
 10
-2.63271
 20
21.1367
 11
-3.2739
 21
21.1481
  0
LINE
  8
0
 10
-3.2739
 20
21.1481
 11
-3.91806
 21
21.14
  0
LINE
  8
0
 10
-3.91806
 20
21.14
 11
-4.56461
 21
21.1122
  0
LINE
  8
0
 10
-4.56461
 20
21.1122
 11
-5.21294
 21
21.0645
  0
LINE
  8
0
 10
-5.21294
 20
21.0645
 11
-5.86244
 21
20.9969
  0
LINE
  8
0
 10
-5.86244
 20
20.9969
 11
-6.5125
 21
20.9093
  0
LINE
  8
0
 10
-6.5125
 20
20.9093
 11
-7.16249
 21
20.8014
  0
LINE
  8
0
 10
-7.16249
 20
20.8014
 11
-7.81178
 21
20.6733
  0
LINE
  8
0
 10
-7.81178
 20
20.6733
 11
-8.45975
 21
20.5249
  0
LINE
  8
0
 10
-8.45975
 20
20.5249
 11
-9.10576
 21
20.3562
  0
LINE
  8
0
 10
-9.10576
 20
20.3562
 11
-9.74918
 21
20.1671
  0
LINE
  8
0
 10
-9.74918
 20
20.1671
 11
-10.3893
 21
19.9577
  0
LINE
  8
0
 10
-10.3893
 20
19.9577
 11
-11.0256
 21
19.728
  0
LINE
  8
0
 10
-11.0256
 20
19.728
 11
-11.6574
 21
19.4781
  0
LINE
  8
0
 10
-11.6574
 20
19.4781
 11
-12.284
 21
19.2079
  0
LINE
  8
0
 10
-12.284
 20
19.2079
 11
-12.9047
 21
18.9176
  0
LINE
  8
0
 10
-12.9047
 20
18.9176
 11
-13.5191
 21
18.6074
  0
LINE
  8
0
 10
-13.5191
 20
18.6074
 11
-14.1263
 21
18.2773
  0
LINE
  8
0
 10
-14.1263
 20
18.2773
 11
-14.7257
 21
17.9274
  0
LINE
  8
0
 10
-14.7257
 20
17.9274
 11
-15.3168
 21
17.558
  0
LINE
  8
0
 10
-15.3168
 20
17.558
 11
-15.8989
 21
17.1693
  0
LINE
  8
0
 10
-15.8989
 20
17.1693
 11
-16.4714
 21
16.7614
  0
LINE
  8
0
 10
-16.4714
 20
16.7614
 11
-17.0335
 21
16.3346
  0
LINE
  8
0
 10
-17.0335
 20
16.3346
 11
-17.5848
 21
15.8891
  0
LINE
  8
0
 10
-17.5848
 20
15.8891
 11
-18.1246
 21
15.4252
  0
LINE
  8
0
 10
-18.1246
 20
15.4252
 11
-18.6523
 21
14.9433
  0
LINE
  8
0
 10
-18.6523
 20
14.9433
 11
-19.1673
 21
14.4436
  0
LINE
  8
0
 10
-19.1673
 20
14.4436
 11
-19.6689
 21
13.9264
  0
LINE
  8
0
 10
-19.6689
 20
13.9264
 11
-20.1567
 21
13.3921
  0
LINE
  8
0
 10
-20.1567
 20
13.3921
 11
-20.63
 21
12.841
  0
LINE
  8
0
 10
-20.63
 20
12.841
 11
-21.0883
 21
12.2737
  0
LINE
  8
0
 10
-21.0883
 20
12.2737
 11
-21.531
 21
11.6904
  0
LINE
  8
0
 10
-21.531
 20
11.6904
 11
-21.9576
 21
11.0916
  0
LINE
  8
0
 10
-21.9576
 20
11.0916
 11
-22.3675
 21
10.4777
  0
LINE
  8
0
 10
-22.3675
 20
10.4777
 11
-22.7603
 21
9.84926
  0
LINE
  8
0
 10
-22.7603
 20
9.84926
 11
-23.1354
 21
9.20668
  0
LINE
  8
0
 10
-23.1354
 20
9.20668
 11
-23.4923
 21
8.55049
  0
LINE
  8
0
 10
-23.4923
 20
8.55049
 11
-23.8306
 21
7.88121
  0
LINE
  8
0
 10
-23.8306
 20
7.88121
 11
-24.1497
 21
7.19934
  0
LINE
  8
0
 10
-24.1497
 20
7.19934
 11
-24.4493
 21
6.50545
  0
LINE
  8
0
 10
-24.4493
 20
6.50545
 11
-24.7289
 21
5.80011
  0
LINE
  8
0
 10
-24.7289
 20
5.80011
 11
-24.9881
 21
5.08388
  0
LINE
  8
0
 10
-24.9881
 20
5.08388
 11
-25.2264
 21
4.35736
  0
LINE
  8
0
 10
-25.2264
 20
4.35736
 11
-25.4436
 21
3.62115
  0
LINE
  8
0
 10
-25.4436
 20
3.62115
 11
-25.6392
 21
2.87589
  0
LINE
  8
0
 10
-25.6392
 20
2.87589
 11
-25.8129
 21
2.12219
  0
LINE
  8
0
 10
-25.8129
 20
2.12219
 11
-25.9644
 21
1.36073
  0
LINE
  8
0
 10
-25.9644
 20
1.36073
 11
-26.0933
 21
0.592133
  0
LINE
  8
0
 10
-26.0933
 20
0.592133
 11
-26.1994
 21
-0.182907
  0
LINE
  8
0
 10
-26.1994
 20
-0.182907
 11
-26.2823
 21
-0.963715
  0
LINE
  8
0
 10
-26.2823
 20
-0.963715
 11
-26.3419
 21
-1.74962
  0
LINE
  8
0
 10
-26.3419
 20
-1.74962
 11
-26.378
 21
-2.5399
  0
LINE
  8
0
 10
-26.378
 20
-2.5399
 11
-26.3902
 21
-3.33386
  0
LINE
  8
0
 10
-26.3902
 20
-3.33386
 11
-26.3785
 21
-4.13075
  0
LINE
  8
0
 10
-26.3785
 20
-4.13075
 11
-26.3427
 21
-4.92989
  0
LINE
  8
0
 10
-26.3427
 20
-4.92989
 11
-26.2825
 21
-5.73051
  0
LINE
  8
0
 10
-26.2825
 20
-5.73051
 11
-26.198
 21
-6.53189
  0
LINE
  8
0
 10
-26.198
 20
-6.53189
 11
-26.0889
 21
-7.33327
  0
LINE
  8
0
 10
-26.0889
 20
-7.33327
 11
-25.9553
 21
-8.1339
  0
LINE
  8
0
 10
-25.9553
 20
-8.1339
 11
-25.7971
 21
-8.93304
  0
LINE
  8
0
 10
-25.7971
 20
-8.93304
 11
-25.6142
 21
-9.72992
  0
LINE
  8
0
 10
-25.6142
 20
-9.72992
 11
-25.4067
 21
-10.5238
  0
LINE
  8
0
 10
-25.4067
 20
-10.5238
 11
-25.1745
 21
-11.3139
  0
LINE
  8
0
 10
-25.1745
 20
-11.3139
 11
-24.9177
 21
-12.0994
  0
LINE
  8
0
 10
-24.9177
 20
-12.0994
 11
-24.6365
 21
-12.8796
  0
LINE
  8
0
 10
-24.6365
 20
-12.8796
 11
-24.3307
 21
-13.6538
  0
LINE
  8
0
 10
-24.3307
 20
-13.6538
 11
-24.0007
 21
-14.4211
  0
LINE
  8
0
 10
-24.0007
 20
-14.4211
 11
-23.6464
 21
-15.1807
  0
LINE
  8
0
 10
-23.6464
 20
-15.1807
 11
-23.2682
 21
-15.9321
  0
LINE
  8
0
 10
-23.2682
 20
-15.9321
 11
-22.8661
 21
-16.6743
  0
LINE
  8
0
 10
-22.8661
 20
-16.6743
 11
-22.4404
 21
-17.4066
  0
LINE
  8
0
 10
-22.4404
 20
-17.4066
 11
-21.9913
 21
-18.1282
  0
LINE
  8
0
 10
-21.9913
 20
-18.1282
 11
-21.5191
 21
-18.8385
  0
LINE
  8
0
 10
-21.5191
 20
-18.8385
 11
-21.024
 21
-19.5367
  0
LINE
  8
0
 10
-21.024
 20
-19.5367
 11
-20.5063
 21
-20.222
  0
LINE
  8
0
 10
-20.5063
 20
-20.222
 11
-19.9665
 21
-20.8937
  0
LINE
  8
0
 10
-19.9665
 20
-20.8937
 11
-19.4048
 21
-21.5512
  0
LINE
  8
0
 10
-19.4048
 20
-21.5512
 11
-18.8216
 21
-22.1936
  0
LINE
  8
0
 10
-18.8216
 20
-22.1936
 11
-18.2173
 21
-22.8204
  0
LINE
  8
0
 10
-18.2173
 20
-22.8204
 11
-17.5923
 21
-23.4308
  0
LINE
  8
0
 10
-17.5923
 20
-23.4308
 11
-16.9471
 21
-24.024
  0
LINE
  8
0
 10
-16.9471
 20
-24.024
 11
-16.2821
 21
-24.5996
  0
LINE
  8
0
 10
-16.2821
 20
-24.5996
 11
-15.5979
 21
-25.1568
  0
LINE
  8
0
 10
-15.5979
 20
-25.1568
 11
-14.8949
 21
-25.695
  0
LINE
  8
0
 10
-14.8949
 20
-25.695
 11
-14.1736
 21
-26.2135
  0
LINE
  8
0
 10
-14.1736
 20
-26.2135
 11
-13.4346
 21
-26.7118
  0
LINE
  8
0
 10
-13.4346
 20
-26.7118
 11
-12.6785
 21
-27.1892
  0
LINE
  8
0
 10
-12.6785
 20
-27.1892
 11
-11.9059
 21
-27.6452
  0
LINE
  8
0
 10
-11.9059
 20
-27.6452
 11
-11.1174
 21
-28.0792
  0
LINE
  8
0
 10
-11.1174
 20
-28.0792
 11
-10.3135
 21
-28.4907
  0
LINE
  8
0
 10
-10.3135
 20
-28.4907
 11
-9.49498
 21
-28.8791
  0
LINE
  8
0
 10
-9.49498
 20
-28.8791
 11
-8.66246
 21
-29.244
  0
LINE
  8
0
 10
-8.66246
 20
-29.244
 11
-7.81664
 21
-29.5848
  0
LINE
  8
0
 10
-7.81664
 20
-29.5848
 11
-6.95819
 21
-29.9011
  0
LINE
  8
0
 10
-6.95819
 20
-29.9011
 11
-6.08784
 21
-30.1923
  0
LINE
  8
0
 10
-6.08784
 20
-30.1923
 11
-5.20631
 21
-30.4582
  0
LINE
  8
0
 10
-5.20631
 20
-30.4582
 11
-4.31436
 21
-30.6983
  0
LINE
  8
0
 10
-4.31436
 20
-30.6983
 11
-3.41273
 21
-30.9122
  0
LINE
  8
0
 10
-3.41273
 20
-30.9122
 11
-2.5022
 21
-31.0995
  0
LINE
  8
0
 10
-2.5022
 20
-31.0995
 11
-1.58356
 21
-31.2599
  0
LINE
  8
0
 10
-1.58356
 20
-31.2599
 11
-0.657578
 21
-31.3931
  0
LINE
  8
0
 10
-0.657578
 20
-31.3931
 11
0.274872
 21
-31.4988
  0
LINE
  8
0
 10
0.274872
 20
-31.4988
 11
1.21304
 21
-31.5767
  0
LINE
  8
0
 10
1.21304
 20
-31.5767
 11
2.15608
 21
-31.6266
  0
LINE
  8
0
 10
2.15608
 20
-31.6266
 11
3.10313
 21
-31.6482
  0
LINE
  8
0
 10
3.10313
 20
-31.6482
 11
4.05336
 21
-31.6414
  0
LINE
  8
0
 10
4.05336
 20
-31.6414
 11
5.00589
 21
-31.606
  0
LINE
  8
0
 10
5.00589
 20
-31.606
 11
5.95988
 21
-31.5419
  0
LINE
  8
0
 10
5.95988
 20
-31.5419
 11
6.91447
 21
-31.4488
  0
LINE
  8
0
 10
6.91447
 20
-31.4488
 11
7.86876
 21
-31.3269
  0
LINE
  8
0
 10
7.86876
 20
-31.3269
 11
8.82187
 21
-31.1759
  0
LINE
  8
0
 10
8.82187
 20
-31.1759
 11
9.77293
 21
-30.9958
  0
LINE
  8
0
 10
9.77293
 20
-30.9958
 11
10.721
 21
-30.7867
  0
LINE
  8
0
 10
10.721
 20
-30.7867
 11
11.6653
 21
-30.5485
  0
LINE
  8
0
 10
11.6653
 20
-30.5485
 11
12.6049
 21
-30.2813
  0
LINE
  8
0
 10
12.6049
 20
-30.2813
 11
13.5388
 21
-29.9852
  0
LINE
  8
0
 10
13.5388
 20
-29.9852
 11
14.4662
 21
-29.6602
  0
LINE
  8
0
 10
14.4662
 20
-29.6602
 11
15.3863
 21
-29.3065
  0
LINE
  8
0
 10
15.3863
 20
-29.3065
 11
16.298
 21
-28.9243
  0
LINE
  8
0
 10
16.298
 20
-28.9243
 11
17.2005
 21
-28.5137
  0
LINE
  8
0
 10
17.2005
 20
-28.5137
 11
18.093
 21
-28.0749
  0
LINE
  8
0
 10
18.093
 20
-28.0749
 11
18.9746
 21
-27.6082
  0
LINE
  8
0
 10
18.9746
 20
-27.6082
 11
19.8443
 21
-27.1139
  0
LINE
  8
0
 10
19.8443
 20
-27.1139
 11
20.7014
 21
-26.5921
  0
LINE
  8
0
 10
20.7014
 20
-26.5921
 11
21.5449
 21
-26.0433
  0
LINE
  8
0
 10
21.5449
 20
-26.0433
 11
22.3741
 21
-25.4678
  0
LINE
  8
0
 10
22.3741
 20
-25.4678
 11
23.1879
 21
-24.866
  0
LINE
  8
0
 10
23.1879
 20
-24.866
 11
23.9857
 21
-24.2383
  0
LINE
  8
0
 10
23.9857
 20
-24.2383
 11
24.7667
 21
-23.585
  0
LINE
  8
0
 10
24.7667
 20
-23.585
 11
25.5299
 21
-22.9066
  0
LINE
  8
0
 10
25.5299
 20
-22.9066
 11
26.2746
 21
-22.2037
  0
LINE
  8
0
 10
26.2746
 20
-22.2037
 11
27
 21
-21.4767
  0
LINE
  8
0
 10
27
 20
-21.4767
 11
27.7053
 21
-20.7262
  0
LINE
  8
0
 10
27.7053
 20
-20.7262
 11
28.3898
 21
-19.9527
  0
LINE
  8
0
 10
28.3898
 20
-19.9527
 11
29.0527
 21
-19.1567
  0
LINE
  8
0
 10
29.0527
 20
-19.1567
 11
29.6933
 21
-18.339
  0
LINE
  8
0
 10
29.6933
 20
-18.339
 11
30.3109
 21
-17.5
  0
LINE
  8
0
 10
30.3109
 20
-17.5
 11
30.9048
 21
-16.6405
  0
LINE
  8
0
 10
30.9048
 20
-16.6405
 11
31.4742
 21
-15.7611
  0
LINE
  8
0
 10
31.4742
 20
-15.7611
 11
32.0186
 21
-14.8626
  0
LINE
  8
0
 10
32.0186
 20
-14.8626
 11
32.5374
 21
-13.9455
  0
LINE
  8
0
 10
32.5374
 20
-13.9455
 11
33.0298
 21
-13.0108
  0
LINE
  8
0
 10
33.0298
 20
-13.0108
 11
33.4953
 21
-12.0591
  0
LINE
  8
0
 10
33.4953
 20
-12.0591
 11
33.9334
 21
-11.0911
  0
LINE
  8
0
 10
33.9334
 20
-11.0911
 11
34.3434
 21
-10.1078
  0
LINE
  8
0
 10
34.3434
 20
-10.1078
 11
34.7249
 21
-9.10991
  0
LINE
  8
0
 10
34.7249
 20
-9.10991
 11
35.0773
 21
-8.09824
  0
LINE
  8
0
 10
35.0773
 20
-8.09824
 11
35.4002
 21
-7.07365
  0
LINE
  8
0
 10
35.4002
 20
-7.07365
 11
35.6931
 21
-6.03702
  0
LINE
  8
0
 10
35.6931
 20
-6.03702
 11
35.9555
 21
-4.98923
  0
LINE
  8
0
 10
35.9555
 20
-4.98923
 11
36.1871
 21
-3.93117
  0
LINE
  8
0
 10
36.1871
 20
-3.93117
 11
36.3875
 21
-2.86375
  0
LINE
  8
0
 10
36.3875
 20
-2.86375
 11
36.5563
 21
-1.78789
  0
LINE
  8
0
 10
36.5563
 20
-1.78789
 11
36.6932
 21
-0.704544
  0
LINE
  8
0
 10
36.6932
 20
-0.704544
 11
36.798
 21
0.385361
  0
LINE
  8
0
 10
36.798
 20
0.385361
 11
36.8703
 21
1.48085
  0
LINE
  8
0
 10
36.8703
 20
1.48085
 11
36.9099
 21
2.58098
  0
LINE
  8
0
 10
36.9099
 20
2.58098
 11
36.9165
 21
3.68475
  0
LINE
  8
0
 10
36.9165
 20
3.68475
 11
36.8902
 21
4.79118
  0
LINE
  8
0
 10
36.8902
 20
4.79118
 11
36.8305
 21
5.89929
  0
LINE
  8
0
 10
36.8305
 20
5.89929
 11
36.7375
 21
7.00806
  0
LINE
  8
0
 10
36.7375
 20
7.00806
 11
36.6111
 21
8.11647
  0
LINE
  8
0
 10
36.6111
 20
8.11647
 11
36.4511
 21
9.22356
  0
LINE
  8
0
 10
36.4511
 20
9.22356
 11
36.2576
 21
10.3283
  0
LINE
  8
0
 10
36.2576
 20
10.3283
 11
36.0306
 21
11.4296
  0
LINE
  8
0
 10
36.0306
 20
11.4296
 11
35.7701
 21
12.5265
  0
LINE
  8
0
 10
35.7701
 20
12.5265
 11
35.476
 21
13.618
  0
LINE
  8
0
 10
35.476
 20
13.618
 11
35.1487
 21
14.703
  0
LINE
  8
0
 10
35.1487
 20
14.703
 11
34.7881
 21
15.7806
  0
LINE
  8
0
 10
34.7881
 20
15.7806
 11
34.3945
 21
16.8497
  0
LINE
  8
0
 10
34.3945
 20
16.8497
 11
33.9679
 21
17.9092
  0
LINE
  8
0
 10
33.9679
 20
17.9092
 11
33.5087
 21
18.9583
  0
LINE
  8
0
 10
33.5087
 20
18.9583
 11
33.0171
 21
19.9958
  0
LINE
  8
0
 10
33.0171
 20
19.9958
 11
32.4933
 21
21.0208
  0
LINE
  8
0
 10
32.4933
 20
21.0208
 11
31.9377
 21
22.0323
  0
LINE
  8
0
 10
31.9377
 20
22.0323
 11
31.3506
 21
23.0293
  0
LINE
  8
0
 10
31.3506
 20
23.0293
 11
30.7324
 21
24.0108
  0
LINE
  8
0
 10
30.7324
 20
24.0108
 11
30.0835
 21
24.9758
  0
LINE
  8
0
 10
30.0835
 20
24.9758
 11
29.4043
 21
25.9234
  0
LINE
  8
0
 10
29.4043
 20
25.9234
 11
28.6954
 21
26.8526
  0
LINE
  8
0
 10
28.6954
 20
26.8526
 11
27.9571
 21
27.7626
  0
LINE
  8
0
 10
27.9571
 20
27.7626
 11
27.19
 21
28.6523
  0
LINE
  8
0
 10
27.19
 20
28.6523
 11
26.3947
 21
29.5208
  0
LINE
  8
0
 10
26.3947
 20
29.5208
 11
25.5717
 21
30.3674
  0
LINE
  8
0
 10
25.5717
 20
30.3674
 11
24.7217
 21
31.191
  0
LINE
  8
0
 10
24.7217
 20
31.191
 11
23.8452
 21
31.9908
  0
LINE
  8
0
 10
23.8452
 20
31.9908
 11
22.9431
 21
32.7661
  0
LINE
  8
0
 10
22.9431
 20
32.7661
 11
22.0158
 21
33.5159
  0
LINE
  8
0
 10
22.0158
 20
33.5159
 11
21.0642
 21
34.2394
  0
LINE
  8
0
 10
21.0642
 20
34.2394
 11
20.0891
 21
34.9359
  0
LINE
  8
0
 10
20.0891
 20
34.9359
 11
19.091
 21
35.6046
  0
LINE
  8
0
 10
19.091
 20
35.6046
 11
18.071
 21
36.2448
  0
LINE
  8
0
 10
18.071
 20
36.2448
 11
17.0297
 21
36.8558
  0
LINE
  8
0
 10
17.0297
 20
36.8558
 11
15.9681
 21
37.4367
  0
LINE
  8
0
 10
15.9681
 20
37.4367
 11
14.887
 21
37.9871
  0
LINE
  8
0
 10
14.887
 20
37.9871
 11
13.7872
 21
38.5061
  0
LINE
  8
0
 10
13.7872
 20
38.5061
 11
12.6697
 21
38.9933
  0
LINE
  8
0
 10
12.6697
 20
38.9933
 11
11.5354
 21
39.448
  0
LINE
  8
0
 10
11.5354
 20
39.448
 11
10.3853
 21
39.8696
  0
LINE
  8
0
 10
10.3853
 20
39.8696
 11
9.22021
 21
40.2576
  0
LINE
  8
0
 10
9.22021
 20
40.2576
 11
8.04129
 21
40.6115
  0
LINE
  8
0
 10
8.04129
 20
40.6115
 11
6.84947
 21
40.9308
  0
LINE
  8
0
 10
6.84947
 20
40.9308
 11
5.64577
 21
41.2151
  0
LINE
  8
0
 10
5.64577
 20
41.2151
 11
4.4312
 21
41.4639
  0
LINE
  8
0
 10
4.4312
 20
41.4639
 11
3.20685
 21
41.6768
  0
LINE
  8
0
 10
3.20685
 20
41.6768
 11
1.97375
 21
41.8535
  0
LINE
  8
0
 10
1.97375
 20
41.8535
 11
0.732986
 21
41.9936
  0
LINE
  8
0
 10
0.732986
 20
41.9936
 11
-0.514328
 21
42.0968
  0
LINE
  8
0
 10
-0.514328
 20
42.0968
 11
-1.76715
 21
42.163
  0
LINE
  8
0
 10
-1.76715
 20
42.163
 11
-3.02434
 21
42.1917
  0
LINE
  8
0
 10
-3.02434
 20
42.1917
 11
-4.28477
 21
42.1829
  0
LINE
  8
0
 10
-4.28477
 20
42.1829
 11
-5.54735
 21
42.1364
  0
LINE
  8
0
 10
-5.54735
 20
42.1364
 11
-6.81093
 21
42.052
  0
LINE
  8
0
 10
-6.81093
 20
42.052
 11
-8.07437
 21
41.9296
  0
LINE
  8
0
 10
-8.07437
 20
41.9296
 11
-9.33652
 21
41.7692
  0
LINE
  8
0
 10
-9.33652
 20
41.7692
 11
-10.5963
 21
41.5708
  0
LINE
  8
0
 10
-10.5963
 20
41.5708
 11
-11.8524
 21
41.3342
  0
LINE
  8
0
 10
-11.8524
 20
41.3342
 11
-13.1038
 21
41.0597
  0
LINE
  8
0
 10
-13.1038
 20
41.0597
 11
-14.3493
 21
40.7472
  0
LINE
  8
0
 10
-14.3493
 20
40.7472
 11
-15.5879
 21
40.3969
  0
LINE
  8
0
 10
-15.5879
 20
40.3969
 11
-16.8182
 21
40.0089
  0
LINE
  8
0
 10
-16.8182
 20
40.0089
 11
-18.0392
 21
39.5833
  0
LINE
  8
0
 10
-18.0392
 20
39.5833
 11
-19.2496
 21
39.1205
  0
LINE
  8
0
 10
-19.2496
 20
39.1205
 11
-20.4485
 21
38.6205
  0
LINE
  8
0
 10
-20.4485
 20
38.6205
 11
-21.6346
 21
38.0839
  0
LINE
  8
0
 10
-21.6346
 20
38.0839
 11
-22.8069
 21
37.5107
  0
LINE
  8
0
 10
-22.8069
 20
37.5107
 11
-23.9641
 21
36.9015
  0
LINE
  8
0
 10
-23.9641
 20
36.9015
 11
-25.1052
 21
36.2565
  0
LINE
  8
0
 10
-25.1052
 20
36.2565
 11
-26.2291
 21
35.5763
  0
LINE
  8
0
 10
-26.2291
 20
35.5763
 11
-27.3347
 21
34.8612
  0
LINE
  8
0
 10
-27.3347
 20
34.8612
 11
-28.4209
 21
34.1118
  0
LINE
  8
0
 10
-28.4209
 20
34.1118
 11
-29.4866
 21
33.3285
  0
LINE
  8
0
 10
-29.4866
 20
33.3285
 11
-30.5308
 21
32.512
  0
LINE
  8
0
 10
-30.5308
 20
32.512
 11
-31.5524
 21
31.6628
  0
LINE
  8
0
 10
-31.5524
 20
31.6628
 11
-32.5505
 21
30.7815
  0
LINE
  8
0
 10
-32.5505
 20
30.7815
 11
-33.524
 21
29.8688
  0
LINE
  8
0
 10
-33.524
 20
29.8688
 11
-34.472
 21
28.9254
  0
LINE
  8
0
 10
-34.472
 20
28.9254
 11
-35.3934
 21
27.952
  0
LINE
  8
0
 10
-35.3934
 20
27.952
 11
-36.2873
 21
26.9494
  0
LINE
  8
0
 10
-36.2873
 20
26.9494
 11
-37.1529
 21
25.9182
  0
LINE
  8
0
 10
-37.1529
 20
25.9182
 11
-37.9891
 21
24.8594
  0
LINE
  8
0
 10
-37.9891
 20
24.8594
 11
-38.7951
 21
23.7737
  0
LINE
  8
0
 10
-38.7951
 20
23.7737
 11
-39.5701
 21
22.662
  0
LINE
  8
0
 10
-39.5701
 20
22.662
 11
-40.3132
 21
21.5252
  0
LINE
  8
0
 10
-40.3132
 20
21.5252
 11
-41.0236
 21
20.3643
  0
LINE
  8
0
 10
-41.0236
 20
20.3643
 11
-41.7005
 21
19.1801
  0
LINE
  8
0
 10
-41.7005
 20
19.1801
 11
-42.3432
 21
17.9736
  0
LINE
  8
0
 10
-42.3432
 20
17.9736
 11
-42.951
 21
16.7459
  0
LINE
  8
0
 10
-42.951
 20
16.7459
 11
-43.523
 21
15.4979
  0
LINE
  8
0
 10
-43.523
 20
15.4979
 11
-44.0588
 21
14.2306
  0
LINE
  8
0
 10
-44.0588
 20
14.2306
 11
-44.5576
 21
12.9452
  0
LINE
  8
0
 10
-44.5576
 20
12.9452
 11
-45.0189
 21
11.6427
  0
LINE
  8
0
 10
-45.0189
 20
11.6427
 11
-45.442
 21
10.3242
  0
LINE
  8
0
 10
-45.442
 20
10.3242
 11
-45.8264
 21
8.99077
  0
LINE
  8
0
 10
-45.8264
 20
8.99077
 11
-46.1716
 21
7.64365
  0
LINE
  8
0
 10
-46.1716
 20
7.64365
 11
-46.4771
 21
6.28395
  0
LINE
  8
0
 10
-46.4771
 20
6.28395
 11
-46.7425
 21
4.91283
  0
LINE
  8
0
 10
-46.7425
 20
4.91283
 11
-46.9674
 21
3.53149
  0
LINE
  8
0
 10
-46.9674
 20
3.53149
 11
-47.1514
 21
2.14113
  0
LINE
  8
0
 10
-47.1514
 20
2.14113
 11
-47.2942
 21
0.74295
  0
LINE
  8
0
 10
-47.2942
 20
0.74295
 11
-47.3954
 21
-0.661804
  0
LINE
  8
0
 10
-47.3954
 20
-0.661804
 11
-47.4548
 21
-2.07191
  0
LINE
  8
0
 10
-47.4548
 20
-2.07191
 11
-47.4722
 21
-3.48613
  0
LINE
  8
0
 10
-47.4722
 20
-3.48613
 11
-47.4473
 21
-4.9032
  0
LINE
  8
0
 10
-47.4473
 20
-4.9032
 11
-47.3801
 21
-6.32185
  0
LINE
  8
0
 10
-47.3801
 20
-6.32185
 11
-47.2704
 21
-7.74081
  0
LINE
  8
0
 10
-47.2704
 20
-7.74081
 11
-47.1181
 21
-9.15883
  0
LINE
  8
0
 10
-47.1181
 20
-9.15883
 11
-46.9232
 21
-10.5746
  0
LINE
  8
0
 10
-46.9232
 20
-10.5746
 11
-46.6857
 21
-11.9868
  0
LINE
  8
0
 10
-46.6857
 20
-11.9868
 11
-46.4056
 21
-13.3943
  0
LINE
  8
0
 10
-46.4056
 20
-13.3943
 11
-46.0831
 21
-14.7956
  0
LINE
  8
0
 10
-46.0831
 20
-14.7956
 11
-45.7181
 21
-16.1896
  0
LINE
  8
0
 10
-45.7181
 20
-16.1896
 11
-45.3109
 21
-17.575
  0
LINE
  8
0
 10
-45.3109
 20
-17.575
 11
-44.8617
 21
-18.9503
  0
LINE
  8
0
 10
-44.8617
 20
-18.9503
 11
-44.3707
 21
-20.3145
  0
LINE
  8
0
 10
-44.3707
 20
-20.3145
 11
-43.8382
 21
-21.6662
  0
LINE
  8
0
 10
-43.8382
 20
-21.6662
 11
-43.2644
 21
-23.0041
  0
LINE
  8
0
 10
-43.2644
 20
-23.0041
 11
-42.6498
 21
-24.327
  0
LINE
  8
0
 10
-42.6498
 20
-24.327
 11
-41.9947
 21
-25.6337
  0
LINE
  8
0
 10
-41.9947
 20
-25.6337
 11
-41.2995
 21
-26.9228
  0
LINE
  8
0
 10
-41.2995
 20
-26.9228
 11
-40.5648
 21
-28.1932
  0
LINE
  8
0
 10
-40.5648
 20
-28.1932
 11
-39.7909
 21
-29.4437
  0
LINE
  8
0
 10
-39.7909
 20
-29.4437
 11
-38.9785
 21
-30.673
  0
LINE
  8
0
 10
-38.9785
 20
-30.673
 11
-38.1281
 21
-31.88
  0
LINE
  8
0
 10
-38.1281
 20
-31.88
 11
-37.2403
 21
-33.0635
  0
LINE
  8
0
 10
-37.2403
 20
-33.0635
 11
-36.3159
 21
-34.2223
  0
LINE
  8
0
 10
-36.3159
 20
-34.2223
 11
-35.3553
 21
-35.3553
  0
LINE
  8
0
 10
-35.3553
 20
-35.3553
 11
-34.3595
 21
-36.4614
  0
LINE
  8
0
 10
-34.3595
 20
-36.4614
 11
-33.3291
 21
-37.5395
  0
LINE
  8
0
 10
-33.3291
 20
-37.5395
 11
-32.2649
 21
-38.5884
  0
LINE
  8
0
 10
-32.2649
 20
-38.5884
 11
-31.1678
 21
-39.6072
  0
LINE
  8
0
 10
-31.1678
 20
-39.6072
 11
-30.0385
 21
-40.5948
  0
LINE
  8
0
 10
-30.0385
 20
-40.5948
 11
-28.8781
 21
-41.5501
  0
LINE
  8
0
 10
-28.8781
 20
-41.5501
 11
-27.6874
 21
-42.4723
  0
LINE
  8
0
 10
-27.6874
 20
-42.4723
 11
-26.4673
 21
-43.3604
  0
LINE
  8
0
 10
-26.4673
 20
-43.3604
 11
-25.2188
 21
-44.2133
  0
LINE
  8
0
 10
-25.2188
 20
-44.2133
 11
-23.943
 21
-45.0303
  0
LINE
  8
0
 10
-23.943
 20
-45.0303
 11
-22.6409
 21
-45.8105
  0
LINE
  8
0
 10
-22.6409
 20
-45.8105
 11
-21.3136
 21
-46.5529
  0
LINE
  8
0
 10
-21.3136
 20
-46.5529
 11
-19.9621
 21
-47.2568
  0
LINE
  8
0
 10
-19.9621
 20
-47.2568
 11
-18.5875
 21
-47.9214
  0
LINE
  8
0
 10
-18.5875
 20
-47.9214
 11
-17.191
 21
-48.546
  0
LINE
  8
0
 10
-17.191
 20
-48.546
 11
-15.7739
 21
-49.1299
  0
LINE
  8
0
 10
-15.7739
 20
-49.1299
 11
-14.3372
 21
-49.6723
  0
LINE
  8
0
 10
-14.3372
 20
-49.6723
 11
-12.8821
 21
-50.1726
  0
LINE
  8
0
 10
-12.8821
 20
-50.1726
 11
-11.41
 21
-50.6302
  0
LINE
  8
0
 10
-11.41
 20
-50.6302
 11
-9.92206
 21
-51.0446
  0
LINE
  8
0
 10
-9.92206
 20
-51.0446
 11
-8.41956
 21
-51.4152
  0
LINE
  8
0
 10
-8.41956
 20
-51.4152
 11
-6.90378
 21
-51.7414
  0
LINE
  8
0
 10
-6.90378
 20
-51.7414
 11
-5.37604
 21
-52.0229
  0
LINE
  8
0
 10
-5.37604
 20
-52.0229
 11
-3.83768
 21
-52.2593
  0
LINE
  8
0
 10
-3.83768
 20
-52.2593
 11
-2.29001
 21
-52.45
  0
LINE
  8
0
 10
-2.29001
 20
-52.45
 11
-0.734406
 21
-52.5949
  0
LINE
  8
0
 10
-0.734406
 20
-52.5949
 11
0.827774
 21
-52.6935
  0
LINE
  8
0
 10
0.827774
 20
-52.6935
 11
2.39516
 21
-52.7456
  0
LINE
  8
0
 10
2.39516
 20
-52.7456
 11
3.96637
 21
-52.7511
  0
LINE
  8
0
 10
3.96637
 20
-52.7511
 11
5.54001
 21
-52.7097
  0
LINE
  8
0
 10
5.54001
 20
-52.7097
 11
7.11465
 21
-52.6212
  0
LINE
  8
0
 10
7.11465
 20
-52.6212
 11
8.68893
 21
-52.4856
  0
LINE
  8
0
 10
8.68893
 20
-52.4856
 11
10.2614
 21
-52.3029
  0
LINE
  8
0
 10
10.2614
 20
-52.3029
 11
11.8307
 21
-52.073
  0
LINE
  8
0
 10
11.8307
 20
-52.073
 11
13.3953
 21
-51.7959
  0
LINE
  8
0
 10
13.3953
 20
-51.7959
 11
14.9539
 21
-51.4717
  0
LINE
  8
0
 10
14.9539
 20
-51.4717
 11
16.505
 21
-51.1006
  0
LINE
  8
0
 10
16.505
 20
-51.1006
 11
18.0473
 21
-50.6827
  0
LINE
  8
0
 10
18.0473
 20
-50.6827
 11
19.5792
 21
-50.2182
  0
LINE
  8
0
 10
19.5792
 20
-50.2182
 11
21.0995
 21
-49.7073
  0
LINE
  8
0
 10
21.0995
 20
-49.7073
 11
22.6066
 21
-49.1503
  0
LINE
  8
0
 10
22.6066
 20
-49.1503
 11
24.0992
 21
-48.5476
  0
LINE
  8
0
 10
24.0992
 20
-48.5476
 11
25.5759
 21
-47.8995
  0
LINE
  8
0
 10
25.5759
 20
-47.8995
 11
27.0354
 21
-47.2064
  0
LINE
  8
0
 10
27.0354
 20
-47.2064
 11
28.4762
 21
-46.4689
  0
LINE
  8
0
 10
28.4762
 20
-46.4689
 11
29.8969
 21
-45.6873
  0
LINE
  8
0
 10
29.8969
 20
-45.6873
 11
31.2964
 21
-44.8623
  0
LINE
  8
0
 10
31.2964
 20
-44.8623
 11
32.6731
 21
-43.9944
  0
LINE
  8
0
 10
32.6731
 20
-43.9944
 11
34.0259
 21
-43.0842
  0
LINE
  8
0
 10
34.0259
 20
-43.0842
 11
35.3533
 21
-42.1324
  0
LINE
  8
0
 10
35.3533
 20
-42.1324
 11
36.6542
 21
-41.1398
  0
LINE
  8
0
 10
36.6542
 20
-41.1398
 11
37.9272
 21
-40.1069
  0
LINE
  8
0
 10
37.9272
 20
-40.1069
 11
39.1712
 21
-39.0347
  0
LINE
  8
0
 10
39.1712
 20
-39.0347
 11
40.3849
 21
-37.9239
  0
LINE
  8
0
 10
40.3849
 20
-37.9239
 11
41.567
 21
-36.7754
  0
LINE
  8
0
 10
41.567
 20
-36.7754
 11
42.7166
 21
-35.5901
  0
LINE
  8
0
 10
42.7166
 20
-35.5901
 11
43.8323
 21
-34.3689
  0
LINE
  8
0
 10
43.8323
 20
-34.3689
 11
44.9131
 21
-33.1128
  0
LINE
  8
0
 10
44.9131
 20
-33.1128
 11
45.9578
 21
-31.8227
  0
LINE
  8
0
 10
45.9578
 20
-31.8227
 11
46.9655
 21
-30.4998
  0
LINE
  8
0
 10
46.9655
 20
-30.4998
 11
47.9351
 21
-29.145
  0
LINE
  8
0
 10
47.9351
 20
-29.145
 11
48.8656
 21
-27.7595
  0
LINE
  8
0
 10
48.8656
 20
-27.7595
 11
49.756
 21
-26.3444
  0
LINE
  8
0
 10
49.756
 20
-26.3444
 11
50.6054
 21
-24.9009
  0
LINE
  8
0
 10
50.6054
 20
-24.9009
 11
51.4128
 21
-23.4302
  0
LINE
  8
0
 10
51.4128
 20
-23.4302
 11
52.1774
 21
-21.9334
  0
LINE
  8
0
 10
52.1774
 20
-21.9334
 11
52.8985
 21
-20.4118
  0
LINE
  8
0
 10
52.8985
 20
-20.4118
 11
53.575
 21
-18.8667
  0
LINE
  8
0
 10
53.575
 20
-18.8667
 11
54.2064
 21
-17.2995
  0
LINE
  8
0
 10
54.2064
 20
-17.2995
 11
54.7919
 21
-15.7113
  0
LINE
  8
0
 10
54.7919
 20
-15.7113
 11
55.3308
 21
-14.1036
  0
LINE
  8
0
 10
55.3308
 20
-14.1036
 11
55.8224
 21
-12.4778
  0
LINE
  8
0
 10
55.8224
 20
-12.4778
 11
56.2662
 21
-10.8352
  0
LINE
  8
0
 10
56.2662
 20
-10.8352
 11
56.6616
 21
-9.17717
  0
LINE
  8
0
 10
56.6616
 20
-9.17717
 11
57.0081
 21
-7.50525
  0
LINE
  8
0
 10
57.0081
 20
-7.50525
 11
57.3051
 21
-5.82083
  0
LINE
  8
0
 10
57.3051
 20
-5.82083
 11
57.5523
 21
-4.1254
  0
LINE
  8
0
 10
57.5523
 20
-4.1254
 11
57.7493
 21
-2.42041
  0
LINE
  8
0
 10
57.7493
 20
-2.42041
 11
57.8957
 21
-0.707352
  0
LINE
  8
0
 10
57.8957
 20
-0.707352
 11
57.9912
 21
1.01224
  0
LINE
  8
0
 10
57.9912
 20
1.01224
 11
58.0355
 21
2.73688
  0
LINE
  8
0
 10
58.0355
 20
2.73688
 11
58.0285
 21
4.46504
  0
LINE
  8
0
 10
58.0285
 20
4.46504
 11
57.9699
 21
6.19519
  0
LINE
  8
0
 10
57.9699
 20
6.19519
 11
57.8597
 21
7.92578
  0
LINE
  8
0
 10
57.8597
 20
7.92578
 11
57.6977
 21
9.65527
  0
LINE
  8
0
 10
57.6977
 20
9.65527
 11
57.484
 21
11.3821
  0
LINE
  8
0
 10
57.484
 20
11.3821
 11
57.2185
 21
13.1048
  0
LINE
  8
0
 10
57.2185
 20
13.1048
 11
56.9013
 21
14.8217
  0
LINE
  8
0
 10
56.9013
 20
14.8217
 11
56.5325
 21
16.5313
  0
LINE
  8
0
 10
56.5325
 20
16.5313
 11
56.1123
 21
18.232
  0
LINE
  8
0
 10
56.1123
 20
18.232
 11
55.6409
 21
19.9223
  0
LINE
  8
0
 10
55.6409
 20
19.9223
 11
55.1185
 21
21.6007
  0
LINE
  8
0
 10
55.1185
 20
21.6007
 11
54.5454
 21
23.2656
  0
LINE
  8
0
 10
54.5454
 20
23.2656
 11
53.922
 21
24.9155
  0
LINE
  8
0
 10
53.922
 20
24.9155
 11
53.2486
 21
26.5488
  0
LINE
  8
0
 10
53.2486
 20
26.5488
 11
52.5257
 21
28.164
  0
LINE
  8
0
 10
52.5257
 20
28.164
 11
51.7537
 21
29.7597
  0
LINE
  8
0
 10
51.7537
 20
29.7597
 11
50.9333
 21
31.3344
  0
LINE
  8
0
 10
50.9333
 20
31.3344
 11
50.0648
 21
32.8865
  0
LINE
  8
0
 10
50.0648
 20
32.8865
 11
49.1491
 21
34.4146
  0
LINE
  8
0
 10
49.1491
 20
34.4146
 11
48.1867
 21
35.9173
  0
LINE
  8
0
 10
48.1867
 20
35.9173
 11
47.1783
 21
37.3931
  0
LINE
  8
0
 10
47.1783
 20
37.3931
 11
46.1248
 21
38.8407
  0
LINE
  8
0
 10
46.1248
 20
38.8407
 11
45.0267
 21
40.2586
  0
LINE
  8
0
 10
45.0267
 20
40.2586
 11
43.8851
 21
41.6454
  0
LINE
  8
0
 10
43.8851
 20
41.6454
 11
42.7008
 21
43
  0
LINE
  8
0
 10
42.7008
 20
43
 11
41.4747
 21
44.3208
  0
LINE
  8
0
 10
41.4747
 20
44.3208
 11
40.2077
 21
45.6068
  0
LINE
  8
0
 10
40.2077
 20
45.6068
 11
38.901
 21
46.8564
  0
LINE
  8
0
 10
38.901
 20
46.8564
 11
37.5553
 21
48.0686
  0
LINE
  8
0
 10
37.5553
 20
48.0686
 11
36.172
 21
49.2422
  0
LINE
  8
0
 10
36.172
 20
49.2422
 11
34.752
 21
50.3759
  0
LINE
  8
0
 10
34.752
 20
50.3759
 11
33.2966
 21
51.4687
  0
LINE
  8
0
 10
33.2966
 20
51.4687
 11
31.8069
 21
52.5194
  0
LINE
  8
0
 10
31.8069
 20
52.5194
 11
30.284
 21
53.5269
  0
LINE
  8
0
 10
30.284
 20
53.5269
 11
28.7294
 21
54.4902
  0
LINE
  8
0
 10
28.7294
 20
54.4902
 11
27.1442
 21
55.4083
  0
LINE
  8
0
 10
27.1442
 20
55.4083
 11
25.5298
 21
56.2802
  0
LINE
  8
0
 10
25.5298
 20
56.2802
 11
23.8876
 21
57.1051
  0
LINE
  8
0
 10
23.8876
 20
57.1051
 11
22.2188
 21
57.882
  0
LINE
  8
0
 10
22.2188
 20
57.882
 11
20.5249
 21
58.61
  0
LINE
  8
0
 10
20.5249
 20
58.61
 11
18.8074
 21
59.2885
  0
LINE
  8
0
 10
18.8074
 20
59.2885
 11
17.0677
 21
59.9165
  0
LINE
  8
0
 10
17.0677
 20
59.9165
 11
15.3072
 21
60.4934
  0
LINE
  8
0
 10
15.3072
 20
60.4934
 11
13.5275
 21
61.0185
  0
LINE
  8
0
 10
13.5275
 20
61.0185
 11
11.7301
 21
61.4912
  0
LINE
  8
0
 10
11.7301
 20
61.4912
 11
9.9165
 21
61.9108
  0
LINE
  8
0
 10
9.9165
 20
61.9108
 11
8.08835
 21
62.2769
  0
LINE
  8
0
 10
8.08835
 20
62.2769
 11
6.24721
 21
62.589
  0
LINE
  8
0
 10
6.24721
 20
62.589
 11
4.39465
 21
62.8465
  0
LINE
  8
0
 10
4.39465
 20
62.8465
 11
2.5323
 21
63.0492
  0
LINE
  8
0
 10
2.5323
 20
63.0492
 11
0.661804
 21
63.1965
  0
LINE
  8
0
 10
0.661804
 20
63.1965
 11
-1.21519
 21
63.2883
  0
LINE
  8
0
 10
-1.21519
 20
63.2883
 11
-3.09706
 21
63.3243
  0
LINE
  8
0
 10
-3.09706
 20
63.3243
 11
-4.98215
 21
63.3042
  0
LINE
  8
0
 10
-4.98215
 20
63.3042
 11
-6.86874
 21
63.228
  0
LINE
  8
0
 10
-6.86874
 20
63.228
 11
-8.7552
 21
63.0954
  0
LINE
  8
0
 10
-8.7552
 20
63.0954
 11
-10.6398
 21
62.9065
  0
LINE
  8
0
 10
-10.6398
 20
62.9065
 11
-12.521
 21
62.6613
  0
LINE
  8
0
 10
-12.521
 20
62.6613
 11
-14.3969
 21
62.3597
  0
LINE
  8
0
 10
-14.3969
 20
62.3597
 11
-16.2659
 21
62.0019
  0
LINE
  8
0
 10
-16.2659
 20
62.0019
 11
-18.1263
 21
61.588
  0
LINE
  8
0
 10
-18.1263
 20
61.588
 11
-19.9765
 21
61.1181
  0
LINE
  8
0
 10
-19.9765
 20
61.1181
 11
-21.8147
 21
60.5927
  0
LINE
  8
0
 10
-21.8147
 20
60.5927
 11
-23.6393
 21
60.0119
  0
LINE
  8
0
 10
-23.6393
 20
60.0119
 11
-25.4486
 21
59.3761
  0
LINE
  8
0
 10
-25.4486
 20
59.3761
 11
-27.241
 21
58.6857
  0
LINE
  8
0
 10
-27.241
 20
58.6857
 11
-29.0148
 21
57.9412
  0
LINE
  8
0
 10
-29.0148
 20
57.9412
 11
-30.7683
 21
57.143
  0
LINE
  8
0
 10
-30.7683
 20
57.143
 11
-32.5
 21
56.2916
  0
LINE
  8
0
 10
-32.5
 20
56.2916
 11
-34.2082
 21
55.3878
  0
LINE
  8
0
 10
-34.2082
 20
55.3878
 11
-35.8913
 21
54.4321
  0
LINE
  8
0
 10
-35.8913
 20
54.4321
 11
-37.5478
 21
53.4252
  0
LINE
  8
0
 10
-37.5478
 20
53.4252
 11
-39.1761
 21
52.3678
  0
LINE
  8
0
 10
-39.1761
 20
52.3678
 11
-40.7747
 21
51.2608
  0
LINE
  8
0
 10
-40.7747
 20
51.2608
 11
-42.342
 21
50.105
  0
LINE
  8
0
 10
-42.342
 20
50.105
 11
-43.8766
 21
48.9013
  0
LINE
  8
0
 10
-43.8766
 20
48.9013
 11
-45.377
 21
47.6505
  0
LINE
  8
0
 10
-45.377
 20
47.6505
 11
-46.8417
 21
46.3537
  0
LINE
  8
0
 10
-46.8417
 20
46.3537
 11
-48.2693
 21
45.0119
  0
LINE
  8
0
 10
-48.2693
 20
45.0119
 11
-49.6586
 21
43.6261
  0
LINE
  8
0
 10
-49.6586
 20
43.6261
 11
-51.008
 21
42.1975
  0
LINE
  8
0
 10
-51.008
 20
42.1975
 11
-52.3163
 21
40.7271
  0
LINE
  8
0
 10
-52.3163
 20
40.7271
 11
-53.5822
 21
39.2162
  0
LINE
  8
0
 10
-53.5822
 20
39.2162
 11
-54.8044
 21
37.666
  0
LINE
  8
0
 10
-54.8044
 20
37.666
 11
-55.9817
 21
36.0778
  0
LINE
  8
0
 10
-55.9817
 20
36.0778
 11
-57.113
 21
34.4528
  0
LINE
  8
0
 10
-57.113
 20
34.4528
 11
-58.1971
 21
32.7924
  0
LINE
  8
0
 10
-58.1971
 20
32.7924
 11
-59.2328
 21
31.0979
  0
LINE
  8
0
 10
-59.2328
 20
31.0979
 11
-60.2192
 21
29.3709
  0
LINE
  8
0
 10
-60.2192
 20
29.3709
 11
-61.1552
 21
27.6126
  0
LINE
  8
0
 10
-61.1552
 20
27.6126
 11
-61.8357
 21
26.6602
  0
LINE
  8
0
 10
-61.8357
 20
26.6602
 11
-62.8289
 21
26.0408
  0
LINE
  8
0
 10
-62.8289
 20
26.0408
 11
-63.9836
 21
25.8486
  0
LINE
  8
0
 10
-63.9836
 20
25.8486
 11
-65.1239
 21
26.1129
  0
LINE
  8
0
 10
-65.1239
 20
26.1129
 11
-66.0763
 21
26.7935
  0
LINE
  8
0
 10
-66.0763
 20
26.7935
 11
-66.6957
 21
27.7867
  0
LINE
  8
0
 10
-66.6957
 20
27.7867
 11
-66.8879
 21
28.9414
  0
LINE
  8
0
 10
-66.8879
 20
28.9414
 11
-66.6236
 21
30.0817
  0
LINE
  8
0
 10
-66.6236
 20
30.0817
 11
-65.612
 21
32.0011
  0
LINE
  8
0
 10
-65.612
 20
32.0011
 11
-64.5452
 21
33.887
  0
LINE
  8
0
 10
-64.5452
 20
33.887
 11
-63.4244
 21
35.7378
  0
LINE
  8
0
 10
-63.4244
 20
35.7378
 11
-62.2506
 21
37.552
  0
LINE
  8
0
 10
-62.2506
 20
37.552
 11
-61.0251
 21
39.328
  0
LINE
  8
0
 10
-61.0251
 20
39.328
 11
-59.7491
 21
41.0644
  0
LINE
  8
0
 10
-59.7491
 20
41.0644
 11
-58.4239
 21
42.7598
  0
LINE
  8
0
 10
-58.4239
 20
42.7598
 11
-57.0508
 21
44.4128
  0
LINE
  8
0
 10
-57.0508
 20
44.4128
 11
-55.631
 21
46.022
  0
LINE
  8
0
 10
-55.631
 20
46.022
 11
-54.1661
 21
47.5861
  0
LINE
  8
0
 10
-54.1661
 20
47.5861
 11
-52.6575
 21
49.1039
  0
LINE
  8
0
 10
-52.6575
 20
49.1039
 11
-51.1065
 21
50.5741
  0
LINE
  8
0
 10
-51.1065
 20
50.5741
 11
-49.5147
 21
51.9955
  0
LINE
  8
0
 10
-49.5147
 20
51.9955
 11
-47.8836
 21
53.3671
  0
LINE
  8
0
 10
-47.8836
 20
53.3671
 11
-46.2148
 21
54.6878
  0
LINE
  8
0
 10
-46.2148
 20
54.6878
 11
-44.5098
 21
55.9565
  0
LINE
  8
0
 10
-44.5098
 20
55.9565
 11
-42.7703
 21
57.1722
  0
LINE
  8
0
 10
-42.7703
 20
57.1722
 11
-40.9979
 21
58.3341
  0
LINE
  8
0
 10
-40.9979
 20
58.3341
 11
-39.1942
 21
59.4412
  0
LINE
  8
0
 10
-39.1942
 20
59.4412
 11
-37.361
 21
60.4927
  0
LINE
  8
0
 10
-37.361
 20
60.4927
 11
-35.5
 21
61.4878
  0
LINE
  8
0
 10
-35.5
 20
61.4878
 11
-33.6129
 21
62.4258
  0
LINE
  8
0
 10
-33.6129
 20
62.4258
 11
-31.7013
 21
63.3061
  0
LINE
  8
0
 10
-31.7013
 20
63.3061
 11
-29.7672
 21
64.128
  0
LINE
  8
0
 10
-29.7672
 20
64.128
 11
-27.8123
 21
64.8909
  0
LINE
  8
0
 10
-27.8123
 20
64.8909
 11
-25.8383
 21
65.5944
  0
LINE
  8
0
 10
-25.8383
 20
65.5944
 11
-23.8471
 21
66.238
  0
LINE
  8
0
 10
-23.8471
 20
66.238
 11
-21.8405
 21
66.8212
  0
LINE
  8
0
 10
-21.8405
 20
66.8212
 11
-19.8204
 21
67.3438
  0
LINE
  8
0
 10
-19.8204
 20
67.3438
 11
-17.7884
 21
67.8055
  0
LINE
  8
0
 10
-17.7884
 20
67.8055
 11
-15.7466
 21
68.2059
  0
LINE
  8
0
 10
-15.7466
 20
68.2059
 11
-13.6966
 21
68.545
  0
LINE
  8
0
 10
-13.6966
 20
68.545
 11
-11.6405
 21
68.8225
  0
LINE
  8
0
 10
-11.6405
 20
68.8225
 11
-9.57988
 21
69.0385
  0
LINE
  8
0
 10
-9.57988
 20
69.0385
 11
-7.51675
 21
69.1929
  0
LINE
  8
0
 10
-7.51675
 20
69.1929
 11
-5.4529
 21
69.2858
  0
LINE
  8
0
 10
-5.4529
 20
69.2858
 11
-3.39017
 21
69.3171
  0
LINE
  8
0
 10
-3.39017
 20
69.3171
 11
-1.33037
 21
69.2872
  0
LINE
  8
0
 10
-1.33037
 20
69.2872
 11
0.72464
 21
69.1962
  0
LINE
  8
0
 10
0.72464
 20
69.1962
 11
2.7731
 21
69.0443
  0
LINE
  8
0
 10
2.7731
 20
69.0443
 11
4.81319
 21
68.8319
  0
LINE
  8
0
 10
4.81319
 20
68.8319
 11
6.84312
 21
68.5593
  0
LINE
  8
0
 10
6.84312
 20
68.5593
 11
8.86113
 21
68.227
  0
LINE
  8
0
 10
8.86113
 20
68.227
 11
10.8654
 21
67.8353
  0
LINE
  8
0
 10
10.8654
 20
67.8353
 11
12.8544
 21
67.3849
  0
LINE
  8
0
 10
12.8544
 20
67.3849
 11
14.8261
 21
66.8763
  0
LINE
  8
0
 10
14.8261
 20
66.8763
 11
16.779
 21
66.3101
  0
LINE
  8
0
 10
16.779
 20
66.3101
 11
18.7114
 21
65.6869
  0
LINE
  8
0
 10
18.7114
 20
65.6869
 11
20.6216
 21
65.0076
  0
LINE
  8
0
 10
20.6216
 20
65.0076
 11
22.508
 21
64.2728
  0
LINE
  8
0
 10
22.508
 20
64.2728
 11
24.369
 21
63.4835
  0
LINE
  8
0
 10
24.369
 20
63.4835
 11
26.203
 21
62.6403
  0
LINE
  8
0
 10
26.203
 20
62.6403
 11
28.0085
 21
61.7443
  0
LINE
  8
0
 10
28.0085
 20
61.7443
 11
29.7839
 21
60.7965
  0
LINE
  8
0
 10
29.7839
 20
60.7965
 11
31.5277
 21
59.7977
  0
LINE
  8
0
 10
31.5277
 20
59.7977
 11
33.2386
 21
58.749
  0
LINE
  8
0
 10
33.2386
 20
58.749
 11
34.915
 21
57.6516
  0
LINE
  8
0
 10
34.915
 20
57.6516
 11
36.5556
 21
56.5064
  0
LINE
  8
0
 10
36.5556
 20
56.5064
 11
38.1591
 21
55.3148
  0
LINE
  8
0
 10
38.1591
 20
55.3148
 11
39.7241
 21
54.0778
  0
LINE
  8
0
 10
39.7241
 20
54.0778
 11
41.2493
 21
52.7967
  0
LINE
  8
0
 10
41.2493
 20
52.7967
 11
42.7336
 21
51.4728
  0
LINE
  8
0
 10
42.7336
 20
51.4728
 11
44.1756
 21
50.1074
  0
LINE
  8
0
 10
44.1756
 20
50.1074
 11
45.5744
 21
48.7018
  0
LINE
  8
0
 10
45.5744
 20
48.7018
 11
46.9286
 21
47.2574
  0
LINE
  8
0
 10
46.9286
 20
47.2574
 11
48.2374
 21
45.7756
  0
LINE
  8
0
 10
48.2374
 20
45.7756
 11
49.4996
 21
44.2578
  0
LINE
  8
0
 10
49.4996
 20
44.2578
 11
50.7143
 21
42.7054
  0
LINE
  8
0
 10
50.7143
 20
42.7054
 11
51.8805
 21
41.12
  0
LINE
  8
0
 10
51.8805
 20
41.12
 11
52.9974
 21
39.503
  0
LINE
  8
0
 10
52.9974
 20
39.503
 11
54.064
 21
37.856
  0
LINE
  8
0
 10
54.064
 20
37.856
 11
55.0797
 21
36.1806
  0
LINE
  8
0
 10
55.0797
 20
36.1806
 11
56.0436
 21
34.4783
  0
LINE
  8
0
 10
56.0436
 20
34.4783
 11
56.9551
 21
32.7506
  0
LINE
  8
0
 10
56.9551
 20
32.7506
 11
57.8135
 21
30.9993
  0
LINE
  8
0
 10
57.8135
 20
30.9993
 11
58.6182
 21
29.226
  0
LINE
  8
0
 10
58.6182
 20
29.226
 11
59.3686
 21
27.4322
  0
LINE
  8
0
 10
59.3686
 20
27.4322
 11
60.0643
 21
25.6196
  0
LINE
  8
0
 10
60.0643
 20
25.6196
 11
60.7048
 21
23.79
  0
LINE
  8
0
 10
60.7048
 20
23.79
 11
61.2897
 21
21.9449
  0
LINE
  8
0
 10
61.2897
 20
21.9449
 11
61.8187
 21
20.0861
  0
LINE
  8
0
 10
61.8187
 20
20.0861
 11
62.2914
 21
18.2153
  0
LINE
  8
0
 10
62.2914
 20
18.2153
 11
62.7076
 21
16.3341
  0
LINE
  8
0
 10
62.7076
 20
16.3341
 11
63.067
 21
14.4443
  0
LINE
  8
0
 10
63.067
 20
14.4443
 11
63.3697
 21
12.5475
  0
LINE
  8
0
 10
63.3697
 20
12.5475
 11
63.6154
 21
10.6456
  0
LINE
  8
0
 10
63.6154
 20
10.6456
 11
63.8042
 21
8.74008
  0
LINE
  8
0
 10
63.8042
 20
8.74008
 11
63.9359
 21
6.83278
  0
LINE
  8
0
 10
63.9359
 20
6.83278
 11
64.0108
 21
4.92535
  0
LINE
  8
0
 10
64.0108
 20
4.92535
 11
64.0288
 21
3.01952
  0
LINE
  8
0
 10
64.0288
 20
3.01952
 11
63.9902
 21
1.11694
  0
LINE
  8
0
 10
63.9902
 20
1.11694
 11
63.8952
 21
-0.780655
  0
LINE
  8
0
 10
63.8952
 20
-0.780655
 11
63.744
 21
-2.67166
  0
LINE
  8
0
 10
63.744
 20
-2.67166
 11
63.537
 21
-4.55438
  0
LINE
  8
0
 10
63.537
 20
-4.55438
 11
63.2744
 21
-6.42717
  0
LINE
  8
0
 10
63.2744
 20
-6.42717
 11
62.9567
 21
-8.28841
  0
LINE
  8
0
 10
62.9567
 20
-8.28841
 11
62.5844
 21
-10.1365
  0
LINE
  8
0
 10
62.5844
 20
-10.1365
 11
62.158
 21
-11.9697
  0
LINE
  8
0
 10
62.158
 20
-11.9697
 11
61.6779
 21
-13.7867
  0
LINE
  8
0
 10
61.6779
 20
-13.7867
 11
61.1449
 21
-15.5856
  0
LINE
  8
0
 10
61.1449
 20
-15.5856
 11
60.5595
 21
-17.3651
  0
LINE
  8
0
 10
60.5595
 20
-17.3651
 11
59.9224
 21
-19.1237
  0
LINE
  8
0
 10
59.9224
 20
-19.1237
 11
59.2344
 21
-20.8597
  0
LINE
  8
0
 10
59.2344
 20
-20.8597
 11
58.4962
 21
-22.5718
  0
LINE
  8
0
 10
58.4962
 20
-22.5718
 11
57.7086
 21
-24.2585
  0
LINE
  8
0
 10
57.7086
 20
-24.2585
 11
56.8726
 21
-25.9183
  0
LINE
  8
0
 10
56.8726
 20
-25.9183
 11
55.9889
 21
-27.55
  0
LINE
  8
0
 10
55.9889
 20
-27.55
 11
55.0586
 21
-29.152
  0
LINE
  8
0
 10
55.0586
 20
-29.152
 11
54.0826
 21
-30.7232
  0
LINE
  8
0
 10
54.0826
 20
-30.7232
 11
53.0619
 21
-32.2621
  0
LINE
  8
0
 10
53.0619
 20
-32.2621
 11
51.9976
 21
-33.7676
  0
LINE
  8
0
 10
51.9976
 20
-33.7676
 11
50.8907
 21
-35.2384
  0
LINE
  8
0
 10
50.8907
 20
-35.2384
 11
49.7424
 21
-36.6733
  0
LINE
  8
0
 10
49.7424
 20
-36.6733
 11
48.5539
 21
-38.0711
  0
LINE
  8
0
 10
48.5539
 20
-38.0711
 11
47.3263
 21
-39.4308
  0
LINE
  8
0
 10
47.3263
 20
-39.4308
 11
46.0608
 21
-40.7511
  0
LINE
  8
0
 10
46.0608
 20
-40.7511
 11
44.7587
 21
-42.0312
  0
LINE
  8
0
 10
44.7587
 20
-42.0312
 11
43.4212
 21
-43.2699
  0
LINE
  8
0
 10
43.4212
 20
-43.2699
 11
42.0497
 21
-44.4664
  0
LINE
  8
0
 10
42.0497
 20
-44.4664
 11
40.6456
 21
-45.6196
  0
LINE
  8
0
 10
40.6456
 20
-45.6196
 11
39.21
 21
-46.7287
  0
LINE
  8
0
 10
39.21
 20
-46.7287
 11
37.7445
 21
-47.7929
  0
LINE
  8
0
 10
37.7445
 20
-47.7929
 11
36.2505
 21
-48.8113
  0
LINE
  8
0
 10
36.2505
 20
-48.8113
 11
34.7292
 21
-49.7832
  0
LINE
  8
0
 10
34.7292
 20
-49.7832
 11
33.1823
 21
-50.7079
  0
LINE
  8
0
 10
33.1823
 20
-50.7079
 11
31.6112
 21
-51.5847
  0
LINE
  8
0
 10
31.6112
 20
-51.5847
 11
30.0172
 21
-52.413
  0
LINE
  8
0
 10
30.0172
 20
-52.413
 11
28.402
 21
-53.1922
  0
LINE
  8
0
 10
28.402
 20
-53.1922
 11
26.767
 21
-53.9218
  0
LINE
  8
0
 10
26.767
 20
-53.9218
 11
25.1138
 21
-54.6013
  0
LINE
  8
0
 10
25.1138
 20
-54.6013
 11
23.4439
 21
-55.2303
  0
LINE
  8
0
 10
23.4439
 20
-55.2303
 11
21.7587
 21
-55.8083
  0
LINE
  8
0
 10
21.7587
 20
-55.8083
 11
20.06
 21
-56.335
  0
LINE
  8
0
 10
20.06
 20
-56.335
 11
18.3492
 21
-56.8102
  0
LINE
  8
0
 10
18.3492
 20
-56.8102
 11
16.6279
 21
-57.2335
  0
LINE
  8
0
 10
16.6279
 20
-57.2335
 11
14.8976
 21
-57.6048
  0
LINE
  8
0
 10
14.8976
 20
-57.6048
 11
13.16
 21
-57.9239
  0
LINE
  8
0
 10
13.16
 20
-57.9239
 11
11.4165
 21
-58.1906
  0
LINE
  8
0
 10
11.4165
 20
-58.1906
 11
9.66888
 21
-58.4051
  0
LINE
  8
0
 10
9.66888
 20
-58.4051
 11
7.91858
 21
-58.5671
  0
LINE
  8
0
 10
7.91858
 20
-58.5671
 11
6.16718
 21
-58.6768
  0
LINE
  8
0
 10
6.16718
 20
-58.6768
 11
4.41624
 21
-58.7342
  0
LINE
  8
0
 10
4.41624
 20
-58.7342
 11
2.66734
 21
-58.7395
  0
LINE
  8
0
 10
2.66734
 20
-58.7395
 11
0.922012
 21
-58.6927
  0
LINE
  8
0
 10
1.33037
 20
-69.2872
 11
-0.72464
 21
-69.1962
  0
LINE
  8
0
 10
-0.72464
 20
-69.1962
 11
-2.7731
 21
-69.0443
  0
LINE
  8
0
 10
-2.7731
 20
-69.0443
 11
-4.81319
 21
-68.8319
  0
LINE
  8
0
 10
-4.81319
 20
-68.8319
 11
-6.84312
 21
-68.5593
  0
LINE
  8
0
 10
-6.84312
 20
-68.5593
 11
-8.86113
 21
-68.227
  0
LINE
  8
0
 10
-8.86113
 20
-68.227
 11
-10.8654
 21
-67.8353
  0
LINE
  8
0
 10
-10.8654
 20
-67.8353
 11
-12.8544
 21
-67.3849
  0
LINE
  8
0
 10
-12.8544
 20
-67.3849
 11
-14.8261
 21
-66.8763
  0
LINE
  8
0
 10
-14.8261
 20
-66.8763
 11
-16.779
 21
-66.3101
  0
LINE
  8
0
 10
-16.779
 20
-66.3101
 11
-18.7114
 21
-65.6869
  0
LINE
  8
0
 10
-18.7114
 20
-65.6869
 11
-20.6216
 21
-65.0076
  0
LINE
  8
0
 10
-20.6216
 20
-65.0076
 11
-22.508
 21
-64.2728
  0
LINE
  8
0
 10
-22.508
 20
-64.2728
 11
-24.369
 21
-63.4835
  0
LINE
  8
0
 10
-24.369
 20
-63.4835
 11
-26.203
 21
-62.6403
  0
LINE
  8
0
 10
-26.203
 20
-62.6403
 11
-28.0085
 21
-61.7443
  0
LINE
  8
0
 10
-28.0085
 20
-61.7443
 11
-29.7839
 21
-60.7965
  0
LINE
  8
0
 10
-29.7839
 20
-60.7965
 11
-31.5277
 21
-59.7977
  0
LINE
  8
0
 10
-31.5277
 20
-59.7977
 11
-33.2386
 21
-58.749
  0
LINE
  8
0
 10
-33.2386
 20
-58.749
 11
-34.915
 21
-57.6516
  0
LINE
  8
0
 10
-34.915
 20
-57.6516
 11
-36.5556
 21
-56.5064
  0
LINE
  8
0
 10
-36.5556
 20
-56.5064
 11
-38.1591
 21
-55.3148
  0
LINE
  8
0
 10
-38.1591
 20
-55.3148
 11
-39.7241
 21
-54.0778
  0
LINE
  8
0
 10
-39.7241
 20
-54.0778
 11
-41.2493
 21
-52.7967
  0
LINE
  8
0
 10
-41.2493
 20
-52.7967
 11
-42.7336
 21
-51.4728
  0
LINE
  8
0
 10
-42.7336
 20
-51.4728
 11
-44.1756
 21
-50.1074
  0
LINE
  8
0
 10
-44.1756
 20
-50.1074
 11
-45.5744
 21
-48.7018
  0
LINE
  8
0
 10
-45.5744
 20
-48.7018
 11
-46.9286
 21
-47.2574
  0
LINE
  8
0
 10
-46.9286
 20
-47.2574
 11
-48.2374
 21
-45.7756
  0
LINE
  8
0
 10
-48.2374
 20
-45.7756
 11
-49.4996
 21
-44.2578
  0
LINE
  8
0
 10
-49.4996
 20
-44.2578
 11
-50.7143
 21
-42.7054
  0
LINE
  8
0
 10
-50.7143
 20
-42.7054
 11
-51.8805
 21
-41.12
  0
LINE
  8
0
 10
-51.8805
 20
-41.12
 11
-52.9974
 21
-39.503
  0
LINE
  8
0
 10
-52.9974
 20
-39.503
 11
-54.064
 21
-37.856
  0
LINE
  8
0
 10
-54.064
 20
-37.856
 11
-55.0797
 21
-36.1806
  0
LINE
  8
0
 10
-55.0797
 20
-36.1806
 11
-56.0436
 21
-34.4783
  0
LINE
  8
0
 10
-56.0436
 20
-34.4783
 11
-56.9551
 21
-32.7506
  0
LINE
  8
0
 10
-56.9551
 20
-32.7506
 11
-57.8135
 21
-30.9993
  0
LINE
  8
0
 10
-57.8135
 20
-30.9993
 11
-58.6182
 21
-29.226
  0
LINE
  8
0
 10
-58.6182
 20
-29.226
 11
-59.3686
 21
-27.4322
  0
LINE
  8
0
 10
-59.3686
 20
-27.4322
 11
-60.0643
 21
-25.6196
  0
LINE
  8
0
 10
-60.0643
 20
-25.6196
 11
-60.7048
 21
-23.79
  0
LINE
  8
0
 10
-60.7048
 20
-23.79
 11
-61.2897
 21
-21.9449
  0
LINE
  8
0
 10
-61.2897
 20
-21.9449
 11
-61.8187
 21
-20.0861
  0
LINE
  8
0
 10
-61.8187
 20
-20.0861
 11
-62.2914
 21
-18.2153
  0
LINE
  8
0
 10
-62.2914
 20
-18.2153
 11
-62.7076
 21
-16.3341
  0
LINE
  8
0
 10
-62.7076
 20
-16.3341
 11
-63.067
 21
-14.4443
  0
LINE
  8
0
 10
-63.067
 20
-14.4443
 11
-63.3697
 21
-12.5475
  0
LINE
  8
0
 10
-63.3697
 20
-12.5475
 11
-63.6154
 21
-10.6456
  0
LINE
  8
0
 10
-63.6154
 20
-10.6456
 11
-63.8042
 21
-8.74008
  0
LINE
  8
0
 10
-63.8042
 20
-8.74008
 11
-63.9359
 21
-6.83278
  0
LINE
  8
0
 10
-63.9359
 20
-6.83278
 11
-64.0108
 21
-4.92535
  0
LINE
  8
0
 10
-64.0108
 20
-4.92535
 11
-64.0288
 21
-3.01952
  0
LINE
  8
0
 10
-64.0288
 20
-3.01952
 11
-63.9902
 21
-1.11694
  0
LINE
  8
0
 10
-63.9902
 20
-1.11694
 11
-63.8952
 21
0.780655
  0
LINE
  8
0
 10
-63.8952
 20
0.780655
 11
-63.744
 21
2.67166
  0
LINE
  8
0
 10
-63.744
 20
2.67166
 11
-63.537
 21
4.55438
  0
LINE
  8
0
 10
-63.537
 20
4.55438
 11
-63.2744
 21
6.42717
  0
LINE
  8
0
 10
-63.2744
 20
6.42717
 11
-62.9567
 21
8.28841
  0
LINE
  8
0
 10
-62.9567
 20
8.28841
 11
-62.5844
 21
10.1365
  0
LINE
  8
0
 10
-62.5844
 20
10.1365
 11
-62.158
 21
11.9697
  0
LINE
  8
0
 10
-62.158
 20
11.9697
 11
-61.6779
 21
13.7867
  0
LINE
  8
0
 10
-61.6779
 20
13.7867
 11
-61.1449
 21
15.5856
  0
LINE
  8
0
 10
-61.1449
 20
15.5856
 11
-60.5595
 21
17.3651
  0
LINE
  8
0
 10
-60.5595
 20
17.3651
 11
-59.9224
 21
19.1237
  0
LINE
  8
0
 10
-59.9224
 20
19.1237
 11
-59.2344
 21
20.8597
  0
LINE
  8
0
 10
-59.2344
 20
20.8597
 11
-58.4962
 21
22.5718
  0
LINE
  8
0
 10
-58.4962
 20
22.5718
 11
-57.7086
 21
24.2585
  0
LINE
  8
0
 10
-57.7086
 20
24.2585
 11
-56.8726
 21
25.9183
  0
LINE
  8
0
 10
-56.8726
 20
25.9183
 11
-55.9889
 21
27.55
  0
LINE
  8
0
 10
-55.9889
 20
27.55
 11
-55.0586
 21
29.152
  0
LINE
  8
0
 10
-55.0586
 20
29.152
 11
-54.0826
 21
30.7232
  0
LINE
  8
0
 10
-54.0826
 20
30.7232
 11
-53.0619
 21
32.2621
  0
LINE
  8
0
 10
-53.0619
 20
32.2621
 11
-51.9976
 21
33.7676
  0
LINE
  8
0
 10
-51.9976
 20
33.7676
 11
-50.8907
 21
35.2384
  0
LINE
  8
0
 10
-50.8907
 20
35.2384
 11
-49.7424
 21
36.6733
  0
LINE
  8
0
 10
-49.7424
 20
36.6733
 11
-48.5539
 21
38.0711
  0
LINE
  8
0
 10
-48.5539
 20
38.0711
 11
-47.3263
 21
39.4308
  0
LINE
  8
0
 10
-47.3263
 20
39.4308
 11
-46.0608
 21
40.7511
  0
LINE
  8
0
 10
-46.0608
 20
40.7511
 11
-44.7587
 21
42.0312
  0
LINE
  8
0
 10
-44.7587
 20
42.0312
 11
-43.4212
 21
43.2699
  0
LINE
  8
0
 10
-43.4212
 20
43.2699
 11
-42.0497
 21
44.4664
  0
LINE
  8
0
 10
-42.0497
 20
44.4664
 11
-40.6456
 21
45.6196
  0
LINE
  8
0
 10
-40.6456
 20
45.6196
 11
-39.21
 21
46.7287
  0
LINE
  8
0
 10
-39.21
 20
46.7287
 11
-37.7445
 21
47.7929
  0
LINE
  8
0
 10
-37.7445
 20
47.7929
 11
-36.2505
 21
48.8113
  0
LINE
  8
0
 10
-36.2505
 20
48.8113
 11
-34.7292
 21
49.7832
  0
LINE
  8
0
 10
-34.7292
 20
49.7832
 11
-33.1823
 21
50.7079
  0
LINE
  8
0
 10
-33.1823
 20
50.7079
 11
-31.6112
 21
51.5847
  0
LINE
  8
0
 10
-31.6112
 20
51.5847
 11
-30.0172
 21
52.413
  0
LINE
  8
0
 10
-30.0172
 20
52.413
 11
-28.402
 21
53.1922
  0
LINE
  8
0
 10
-28.402
 20
53.1922
 11
-26.767
 21
53.9218
  0
LINE
  8
0
 10
-26.767
 20
53.9218
 11
-25.1138
 21
54.6013
  0
LINE
  8
0
 10
-25.1138
 20
54.6013
 11
-23.4439
 21
55.2303
  0
LINE
  8
0
 10
-23.4439
 20
55.2303
 11
-21.7587
 21
55.8083
  0
LINE
  8
0
 10
-21.7587
 20
55.8083
 11
-20.06
 21
56.335
  0
LINE
  8
0
 10
-20.06
 20
56.335
 11
-18.3492
 21
56.8102
  0
LINE
  8
0
 10
-18.3492
 20
56.8102
 11
-16.6279
 21
57.2335
  0
LINE
  8
0
 10
-16.6279
 20
57.2335
 11
-14.8976
 21
57.6048
  0
LINE
  8
0
 10
-14.8976
 20
57.6048
 11
-13.16
 21
57.9239
  0
LINE
  8
0
 10
-13.16
 20
57.9239
 11
-11.4165
 21
58.1906
  0
LINE
  8
0
 10
-11.4165
 20
58.1906
 11
-9.66888
 21
58.4051
  0
LINE
  8
0
 10
-9.66888
 20
58.4051
 11
-7.91858
 21
58.5671
  0
LINE
  8
0
 10
-7.91858
 20
58.5671
 11
-6.16718
 21
58.6768
  0
LINE
  8
0
 10
-6.16718
 20
58.6768
 11
-4.41624
 21
58.7342
  0
LINE
  8
0
 10
-4.41624
 20
58.7342
 11
-2.66734
 21
58.7395
  0
LINE
  8
0
 10
-2.66734
 20
58.7395
 11
-0.922012
 21
58.6927
  0
LINE
  8
0
 10
-0.922012
 20
58.6927
 11
0.818176
 21
58.5943
  0
LINE
  8
0
 10
0.818176
 20
58.5943
 11
2.55173
 21
58.4443
  0
LINE
  8
0
 10
2.55173
 20
58.4443
 11
4.2771
 21
58.2432
  0
LINE
  8
0
 10
4.2771
 20
58.2432
 11
5.9928
 21
57.9912
  0
LINE
  8
0
 10
5.9928
 20
57.9912
 11
7.69731
 21
57.6887
  0
LINE
  8
0
 10
7.69731
 20
57.6887
 11
9.38918
 21
57.3363
  0
LINE
  8
0
 10
9.38918
 20
57.3363
 11
11.0669
 21
56.9344
  0
LINE
  8
0
 10
11.0669
 20
56.9344
 11
12.7291
 21
56.4834
  0
LINE
  8
0
 10
12.7291
 20
56.4834
 11
14.3743
 21
55.9841
  0
LINE
  8
0
 10
14.3743
 20
55.9841
 11
16.0011
 21
55.437
  0
LINE
  8
0
 10
16.0011
 20
55.437
 11
17.608
 21
54.8427
  0
LINE
  8
0
 10
17.608
 20
54.8427
 11
19.1939
 21
54.2019
  0
LINE
  8
0
 10
19.1939
 20
54.2019
 11
20.7572
 21
53.5154
  0
LINE
  8
0
 10
20.7572
 20
53.5154
 11
22.2968
 21
52.7839
  0
LINE
  8
0
 10
22.2968
 20
52.7839
 11
23.8112
 21
52.0083
  0
LINE
  8
0
 10
23.8112
 20
52.0083
 11
25.2994
 21
51.1894
  0
LINE
  8
0
 10
25.2994
 20
51.1894
 11
26.7599
 21
50.328
  0
LINE
  8
0
 10
26.7599
 20
50.328
 11
28.1916
 21
49.4251
  0
LINE
  8
0
 10
28.1916
 20
49.4251
 11
29.5933
 21
48.4817
  0
LINE
  8
0
 10
29.5933
 20
48.4817
 11
30.964
 21
47.4986
  0
LINE
  8
0
 10
30.964
 20
47.4986
 11
32.3024
 21
46.477
  0
LINE
  8
0
 10
32.3024
 20
46.477
 11
33.6075
 21
45.4179
  0
LINE
  8
0
 10
33.6075
 20
45.4179
 11
34.8782
 21
44.3223
  0
LINE
  8
0
 10
34.8782
 20
44.3223
 11
36.1136
 21
43.1914
  0
LINE
  8
0
 10
36.1136
 20
43.1914
 11
37.3127
 21
42.0262
  0
LINE
  8
0
 10
37.3127
 20
42.0262
 11
38.4744
 21
40.828
  0
LINE
  8
0
 10
38.4744
 20
40.828
 11
39.598
 21
39.598
  0
LINE
  8
0
 10
39.598
 20
39.598
 11
40.6825
 21
38.3372
  0
LINE
  8
0
 10
40.6825
 20
38.3372
 11
41.7271
 21
37.0471
  0
LINE
  8
0
 10
41.7271
 20
37.0471
 11
42.7311
 21
35.7287
  0
LINE
  8
0
 10
42.7311
 20
35.7287
 11
43.6936
 21
34.3835
  0
LINE
  8
0
 10
43.6936
 20
34.3835
 11
44.614
 21
33.0126
  0
LINE
  8
0
 10
44.614
 20
33.0126
 11
45.4917
 21
31.6175
  0
LINE
  8
0
 10
45.4917
 20
31.6175
 11
46.3258
 21
30.1994
  0
LINE
  8
0
 10
46.3258
 20
30.1994
 11
47.116
 21
28.7597
  0
LINE
  8
0
 10
47.116
 20
28.7597
 11
47.8616
 21
27.2998
  0
LINE
  8
0
 10
47.8616
 20
27.2998
 11
48.5621
 21
25.8209
  0
LINE
  8
0
 10
48.5621
 20
25.8209
 11
49.2171
 21
24.3246
  0
LINE
  8
0
 10
49.2171
 20
24.3246
 11
49.8261
 21
22.8122
  0
LINE
  8
0
 10
49.8261
 20
22.8122
 11
50.3888
 21
21.2851
  0
LINE
  8
0
 10
50.3888
 20
21.2851
 11
50.9049
 21
19.7447
  0
LINE
  8
0
 10
50.9049
 20
19.7447
 11
51.3739
 21
18.1925
  0
LINE
  8
0
 10
51.3739
 20
18.1925
 11
51.7958
 21
16.6298
  0
LINE
  8
0
 10
51.7958
 20
16.6298
 11
52.1703
 21
15.0582
  0
LINE
  8
0
 10
52.1703
 20
15.0582
 11
52.4972
 21
13.479
  0
LINE
  8
0
 10
52.4972
 20
13.479
 11
52.7764
 21
11.8937
  0
LINE
  8
0
 10
52.7764
 20
11.8937
 11
53.0079
 21
10.3037
  0
LINE
  8
0
 10
53.0079
 20
10.3037
 11
53.1915
 21
8.71043
  0
LINE
  8
0
 10
53.1915
 20
8.71043
 11
53.3274
 21
7.11539
  0
LINE
  8
0
 10
53.3274
 20
7.11539
 11
53.4155
 21
5.51996
  0
LINE
  8
0
 10
53.4155
 20
5.51996
 11
53.4561
 21
3.92555
  0
LINE
  8
0
 10
53.4561
 20
3.92555
 11
53.4491
 21
2.33363
  0
LINE
  8
0
 10
53.4491
 20
2.33363
 11
53.3948
 21
0.745575
  0
LINE
  8
0
 10
53.3948
 20
0.745575
 11
53.2934
 21
-0.837189
  0
LINE
  8
0
 10
53.2934
 20
-0.837189
 11
53.1452
 21
-2.4133
  0
LINE
  8
0
 10
53.1452
 20
-2.4133
 11
52.9505
 21
-3.98137
  0
LINE
  8
0
 10
52.9505
 20
-3.98137
 11
52.7097
 21
-5.54001
  0
LINE
  8
0
 10
52.7097
 20
-5.54001
 11
52.423
 21
-7.08786
  0
LINE
  8
0
 10
52.423
 20
-7.08786
 11
52.091
 21
-8.6236
  0
LINE
  8
0
 10
52.091
 20
-8.6236
 11
51.7141
 21
-10.1459
  0
LINE
  8
0
 10
51.7141
 20
-10.1459
 11
51.2928
 21
-11.6534
  0
LINE
  8
0
 10
51.2928
 20
-11.6534
 11
50.8277
 21
-13.1449
  0
LINE
  8
0
 10
50.8277
 20
-13.1449
 11
50.3194
 21
-14.6191
  0
LINE
  8
0
 10
50.3194
 20
-14.6191
 11
49.7684
 21
-16.0747
  0
LINE
  8
0
 10
49.7684
 20
-16.0747
 11
49.1754
 21
-17.5106
  0
LINE
  8
0
 10
49.1754
 20
-17.5106
 11
48.5411
 21
-18.9254
  0
LINE
  8
0
 10
48.5411
 20
-18.9254
 11
47.8662
 21
-20.318
  0
LINE
  8
0
 10
47.8662
 20
-20.318
 11
47.1516
 21
-21.6873
  0
LINE
  8
0
 10
47.1516
 20
-21.6873
 11
46.3979
 21
-23.0321
  0
LINE
  8
0
 10
46.3979
 20
-23.0321
 11
45.606
 21
-24.3513
  0
LINE
  8
0
 10
45.606
 20
-24.3513
 11
44.7767
 21
-25.6438
  0
LINE
  8
0
 10
44.7767
 20
-25.6438
 11
43.911
 21
-26.9087
  0
LINE
  8
0
 10
43.911
 20
-26.9087
 11
43.0097
 21
-28.1447
  0
LINE
  8
0
 10
43.0097
 20
-28.1447
 11
42.0738
 21
-29.3511
  0
LINE
  8
0
 10
42.0738
 20
-29.3511
 11
41.1042
 21
-30.5267
  0
LINE
  8
0
 10
41.1042
 20
-30.5267
 11
40.1021
 21
-31.6707
  0
LINE
  8
0
 10
40.1021
 20
-31.6707
 11
39.0683
 21
-32.7822
  0
LINE
  8
0
 10
39.0683
 20
-32.7822
 11
38.0039
 21
-33.8602
  0
LINE
  8
0
 10
38.0039
 20
-33.8602
 11
36.91
 21
-34.904
  0
LINE
  8
0
 10
36.91
 20
-34.904
 11
35.7877
 21
-35.9128
  0
LINE
  8
0
 10
35.7877
 20
-35.9128
 11
34.6381
 21
-36.8858
  0
LINE
  8
0
 10
34.6381
 20
-36.8858
 11
33.4623
 21
-37.8223
  0
LINE
  8
0
 10
33.4623
 20
-37.8223
 11
32.2615
 21
-38.7215
  0
LINE
  8
0
 10
32.2615
 20
-38.7215
 11
31.0369
 21
-39.5828
  0
LINE
  8
0
 10
31.0369
 20
-39.5828
 11
29.7896
 21
-40.4057
  0
LINE
  8
0
 10
29.7896
 20
-40.4057
 11
28.5209
 21
-41.1894
  0
LINE
  8
0
 10
28.5209
 20
-41.1894
 11
27.2319
 21
-41.9335
  0
LINE
  8
0
 10
27.2319
 20
-41.9335
 11
25.924
 21
-42.6375
  0
LINE
  8
0
 10
25.924
 20
-42.6375
 11
24.5983
 21
-43.3008
  0
LINE
  8
0
 10
24.5983
 20
-43.3008
 11
23.2561
 21
-43.9231
  0
LINE
  8
0
 10
23.2561
 20
-43.9231
 11
21.8987
 21
-44.504
  0
LINE
  8
0
 10
21.8987
 20
-44.504
 11
20.5273
 21
-45.0431
  0
LINE
  8
0
 10
20.5273
 20
-45.0431
 11
19.1433
 21
-45.54
  0
LINE
  8
0
 10
19.1433
 20
-45.54
 11
17.7478
 21
-45.9946
  0
LINE
  8
0
 10
17.7478
 20
-45.9946
 11
16.3423
 21
-46.4065
  0
LINE
  8
0
 10
16.3423
 20
-46.4065
 11
14.928
 21
-46.7757
  0
LINE
  8
0
 10
14.928
 20
-46.7757
 11
13.5062
 21
-47.1018
  0
LINE
  8
0
 10
13.5062
 20
-47.1018
 11
12.0782
 21
-47.3849
  0
LINE
  8
0
 10
12.0782
 20
-47.3849
 11
10.6454
 21
-47.6247
  0
LINE
  8
0
 10
10.6454
 20
-47.6247
 11
9.20894
 21
-47.8214
  0
LINE
  8
0
 10
9.20894
 20
-47.8214
 11
7.77022
 21
-47.9748
  0
LINE
  8
0
 10
7.77022
 20
-47.9748
 11
6.33051
 21
-48.0851
  0
LINE
  8
0
 10
6.33051
 20
-48.0851
 11
4.89111
 21
-48.1522
  0
LINE
  8
0
 10
4.89111
 20
-48.1522
 11
3.45332
 21
-48.1764
  0
LINE
  8
0
 10
3.45332
 20
-48.1764
 11
2.0184
 21
-48.1577
  0
LINE
  8
0
 10
2.0184
 20
-48.1577
 11
0.587631
 21
-48.0964
  0
LINE
  8
0
 10
0.587631
 20
-48.0964
 11
-0.837708
 21
-47.9927
  0
LINE
  8
0
 10
-0.837708
 20
-47.9927
 11
-2.25639
 21
-47.8468
  0
LINE
  8
0
 10
-2.25639
 20
-47.8468
 11
-3.66716
 21
-47.6591
  0
LINE
  8
0
 10
-3.66716
 20
-47.6591
 11
-5.06879
 21
-47.4299
  0
LINE
  8
0
 10
-5.06879
 20
-47.4299
 11
-6.46005
 21
-47.1596
  0
LINE
  8
0
 10
-6.46005
 20
-47.1596
 11
-7.83975
 21
-46.8486
  0
LINE
  8
0
 10
-7.83975
 20
-46.8486
 11
-9.2067
 21
-46.4973
  0
LINE
  8
0
 10
-9.2067
 20
-46.4973
 11
-10.5597
 21
-46.1062
  0
LINE
  8
0
 10
-10.5597
 20
-46.1062
 11
-11.8977
 21
-45.6759
  0
LINE
  8
0
 10
-11.8977
 20
-45.6759
 11
-13.2194
 21
-45.2068
  0
LINE
  8
0
 10
-13.2194
 20
-45.2068
 11
-14.5238
 21
-44.6996
  0
LINE
  8
0
 10
-14.5238
 20
-44.6996
 11
-15.8098
 21
-44.155
  0
LINE
  8
0
 10
-15.8098
 20
-44.155
 11
-17.0762
 21
-43.5734
  0
LINE
  8
0
 10
-17.0762
 20
-43.5734
 11
-18.3221
 21
-42.9557
  0
LINE
  8
0
 10
-18.3221
 20
-42.9557
 11
-19.5465
 21
-42.3024
  0
LINE
  8
0
 10
-19.5465
 20
-42.3024
 11
-20.7482
 21
-41.6144
  0
LINE
  8
0
 10
-20.7482
 20
-41.6144
 11
-21.9263
 21
-40.8925
  0
LINE
  8
0
 10
-21.9263
 20
-40.8925
 11
-23.08
 21
-40.1373
  0
LINE
  8
0
 10
-23.08
 20
-40.1373
 11
-24.2081
 21
-39.3498
  0
LINE
  8
0
 10
-24.2081
 20
-39.3498
 11
-25.31
 21
-38.5307
  0
LINE
  8
0
 10
-25.31
 20
-38.5307
 11
-26.3845
 21
-37.681
  0
LINE
  8
0
 10
-26.3845
 20
-37.681
 11
-27.431
 21
-36.8015
  0
LINE
  8
0
 10
-27.431
 20
-36.8015
 11
-28.4486
 21
-35.8932
  0
LINE
  8
0
 10
-28.4486
 20
-35.8932
 11
-29.4364
 21
-34.9569
  0
LINE
  8
0
 10
-29.4364
 20
-34.9569
 11
-30.3939
 21
-33.9937
  0
LINE
  8
0
 10
-30.3939
 20
-33.9937
 11
-31.3201
 21
-33.0045
  0
LINE
  8
0
 10
-31.3201
 20
-33.0045
 11
-32.2145
 21
-31.9904
  0
LINE
  8
0
 10
-32.2145
 20
-31.9904
 11
-33.0763
 21
-30.9523
  0
LINE
  8
0
 10
-33.0763
 20
-30.9523
 11
-33.905
 21
-29.8913
  0
LINE
  8
0
 10
-33.905
 20
-29.8913
 11
-34.6999
 21
-28.8084
  0
LINE
  8
0
 10
-34.6999
 20
-28.8084
 11
-35.4605
 21
-27.7048
  0
LINE
  8
0
 10
-35.4605
 20
-27.7048
 11
-36.1862
 21
-26.5814
  0
LINE
  8
0
 10
-36.1862
 20
-26.5814
 11
-36.8765
 21
-25.4394
  0
LINE
  8
0
 10
-36.8765
 20
-25.4394
 11
-37.531
 21
-24.2799
  0
LINE
  8
0
 10
-37.531
 20
-24.2799
 11
-38.1492
 21
-23.104
  0
LINE
  8
0
 10
-38.1492
 20
-23.104
 11
-38.7308
 21
-21.9128
  0
LINE
  8
0
 10
-38.7308
 20
-21.9128
 11
-39.2754
 21
-20.7076
  0
LINE
  8
0
 10
-39.2754
 20
-20.7076
 11
-39.7826
 21
-19.4893
  0
LINE
  8
0
 10
-39.7826
 20
-19.4893
 11
-40.2522
 21
-18.2592
  0
LINE
  8
0
 10
-40.2522
 20
-18.2592
 11
-40.6839
 21
-17.0184
  0
LINE
  8
0
 10
-40.6839
 20
-17.0184
 11
-41.0775
 21
-15.7682
  0
LINE
  8
0
 10
-41.0775
 20
-15.7682
 11
-41.4329
 21
-14.5096
  0
LINE
  8
0
 10
-41.4329
 20
-14.5096
 11
-41.7497
 21
-13.2438
  0
LINE
  8
0
 10
-41.7497
 20
-13.2438
 11
-42.0281
 21
-11.972
  0
LINE
  8
0
 10
-42.0281
 20
-11.972
 11
-42.2678
 21
-10.6954
  0
LINE
  8
0
 10
-42.2678
 20
-10.6954
 11
-42.4689
 21
-9.41512
  0
LINE
  8
0
 10
-42.4689
 20
-9.41512
 11
-42.6313
 21
-8.13234
  0
LINE
  8
0
 10
-42.6313
 20
-8.13234
 11
-42.755
 21
-6.84824
  0
LINE
  8
0
 10
-42.755
 20
-6.84824
 11
-42.8402
 21
-5.56396
  0
LINE
  8
0
 10
-42.8402
 20
-5.56396
 11
-42.8869
 21
-4.28067
  0
LINE
  8
0
 10
-42.8869
 20
-4.28067
 11
-42.8952
 21
-2.99953
  0
LINE
  8
0
 10
-42.8952
 20
-2.99953
 11
-42.8654
 21
-1.72165
  0
LINE
  8
0
 10
-42.8654
 20
-1.72165
 11
-42.7977
 21
-0.448181
  0
LINE
  8
0
 10
-42.7977
 20
-0.448181
 11
-42.6921
 21
0.819717
  0
LINE
  8
0
 10
-42.6921
 20
0.819717
 11
-42.5491
 21
2.08099
  0
LINE
  8
0
 10
-42.5491
 20
2.08099
 11
-42.369
 21
3.3345
  0
LINE
  8
0
 10
-42.369
 20
3.3345
 11
-42.152
 21
4.57916
  0
LINE
  8
0
 10
-42.152
 20
4.57916
 11
-41.8985
 21
5.8139
  0
LINE
  8
0
 10
-41.8985
 20
5.8139
 11
-41.609
 21
7.03763
  0
LINE
  8
0
 10
-41.609
 20
7.03763
 11
-41.2839
 21
8.24933
  0
LINE
  8
0
 10
-41.2839
 20
8.24933
 11
-40.9235
 21
9.44794
  0
LINE
  8
0
 10
-40.9235
 20
9.44794
 11
-40.5285
 21
10.6324
  0
LINE
  8
0
 10
-40.5285
 20
10.6324
 11
-40.0993
 21
11.8019
  0
LINE
  8
0
 10
-40.0993
 20
11.8019
 11
-39.6365
 21
12.9552
  0
LINE
  8
0
 10
-39.6365
 20
12.9552
 11
-39.1406
 21
14.0915
  0
LINE
  8
0
 10
-39.1406
 20
14.0915
 11
-38.6123
 21
15.2098
  0
LINE
  8
0
 10
-38.6123
 20
15.2098
 11
-38.0522
 21
16.3092
  0
LINE
  8
0
 10
-38.0522
 20
16.3092
 11
-37.4609
 21
17.3888
  0
LINE
  8
0
 10
-37.4609
 20
17.3888
 11
-36.8391
 21
18.4477
  0
LINE
  8
0
 10
-36.8391
 20
18.4477
 11
-36.1876
 21
19.485
  0
LINE
  8
0
 10
-36.1876
 20
19.485
 11
-35.507
 21
20.5
  0
LINE
  8
0
 10
-35.507
 20
20.5
 11
-34.7982
 21
21.4918
  0
LINE
  8
0
 10
-34.7982
 20
21.4918
 11
-34.0618
 21
22.4596
  0
LINE
  8
0
 10
-34.0618
 20
22.4596
 11
-33.2987
 21
23.4027
  0
LINE
  8
0
 10
-33.2987
 20
23.4027
 11
-32.5097
 21
24.3203
  0
LINE
  8
0
 10
-32.5097
 20
24.3203
 11
-31.6956
 21
25.2118
  0
LINE
  8
0
 10
-31.6956
 20
25.2118
 11
-30.8573
 21
26.0765
  0
LINE
  8
0
 10
-30.8573
 20
26.0765
 11
-29.9957
 21
26.9137
  0
LINE
  8
0
 10
-29.9957
 20
26.9137
 11
-29.1117
 21
27.7227
  0
LINE
  8
0
 10
-29.1117
 20
27.7227
 11
-28.2061
 21
28.5031
  0
LINE
  8
0
 10
-28.2061
 20
28.5031
 11
-27.2799
 21
29.2541
  0
LINE
  8
0
 10
-27.2799
 20
29.2541
 11
-26.3341
 21
29.9754
  0
LINE
  8
0
 10
-26.3341
 20
29.9754
 11
-25.3695
 21
30.6664
  0
LINE
  8
0
 10
-25.3695
 20
30.6664
 11
-24.3871
 21
31.3266
  0
LINE
  8
0
 10
-24.3871
 20
31.3266
 11
-23.388
 21
31.9556
  0
LINE
  8
0
 10
-23.388
 20
31.9556
 11
-22.373
 21
32.553
  0
LINE
  8
0
 10
-22.373
 20
32.553
 11
-21.3433
 21
33.1183
  0
LINE
  8
0
 10
-21.3433
 20
33.1183
 11
-20.2998
 21
33.6513
  0
LINE
  8
0
 10
-20.2998
 20
33.6513
 11
-19.2434
 21
34.1516
  0
LINE
  8
0
 10
-19.2434
 20
34.1516
 11
-18.1753
 21
34.6189
  0
LINE
  8
0
 10
-18.1753
 20
34.6189
 11
-17.0965
 21
35.053
  0
LINE
  8
0
 10
-17.0965
 20
35.053
 11
-16.0079
 21
35.4536
  0
LINE
  8
0
 10
-16.0079
 20
35.4536
 11
-14.9106
 21
35.8205
  0
LINE
  8
0
 10
-14.9106
 20
35.8205
 11
-13.8058
 21
36.1537
  0
LINE
  8
0
 10
-13.8058
 20
36.1537
 11
-12.6942
 21
36.4529
  0
LINE
  8
0
 10
-12.6942
 20
36.4529
 11
-11.5772
 21
36.7181
  0
LINE
  8
0
 10
-11.5772
 20
36.7181
 11
-10.4556
 21
36.9492
  0
LINE
  8
0
 10
-10.4556
 20
36.9492
 11
-9.33044
 21
37.1461
  0
LINE
  8
0
 10
-9.33044
 20
37.1461
 11
-8.20288
 21
37.3089
  0
LINE
  8
0
 10
-8.20288
 20
37.3089
 11
-7.07388
 21
37.4375
  0
LINE
  8
0
 10
-7.07388
 20
37.4375
 11
-5.9445
 21
37.5322
  0
LINE
  8
0
 10
-5.9445
 20
37.5322
 11
-4.81573
 21
37.5928
  0
LINE
  8
0
 10
-4.81573
 20
37.5928
 11
-3.68863
 21
37.6196
  0
LINE
  8
0
 10
-3.68863
 20
37.6196
 11
-2.56416
 21
37.6127
  0
LINE
  8
0
 10
-2.56416
 20
37.6127
 11
-1.44337
 21
37.5723
  0
LINE
  8
0
 10
-1.44337
 20
37.5723
 11
-0.32724
 21
37.4986
  0
LINE
  8
0
 10
-0.32724
 20
37.4986
 11
0.783234
 21
37.3918
  0
LINE
  8
0
 10
0.783234
 20
37.3918
 11
1.88712
 21
37.2522
  0
LINE
  8
0
 10
1.88712
 20
37.2522
 11
2.9834
 21
37.0802
  0
LINE
  8
0
 10
2.9834
 20
37.0802
 11
4.07114
 21
36.8759
  0
LINE
  8
0
 10
4.07114
 20
36.8759
 11
5.1494
 21
36.6399
  0
LINE
  8
0
 10
5.1494
 20
36.6399
 11
6.21725
 21
36.3725
  0
LINE
  8
0
 10
6.21725
 20
36.3725
 11
7.27379
 21
36.074
  0
LINE
  8
0
 10
7.27379
 20
36.074
 11
8.3181
 21
35.7449
  0
LINE
  8
0
 10
8.3181
 20
35.7449
 11
9.3493
 21
35.3857
  0
LINE
  8
0
 10
9.3493
 20
35.3857
 11
10.3665
 21
34.9969
  0
LINE
  8
0
 10
10.3665
 20
34.9969
 11
11.369
 21
34.579
  0
LINE
  8
0
 10
11.369
 20
34.579
 11
12.3558
 21
34.1324
  0
LINE
  8
0
 10
12.3558
 20
34.1324
 11
13.3261
 21
33.6579
  0
LINE
  8
0
 10
13.3261
 20
33.6579
 11
14.2792
 21
33.1559
  0
LINE
  8
0
 10
14.2792
 20
33.1559
 11
15.2142
 21
32.6271
  0
LINE
  8
0
 10
15.2142
 20
32.6271
 11
16.1305
 21
32.072
  0
LINE
  8
0
 10
16.1305
 20
32.072
 11
17.0273
 21
31.4914
  0
LINE
  8
0
 10
17.0273
 20
31.4914
 11
17.9039
 21
30.8859
  0
LINE
  8
0
 10
17.9039
 20
30.8859
 11
18.7596
 21
30.2562
  0
LINE
  8
0
 10
18.7596
 20
30.2562
 11
19.5938
 21
29.6029
  0
LINE
  8
0
 10
19.5938
 20
29.6029
 11
20.4057
 21
28.9269
  0
LINE
  8
0
 10
20.4057
 20
28.9269
 11
21.1948
 21
28.2289
  0
LINE
  8
0
 10
21.1948
 20
28.2289
 11
21.9606
 21
27.5095
  0
LINE
  8
0
 10
21.9606
 20
27.5095
 11
22.7023
 21
26.7697
  0
LINE
  8
0
 10
22.7023
 20
26.7697
 11
23.4196
 21
26.0101
  0
LINE
  8
0
 10
23.4196
 20
26.0101
 11
24.1118
 21
25.2316
  0
LINE
  8
0
 10
24.1118
 20
25.2316
 11
24.7785
 21
24.4349
  0
LINE
  8
0
 10
24.7785
 20
24.4349
 11
25.4192
 21
23.621
  0
LINE
  8
0
 10
25.4192
 20
23.621
 11
26.0336
 21
22.7906
  0
LINE
  8
0
 10
26.0336
 20
22.7906
 11
26.621
 21
21.9447
  0
LINE
  8
0
 10
26.621
 20
21.9447
 11
27.1813
 21
21.084
  0
LINE
  8
0
 10
27.1813
 20
21.084
 11
27.7141
 21
20.2094
  0
LINE
  8
0
 10
27.7141
 20
20.2094
 11
28.2189
 21
19.3219
  0
LINE
  8
0
 10
28.2189
 20
19.3219
 11
28.6955
 21
18.4222
  0
LINE
  8
0
 10
28.6955
 20
18.4222
 11
29.1437
 21
17.5113
  0
LINE
  8
0
 10
29.1437
 20
17.5113
 11
29.5631
 21
16.5901
  0
LINE
  8
0
 10
29.5631
 20
16.5901
 11
29.9537
 21
15.6594
  0
LINE
  8
0
 10
29.9537
 20
15.6594
 11
30.3151
 21
14.7202
  0
LINE
  8
0
 10
30.3151
 20
14.7202
 11
30.6472
 21
13.7734
  0
LINE
  8
0
 10
30.6472
 20
13.7734
 11
30.95
 21
12.8199
  0
LINE
  8
0
 10
30.95
 20
12.8199
 11
31.2232
 21
11.8606
  0
LINE
  8
0
 10
31.2232
 20
11.8606
 11
31.4668
 21
10.8963
  0
LINE
  8
0
 10
31.4668
 20
10.8963
 11
31.6808
 21
9.92815
  0
LINE
  8
0
 10
31.6808
 20
9.92815
 11
31.8651
 21
8.95686
  0
LINE
  8
0
 10
31.8651
 20
8.95686
 11
32.0197
 21
7.98341
  0
LINE
  8
0
 10
32.0197
 20
7.98341
 11
32.1448
 21
7.0087
  0
LINE
  8
0
 10
32.1448
 20
7.0087
 11
32.2403
 21
6.0336
  0
LINE
  8
0
 10
32.2403
 20
6.0336
 11
32.3063
 21
5.05902
  0
LINE
  8
0
 10
32.3063
 20
5.05902
 11
32.3429
 21
4.08586
  0
LINE
  8
0
 10
32.3429
 20
4.08586
 11
32.3504
 21
3.11497
  0
LINE
  8
0
 10
32.3504
 20
3.11497
 11
32.3288
 21
2.14726
  0
LINE
  8
0
 10
32.3288
 20
2.14726
 11
32.2783
 21
1.18358
  0
LINE
  8
0
 10
32.2783
 20
1.18358
 11
32.1992
 21
0.224792
  0
LINE
  8
0
 10
32.1992
 20
0.224792
 11
32.0917
 21
-0.728256
  0
LINE
  8
0
 10
32.0917
 20
-0.728256
 11
31.9561
 21
-1.67474
  0
LINE
  8
0
 10
31.9561
 20
-1.67474
 11
31.7927
 21
-2.61383
  0
LINE
  8
0
 10
31.7927
 20
-2.61383
 11
31.6018
 21
-3.54471
  0
LINE
  8
0
 10
31.6018
 20
-3.54471
 11
31.3837
 21
-4.46657
  0
LINE
  8
0
 10
31.3837
 20
-4.46657
 11
31.1389
 21
-5.37862
  0
LINE
  8
0
 10
31.1389
 20
-5.37862
 11
30.8676
 21
-6.28008
  0
LINE
  8
0
 10
30.8676
 20
-6.28008
 11
30.5704
 21
-7.17021
  0
LINE
  8
0
 10
30.5704
 20
-7.17021
 11
30.2476
 21
-8.04825
  0
LINE
  8
0
 10
30.2476
 20
-8.04825
 11
29.8997
 21
-8.91347
  0
LINE
  8
0
 10
29.8997
 20
-8.91347
 11
29.5271
 21
-9.76515
  0
LINE
  8
0
 10
29.5271
 20
-9.76515
 11
29.1305
 21
-10.6026
  0
LINE
  8
0
 10
29.1305
 20
-10.6026
 11
28.7102
 21
-11.4252
  0
LINE
  8
0
 10
28.7102
 20
-11.4252
 11
28.2668
 21
-12.2321
  0
LINE
  8
0
 10
28.2668
 20
-12.2321
 11
27.8009
 21
-13.0229
  0
LINE
  8
0
 10
27.8009
 20
-13.0229
 11
27.3131
 21
-13.7968
  0
LINE
  8
0
 10
27.3131
 20
-13.7968
 11
26.8039
 21
-14.5533
  0
LINE
  8
0
 10
26.8039
 20
-14.5533
 11
26.2739
 21
-15.2918
  0
LINE
  8
0
 10
26.2739
 20
-15.2918
 11
25.7238
 21
-16.0117
  0
LINE
  8
0
 10
25.7238
 20
-16.0117
 11
25.1542
 21
-16.7124
  0
LINE
  8
0
 10
25.1542
 20
-16.7124
 11
24.5657
 21
-17.3935
  0
LINE
  8
0
 10
24.5657
 20
-17.3935
 11
23.9591
 21
-18.0544
  0
LINE
  8
0
 10
23.9591
 20
-18.0544
 11
23.3349
 21
-18.6947
  0
LINE
  8
0
 10
23.3349
 20
-18.6947
 11
22.6938
 21
-19.314
  0
LINE
  8
0
 10
22.6938
 20
-19.314
 11
22.0367
 21
-19.9117
  0
LINE
  8
0
 10
22.0367
 20
-19.9117
 11
21.3641
 21
-20.4874
  0
LINE
  8
0
 10
21.3641
 20
-20.4874
 11
20.6768
 21
-21.0409
  0
LINE
  8
0
 10
20.6768
 20
-21.0409
 11
19.9756
 21
-21.5717
  0
LINE
  8
0
 10
19.9756
 20
-21.5717
 11
19.2611
 21
-22.0794
  0
LINE
  8
0
 10
19.2611
 20
-22.0794
 11
18.5341
 21
-22.5638
  0
LINE
  8
0
 10
18.5341
 20
-22.5638
 11
17.7954
 21
-23.0246
  0
LINE
  8
0
 10
17.7954
 20
-23.0246
 11
17.0458
 21
-23.4615
  0
LINE
  8
0
 10
17.0458
 20
-23.4615
 11
16.2859
 21
-23.8742
  0
LINE
  8
0
 10
16.2859
 20
-23.8742
 11
15.5166
 21
-24.2626
  0
LINE
  8
0
 10
15.5166
 20
-24.2626
 11
14.7386
 21
-24.6264
  0
LINE
  8
0
 10
14.7386
 20
-24.6264
 11
13.9528
 21
-24.9656
  0
LINE
  8
0
 10
13.9528
 20
-24.9656
 11
13.1598
 21
-25.2798
  0
LINE
  8
0
 10
13.1598
 20
-25.2798
 11
12.3605
 21
-25.569
  0
LINE
  8
0
 10
12.3605
 20
-25.569
 11
11.5557
 21
-25.8332
  0
LINE
  8
0
 10
11.5557
 20
-25.8332
 11
10.7462
 21
-26.0722
  0
LINE
  8
0
 10
10.7462
 20
-26.0722
 11
9.93263
 21
-26.286
  0
LINE
  8
0
 10
9.93263
 20
-26.286
 11
9.11591
 21
-26.4745
  0
LINE
  8
0
 10
9.11591
 20
-26.4745
 11
8.29675
 21
-26.6378
  0
LINE
  8
0
 10
8.29675
 20
-26.6378
 11
7.47597
 21
-26.7759
  0
LINE
  8
0
 10
7.47597
 20
-26.7759
 11
6.65431
 21
-26.8888
  0
LINE
  8
0
 10
6.65431
 20
-26.8888
 11
5.83255
 21
-26.9767
  0
LINE
  8
0
 10
5.83255
 20
-26.9767
 11
5.01147
 21
-27.0395
  0
LINE
  8
0
 10
5.01147
 20
-27.0395
 11
4.1918
 21
-27.0775
  0
LINE
  8
0
 10
4.1918
 20
-27.0775
 11
3.37431
 21
-27.0907
  0
LINE
  8
0
 10
3.37431
 20
-27.0907
 11
2.55974
 21
-27.0793
  0
LINE
  8
0
 10
2.55974
 20
-27.0793
 11
1.74883
 21
-27.0435
  0
LINE
  8
0
 10
1.74883
 20
-27.0435
 11
0.942276
 21
-26.9836
  0
LINE
  8
0
 10
0.942276
 20
-26.9836
 11
0.140839
 21
-26.8996
  0
LINE
  8
0
 10
0.140839
 20
-26.8996
 11
-0.65477
 21
-26.792
  0
LINE
  8
0
 10
-0.65477
 20
-26.792
 11
-1.44389
 21
-26.6609
  0
LINE
  8
0
 10
-1.44389
 20
-26.6609
 11
-2.22583
 21
-26.5067
  0
LINE
  8
0
 10
-2.22583
 20
-26.5067
 11
-2.99988
 21
-26.3297
  0
LINE
  8
0
 10
-2.99988
 20
-26.3297
 11
-3.7654
 21
-26.1301
  0
LINE
  8
0
 10
-3.7654
 20
-26.1301
 11
-4.52173
 21
-25.9084
  0
LINE
  8
0
 10
-4.52173
 20
-25.9084
 11
-5.26823
 21
-25.6649
  0
LINE
  8
0
 10
-5.26823
 20
-25.6649
 11
-6.00429
 21
-25.4
  0
LINE
  8
0
 10
-6.00429
 20
-25.4
 11
-6.72929
 21
-25.1141
  0
LINE
  8
0
 10
-6.72929
 20
-25.1141
 11
-7.44263
 21
-24.8076
  0
LINE
  8
0
 10
-7.44263
 20
-24.8076
 11
-8.14374
 21
-24.481
  0
LINE
  8
0
 10
-8.14374
 20
-24.481
 11
-8.83205
 21
-24.1347
  0
LINE
  8
0
 10
-8.83205
 20
-24.1347
 11
-9.507
 21
-23.7692
  0
LINE
  8
0
 10
-9.507
 20
-23.7692
 11
-10.1681
 21
-23.385
  0
LINE
  8
0
 10
-10.1681
 20
-23.385
 11
-10.8148
 21
-22.9826
  0
LINE
  8
0
 10
-10.8148
 20
-22.9826
 11
-11.4466
 21
-22.5625
  0
LINE
  8
0
 10
-11.4466
 20
-22.5625
 11
-12.063
 21
-22.1252
  0
LINE
  8
0
 10
-12.063
 20
-22.1252
 11
-12.6636
 21
-21.6712
  0
LINE
  8
0
 10
-12.6636
 20
-21.6712
 11
-13.248
 21
-21.2012
  0
LINE
  8
0
 10
-13.248
 20
-21.2012
 11
-13.8156
 21
-20.7157
  0
LINE
  8
0
 10
-13.8156
 20
-20.7157
 11
-14.3662
 21
-20.2152
  0
LINE
  8
0
 10
-14.3662
 20
-20.2152
 11
-14.8992
 21
-19.7003
  0
LINE
  8
0
 10
-14.8992
 20
-19.7003
 11
-15.4144
 21
-19.1717
  0
LINE
  8
0
 10
-15.4144
 20
-19.1717
 11
-15.9115
 21
-18.6299
  0
LINE
  8
0
 10
-15.9115
 20
-18.6299
 11
-16.39
 21
-18.0756
  0
LINE
  8
0
 10
-16.39
 20
-18.0756
 11
-16.8497
 21
-17.5094
  0
LINE
  8
0
 10
-16.8497
 20
-17.5094
 11
-17.2902
 21
-16.9318
  0
LINE
  8
0
 10
-17.2902
 20
-16.9318
 11
-17.7114
 21
-16.3436
  0
LINE
  8
0
 10
-17.7114
 20
-16.3436
 11
-18.113
 21
-15.7454
  0
LINE
  8
0
 10
-18.113
 20
-15.7454
 11
-18.4948
 21
-15.1378
  0
LINE
  8
0
 10
-18.4948
 20
-15.1378
 11
-18.8565
 21
-14.5215
  0
LINE
  8
0
 10
-18.8565
 20
-14.5215
 11
-19.198
 21
-13.897
  0
LINE
  8
0
 10
-19.198
 20
-13.897
 11
-19.5191
 21
-13.2652
  0
LINE
  8
0
 10
-19.5191
 20
-13.2652
 11
-19.8197
 21
-12.6265
  0
LINE
  8
0
 10
-19.8197
 20
-12.6265
 11
-20.0997
 21
-11.9818
  0
LINE
  8
0
 10
-20.0997
 20
-11.9818
 11
-20.3589
 21
-11.3316
  0
LINE
  8
0
 10
-20.3589
 20
-11.3316
 11
-20.5973
 21
-10.6766
  0
LINE
  8
0
 10
-20.5973
 20
-10.6766
 11
-20.8149
 21
-10.0175
  0
LINE
  8
0
 10
-20.8149
 20
-10.0175
 11
-21.0115
 21
-9.35493
  0
LINE
  8
0
 10
-21.0115
 20
-9.35493
 11
-21.1873
 21
-8.68954
  0
LINE
  8
0
 10
-21.1873
 20
-8.68954
 11
-21.3421
 21
-8.02199
  0
LINE
  8
0
 10
-21.3421
 20
-8.02199
 11
-21.4761
 21
-7.35292
  0
LINE
  8
0
 10
-21.4761
 20
-7.35292
 11
-21.5893
 21
-6.683
  0
LINE
  8
0
 10
-21.5893
 20
-6.683
 11
-21.6817
 21
-6.01286
  0
LINE
  8
0
 10
-21.6817
 20
-6.01286
 11
-21.7534
 21
-5.34314
  0
LINE
  8
0
 10
-21.7534
 20
-5.34314
 11
-21.8046
 21
-4.67448
  0
LINE
  8
0
 10
-21.8046
 20
-4.67448
 11
-21.8353
 21
-4.00752
  0
LINE
  8
0
 10
-21.8353
 20
-4.00752
 11
-21.8457
 21
-3.34285
  0
LINE
  8
0
 10
-21.8457
 20
-3.34285
 11
-21.836
 21
-2.68112
  0
LINE
  8
0
 10
-21.836
 20
-2.68112
 11
-21.8064
 21
-2.0229
  0
LINE
  8
0
 10
-21.8064
 20
-2.0229
 11
-21.757
 21
-1.36882
  0
LINE
  8
0
 10
-21.757
 20
-1.36882
 11
-21.6881
 21
-0.719467
  0
LINE
  8
0
 10
-21.6881
 20
-0.719467
 11
-21.5999
 21
-0.0753937
  0
LINE
  8
0
 10
-21.5999
 20
-0.0753937
 11
-21.4926
 21
0.56279
  0
LINE
  8
0
 10
-21.4926
 20
0.56279
 11
-21.3666
 21
1.19458
  0
LINE
  8
0
 10
-21.3666
 20
1.19458
 11
-21.2222
 21
1.81937
  0
LINE
  8
0
 10
-21.2222
 20
1.81937
 11
-21.0595
 21
2.43666
  0
LINE
  8
0
 10
-21.0595
 20
2.43666
 11
-20.879
 21
3.04591
  0
LINE
  8
0
 10
-20.879
 20
3.04591
 11
-20.681
 21
3.64661
  0
LINE
  8
0
 10
-20.681
 20
3.64661
 11
-20.4657
 21
4.23825
  0
LINE
  8
0
 10
-20.4657
 20
4.23825
 11
-20.2337
 21
4.82034
  0
LINE
  8
0
 10
-20.2337
 20
4.82034
 11
-19.9853
 21
5.39244
  0
LINE
  8
0
 10
-19.9853
 20
5.39244
 11
-19.7208
 21
5.95404
  0
LINE
  8
0
 10
-19.7208
 20
5.95404
 11
-19.4406
 21
6.50473
  0
LINE
  8
0
 10
-19.4406
 20
6.50473
 11
-19.1452
 21
7.04408
  0
LINE
  8
0
 10
-19.1452
 20
7.04408
 11
-18.8351
 21
7.57164
  0
LINE
  8
0
 10
-18.8351
 20
7.57164
 11
-18.5105
 21
8.08704
  0
LINE
  8
0
 10
-18.5105
 20
8.08704
 11
-18.1721
 21
8.58989
  0
LINE
  8
0
 10
-18.1721
 20
8.58989
 11
-17.8201
 21
9.0798
  0
LINE
  8
0
 10
-17.8201
 20
9.0798
 11
-17.4552
 21
9.55644
  0
LINE
  8
0
 10
-17.4552
 20
9.55644
 11
-17.0954
 21
9.99905
  0
LINE
  8
0
 10
-17.0954
 20
9.99905
 11
-16.7036
 21
10.4538
  0
LINE
  8
0
 10
-16.7036
 20
10.4538
 11
-16.2999
 21
10.8941
  0
LINE
  8
0
 10
-16.2999
 20
10.8941
 11
-15.8848
 21
11.3197
  0
LINE
  8
0
 10
-15.8848
 20
11.3197
 11
-15.459
 21
11.7302
  0
LINE
  8
0
 10
-15.459
 20
11.7302
 11
-15.0227
 21
12.1257
  0
LINE
  8
0
 10
-15.0227
 20
12.1257
 11
-14.5767
 21
12.5056
  0
LINE
  8
0
 10
-14.5767
 20
12.5056
 11
-14.1214
 21
12.8697
  0
LINE
  8
0
 10
-14.1214
 20
12.8697
 11
-13.6575
 21
13.2179
  0
LINE
  8
0
 10
-13.6575
 20
13.2179
 11
-13.1854
 21
13.55
  0
LINE
  8
0
 10
-13.1854
 20
13.55
 11
-12.7057
 21
13.8657
  0
LINE
  8
0
 10
-12.7057
 20
13.8657
 11
-12.2189
 21
14.165
  0
LINE
  8
0
 10
-12.2189
 20
14.165
 11
-11.7256
 21
14.4476
  0
LINE
  8
0
 10
-11.7256
 20
14.4476
 11
-11.2264
 21
14.7135
  0
LINE
  8
0
 10
-11.2264
 20
14.7135
 11
-10.7217
 21
14.9626
  0
LINE
  8
0
 10
-10.7217
 20
14.9626
 11
-10.2122
 21
15.1947
  0
LINE
  8
0
 10
-10.2122
 20
15.1947
 11
-9.69849
 21
15.4099
  0
LINE
  8
0
 10
-9.69849
 20
15.4099
 11
-9.181
 21
15.608
  0
LINE
  8
0
 10
-9.181
 20
15.608
 11
-8.66034
 21
15.7891
  0
LINE
  8
0
 10
-8.66034
 20
15.7891
 11
-8.13707
 21
15.9531
  0
LINE
  8
0
 10
-8.13707
 20
15.9531
 11
-7.61174
 21
16.1
  0
LINE
  8
0
 10
-7.61174
 20
16.1
 11
-7.0849
 21
16.2299
  0
LINE
  8
0
 10
-7.0849
 20
16.2299
 11
-6.5571
 21
16.3427
  0
LINE
  8
0
 10
-6.5571
 20
16.3427
 11
-6.02887
 21
16.4386
  0
LINE
  8
0
 10
-6.02887
 20
16.4386
 11
-5.50076
 21
16.5177
  0
LINE
  8
0
 10
-5.50076
 20
16.5177
 11
-4.9733
 21
16.5799
  0
LINE
  8
0
 10
-4.9733
 20
16.5799
 11
-4.44702
 21
16.6255
  0
LINE
  8
0
 10
-4.44702
 20
16.6255
 11
-3.92244
 21
16.6545
  0
LINE
  8
0
 10
-3.92244
 20
16.6545
 11
-3.40009
 21
16.6671
  0
LINE
  8
0
 10
-3.40009
 20
16.6671
 11
-2.88045
 21
16.6635
  0
LINE
  8
0
 10
-2.88045
 20
16.6635
 11
-2.36404
 21
16.6438
  0
LINE
  8
0
 10
-2.36404
 20
16.6438
 11
-1.85136
 21
16.6082
  0
LINE
  8
0
 10
-1.85136
 20
16.6082
 11
-1.3429
 21
16.557
  0
LINE
  8
0
 10
-1.3429
 20
16.557
 11
-0.839111
 21
16.4902
  0
LINE
  8
0
 10
-0.839111
 20
16.4902
 11
-0.340469
 21
16.4083
  0
LINE
  8
0
 10
-0.340469
 20
16.4083
 11
0.152542
 21
16.3114
  0
LINE
  8
0
 10
0.152542
 20
16.3114
 11
0.639511
 21
16.1997
  0
LINE
  8
0
 10
0.639511
 20
16.1997
 11
1.12
 21
16.0736
  0
LINE
  8
0
 10
1.12
 20
16.0736
 11
1.59355
 21
15.9333
  0
LINE
  8
0
 10
1.59355
 20
15.9333
 11
2.05977
 21
15.7792
  0
LINE
  8
0
 10
2.05977
 20
15.7792
 11
2.51826
 21
15.6116
  0
LINE
  8
0
 10
2.51826
 20
15.6116
 11
2.96863
 21
15.4307
  0
LINE
  8
0
 10
2.96863
 20
15.4307
 11
3.41048
 21
15.2369
  0
LINE
  8
0
 10
3.41048
 20
15.2369
 11
3.84346
 21
15.0305
  0
LINE
  8
0
 10
3.84346
 20
15.0305
 11
4.26723
 21
14.812
  0
LINE
  8
0
 10
4.26723
 20
14.812
 11
4.68141
 21
14.5817
  0
LINE
  8
0
 10
4.68141
 20
14.5817
 11
5.08572
 21
14.3399
  0
LINE
  8
0
 10
5.08572
 20
14.3399
 11
5.47983
 21
14.087
  0
LINE
  8
0
 10
5.47983
 20
14.087
 11
5.86342
 21
13.8235
  0
LINE
  8
0
 10
5.86342
 20
13.8235
 11
6.23624
 21
13.5496
  0
LINE
  8
0
 10
6.23624
 20
13.5496
 11
6.59799
 21
13.2659
  0
LINE
  8
0
 10
6.59799
 20
13.2659
 11
6.94846
 21
12.9728
  0
LINE
  8
0
 10
6.94846
 20
12.9728
 11
7.28735
 21
12.6706
  0
LINE
  8
0
 10
7.28735
 20
12.6706
 11
7.61449
 21
12.3598
  0
LINE
  8
0
 10
7.61449
 20
12.3598
 11
7.92963
 21
12.0409
  0
LINE
  8
0
 10
7.92963
 20
12.0409
 11
8.23259
 21
11.7142
  0
LINE
  8
0
 10
8.23259
 20
11.7142
 11
8.52319
 21
11.3802
  0
LINE
  8
0
 10
8.52319
 20
11.3802
 11
8.80127
 21
11.0393
  0
LINE
  8
0
 10
8.80127
 20
11.0393
 11
9.06668
 21
10.692
  0
LINE
  8
0
 10
9.06668
 20
10.692
 11
9.31929
 21
10.3388
  0
LINE
  8
0
 10
9.31929
 20
10.3388
 11
9.55898
 21
9.98007
  0
LINE
  8
0
 10
9.55898
 20
9.98007
 11
9.78563
 21
9.61629
  0
LINE
  8
0
 10
9.78563
 20
9.61629
 11
9.99916
 21
9.24791
  0
LINE
  8
0
 10
9.99916
 20
9.24791
 11
10.1995
 21
8.87538
  0
LINE
  8
0
 10
10.1995
 20
8.87538
 11
10.3866
 21
8.49918
  0
LINE
  8
0
 10
10.3866
 20
8.49918
 11
10.5605
 21
8.11975
  0
LINE
  8
0
 10
10.5605
 20
8.11975
 11
10.721
 21
7.73755
  0
LINE
  8
0
 10
10.721
 20
7.73755
 11
10.8682
 21
7.35301
  0
LINE
  8
0
 10
10.8682
 20
7.35301
 11
11.0022
 21
6.96663
  0
LINE
  8
0
 10
11.0022
 20
6.96663
 11
11.1228
 21
6.57881
  0
LINE
  8
0
 10
11.1228
 20
6.57881
 11
11.2301
 21
6.19002
  0
LINE
  8
0
 10
11.2301
 20
6.19002
 11
11.3243
 21
5.8007
  0
LINE
  8
0
 10
11.3243
 20
5.8007
 11
11.4053
 21
5.4113
  0
LINE
  8
0
 10
11.4053
 20
5.4113
 11
11.4733
 21
5.02223
  0
LINE
  8
0
 10
11.4733
 20
5.02223
 11
11.5283
 21
4.63394
  0
LINE
  8
0
 10
11.5283
 20
4.63394
 11
11.5704
 21
4.24686
  0
LINE
  8
0
 10
11.5704
 20
4.24686
 11
11.5998
 21
3.86137
  0
LINE
  8
0
 10
11.5998
 20
3.86137
 11
11.6166
 21
3.47794
  0
LINE
  8
0
 10
11.6166
 20
3.47794
 11
11.621
 21
3.09692
  0
LINE
  8
0
 10
11.621
 20
3.09692
 11
11.613
 21
2.71875
  0
LINE
  8
0
 10
11.613
 20
2.71875
 11
11.5929
 21
2.3438
  0
LINE
  8
0
 10
11.5929
 20
2.3438
 11
11.5609
 21
1.97246
  0
LINE
  8
0
 10
11.5609
 20
1.97246
 11
11.5171
 21
1.60512
  0
LINE
  8
0
 10
11.5171
 20
1.60512
 11
11.4618
 21
1.24211
  0
LINE
  8
0
 10
11.4618
 20
1.24211
 11
11.3952
 21
0.883835
  0
LINE
  8
0
 10
11.3952
 20
0.883835
 11
11.3175
 21
0.530609
  0
LINE
  8
0
 10
11.3175
 20
0.530609
 11
11.229
 21
0.182785
  0
LINE
  8
0
 10
11.229
 20
0.182785
 11
11.1299
 21
-0.159286
  0
LINE
  8
0
 10
11.1299
 20
-0.159286
 11
11.0204
 21
-0.495331
  0
LINE
  8
0
 10
11.0204
 20
-0.495331
 11
10.9009
 21
-0.825012
  0
LINE
  8
0
 10
10.9009
 20
-0.825012
 11
10.7716
 21
-1.14804
  0
LINE
  8
0
 10
10.7716
 20
-1.14804
 11
10.1213
 21
-2.12131
  0
LINE
  8
0
 10
10.1213
 20
-2.12131
 11
9.14804
 21
-2.77164
  0
LINE
  8
0
 10
9.14804
 20
-2.77164
 11
8
 21
-3
  0
LINE
  8
0
 10
8
 20
-3
 11
6.85194
 21
-2.77164
  0
LINE
  8
0
 10
6.85194
 20
-2.77164
 11
5.87868
 21
-2.12131
  0
LINE
  8
0
 10
5.87868
 20
-2.12131
 11
5.22835
 21
-1.14804
  0
LINE
  8
0
 10
5.22835
 20
-1.14804
 11
5
 21
0
  0
LINE
  8
0
 10
5
 20
0
 11
5.22835
 21
1.14804
  0
LINE
  8
0
 10
5.22835
 20
1.14804
 11
5.29195
 21
1.3056
  0
LINE
  8
0
 10
5.29195
 20
1.3056
 11
5.35071
 21
1.46796
  0
LINE
  8
0
 10
5.35071
 20
1.46796
 11
5.40442
 21
1.63493
  0
LINE
  8
0
 10
5.40442
 20
1.63493
 11
5.45282
 21
1.80638
  0
LINE
  8
0
 10
5.45282
 20
1.80638
 11
5.49574
 21
1.98213
  0
LINE
  8
0
 10
5.49574
 20
1.98213
 11
5.53294
 21
2.16202
  0
LINE
  8
0
 10
5.53294
 20
2.16202
 11
5.56421
 21
2.34583
  0
LINE
  8
0
 10
5.56421
 20
2.34583
 11
5.58937
 21
2.53337
  0
LINE
  8
0
 10
5.58937
 20
2.53337
 11
5.60822
 21
2.72446
  0
LINE
  8
0
 10
5.60822
 20
2.72446
 11
5.62054
 21
2.91887
  0
LINE
  8
0
 10
5.62054
 20
2.91887
 11
5.62621
 21
3.11639
  0
LINE
  8
0
 10
5.62621
 20
3.11639
 11
5.625
 21
3.31679
  0
LINE
  8
0
 10
5.625
 20
3.31679
 11
5.61678
 21
3.51982
  0
LINE
  8
0
 10
5.61678
 20
3.51982
 11
5.60138
 21
3.72525
  0
LINE
  8
0
 10
5.60138
 20
3.72525
 11
5.57866
 21
3.93285
  0
LINE
  8
0
 10
5.57866
 20
3.93285
 11
5.54848
 21
4.14232
  0
LINE
  8
0
 10
5.54848
 20
4.14232
 11
5.5107
 21
4.35342
  0
LINE
  8
0
 10
5.5107
 20
4.35342
 11
5.46519
 21
4.56589
  0
LINE
  8
0
 10
5.46519
 20
4.56589
 11
5.41187
 21
4.77945
  0
LINE
  8
0
 10
5.41187
 20
4.77945
 11
5.3506
 21
4.99382
  0
LINE
  8
0
 10
5.3506
 20
4.99382
 11
5.2813
 21
5.20871
  0
LINE
  8
0
 10
5.2813
 20
5.20871
 11
5.20389
 21
5.42383
  0
LINE
  8
0
 10
5.20389
 20
5.42383
 11
5.1183
 21
5.63889
  0
LINE
  8
0
 10
5.1183
 20
5.63889
 11
5.02446
 21
5.85359
  0
LINE
  8
0
 10
5.02446
 20
5.85359
 11
4.92233
 21
6.06763
  0
LINE
  8
0
 10
4.92233
 20
6.06763
 11
4.81184
 21
6.2807
  0
LINE
  8
0
 10
4.81184
 20
6.2807
 11
4.69299
 21
6.49249
  0
LINE
  8
0
 10
4.69299
 20
6.49249
 11
4.56575
 21
6.70271
  0
LINE
  8
0
 10
4.56575
 20
6.70271
 11
4.43011
 21
6.91103
  0
LINE
  8
0
 10
4.43011
 20
6.91103
 11
4.28607
 21
7.11713
  0
LINE
  8
0
 10
4.28607
 20
7.11713
 11
4.13364
 21
7.32069
  0
LINE
  8
0
 10
4.13364
 20
7.32069
 11
3.97285
 21
7.52141
  0
LINE
  8
0
 10
3.97285
 20
7.52141
 11
3.80374
 21
7.71896
  0
LINE
  8
0
 10
3.80374
 20
7.71896
 11
3.62637
 21
7.91302
  0
LINE
  8
0
 10
3.62637
 20
7.91302
 11
3.44078
 21
8.10329
  0
LINE
  8
0
 10
3.44078
 20
8.10329
 11
3.24704
 21
8.28943
  0
LINE
  8
0
 10
3.24704
 20
8.28943
 11
3.04526
 21
8.47112
  0
LINE
  8
0
 10
3.04526
 20
8.47112
 11
2.83549
 21
8.64807
  0
LINE
  8
0
 10
2.83549
 20
8.64807
 11
2.61789
 21
8.81995
  0
LINE
  8
0
 10
2.61789
 20
8.81995
 11
2.39255
 21
8.98645
  0
LINE
  8
0
 10
2.39255
 20
8.98645
 11
2.15959
 21
9.14726
  0
LINE
  8
0
 10
2.15959
 20
9.14726
 11
1.91917
 21
9.30208
  0
LINE
  8
0
 10
1.91917
 20
9.30208
 11
1.67143
 21
9.45059
  0
LINE
  8
0
 10
1.67143
 20
9.45059
 11
1.41655
 21
9.59253
  0
LINE
  8
0
 10
1.41655
 20
9.59253
 11
1.15471
 21
9.72757
  0
LINE
  8
0
 10
1.15471
 20
9.72757
 11
0.886063
 21
9.85542
  0
LINE
  8
0
 10
0.886063
 20
9.85542
 11
0.61084
 21
9.97583
  0
LINE
  8
0
 10
0.61084
 20
9.97583
 11
0.329239
 21
10.0885
  0
LINE
  8
0
 10
0.329239
 20
10.0885
 11
0.0414734
 21
10.1931
  0
LINE
  8
0
 10
0.0414734
 20
10.1931
 11
-0.252213
 21
10.2895
  0
LINE
  8
0
 10
-0.252213
 20
10.2895
 11
-0.549438
 21
10.3767
  0
LINE
  8
0
 10
-0.549438
 20
10.3767
 11
-0.838547
 21
10.4517
  0
LINE
  8
0
 10
-0.838547
 20
10.4517
 11
-1.13255
 21
10.5186
  0
LINE
  8
0
 10
-1.13255
 20
10.5186
 11
-1.43153
 21
10.5773
  0
LINE
  8
0
 10
-1.43153
 20
10.5773
 11
-1.73468
 21
10.6273
  0
LINE
  8
0
 10
-1.73468
 20
10.6273
 11
-2.0426
 21
10.6687
  0
LINE
  8
0
 10
-2.0426
 20
10.6687
 11
-2.35455
 21
10.7011
  0
LINE
  8
0
 10
-2.35455
 20
10.7011
 11
-2.66978
 21
10.7243
  0
LINE
  8
0
 10
-2.66978
 20
10.7243
 11
-2.98895
 21
10.7381
  0
LINE
  8
0
 10
-2.98895
 20
10.7381
 11
-3.3111
 21
10.7424
  0
LINE
  8
0
 10
-3.3111
 20
10.7424
 11
-3.63655
 21
10.7369
  0
LINE
  8
0
 10
-3.63655
 20
10.7369
 11
-3.96443
 21
10.7215
  0
LINE
  8
0
 10
-3.96443
 20
10.7215
 11
-4.29442
 21
10.696
  0
LINE
  8
0
 10
-4.29442
 20
10.696
 11
-4.62654
 21
10.6603
  0
LINE
  8
0
 10
-4.62654
 20
10.6603
 11
-4.96049
 21
10.6142
  0
LINE
  8
0
 10
-4.96049
 20
10.6142
 11
-5.29567
 21
10.5577
  0
LINE
  8
0
 10
-5.29567
 20
10.5577
 11
-5.63219
 21
10.4904
  0
LINE
  8
0
 10
-5.63219
 20
10.4904
 11
-5.96941
 21
10.4124
  0
LINE
  8
0
 10
-5.96941
 20
10.4124
 11
-6.30634
 21
10.3237
  0
LINE
  8
0
 10
-6.30634
 20
10.3237
 11
-6.6442
 21
10.2238
  0
LINE
  8
0
 10
-6.6442
 20
10.2238
 11
-6.98108
 21
10.1131
  0
LINE
  8
0
 10
-6.98108
 20
10.1131
 11
-7.31758
 21
9.9912
  0
LINE
  8
0
 10
-7.31758
 20
9.9912
 11
-7.65274
 21
9.85825
  0
LINE
  8
0
 10
-7.65274
 20
9.85825
 11
-7.98679
 21
9.71397
  0
LINE
  8
0
 10
-7.98679
 20
9.71397
 11
-8.31902
 21
9.55847
  0
LINE
  8
0
 10
-8.31902
 20
9.55847
 11
-8.64877
 21
9.39188
  0
LINE
  8
0
 10
-8.64877
 20
9.39188
 11
-8.97614
 21
9.21394
  0
LINE
  8
0
 10
-8.97614
 20
9.21394
 11
-9.30032
 21
9.0249
  0
LINE
  8
0
 10
-9.30032
 20
9.0249
 11
-9.62144
 21
8.82449
  0
LINE
  8
0
 10
-9.62144
 20
8.82449
 11
-9.93904
 21
8.61276
  0
LINE
  8
0
 10
-9.93904
 20
8.61276
 11
-10.2521
 21
8.3902
  0
LINE
  8
0
 10
-10.2521
 20
8.3902
 11
-10.561
 21
8.15633
  0
LINE
  8
0
 10
-10.561
 20
8.15633
 11
-10.8651
 21
7.91136
  0
LINE
  8
0
 10
-10.8651
 20
7.91136
 11
-11.1638
 21
7.65552
  0
LINE
  8
0
 10
-11.1638
 20
7.65552
 11
-11.4568
 21
7.38892
  0
LINE
  8
0
 10
-11.4568
 20
7.38892
 11
-11.7439
 21
7.1115
  0
LINE
  8
0
 10
-11.7439
 20
7.1115
 11
-12.0246
 21
6.82353
  0
LINE
  8
0
 10
-12.0246
 20
6.82353
 11
-12.2985
 21
6.52504
  0
LINE
  8
0
 10
-12.2985
 20
6.52504
 11
-12.5652
 21
6.21625
  0
LINE
  8
0
 10
-12.5652
 20
6.21625
 11
-12.8246
 21
5.89699
  0
LINE
  8
0
 10
-12.8246
 20
5.89699
 11
-13.0758
 21
5.56818
  0
LINE
  8
0
 10
-13.0758
 20
5.56818
 11
-13.3188
 21
5.22951
  0
LINE
  8
0
 10
-13.3188
 20
5.22951
 11
-13.5535
 21
4.8808
  0
LINE
  8
0
 10
-13.5535
 20
4.8808
 11
-13.7787
 21
4.52325
  0
LINE
  8
0
 10
-13.7787
 20
4.52325
 11
-13.9949
 21
4.15625
  0
LINE
  8
0
 10
-13.9949
 20
4.15625
 11
-14.2013
 21
3.78046
  0
LINE
  8
0
 10
-14.2013
 20
3.78046
 11
-14.3977
 21
3.3958
  0
LINE
  8
0
 10
-14.3977
 20
3.3958
 11
-14.5837
 21
3.00296
  0
LINE
  8
0
 10
-14.5837
 20
3.00296
 11
-14.759
 21
2.60207
  0
LINE
  8
0
 10
-14.759
 20
2.60207
 11
-14.9234
 21
2.19287
  0
LINE
  8
0
 10
-14.9234
 20
2.19287
 11
-15.0764
 21
1.77666
  0
LINE
  8
0
 10
-15.0764
 20
1.77666
 11
-15.2178
 21
1.35283
  0
LINE
  8
0
 10
-15.2178
 20
1.35283
 11
-15.3472
 21
0.922485
  0
LINE
  8
0
 10
-15.3472
 20
0.922485
 11
-15.4644
 21
0.485657
  0
LINE
  8
0
 10
-15.4644
 20
0.485657
 11
-15.5691
 21
0.04245
  0
LINE
  8
0
 10
-15.5691
 20
0.04245
 11
-15.6612
 21
-0.40712
  0
LINE
  8
0
 10
-15.6612
 20
-0.40712
 11
-15.7401
 21
-0.861465
  0
LINE
  8
0
 10
-15.7401
 20
-0.861465
 11
-15.8058
 21
-1.32115
  0
LINE
  8
0
 10
-15.8058
 20
-1.32115
 11
-15.8581
 21
-1.78558
  0
LINE
  8
0
 10
-15.8581
 20
-1.78558
 11
-15.8966
 21
-2.2543
  0
LINE
  8
0
 10
-15.8966
 20
-2.2543
 11
-15.9212
 21
-2.72679
  0
LINE
  8
0
 10
-15.9212
 20
-2.72679
 11
-15.9316
 21
-3.20288
  0
LINE
  8
0
 10
-15.9316
 20
-3.20288
 11
-15.9278
 21
-3.68211
  0
LINE
  8
0
 10
-15.9278
 20
-3.68211
 11
-15.9094
 21
-4.16357
  0
LINE
  8
0
 10
-15.9094
 20
-4.16357
 11
-15.8764
 21
-4.64813
  0
LINE
  8
0
 10
-15.8764
 20
-4.64813
 11
-15.8287
 21
-5.13368
  0
LINE
  8
0
 10
-15.8287
 20
-5.13368
 11
-15.766
 21
-5.62032
  0
LINE
  8
0
 10
-15.766
 20
-5.62032
 11
-15.6882
 21
-6.10854
  0
LINE
  8
0
 10
-15.6882
 20
-6.10854
 11
-15.5954
 21
-6.59618
  0
LINE
  8
0
 10
-15.5954
 20
-6.59618
 11
-15.4872
 21
-7.08449
  0
LINE
  8
0
 10
-15.4872
 20
-7.08449
 11
-15.3637
 21
-7.57228
  0
LINE
  8
0
 10
-15.3637
 20
-7.57228
 11
-15.2249
 21
-8.05835
  0
LINE
  8
0
 10
-15.2249
 20
-8.05835
 11
-15.0706
 21
-8.54337
  0
LINE
  8
0
 10
-15.0706
 20
-8.54337
 11
-14.9011
 21
-9.02579
  0
LINE
  8
0
 10
-14.9011
 20
-9.02579
 11
-14.7158
 21
-9.50632
  0
LINE
  8
0
 10
-14.7158
 20
-9.50632
 11
-14.5152
 21
-9.98341
  0
LINE
  8
0
 10
-14.5152
 20
-9.98341
 11
-14.2992
 21
-10.457
  0
LINE
  8
0
 10
-14.2992
 20
-10.457
 11
-14.0675
 21
-10.927
  0
LINE
  8
0
 10
-14.0675
 20
-10.927
 11
-13.8208
 21
-11.3917
  0
LINE
  8
0
 10
-13.8208
 20
-11.3917
 11
-13.5586
 21
-11.852
  0
LINE
  8
0
 10
-13.5586
 20
-11.852
 11
-13.2811
 21
-12.3066
  0
LINE
  8
0
 10
-13.2811
 20
-12.3066
 11
-12.9885
 21
-12.7553
  0
LINE
  8
0
 10
-12.9885
 20
-12.7553
 11
-12.6814
 21
-13.1967
  0
LINE
  8
0
 10
-12.6814
 20
-13.1967
 11
-12.3587
 21
-13.632
  0
LINE
  8
0
 10
-12.3587
 20
-13.632
 11
-12.0148
 21
-14.0675
  0
LINE
  8
0
 10
-12.0148
 20
-14.0675
 11
-11.6548
 21
-14.4957
  0
LINE
  8
0
 10
-11.6548
 20
-14.4957
 11
-11.28
 21
-14.9148
  0
LINE
  8
0
 10
-11.28
 20
-14.9148
 11
-10.8905
 21
-15.3244
  0
LINE
  8
0
 10
-10.8905
 20
-15.3244
 11
-10.4866
 21
-15.7239
  0
LINE
  8
0
 10
-10.4866
 20
-15.7239
 11
-10.0685
 21
-16.1129
  0
LINE
  8
0
 10
-10.0685
 20
-16.1129
 11
-9.63647
 21
-16.4908
  0
LINE
  8
0
 10
-9.63647
 20
-16.4908
 11
-9.19087
 21
-16.8573
  0
LINE
  8
0
 10
-9.19087
 20
-16.8573
 11
-8.73198
 21
-17.2117
  0
LINE
  8
0
 10
-8.73198
 20
-17.2117
 11
-8.26012
 21
-17.5536
  0
LINE
  8
0
 10
-8.26012
 20
-17.5536
 11
-7.7756
 21
-17.8827
  0
LINE
  8
0
 10
-7.7756
 20
-17.8827
 11
-7.27881
 21
-18.1983
  0
LINE
  8
0
 10
-7.27881
 20
-18.1983
 11
-6.7701
 21
-18.5002
  0
LINE
  8
0
 10
-6.7701
 20
-18.5002
 11
-6.24985
 21
-18.7877
  0
LINE
  8
0
 10
-6.24985
 20
-18.7877
 11
-5.71846
 21
-19.0607
  0
LINE
  8
0
 10
-5.71846
 20
-19.0607
 11
-5.17638
 21
-19.3185
  0
LINE
  8
0
 10
-5.17638
 20
-19.3185
 11
-4.62399
 21
-19.5609
  0
LINE
  8
0
 10
-4.62399
 20
-19.5609
 11
-4.06177
 21
-19.7874
  0
LINE
  8
0
 10
-4.06177
 20
-19.7874
 11
-3.49016
 21
-19.9977
  0
LINE
  8
0
 10
-3.49016
 20
-19.9977
 11
-2.90962
 21
-20.1914
  0
LINE
  8
0
 10
-2.90962
 20
-20.1914
 11
-2.32066
 21
-20.3682
  0
LINE
  8
0
 10
-2.32066
 20
-20.3682
 11
-1.72375
 21
-20.5277
  0
LINE
  8
0
 10
-1.72375
 20
-20.5277
 11
-1.11943
 21
-20.6697
  0
LINE
  8
0
 10
-1.11943
 20
-20.6697
 11
-0.508179
 21
-20.7938
  0
LINE
  8
0
 10
-0.508179
 20
-20.7938
 11
0.109421
 21
-20.8997
  0
LINE
  8
0
 10
0.109421
 20
-20.8997
 11
0.73288
 21
-20.9872
  0
LINE
  8
0
 10
0.73288
 20
-20.9872
 11
1.36162
 21
-21.056
  0
LINE
  8
0
 10
1.36162
 20
-21.056
 11
1.99509
 21
-21.1059
  0
LINE
  8
0
 10
1.99509
 20
-21.1059
 11
2.63271
 21
-21.1367
  0
LINE
  8
0
 10
2.63271
 20
-21.1367
 11
3.2739
 21
-21.1481
  0
LINE
  8
0
 10
3.2739
 20
-21.1481
 11
3.91806
 21
-21.14
  0
LINE
  8
0
 10
3.91806
 20
-21.14
 11
4.56461
 21
-21.1122
  0
LINE
  8
0
 10
4.56461
 20
-21.1122
 11
5.21294
 21
-21.0645
  0
LINE
  8
0
 10
5.21294
 20
-21.0645
 11
5.86244
 21
-20.9969
  0
LINE
  8
0
 10
5.86244
 20
-20.9969
 11
6.5125
 21
-20.9093
  0
LINE
  8
0
 10
6.5125
 20
-20.9093
 11
7.16249
 21
-20.8014
  0
LINE
  8
0
 10
7.16249
 20
-20.8014
 11
7.81178
 21
-20.6733
  0
LINE
  8
0
 10
7.81178
 20
-20.6733
 11
8.45975
 21
-20.5249
  0
LINE
  8
0
 10
8.45975
 20
-20.5249
 11
9.10576
 21
-20.3562
  0
LINE
  8
0
 10
9.10576
 20
-20.3562
 11
9.74918
 21
-20.1671
  0
LINE
  8
0
 10
9.74918
 20
-20.1671
 11
10.3893
 21
-19.9577
  0
LINE
  8
0
 10
10.3893
 20
-19.9577
 11
11.0256
 21
-19.728
  0
LINE
  8
0
 10
11.0256
 20
-19.728
 11
11.6574
 21
-19.4781
  0
LINE
  8
0
 10
11.6574
 20
-19.4781
 11
12.284
 21
-19.2079
  0
LINE
  8
0
 10
12.284
 20
-19.2079
 11
12.9047
 21
-18.9176
  0
LINE
  8
0
 10
12.9047
 20
-18.9176
 11
13.5191
 21
-18.6074
  0
LINE
  8
0
 10
13.5191
 20
-18.6074
 11
14.1263
 21
-18.2773
  0
LINE
  8
0
 10
14.1263
 20
-18.2773
 11
14.7257
 21
-17.9274
  0
LINE
  8
0
 10
14.7257
 20
-17.9274
 11
15.3168
 21
-17.558
  0
LINE
  8
0
 10
15.3168
 20
-17.558
 11
15.8989
 21
-17.1693
  0
LINE
  8
0
 10
15.8989
 20
-17.1693
 11
16.4714
 21
-16.7614
  0
LINE
  8
0
 10
16.4714
 20
-16.7614
 11
17.0335
 21
-16.3346
  0
LINE
  8
0
 10
17.0335
 20
-16.3346
 11
17.5848
 21
-15.8891
  0
LINE
  8
0
 10
17.5848
 20
-15.8891
 11
18.1246
 21
-15.4252
  0
LINE
  8
0
 10
18.1246
 20
-15.4252
 11
18.6523
 21
-14.9433
  0
LINE
  8
0
 10
18.6523
 20
-14.9433
 11
19.1673
 21
-14.4436
  0
LINE
  8
0
 10
19.1673
 20
-14.4436
 11
19.6689
 21
-13.9264
  0
LINE
  8
0
 10
19.6689
 20
-13.9264
 11
20.1567
 21
-13.3921
  0
LINE
  8
0
 10
20.1567
 20
-13.3921
 11
20.63
 21
-12.841
  0
LINE
  8
0
 10
20.63
 20
-12.841
 11
21.0883
 21
-12.2737
  0
LINE
  8
0
 10
21.0883
 20
-12.2737
 11
21.531
 21
-11.6904
  0
LINE
  8
0
 10
21.531
 20
-11.6904
 11
21.9576
 21
-11.0916
  0
LINE
  8
0
 10
21.9576
 20
-11.0916
 11
22.3675
 21
-10.4777
  0
LINE
  8
0
 10
22.3675
 20
-10.4777
 11
22.7603
 21
-9.84926
  0
LINE
  8
0
 10
22.7603
 20
-9.84926
 11
23.1354
 21
-9.20668
  0
LINE
  8
0
 10
23.1354
 20
-9.20668
 11
23.4923
 21
-8.55049
  0
LINE
  8
0
 10
23.4923
 20
-8.55049
 11
23.8306
 21
-7.88121
  0
LINE
  8
0
 10
23.8306
 20
-7.88121
 11
24.1497
 21
-7.19934
  0
LINE
  8
0
 10
24.1497
 20
-7.19934
 11
24.4493
 21
-6.50545
  0
LINE
  8
0
 10
24.4493
 20
-6.50545
 11
24.7289
 21
-5.80011
  0
LINE
  8
0
 10
24.7289
 20
-5.80011
 11
24.9881
 21
-5.08388
  0
LINE
  8
0
 10
24.9881
 20
-5.08388
 11
25.2264
 21
-4.35736
  0
LINE
  8
0
 10
25.2264
 20
-4.35736
 11
25.4436
 21
-3.62115
  0
LINE
  8
0
 10
25.4436
 20
-3.62115
 11
25.6392
 21
-2.87589
  0
LINE
  8
0
 10
25.6392
 20
-2.87589
 11
25.8129
 21
-2.12219
  0
LINE
  8
0
 10
25.8129
 20
-2.12219
 11
25.9644
 21
-1.36073
  0
LINE
  8
0
 10
25.9644
 20
-1.36073
 11
26.0933
 21
-0.592133
  0
LINE
  8
0
 10
26.0933
 20
-0.592133
 11
26.1994
 21
0.182907
  0
LINE
  8
0
 10
26.1994
 20
0.182907
 11
26.2823
 21
0.963715
  0
LINE
  8
0
 10
26.2823
 20
0.963715
 11
26.3419
 21
1.74962
  0
LINE
  8
0
 10
26.3419
 20
1.74962
 11
26.378
 21
2.5399
  0
LINE
  8
0
 10
26.378
 20
2.5399
 11
26.3902
 21
3.33386
  0
LINE
  8
0
 10
26.3902
 20
3.33386
 11
26.3785
 21
4.13075
  0
LINE
  8
0
 10
26.3785
 20
4.13075
 11
26.3427
 21
4.92989
  0
LINE
  8
0
 10
26.3427
 20
4.92989
 11
26.2825
 21
5.73051
  0
LINE
  8
0
 10
26.2825
 20
5.73051
 11
26.198
 21
6.53189
  0
LINE
  8
0
 10
26.198
 20
6.53189
 11
26.0889
 21
7.33327
  0
LINE
  8
0
 10
26.0889
 20
7.33327
 11
25.9553
 21
8.1339
  0
LINE
  8
0
 10
25.9553
 20
8.1339
 11
25.7971
 21
8.93304
  0
LINE
  8
0
 10
25.7971
 20
8.93304
 11
25.6142
 21
9.72992
  0
LINE
  8
0
 10
25.6142
 20
9.72992
 11
25.4067
 21
10.5238
  0
LINE
  8
0
 10
25.4067
 20
10.5238
 11
25.1745
 21
11.3139
  0
LINE
  8
0
 10
25.1745
 20
11.3139
 11
24.9177
 21
12.0994
  0
LINE
  8
0
 10
24.9177
 20
12.0994
 11
24.6365
 21
12.8796
  0
LINE
  8
0
 10
24.6365
 20
12.8796
 11
24.3307
 21
13.6538
  0
LINE
  8
0
 10
24.3307
 20
13.6538
 11
24.0007
 21
14.4211
  0
LINE
  8
0
 10
24.0007
 20
14.4211
 11
23.6464
 21
15.1807
  0
LINE
  8
0
 10
23.6464
 20
15.1807
 11
23.2682
 21
15.9321
  0
LINE
  8
0
 10
23.2682
 20
15.9321
 11
22.8661
 21
16.6743
  0
LINE
  8
0
 10
22.8661
 20
16.6743
 11
22.4404
 21
17.4066
  0
LINE
  8
0
 10
22.4404
 20
17.4066
 11
21.9913
 21
18.1282
  0
LINE
  8
0
 10
21.9913
 20
18.1282
 11
21.5191
 21
18.8385
  0
LINE
  8
0
 10
21.5191
 20
18.8385
 11
21.024
 21
19.5367
  0
LINE
  8
0
 10
21.024
 20
19.5367
 11
20.5063
 21
20.222
  0
LINE
  8
0
 10
20.5063
 20
20.222
 11
19.9665
 21
20.8937
  0
LINE
  8
0
 10
19.9665
 20
20.8937
 11
19.4048
 21
21.5512
  0
LINE
  8
0
 10
19.4048
 20
21.5512
 11
18.8216
 21
22.1936
  0
LINE
  8
0
 10
18.8216
 20
22.1936
 11
18.2173
 21
22.8204
  0
LINE
  8
0
 10
18.2173
 20
22.8204
 11
17.5923
 21
23.4308
  0
LINE
  8
0
 10
17.5923
 20
23.4308
 11
16.9471
 21
24.024
  0
LINE
  8
0
 10
16.9471
 20
24.024
 11
16.2821
 21
24.5996
  0
LINE
  8
0
 10
16.2821
 20
24.5996
 11
15.5979
 21
25.1568
  0
LINE
  8
0
 10
15.5979
 20
25.1568
 11
14.8949
 21
25.695
  0
LINE
  8
0
 10
14.8949
 20
25.695
 11
14.1736
 21
26.2135
  0
LINE
  8
0
 10
14.1736
 20
26.2135
 11
13.4346
 21
26.7118
  0
LINE
  8
0
 10
13.4346
 20
26.7118
 11
12.6785
 21
27.1892
  0
LINE
  8
0
 10
12.6785
 20
27.1892
 11
11.9059
 21
27.6452
  0
LINE
  8
0
 10
11.9059
 20
27.6452
 11
11.1174
 21
28.0792
  0
LINE
  8
0
 10
11.1174
 20
28.0792
 11
10.3135
 21
28.4907
  0
LINE
  8
0
 10
10.3135
 20
28.4907
 11
9.49498
 21
28.8791
  0
LINE
  8
0
 10
9.49498
 20
28.8791
 11
8.66246
 21
29.244
  0
LINE
  8
0
 10
8.66246
 20
29.244
 11
7.81664
 21
29.5848
  0
LINE
  8
0
 10
7.81664
 20
29.5848
 11
6.95819
 21
29.9011
  0
LINE
  8
0
 10
6.95819
 20
29.9011
 11
6.08784
 21
30.1923
  0
LINE
  8
0
 10
6.08784
 20
30.1923
 11
5.20631
 21
30.4582
  0
LINE
  8
0
 10
5.20631
 20
30.4582
 11
4.31436
 21
30.6983
  0
LINE
  8
0
 10
4.31436
 20
30.6983
 11
3.41273
 21
30.9122
  0
LINE
  8
0
 10
3.41273
 20
30.9122
 11
2.5022
 21
31.0995
  0
LINE
  8
0
 10
2.5022
 20
31.0995
 11
1.58356
 21
31.2599
  0
LINE
  8
0
 10
1.58356
 20
31.2599
 11
0.657578
 21
31.3931
  0
LINE
  8
0
 10
0.657578
 20
31.3931
 11
-0.274872
 21
31.4988
  0
LINE
  8
0
 10
-0.274872
 20
31.4988
 11
-1.21304
 21
31.5767
  0
LINE
  8
0
 10
-1.21304
 20
31.5767
 11
-2.15608
 21
31.6266
  0
LINE
  8
0
 10
-2.15608
 20
31.6266
 11
-3.10313
 21
31.6482
  0
LINE
  8
0
 10
-3.10313
 20
31.6482
 11
-4.05336
 21
31.6414
  0
LINE
  8
0
 10
-4.05336
 20
31.6414
 11
-5.00589
 21
31.606
  0
LINE
  8
0
 10
-5.00589
 20
31.606
 11
-5.95988
 21
31.5419
  0
LINE
  8
0
 10
-5.95988
 20
31.5419
 11
-6.91447
 21
31.4488
  0
LINE
  8
0
 10
-6.91447
 20
31.4488
 11
-7.86876
 21
31.3269
  0
LINE
  8
0
 10
-7.86876
 20
31.3269
 11
-8.82187
 21
31.1759
  0
LINE
  8
0
 10
-8.82187
 20
31.1759
 11
-9.77293
 21
30.9958
  0
LINE
  8
0
 10
-9.77293
 20
30.9958
 11
-10.721
 21
30.7867
  0
LINE
  8
0
 10
-10.721
 20
30.7867
 11
-11.6653
 21
30.5485
  0
LINE
  8
0
 10
-11.6653
 20
30.5485
 11
-12.6049
 21
30.2813
  0
LINE
  8
0
 10
-12.6049
 20
30.2813
 11
-13.5388
 21
29.9852
  0
LINE
  8
0
 10
-13.5388
 20
29.9852
 11
-14.4662
 21
29.6602
  0
LINE
  8
0
 10
-14.4662
 20
29.6602
 11
-15.3863
 21
29.3065
  0
LINE
  8
0
 10
-15.3863
 20
29.3065
 11
-16.298
 21
28.9243
  0
LINE
  8
0
 10
-16.298
 20
28.9243
 11
-17.2005
 21
28.5137
  0
LINE
  8
0
 10
-17.2005
 20
28.5137
 11
-18.093
 21
28.0749
  0
LINE
  8
0
 10
-18.093
 20
28.0749
 11
-18.9746
 21
27.6082
  0
LINE
  8
0
 10
-18.9746
 20
27.6082
 11
-19.8443
 21
27.1139
  0
LINE
  8
0
 10
-19.8443
 20
27.1139
 11
-20.7014
 21
26.5921
  0
LINE
  8
0
 10
-20.7014
 20
26.5921
 11
-21.5449
 21
26.0433
  0
LINE
  8
0
 10
-21.5449
 20
26.0433
 11
-22.3741
 21
25.4678
  0
LINE
  8
0
 10
-22.3741
 20
25.4678
 11
-23.1879
 21
24.866
  0
LINE
  8
0
 10
-23.1879
 20
24.866
 11
-23.9857
 21
24.2383
  0
LINE
  8
0
 10
-23.9857
 20
24.2383
 11
-24.7667
 21
23.585
  0
LINE
  8
0
 10
-24.7667
 20
23.585
 11
-25.5299
 21
22.9066
  0
LINE
  8
0
 10
-25.5299
 20
22.9066
 11
-26.2746
 21
22.2037
  0
LINE
  8
0
 10
-26.2746
 20
22.2037
 11
-27
 21
21.4767
  0
LINE
  8
0
 10
-27
 20
21.4767
 11
-27.7053
 21
20.7262
  0
LINE
  8
0
 10
-27.7053
 20
20.7262
 11
-28.3898
 21
19.9527
  0
LINE
  8
0
 10
-28.3898
 20
19.9527
 11
-29.0527
 21
19.1567
  0
LINE
  8
0
 10
-29.0527
 20
19.1567
 11
-29.6933
 21
18.339
  0
LINE
  8
0
 10
-29.6933
 20
18.339
 11
-30.3109
 21
17.5
  0
LINE
  8
0
 10
-30.3109
 20
17.5
 11
-30.9048
 21
16.6405
  0
LINE
  8
0
 10
-30.9048
 20
16.6405
 11
-31.4742
 21
15.7611
  0
LINE
  8
0
 10
-31.4742
 20
15.7611
 11
-32.0186
 21
14.8626
  0
LINE
  8
0
 10
-32.0186
 20
14.8626
 11
-32.5374
 21
13.9455
  0
LINE
  8
0
 10
-32.5374
 20
13.9455
 11
-33.0298
 21
13.0108
  0
LINE
  8
0
 10
-33.0298
 20
13.0108
 11
-33.4953
 21
12.0591
  0
LINE
  8
0
 10
-33.4953
 20
12.0591
 11
-33.9334
 21
11.0911
  0
LINE
  8
0
 10
-33.9334
 20
11.0911
 11
-34.3434
 21
10.1078
  0
LINE
  8
0
 10
-34.3434
 20
10.1078
 11
-34.7249
 21
9.10991
  0
LINE
  8
0
 10
-34.7249
 20
9.10991
 11
-35.0773
 21
8.09824
  0
LINE
  8
0
 10
-35.0773
 20
8.09824
 11
-35.4002
 21
7.07365
  0
LINE
  8
0
 10
-35.4002
 20
7.07365
 11
-35.6931
 21
6.03702
  0
LINE
  8
0
 10
-35.6931
 20
6.03702
 11
-35.9555
 21
4.98923
  0
LINE
  8
0
 10
-35.9555
 20
4.98923
 11
-36.1871
 21
3.93117
  0
LINE
  8
0
 10
-36.1871
 20
3.93117
 11
-36.3875
 21
2.86375
  0
LINE
  8
0
 10
-36.3875
 20
2.86375
 11
-36.5563
 21
1.78789
  0
LINE
  8
0
 10
-36.5563
 20
1.78789
 11
-36.6932
 21
0.704544
  0
LINE
  8
0
 10
-36.6932
 20
0.704544
 11
-36.798
 21
-0.385361
  0
LINE
  8
0
 10
-36.798
 20
-0.385361
 11
-36.8703
 21
-1.48085
  0
LINE
  8
0
 10
-36.8703
 20
-1.48085
 11
-36.9099
 21
-2.58098
  0
LINE
  8
0
 10
-36.9099
 20
-2.58098
 11
-36.9165
 21
-3.68475
  0
LINE
  8
0
 10
-36.9165
 20
-3.68475
 11
-36.8902
 21
-4.79118
  0
LINE
  8
0
 10
-36.8902
 20
-4.79118
 11
-36.8305
 21
-5.89929
  0
LINE
  8
0
 10
-36.8305
 20
-5.89929
 11
-36.7375
 21
-7.00806
  0
LINE
  8
0
 10
-36.7375
 20
-7.00806
 11
-36.6111
 21
-8.11647
  0
LINE
  8
0
 10
-36.6111
 20
-8.11647
 11
-36.4511
 21
-9.22356
  0
LINE
  8
0
 10
-36.4511
 20
-9.22356
 11
-36.2576
 21
-10.3283
  0
LINE
  8
0
 10
-36.2576
 20
-10.3283
 11
-36.0306
 21
-11.4296
  0
LINE
  8
0
 10
-36.0306
 20
-11.4296
 11
-35.7701
 21
-12.5265
  0
LINE
  8
0
 10
-35.7701
 20
-12.5265
 11
-35.476
 21
-13.618
  0
LINE
  8
0
 10
-35.476
 20
-13.618
 11
-35.1487
 21
-14.703
  0
LINE
  8
0
 10
-35.1487
 20
-14.703
 11
-34.7881
 21
-15.7806
  0
LINE
  8
0
 10
-34.7881
 20
-15.7806
 11
-34.3945
 21
-16.8497
  0
LINE
  8
0
 10
-34.3945
 20
-16.8497
 11
-33.9679
 21
-17.9092
  0
LINE
  8
0
 10
-33.9679
 20
-17.9092
 11
-33.5087
 21
-18.9583
  0
LINE
  8
0
 10
-33.5087
 20
-18.9583
 11
-33.0171
 21
-19.9958
  0
LINE
  8
0
 10
-33.0171
 20
-19.9958
 11
-32.4933
 21
-21.0208
  0
LINE
  8
0
 10
-32.4933
 20
-21.0208
 11
-31.9377
 21
-22.0323
  0
LINE
  8
0
 10
-31.9377
 20
-22.0323
 11
-31.3506
 21
-23.0293
  0
LINE
  8
0
 10
-31.3506
 20
-23.0293
 11
-30.7324
 21
-24.0108
  0
LINE
  8
0
 10
-30.7324
 20
-24.0108
 11
-30.0835
 21
-24.9758
  0
LINE
  8
0
 10
-30.0835
 20
-24.9758
 11
-29.4043
 21
-25.9234
  0
LINE
  8
0
 10
-29.4043
 20
-25.9234
 11
-28.6954
 21
-26.8526
  0
LINE
  8
0
 10
-28.6954
 20
-26.8526
 11
-27.9571
 21
-27.7626
  0
LINE
  8
0
 10
-27.9571
 20
-27.7626
 11
-27.19
 21
-28.6523
  0
LINE
  8
0
 10
-27.19
 20
-28.6523
 11
-26.3947
 21
-29.5208
  0
LINE
  8
0
 10
-26.3947
 20
-29.5208
 11
-25.5717
 21
-30.3674
  0
LINE
  8
0
 10
-25.5717
 20
-30.3674
 11
-24.7217
 21
-31.191
  0
LINE
  8
0
 10
-24.7217
 20
-31.191
 11
-23.8452
 21
-31.9908
  0
LINE
  8
0
 10
-23.8452
 20
-31.9908
 11
-22.9431
 21
-32.7661
  0
LINE
  8
0
 10
-22.9431
 20
-32.7661
 11
-22.0158
 21
-33.5159
  0
LINE
  8
0
 10
-22.0158
 20
-33.5159
 11
-21.0642
 21
-34.2394
  0
LINE
  8
0
 10
-21.0642
 20
-34.2394
 11
-20.0891
 21
-34.9359
  0
LINE
  8
0
 10
-20.0891
 20
-34.9359
 11
-19.091
 21
-35.6046
  0
LINE
  8
0
 10
-19.091
 20
-35.6046
 11
-18.071
 21
-36.2448
  0
LINE
  8
0
 10
-18.071
 20
-36.2448
 11
-17.0297
 21
-36.8558
  0
LINE
  8
0
 10
-17.0297
 20
-36.8558
 11
-15.9681
 21
-37.4367
  0
LINE
  8
0
 10
-15.9681
 20
-37.4367
 11
-14.887
 21
-37.9871
  0
LINE
  8
0
 10
-14.887
 20
-37.9871
 11
-13.7872
 21
-38.5061
  0
LINE
  8
0
 10
-13.7872
 20
-38.5061
 11
-12.6697
 21
-38.9933
  0
LINE
  8
0
 10
-12.6697
 20
-38.9933
 11
-11.5354
 21
-39.448
  0
LINE
  8
0
 10
-11.5354
 20
-39.448
 11
-10.3853
 21
-39.8696
  0
LINE
  8
0
 10
-10.3853
 20
-39.8696
 11
-9.22021
 21
-40.2576
  0
LINE
  8
0
 10
-9.22021
 20
-40.2576
 11
-8.04129
 21
-40.6115
  0
LINE
  8
0
 10
-8.04129
 20
-40.6115
 11
-6.84947
 21
-40.9308
  0
LINE
  8
0
 10
-6.84947
 20
-40.9308
 11
-5.64577
 21
-41.2151
  0
LINE
  8
0
 10
-5.64577
 20
-41.2151
 11
-4.4312
 21
-41.4639
  0
LINE
  8
0
 10
-4.4312
 20
-41.4639
 11
-3.20685
 21
-41.6768
  0
LINE
  8
0
 10
-3.20685
 20
-41.6768
 11
-1.97375
 21
-41.8535
  0
LINE
  8
0
 10
-1.97375
 20
-41.8535
 11
-0.732986
 21
-41.9936
  0
LINE
  8
0
 10
-0.732986
 20
-41.9936
 11
0.514328
 21
-42.0968
  0
LINE
  8
0
 10
0.514328
 20
-42.0968
 11
1.76715
 21
-42.163
  0
LINE
  8
0
 10
1.76715
 20
-42.163
 11
3.02434
 21
-42.1917
  0
LINE
  8
0
 10
3.02434
 20
-42.1917
 11
4.28477
 21
-42.1829
  0
LINE
  8
0
 10
4.28477
 20
-42.1829
 11
5.54735
 21
-42.1364
  0
LINE
  8
0
 10
5.54735
 20
-42.1364
 11
6.81093
 21
-42.052
  0
LINE
  8
0
 10
6.81093
 20
-42.052
 11
8.07437
 21
-41.9296
  0
LINE
  8
0
 10
8.07437
 20
-41.9296
 11
9.33652
 21
-41.7692
  0
LINE
  8
0
 10
9.33652
 20
-41.7692
 11
10.5963
 21
-41.5708
  0
LINE
  8
0
 10
10.5963
 20
-41.5708
 11
11.8524
 21
-41.3342
  0
LINE
  8
0
 10
11.8524
 20
-41.3342
 11
13.1038
 21
-41.0597
  0
LINE
  8
0
 10
13.1038
 20
-41.0597
 11
14.3493
 21
-40.7472
  0
LINE
  8
0
 10
14.3493
 20
-40.7472
 11
15.5879
 21
-40.3969
  0
LINE
  8
0
 10
15.5879
 20
-40.3969
 11
16.8182
 21
-40.0089
  0
LINE
  8
0
 10
16.8182
 20
-40.0089
 11
18.0392
 21
-39.5833
  0
LINE
  8
0
 10
18.0392
 20
-39.5833
 11
19.2496
 21
-39.1205
  0
LINE
  8
0
 10
19.2496
 20
-39.1205
 11
20.4485
 21
-38.6205
  0
LINE
  8
0
 10
20.4485
 20
-38.6205
 11
21.6346
 21
-38.0839
  0
LINE
  8
0
 10
21.6346
 20
-38.0839
 11
22.8069
 21
-37.5107
  0
LINE
  8
0
 10
22.8069
 20
-37.5107
 11
23.9641
 21
-36.9015
  0
LINE
  8
0
 10
23.9641
 20
-36.9015
 11
25.1052
 21
-36.2565
  0
LINE
  8
0
 10
25.1052
 20
-36.2565
 11
26.2291
 21
-35.5763
  0
LINE
  8
0
 10
26.2291
 20
-35.5763
 11
27.3347
 21
-34.8612
  0
LINE
  8
0
 10
27.3347
 20
-34.8612
 11
28.4209
 21
-34.1118
  0
LINE
  8
0
 10
28.4209
 20
-34.1118
 11
29.4866
 21
-33.3285
  0
LINE
  8
0
 10
29.4866
 20
-33.3285
 11
30.5308
 21
-32.512
  0
LINE
  8
0
 10
30.5308
 20
-32.512
 11
31.5524
 21
-31.6628
  0
LINE
  8
0
 10
31.5524
 20
-31.6628
 11
32.5505
 21
-30.7815
  0
LINE
  8
0
 10
32.5505
 20
-30.7815
 11
33.524
 21
-29.8688
  0
LINE
  8
0
 10
33.524
 20
-29.8688
 11
34.472
 21
-28.9254
  0
LINE
  8
0
 10
34.472
 20
-28.9254
 11
35.3934
 21
-27.952
  0
LINE
  8
0
 10
35.3934
 20
-27.952
 11
36.2873
 21
-26.9494
  0
LINE
  8
0
 10
36.2873
 20
-26.9494
 11
37.1529
 21
-25.9182
  0
LINE
  8
0
 10
37.1529
 20
-25.9182
 11
37.9891
 21
-24.8594
  0
LINE
  8
0
 10
37.9891
 20
-24.8594
 11
38.7951
 21
-23.7737
  0
LINE
  8
0
 10
38.7951
 20
-23.7737
 11
39.5701
 21
-22.662
  0
LINE
  8
0
 10
39.5701
 20
-22.662
 11
40.3132
 21
-21.5252
  0
LINE
  8
0
 10
40.3132
 20
-21.5252
 11
41.0236
 21
-20.3643
  0
LINE
  8
0
 10
41.0236
 20
-20.3643
 11
41.7005
 21
-19.1801
  0
LINE
  8
0
 10
41.7005
 20
-19.1801
 11
42.3432
 21
-17.9736
  0
LINE
  8
0
 10
42.3432
 20
-17.9736
 11
42.951
 21
-16.7459
  0
LINE
  8
0
 10
42.951
 20
-16.7459
 11
43.523
 21
-15.4979
  0
LINE
  8
0
 10
43.523
 20
-15.4979
 11
44.0588
 21
-14.2306
  0
LINE
  8
0
 10
44.0588
 20
-14.2306
 11
44.5576
 21
-12.9452
  0
LINE
  8
0
 10
44.5576
 20
-12.9452
 11
45.0189
 21
-11.6427
  0
LINE
  8
0
 10
45.0189
 20
-11.6427
 11
45.442
 21
-10.3242
  0
LINE
  8
0
 10
45.442
 20
-10.3242
 11
45.8264
 21
-8.99077
  0
LINE
  8
0
 10
45.8264
 20
-8.99077
 11
46.1716
 21
-7.64365
  0
LINE
  8
0
 10
46.1716
 20
-7.64365
 11
46.4771
 21
-6.28395
  0
LINE
  8
0
 10
46.4771
 20
-6.28395
 11
46.7425
 21
-4.91283
  0
LINE
  8
0
 10
46.7425
 20
-4.91283
 11
46.9674
 21
-3.53149
  0
LINE
  8
0
 10
46.9674
 20
-3.53149
 11
47.1514
 21
-2.14113
  0
LINE
  8
0
 10
47.1514
 20
-2.14113
 11
47.2942
 21
-0.74295
  0
LINE
  8
0
 10
47.2942
 20
-0.74295
 11
47.3954
 21
0.661804
  0
LINE
  8
0
 10
47.3954
 20
0.661804
 11
47.4548
 21
2.07191
  0
LINE
  8
0
 10
47.4548
 20
2.07191
 11
47.4722
 21
3.48613
  0
LINE
  8
0
 10
47.4722
 20
3.48613
 11
47.4473
 21
4.9032
  0
LINE
  8
0
 10
47.4473
 20
4.9032
 11
47.3801
 21
6.32185
  0
LINE
  8
0
 10
47.3801
 20
6.32185
 11
47.2704
 21
7.74081
  0
LINE
  8
0
 10
47.2704
 20
7.74081
 11
47.1181
 21
9.15883
  0
LINE
  8
0
 10
47.1181
 20
9.15883
 11
46.9232
 21
10.5746
  0
LINE
  8
0
 10
46.9232
 20
10.5746
 11
46.6857
 21
11.9868
  0
LINE
  8
0
 10
46.6857
 20
11.9868
 11
46.4056
 21
13.3943
  0
LINE
  8
0
 10
46.4056
 20
13.3943
 11
46.0831
 21
14.7956
  0
LINE
  8
0
 10
46.0831
 20
14.7956
 11
45.7181
 21
16.1896
  0
LINE
  8
0
 10
45.7181
 20
16.1896
 11
45.3109
 21
17.575
  0
LINE
  8
0
 10
45.3109
 20
17.575
 11
44.8617
 21
18.9503
  0
LINE
  8
0
 10
44.8617
 20
18.9503
 11
44.3707
 21
20.3145
  0
LINE
  8
0
 10
44.3707
 20
20.3145
 11
43.8382
 21
21.6662
  0
LINE
  8
0
 10
43.8382
 20
21.6662
 11
43.2644
 21
23.0041
  0
LINE
  8
0
 10
43.2644
 20
23.0041
 11
42.6498
 21
24.327
  0
LINE
  8
0
 10
42.6498
 20
24.327
 11
41.9947
 21
25.6337
  0
LINE
  8
0
 10
41.9947
 20
25.6337
 11
41.2995
 21
26.9228
  0
LINE
  8
0
 10
41.2995
 20
26.9228
 11
40.5648
 21
28.1932
  0
LINE
  8
0
 10
40.5648
 20
28.1932
 11
39.7909
 21
29.4437
  0
LINE
  8
0
 10
39.7909
 20
29.4437
 11
38.9785
 21
30.673
  0
LINE
  8
0
 10
38.9785
 20
30.673
 11
38.1281
 21
31.88
  0
LINE
  8
0
 10
38.1281
 20
31.88
 11
37.2403
 21
33.0635
  0
LINE
  8
0
 10
37.2403
 20
33.0635
 11
36.3159
 21
34.2223
  0
LINE
  8
0
 10
36.3159
 20
34.2223
 11
35.3553
 21
35.3553
  0
LINE
  8
0
 10
35.3553
 20
35.3553
 11
34.3595
 21
36.4614
  0
LINE
  8
0
 10
34.3595
 20
36.4614
 11
33.3291
 21
37.5395
  0
LINE
  8
0
 10
33.3291
 20
37.5395
 11
32.2649
 21
38.5884
  0
LINE
  8
0
 10
32.2649
 20
38.5884
 11
31.1678
 21
39.6072
  0
LINE
  8
0
 10
31.1678
 20
39.6072
 11
30.0385
 21
40.5948
  0
LINE
  8
0
 10
30.0385
 20
40.5948
 11
28.8781
 21
41.5501
  0
LINE
  8
0
 10
28.8781
 20
41.5501
 11
27.6874
 21
42.4723
  0
LINE
  8
0
 10
27.6874
 20
42.4723
 11
26.4673
 21
43.3604
  0
LINE
  8
0
 10
26.4673
 20
43.3604
 11
25.2188
 21
44.2133
  0
LINE
  8
0
 10
25.2188
 20
44.2133
 11
23.943
 21
45.0303
  0
LINE
  8
0
 10
23.943
 20
45.0303
 11
22.6409
 21
45.8105
  0
LINE
  8
0
 10
22.6409
 20
45.8105
 11
21.3136
 21
46.5529
  0
LINE
  8
0
 10
21.3136
 20
46.5529
 11
19.9621
 21
47.2568
  0
LINE
  8
0
 10
19.9621
 20
47.2568
 11
18.5875
 21
47.9214
  0
LINE
  8
0
 10
18.5875
 20
47.9214
 11
17.191
 21
48.546
  0
LINE
  8
0
 10
17.191
 20
48.546
 11
15.7739
 21
49.1299
  0
LINE
  8
0
 10
15.7739
 20
49.1299
 11
14.3372
 21
49.6723
  0
LINE
  8
0
 10
14.3372
 20
49.6723
 11
12.8821
 21
50.1726
  0
LINE
  8
0
 10
12.8821
 20
50.1726
 11
11.41
 21
50.6302
  0
LINE
  8
0
 10
11.41
 20
50.6302
 11
9.92206
 21
51.0446
  0
LINE
  8
0
 10
9.92206
 20
51.0446
 11
8.41956
 21
51.4152
  0
LINE
  8
0
 10
8.41956
 20
51.4152
 11
6.90378
 21
51.7414
  0
LINE
  8
0
 10
6.90378
 20
51.7414
 11
5.37604
 21
52.0229
  0
LINE
  8
0
 10
5.37604
 20
52.0229
 11
3.83768
 21
52.2593
  0
LINE
  8
0
 10
3.83768
 20
52.2593
 11
2.29001
 21
52.45
  0
LINE
  8
0
 10
2.29001
 20
52.45
 11
0.734406
 21
52.5949
  0
LINE
  8
0
 10
0.734406
 20
52.5949
 11
-0.827774
 21
52.6935
  0
LINE
  8
0
 10
-0.827774
 20
52.6935
 11
-2.39516
 21
52.7456
  0
LINE
  8
0
 10
-2.39516
 20
52.7456
 11
-3.96637
 21
52.7511
  0
LINE
  8
0
 10
-3.96637
 20
52.7511
 11
-5.54001
 21
52.7097
  0
LINE
  8
0
 10
-5.54001
 20
52.7097
 11
-7.11465
 21
52.6212
  0
LINE
  8
0
 10
-7.11465
 20
52.6212
 11
-8.68893
 21
52.4856
  0
LINE
  8
0
 10
-8.68893
 20
52.4856
 11
-10.2614
 21
52.3029
  0
LINE
  8
0
 10
-10.2614
 20
52.3029
 11
-11.8307
 21
52.073
  0
LINE
  8
0
 10
-11.8307
 20
52.073
 11
-13.3953
 21
51.7959
  0
LINE
  8
0
 10
-13.3953
 20
51.7959
 11
-14.9539
 21
51.4717
  0
LINE
  8
0
 10
-14.9539
 20
51.4717
 11
-16.505
 21
51.1006
  0
LINE
  8
0
 10
-16.505
 20
51.1006
 11
-18.0473
 21
50.6827
  0
LINE
  8
0
 10
-18.0473
 20
50.6827
 11
-19.5792
 21
50.2182
  0
LINE
  8
0
 10
-19.5792
 20
50.2182
 11
-21.0995
 21
49.7073
  0
LINE
  8
0
 10
-21.0995
 20
49.7073
 11
-22.6066
 21
49.1503
  0
LINE
  8
0
 10
-22.6066
 20
49.1503
 11
-24.0992
 21
48.5476
  0
LINE
  8
0
 10
-24.0992
 20
48.5476
 11
-25.5759
 21
47.8995
  0
LINE
  8
0
 10
-25.5759
 20
47.8995
 11
-27.0354
 21
47.2064
  0
LINE
  8
0
 10
-27.0354
 20
47.2064
 11
-28.4762
 21
46.4689
  0
LINE
  8
0
 10
-28.4762
 20
46.4689
 11
-29.8969
 21
45.6873
  0
LINE
  8
0
 10
-29.8969
 20
45.6873
 11
-31.2964
 21
44.8623
  0
LINE
  8
0
 10
-31.2964
 20
44.8623
 11
-32.6731
 21
43.9944
  0
LINE
  8
0
 10
-32.6731
 20
43.9944
 11
-34.0259
 21
43.0842
  0
LINE
  8
0
 10
-34.0259
 20
43.0842
 11
-35.3533
 21
42.1324
  0
LINE
  8
0
 10
-35.3533
 20
42.1324
 11
-36.6542
 21
41.1398
  0
LINE
  8
0
 10
-36.6542
 20
41.1398
 11
-37.9272
 21
40.1069
  0
LINE
  8
0
 10
-37.9272
 20
40.1069
 11
-39.1712
 21
39.0347
  0
LINE
  8
0
 10
-39.1712
 20
39.0347
 11
-40.3849
 21
37.9239
  0
LINE
  8
0
 10
-40.3849
 20
37.9239
 11
-41.567
 21
36.7754
  0
LINE
  8
0
 10
-41.567
 20
36.7754
 11
-42.7166
 21
35.5901
  0
LINE
  8
0
 10
-42.7166
 20
35.5901
 11
-43.8323
 21
34.3689
  0
LINE
  8
0
 10
-43.8323
 20
34.3689
 11
-44.9131
 21
33.1128
  0
LINE
  8
0
 10
-44.9131
 20
33.1128
 11
-45.9578
 21
31.8227
  0
LINE
  8
0
 10
-45.9578
 20
31.8227
 11
-46.9655
 21
30.4998
  0
LINE
  8
0
 10
-46.9655
 20
30.4998
 11
-47.9351
 21
29.145
  0
LINE
  8
0
 10
-47.9351
 20
29.145
 11
-48.8656
 21
27.7595
  0
LINE
  8
0
 10
-48.8656
 20
27.7595
 11
-49.756
 21
26.3444
  0
LINE
  8
0
 10
-49.756
 20
26.3444
 11
-50.6054
 21
24.9009
  0
LINE
  8
0
 10
-50.6054
 20
24.9009
 11
-51.4128
 21
23.4302
  0
LINE
  8
0
 10
-51.4128
 20
23.4302
 11
-52.1774
 21
21.9334
  0
LINE
  8
0
 10
-52.1774
 20
21.9334
 11
-52.8985
 21
20.4118
  0
LINE
  8
0
 10
-52.8985
 20
20.4118
 11
-53.575
 21
18.8667
  0
LINE
  8
0
 10
-53.575
 20
18.8667
 11
-54.2064
 21
17.2995
  0
LINE
  8
0
 10
-54.2064
 20
17.2995
 11
-54.7919
 21
15.7113
  0
LINE
  8
0
 10
-54.7919
 20
15.7113
 11
-55.3308
 21
14.1036
  0
LINE
  8
0
 10
-55.3308
 20
14.1036
 11
-55.8224
 21
12.4778
  0
LINE
  8
0
 10
-55.8224
 20
12.4778
 11
-56.2662
 21
10.8352
  0
LINE
  8
0
 10
-56.2662
 20
10.8352
 11
-56.6616
 21
9.17717
  0
LINE
  8
0
 10
-56.6616
 20
9.17717
 11
-57.0081
 21
7.50525
  0
LINE
  8
0
 10
-57.0081
 20
7.50525
 11
-57.3051
 21
5.82083
  0
LINE
  8
0
 10
-57.3051
 20
5.82083
 11
-57.5523
 21
4.1254
  0
LINE
  8
0
 10
-57.5523
 20
4.1254
 11
-57.7493
 21
2.42041
  0
LINE
  8
0
 10
-57.7493
 20
2.42041
 11
-57.8957
 21
0.707352
  0
LINE
  8
0
 10
-57.8957
 20
0.707352
 11
-57.9912
 21
-1.01224
  0
LINE
  8
0
 10
-57.9912
 20
-1.01224
 11
-58.0355
 21
-2.73688
  0
LINE
  8
0
 10
-58.0355
 20
-2.73688
 11
-58.0285
 21
-4.46504
  0
LINE
  8
0
 10
-58.0285
 20
-4.46504
 11
-57.9699
 21
-6.19519
  0
LINE
  8
0
 10
-57.9699
 20
-6.19519
 11
-57.8597
 21
-7.92578
  0
LINE
  8
0
 10
-57.8597
 20
-7.92578
 11
-57.6977
 21
-9.65527
  0
LINE
  8
0
 10
-57.6977
 20
-9.65527
 11
-57.484
 21
-11.3821
  0
LINE
  8
0
 10
-57.484
 20
-11.3821
 11
-57.2185
 21
-13.1048
  0
LINE
  8
0
 10
-57.2185
 20
-13.1048
 11
-56.9013
 21
-14.8217
  0
LINE
  8
0
 10
-56.9013
 20
-14.8217
 11
-56.5325
 21
-16.5313
  0
LINE
  8
0
 10
-56.5325
 20
-16.5313
 11
-56.1123
 21
-18.232
  0
LINE
  8
0
 10
-56.1123
 20
-18.232
 11
-55.6409
 21
-19.9223
  0
LINE
  8
0
 10
-55.6409
 20
-19.9223
 11
-55.1185
 21
-21.6007
  0
LINE
  8
0
 10
-55.1185
 20
-21.6007
 11
-54.5454
 21
-23.2656
  0
LINE
  8
0
 10
-54.5454
 20
-23.2656
 11
-53.922
 21
-24.9155
  0
LINE
  8
0
 10
-53.922
 20
-24.9155
 11
-53.2486
 21
-26.5488
  0
LINE
  8
0
 10
-53.2486
 20
-26.5488
 11
-52.5257
 21
-28.164
  0
LINE
  8
0
 10
-52.5257
 20
-28.164
 11
-51.7537
 21
-29.7597
  0
LINE
  8
0
 10
-51.7537
 20
-29.7597
 11
-50.9333
 21
-31.3344
  0
LINE
  8
0
 10
-50.9333
 20
-31.3344
 11
-50.0648
 21
-32.8865
  0
LINE
  8
0
 10
-50.0648
 20
-32.8865
 11
-49.1491
 21
-34.4146
  0
LINE
  8
0
 10
-49.1491
 20
-34.4146
 11
-48.1867
 21
-35.9173
  0
LINE
  8
0
 10
-48.1867
 20
-35.9173
 11
-47.1783
 21
-37.3931
  0
LINE
  8
0
 10
-47.1783
 20
-37.3931
 11
-46.1248
 21
-38.8407
  0
LINE
  8
0
 10
-46.1248
 20
-38.8407
 11
-45.0267
 21
-40.2586
  0
LINE
  8
0
 10
-45.0267
 20
-40.2586
 11
-43.8851
 21
-41.6454
  0
LINE
  8
0
 10
-43.8851
 20
-41.6454
 11
-42.7008
 21
-43
  0
LINE
  8
0
 10
-42.7008
 20
-43
 11
-41.4747
 21
-44.3208
  0
LINE
  8
0
 10
-41.4747
 20
-44.3208
 11
-40.2077
 21
-45.6068
  0
LINE
  8
0
 10
-40.2077
 20
-45.6068
 11
-38.901
 21
-46.8564
  0
LINE
  8
0
 10
-38.901
 20
-46.8564
 11
-37.5553
 21
-48.0686
  0
LINE
  8
0
 10
-37.5553
 20
-48.0686
 11
-36.172
 21
-49.2422
  0
LINE
  8
0
 10
-36.172
 20
-49.2422
 11
-34.752
 21
-50.3759
  0
LINE
  8
0
 10
-34.752
 20
-50.3759
 11
-33.2966
 21
-51.4687
  0
LINE
  8
0
 10
-33.2966
 20
-51.4687
 11
-31.8069
 21
-52.5194
  0
LINE
  8
0
 10
-31.8069
 20
-52.5194
 11
-30.284
 21
-53.5269
  0
LINE
  8
0
 10
-30.284
 20
-53.5269
 11
-28.7294
 21
-54.4902
  0
LINE
  8
0
 10
-28.7294
 20
-54.4902
 11
-27.1442
 21
-55.4083
  0
LINE
  8
0
 10
-27.1442
 20
-55.4083
 11
-25.5298
 21
-56.2802
  0
LINE
  8
0
 10
-25.5298
 20
-56.2802
 11
-23.8876
 21
-57.1051
  0
LINE
  8
0
 10
-23.8876
 20
-57.1051
 11
-22.2188
 21
-57.882
  0
LINE
  8
0
 10
-22.2188
 20
-57.882
 11
-20.5249
 21
-58.61
  0
LINE
  8
0
 10
-20.5249
 20
-58.61
 11
-18.8074
 21
-59.2885
  0
LINE
  8
0
 10
-18.8074
 20
-59.2885
 11
-17.0677
 21
-59.9165
  0
LINE
  8
0
 10
-17.0677
 20
-59.9165
 11
-15.3072
 21
-60.4934
  0
LINE
  8
0
 10
-15.3072
 20
-60.4934
 11
-13.5275
 21
-61.0185
  0
LINE
  8
0
 10
-13.5275
 20
-61.0185
 11
-11.7301
 21
-61.4912
  0
LINE
  8
0
 10
-11.7301
 20
-61.4912
 11
-9.9165
 21
-61.9108
  0
LINE
  8
0
 10
-9.9165
 20
-61.9108
 11
-8.08835
 21
-62.2769
  0
LINE
  8
0
 10
-8.08835
 20
-62.2769
 11
-6.24721
 21
-62.589
  0
LINE
  8
0
 10
-6.24721
 20
-62.589
 11
-4.39465
 21
-62.8465
  0
LINE
  8
0
 10
-4.39465
 20
-62.8465
 11
-2.5323
 21
-63.0492
  0
LINE
  8
0
 10
-2.5323
 20
-63.0492
 11
-0.661804
 21
-63.1965
  0
LINE
  8
0
 10
-0.661804
 20
-63.1965
 11
1.21519
 21
-63.2883
  0
LINE
  8
0
 10
1.21519
 20
-63.2883
 11
3.09706
 21
-63.3243
  0
LINE
  8
0
 10
3.09706
 20
-63.3243
 11
4.98215
 21
-63.3042
  0
LINE
  8
0
 10
4.98215
 20
-63.3042
 11
6.86874
 21
-63.228
  0
LINE
  8
0
 10
6.86874
 20
-63.228
 11
8.7552
 21
-63.0954
  0
LINE
  8
0
 10
8.7552
 20
-63.0954
 11
10.6398
 21
-62.9065
  0
LINE
  8
0
 10
10.6398
 20
-62.9065
 11
12.521
 21
-62.6613
  0
LINE
  8
0
 10
12.521
 20
-62.6613
 11
14.3969
 21
-62.3597
  0
LINE
  8
0
 10
14.3969
 20
-62.3597
 11
16.2659
 21
-62.0019
  0
LINE
  8
0
 10
16.2659
 20
-62.0019
 11
18.1263
 21
-61.588
  0
LINE
  8
0
 10
18.1263
 20
-61.588
 11
19.9765
 21
-61.1181
  0
LINE
  8
0
 10
19.9765
 20
-61.1181
 11
21.8147
 21
-60.5927
  0
LINE
  8
0
 10
21.8147
 20
-60.5927
 11
23.6393
 21
-60.0119
  0
LINE
  8
0
 10
23.6393
 20
-60.0119
 11
25.4486
 21
-59.3761
  0
LINE
  8
0
 10
25.4486
 20
-59.3761
 11
27.241
 21
-58.6857
  0
LINE
  8
0
 10
27.241
 20
-58.6857
 11
29.0148
 21
-57.9412
  0
LINE
  8
0
 10
29.0148
 20
-57.9412
 11
30.7683
 21
-57.143
  0
LINE
  8
0
 10
30.7683
 20
-57.143
 11
32.5
 21
-56.2916
  0
LINE
  8
0
 10
32.5
 20
-56.2916
 11
34.2082
 21
-55.3878
  0
LINE
  8
0
 10
34.2082
 20
-55.3878
 11
35.8913
 21
-54.4321
  0
LINE
  8
0
 10
35.8913
 20
-54.4321
 11
37.5478
 21
-53.4252
  0
LINE
  8
0
 10
37.5478
 20
-53.4252
 11
39.1761
 21
-52.3678
  0
LINE
  8
0
 10
39.1761
 20
-52.3678
 11
40.7747
 21
-51.2608
  0
LINE
  8
0
 10
40.7747
 20
-51.2608
 11
42.342
 21
-50.105
  0
LINE
  8
0
 10
42.342
 20
-50.105
 11
43.8766
 21
-48.9013
  0
LINE
  8
0
 10
43.8766
 20
-48.9013
 11
45.377
 21
-47.6505
  0
LINE
  8
0
 10
45.377
 20
-47.6505
 11
46.8417
 21
-46.3537
  0
LINE
  8
0
 10
46.8417
 20
-46.3537
 11
48.2693
 21
-45.0119
  0
LINE
  8
0
 10
48.2693
 20
-45.0119
 11
49.6586
 21
-43.6261
  0
LINE
  8
0
 10
49.6586
 20
-43.6261
 11
51.008
 21
-42.1975
  0
LINE
  8
0
 10
51.008
 20
-42.1975
 11
52.3163
 21
-40.7271
  0
LINE
  8
0
 10
52.3163
 20
-40.7271
 11
53.5822
 21
-39.2162
  0
LINE
  8
0
 10
53.5822
 20
-39.2162
 11
54.8044
 21
-37.666
  0
LINE
  8
0
 10
54.8044
 20
-37.666
 11
55.9817
 21
-36.0778
  0
LINE
  8
0
 10
55.9817
 20
-36.0778
 11
57.113
 21
-34.4528
  0
LINE
  8
0
 10
57.113
 20
-34.4528
 11
58.1971
 21
-32.7924
  0
LINE
  8
0
 10
58.1971
 20
-32.7924
 11
59.2328
 21
-31.0979
  0
LINE
  8
0
 10
59.2328
 20
-31.0979
 11
60.2192
 21
-29.3709
  0
LINE
  8
0
 10
60.2192
 20
-29.3709
 11
61.1552
 21
-27.6126
  0
LINE
  8
0
 10
61.1552
 20
-27.6126
 11
61.8357
 21
-26.6602
  0
LINE
  8
0
 10
61.8357
 20
-26.6602
 11
62.8289
 21
-26.0408
  0
LINE
  8
0
 10
62.8289
 20
-26.0408
 11
63.9836
 21
-25.8486
  0
LINE
  8
0
 10
63.9836
 20
-25.8486
 11
65.1239
 21
-26.1129
  0
LINE
  8
0
 10
65.1239
 20
-26.1129
 11
66.0763
 21
-26.7935
  0
LINE
  8
0
 10
66.0763
 20
-26.7935
 11
66.6957
 21
-27.7867
  0
LINE
  8
0
 10
66.6957
 20
-27.7867
 11
66.8879
 21
-28.9414
  0
LINE
  8
0
 10
66.8879
 20
-28.9414
 11
66.6236
 21
-30.0817
  0
LINE
  8
0
 10
66.6236
 20
-30.0817
 11
65.612
 21
-32.0011
  0
LINE
  8
0
 10
65.612
 20
-32.0011
 11
64.5452
 21
-33.887
  0
LINE
  8
0
 10
64.5452
 20
-33.887
 11
63.4244
 21
-35.7378
  0
LINE
  8
0
 10
63.4244
 20
-35.7378
 11
62.2506
 21
-37.552
  0
LINE
  8
0
 10
62.2506
 20
-37.552
 11
61.0251
 21
-39.328
  0
LINE
  8
0
 10
61.0251
 20
-39.328
 11
59.7491
 21
-41.0644
  0
LINE
  8
0
 10
59.7491
 20
-41.0644
 11
58.4239
 21
-42.7598
  0
LINE
  8
0
 10
58.4239
 20
-42.7598
 11
57.0508
 21
-44.4128
  0
LINE
  8
0
 10
57.0508
 20
-44.4128
 11
55.631
 21
-46.022
  0
LINE
  8
0
 10
55.631
 20
-46.022
 11
54.1661
 21
-47.5861
  0
LINE
  8
0
 10
54.1661
 20
-47.5861
 11
52.6575
 21
-49.1039
  0
LINE
  8
0
 10
52.6575
 20
-49.1039
 11
51.1065
 21
-50.5741
  0
LINE
  8
0
 10
51.1065
 20
-50.5741
 11
49.5147
 21
-51.9955
  0
LINE
  8
0
 10
49.5147
 20
-51.9955
 11
47.8836
 21
-53.3671
  0
LINE
  8
0
 10
47.8836
 20
-53.3671
 11
46.2148
 21
-54.6878
  0
LINE
  8
0
 10
46.2148
 20
-54.6878
 11
44.5098
 21
-55.9565
  0
LINE
  8
0
 10
44.5098
 20
-55.9565
 11
42.7703
 21
-57.1722
  0
LINE
  8
0
 10
42.7703
 20
-57.1722
 11
40.9979
 21
-58.3341
  0
LINE
  8
0
 10
40.9979
 20
-58.3341
 11
39.1942
 21
-59.4412
  0
LINE
  8
0
 10
39.1942
 20
-59.4412
 11
37.361
 21
-60.4927
  0
LINE
  8
0
 10
37.361
 20
-60.4927
 11
35.5
 21
-61.4878
  0
LINE
  8
0
 10
35.5
 20
-61.4878
 11
33.6129
 21
-62.4258
  0
LINE
  8
0
 10
33.6129
 20
-62.4258
 11
31.7013
 21
-63.3061
  0
LINE
  8
0
 10
31.7013
 20
-63.3061
 11
29.7672
 21
-64.128
  0
LINE
  8
0
 10
29.7672
 20
-64.128
 11
27.8123
 21
-64.8909
  0
LINE
  8
0
 10
27.8123
 20
-64.8909
 11
25.8383
 21
-65.5944
  0
LINE
  8
0
 10
25.8383
 20
-65.5944
 11
23.8471
 21
-66.238
  0
LINE
  8
0
 10
23.8471
 20
-66.238
 11
21.8405
 21
-66.8212
  0
LINE
  8
0
 10
21.8405
 20
-66.8212
 11
19.8204
 21
-67.3438
  0
LINE
  8
0
 10
19.8204
 20
-67.3438
 11
17.7884
 21
-67.8055
  0
LINE
  8
0
 10
17.7884
 20
-67.8055
 11
15.7466
 21
-68.2059
  0
LINE
  8
0
 10
15.7466
 20
-68.2059
 11
13.6966
 21
-68.545
  0
LINE
  8
0
 10
13.6966
 20
-68.545
 11
11.6405
 21
-68.8225
  0
LINE
  8
0
 10
11.6405
 20
-68.8225
 11
9.57988
 21
-69.0385
  0
LINE
  8
0
 10
9.57988
 20
-69.0385
 11
7.51675
 21
-69.1929
  0
LINE
  8
0
 10
7.51675
 20
-69.1929
 11
5.4529
 21
-69.2858
  0
LINE
  8
0
 10
5.4529
 20
-69.2858
 11
3.39017
 21
-69.3171
  0
LINE
  8
0
 10
3.39017
 20
-69.3171
 11
1.33037
 21
-69.2872
  0
ENDSEC
  0
SECTION
  2
OBJECTS
  0
DICTIONARY
  0
ENDSEC
  0
EOF
