  0
SECTION
  2
BLOCKS
  0
ENDSEC
  0
SECTION
  2
ENTITIES
  0
LINE
  8
0
 10
20.5853
 20
-2.94235
 11
21.1481
 21
-2.77164
  0
LINE
  8
0
 10
21.1481
 20
-2.77164
 11
21.6667
 21
-2.49442
  0
LINE
  8
0
 10
21.6667
 20
-2.49442
 11
22.1213
 21
-2.12132
  0
LINE
  8
0
 10
22.1213
 20
-2.12132
 11
22.4944
 21
-1.66672
  0
LINE
  8
0
 10
22.4944
 20
-1.66672
 11
22.7716
 21
-1.14806
  0
LINE
  8
0
 10
22.7716
 20
-1.14806
 11
22.9424
 21
-0.585266
  0
LINE
  8
0
 10
22.9424
 20
-0.585266
 11
23
 21
0
  0
LINE
  8
0
 10
23
 20
0
 11
23
 21
10
  0
LINE
  8
0
 10
23
 20
10
 11
22.9424
 21
10.5853
  0
LINE
  8
0
 10
22.9424
 20
10.5853
 11
22.7716
 21
11.1481
  0
LINE
  8
0
 10
22.7716
 20
11.1481
 11
22.4944
 21
11.6667
  0
LINE
  8
0
 10
22.4944
 20
11.6667
 11
22.1213
 21
12.1213
  0
LINE
  8
0
 10
22.1213
 20
12.1213
 11
21.6667
 21
12.4944
  0
LINE
  8
0
 10
21.6667
 20
12.4944
 11
21.1481
 21
12.7716
  0
LINE
  8
0
 10
21.1481
 20
12.7716
 11
20.5853
 21
12.9424
  0
LINE
  8
0
 10
20.5853
 20
12.9424
 11
20
 21
13
  0
LINE
  8
0
 10
20
 20
13
 11
0
 21
13
  0
LINE
  8
0
 10
0
 20
13
 11
-0.585266
 21
12.9424
  0
LINE
  8
0
 10
-0.585266
 20
12.9424
 11
-1.14806
 21
12.7716
  0
LINE
  8
0
 10
-1.14806
 20
12.7716
 11
-1.66672
 21
12.4944
  0
LINE
  8
0
 10
-1.66672
 20
12.4944
 11
-2.12132
 21
12.1213
  0
LINE
  8
0
 10
-2.12132
 20
12.1213
 11
-2.49442
 21
11.6667
  0
LINE
  8
0
 10
-2.49442
 20
11.6667
 11
-2.77164
 21
11.1481
  0
LINE
  8
0
 10
-2.77164
 20
11.1481
 11
-2.94235
 21
10.5853
  0
LINE
  8
0
 10
-2.94235
 20
10.5853
 11
-3
 21
10
  0
LINE
  8
0
 10
-3
 20
10
 11
-3
 21
0
  0
LINE
  8
0
 10
-3
 20
0
 11
-2.94235
 21
-0.585266
  0
LINE
  8
0
 10
-2.94235
 20
-0.585266
 11
-2.77164
 21
-1.14806
  0
LINE
  8
0
 10
-2.77164
 20
-1.14806
 11
-2.49442
 21
-1.66672
  0
LINE
  8
0
 10
-2.49442
 20
-1.66672
 11
-2.12132
 21
-2.12132
  0
LINE
  8
0
 10
-2.12132
 20
-2.12132
 11
-1.66672
 21
-2.49442
  0
LINE
  8
0
 10
-1.66672
 20
-2.49442
 11
-1.14806
 21
-2.77164
  0
LINE
  8
0
 10
-1.14806
 20
-2.77164
 11
-0.585266
 21
-2.94235
  0
LINE
  8
0
 10
-0.585266
 20
-2.94235
 11
0
 21
-3
  0
LINE
  8
0
 10
0
 20
-3
 11
20
 21
-3
  0
LINE
  8
0
 10
20
 20
-3
 11
20.5853
 21
-2.94235
  0
LINE
  8
0
 10
0
 20
0
 11
3
 21
10
  0
LINE
  8
0
 10
3
 20
10
 11
10
 21
5
  0
LINE
  8
0
 10
10
 20
5
 11
16
 21
8
  0
LINE
  8
0
 10
16
 20
8
 11
20
 21
0
  0
LINE
  8
0
 10
20
 20
0
 11
0
 21
0
  0
ENDSEC
  0
SECTION
  2
OBJECTS
  0
DICTIONARY
  0
ENDSEC
  0
EOF
