  0
SECTION
  2
BLOCKS
  0
ENDSEC
  0
SECTION
  2
ENTITIES
  0
LINE
  8
0
 10
20.5853
 20
-2.94235
 11
21.1481
 21
-2.77164
  0
LINE
  8
0
 10
21.1481
 20
-2.77164
 11
21.6667
 21
-2.49442
  0
LINE
  8
0
 10
21.6667
 20
-2.49442
 11
22.1213
 21
-2.12132
  0
LINE
  8
0
 10
22.1213
 20
-2.12132
 11
22.4944
 21
-1.66672
  0
LINE
  8
0
 10
22.4944
 20
-1.66672
 11
22.7716
 21
-1.14806
  0
LINE
  8
0
 10
22.7716
 20
-1.14806
 11
22.9424
 21
-0.585266
  0
LINE
  8
0
 10
22.9424
 20
-0.585266
 11
23
 21
0
  0
LINE
  8
0
 10
23
 20
0
 11
23
 21
10
  0
LINE
  8
0
 10
23
 20
10
 11
22.9424
 21
10.5853
  0
LINE
  8
0
 10
22.9424
 20
10.5853
 11
22.7716
 21
11.1481
  0
LINE
  8
0
 10
22.7716
 20
11.1481
 11
22.4944
 21
11.6667
  0
LINE
  8
0
 10
22.4944
 20
11.6667
 11
22.1213
 21
12.1213
  0
LINE
  8
0
 10
22.1213
 20
12.1213
 11
21.6667
 21
12.4944
  0
LINE
  8
0
 10
21.6667
 20
12.4944
 11
21.1481
 21
12.7716
  0
LINE
  8
0
 10
21.1481
 20
12.7716
 11
20.5853
 21
12.9424
  0
LINE
  8
0
 10
20.5853
 20
12.9424
 11
20
 21
13
  0
LINE
  8
0
 10
20
 20
13
 11
0
 21
13
  0
LINE
  8
0
 10
0
 20
13
 11
-0.585266
 21
12.9424
  0
LINE
  8
0
 10
-0.585266
 20
12.9424
 11
-1.14806
 21
12.7716
  0
LINE
  8
0
 10
-1.14806
 20
12.7716
 11
-1.66672
 21
12.4944
  0
LINE
  8
0
 10
-1.66672
 20
12.4944
 11
-2.12132
 21
12.1213
  0
LINE
  8
0
 10
-2.12132
 20
12.1213
 11
-2.49442
 21
11.6667
  0
LINE
  8
0
 10
-2.49442
 20
11.6667
 11
-2.77164
 21
11.1481
  0
LINE
  8
0
 10
-2.77164
 20
11.1481
 11
-2.94235
 21
10.5853
  0
LINE
  8
0
 10
-2.94235
 20
10.5853
 11
-3
 21
10
  0
LINE
  8
0
 10
-3
 20
10
 11
-3
 21
0
  0
LINE
  8
0
 10
-3
 20
0
 11
-2.94235
 21
-0.585266
  0
LINE
  8
0
 10
-2.94235
 20
-0.585266
 11
-2.77164
 21
-1.14806
  0
LINE
  8
0
 10
-2.77164
 20
-1.14806
 11
-2.49442
 21
-1.66672
  0
LINE
  8
0
 10
-2.49442
 20
-1.66672
 11
-2.12132
 21
-2.12132
  0
LINE
  8
0
 10
-2.12132
 20
-2.12132
 11
-1.66672
 21
-2.49442
  0
LINE
  8
0
 10
-1.66672
 20
-2.49442
 11
-1.14806
 21
-2.77164
  0
LINE
  8
0
 10
-1.14806
 20
-2.77164
 11
-0.585266
 21
-2.94235
  0
LINE
  8
0
 10
-0.585266
 20
-2.94235
 11
0
 21
-3
  0
LINE
  8
0
 10
0
 20
-3
 11
20
 21
-3
  0
LINE
  8
0
 10
20
 20
-3
 11
20.5853
 21
-2.94235
  0
LINE
  8
0
 10
2.83408
 20
0
 11
2.07159
 21
0.111908
  0
LINE
  8
0
 10
2.07159
 20
0.111908
 11
1.75517
 21
0.241837
  0
LINE
  8
0
 10
1.75517
 20
0.241837
 11
1.43015
 21
0.457581
  0
LINE
  8
0
 10
1.43015
 20
0.457581
 11
1.1534
 21
0.732635
  0
LINE
  8
0
 10
1.1534
 20
0.732635
 11
0.935638
 21
1.05638
  0
LINE
  8
0
 10
0.935638
 20
1.05638
 11
0.785217
 21
1.41641
  0
LINE
  8
0
 10
0.785217
 20
1.41641
 11
0.707916
 21
1.7989
  0
LINE
  8
0
 10
0.707916
 20
1.7989
 11
0.706711
 21
2.189
  0
LINE
  8
0
 10
0.706711
 20
2.189
 11
0.800629
 21
2.66882
  0
LINE
  8
0
 10
0.800629
 20
2.66882
 11
2.17761
 21
7.25873
  0
LINE
  8
0
 10
2.17761
 20
7.25873
 11
2.28215
 21
7.53844
  0
LINE
  8
0
 10
2.28215
 20
7.53844
 11
2.49275
 21
7.9045
  0
LINE
  8
0
 10
2.49275
 20
7.9045
 11
2.74959
 21
8.19827
  0
LINE
  8
0
 10
2.74959
 20
8.19827
 11
3.0587
 21
8.4362
  0
LINE
  8
0
 10
3.0587
 20
8.4362
 11
3.40845
 21
8.60934
  0
LINE
  8
0
 10
3.40845
 20
8.60934
 11
3.78514
 21
8.71089
  0
LINE
  8
0
 10
3.78514
 20
8.71089
 11
4.17438
 21
8.737
  0
LINE
  8
0
 10
4.17438
 20
8.737
 11
4.5614
 21
8.68665
  0
LINE
  8
0
 10
4.5614
 20
8.68665
 11
4.93102
 21
8.56181
  0
LINE
  8
0
 10
4.93102
 20
8.56181
 11
5.35471
 21
8.31805
  0
LINE
  8
0
 10
5.35471
 20
8.31805
 11
9.02013
 21
5.69989
  0
LINE
  8
0
 10
9.02013
 20
5.69989
 11
9.19214
 21
5.58984
  0
LINE
  8
0
 10
9.19214
 20
5.58984
 11
9.55016
 21
5.42999
  0
LINE
  8
0
 10
9.55016
 20
5.42999
 11
9.93246
 21
5.34306
  0
LINE
  8
0
 10
9.93246
 20
5.34306
 11
10.3244
 21
5.3324
  0
LINE
  8
0
 10
10.3244
 20
5.3324
 11
10.7109
 21
5.39839
  0
LINE
  8
0
 10
10.7109
 20
5.39839
 11
11.077
 21
5.53851
  0
LINE
  8
0
 10
11.077
 20
5.53851
 11
14.1233
 21
7.06165
  0
LINE
  8
0
 10
14.1233
 20
7.06165
 11
14.5798
 21
7.23637
  0
LINE
  8
0
 10
14.5798
 20
7.23637
 11
14.9645
 21
7.30205
  0
LINE
  8
0
 10
14.9645
 20
7.30205
 11
15.3545
 21
7.29143
  0
LINE
  8
0
 10
15.3545
 20
7.29143
 11
15.735
 21
7.20491
  0
LINE
  8
0
 10
15.735
 20
7.20491
 11
16.0912
 21
7.04585
  0
LINE
  8
0
 10
16.0912
 20
7.04585
 11
16.4097
 21
6.82031
  0
LINE
  8
0
 10
16.4097
 20
6.82031
 11
16.6779
 21
6.53705
  0
LINE
  8
0
 10
16.6779
 20
6.53705
 11
16.9384
 21
6.12318
  0
LINE
  8
0
 10
16.9384
 20
6.12318
 11
18.4929
 21
3.01421
  0
LINE
  8
0
 10
18.4929
 20
3.01421
 11
18.7195
 21
2.3526
  0
LINE
  8
0
 10
18.7195
 20
2.3526
 11
18.7543
 21
2
  0
LINE
  8
0
 10
18.7543
 20
2
 11
18.716
 21
1.61174
  0
LINE
  8
0
 10
18.716
 20
1.61174
 11
18.6028
 21
1.23833
  0
LINE
  8
0
 10
18.6028
 20
1.23833
 11
18.4188
 21
0.894211
  0
LINE
  8
0
 10
18.4188
 20
0.894211
 11
18.1713
 21
0.592621
  0
LINE
  8
0
 10
18.1713
 20
0.592621
 11
17.8697
 21
0.345123
  0
LINE
  8
0
 10
17.8697
 20
0.345123
 11
17.5256
 21
0.161194
  0
LINE
  8
0
 10
17.5256
 20
0.161194
 11
17.1522
 21
0.0479126
  0
LINE
  8
0
 10
17.1522
 20
0.0479126
 11
16.6657
 21
0
  0
LINE
  8
0
 10
16.6657
 20
0
 11
2.83408
 21
0
  0
ENDSEC
  0
SECTION
  2
OBJECTS
  0
DICTIONARY
  0
ENDSEC
  0
EOF
