  0
SECTION
  2
BLOCKS
  0
ENDSEC
  0
SECTION
  2
ENTITIES
  0
LINE
  8
0
 10
90
 20
50
 11
0
 21
50
  0
LINE
  8
0
 10
0
 20
50
 11
0
 21
0
  0
LINE
  8
0
 10
0
 20
0
 11
90
 21
0
  0
LINE
  8
0
 10
90
 20
0
 11
90
 21
50
  0
LINE
  8
0
 10
5
 20
5
 11
5
 21
45
  0
LINE
  8
0
 10
5
 20
45
 11
41.0127
 21
45
  0
LINE
  8
0
 10
41.0127
 20
45
 11
41.2149
 21
44.5225
  0
LINE
  8
0
 10
41.2149
 20
44.5225
 11
41.4984
 21
43.9255
  0
LINE
  8
0
 10
41.4984
 20
43.9255
 11
41.8112
 21
43.3322
  0
LINE
  8
0
 10
41.8112
 20
43.3322
 11
42.153
 21
42.7429
  0
LINE
  8
0
 10
42.153
 20
42.7429
 11
42.5236
 21
42.1579
  0
LINE
  8
0
 10
42.5236
 20
42.1579
 11
42.9228
 21
41.5777
  0
LINE
  8
0
 10
42.9228
 20
41.5777
 11
43.3504
 21
41.0026
  0
LINE
  8
0
 10
43.3504
 20
41.0026
 11
43.806
 21
40.4329
  0
LINE
  8
0
 10
43.806
 20
40.4329
 11
44.2895
 21
39.869
  0
LINE
  8
0
 10
44.2895
 20
39.869
 11
44.8005
 21
39.3111
  0
LINE
  8
0
 10
44.8005
 20
39.3111
 11
45.3388
 21
38.7597
  0
LINE
  8
0
 10
45.3388
 20
38.7597
 11
45.9039
 21
38.2151
  0
LINE
  8
0
 10
45.9039
 20
38.2151
 11
46.4956
 21
37.6775
  0
LINE
  8
0
 10
46.4956
 20
37.6775
 11
47.1136
 21
37.1474
  0
LINE
  8
0
 10
47.1136
 20
37.1474
 11
47.7573
 21
36.625
  0
LINE
  8
0
 10
47.7573
 20
36.625
 11
48.4265
 21
36.1107
  0
LINE
  8
0
 10
48.4265
 20
36.1107
 11
49.1208
 21
35.6048
  0
LINE
  8
0
 10
49.1208
 20
35.6048
 11
49.8396
 21
35.1075
  0
LINE
  8
0
 10
49.8396
 20
35.1075
 11
50.5827
 21
34.6192
  0
LINE
  8
0
 10
50.5827
 20
34.6192
 11
51.3495
 21
34.1402
  0
LINE
  8
0
 10
51.3495
 20
34.1402
 11
52.1396
 21
33.6707
  0
LINE
  8
0
 10
52.1396
 20
33.6707
 11
52.9524
 21
33.211
  0
LINE
  8
0
 10
52.9524
 20
33.211
 11
53.7876
 21
32.7615
  0
LINE
  8
0
 10
53.7876
 20
32.7615
 11
54.6447
 21
32.3223
  0
LINE
  8
0
 10
54.6447
 20
32.3223
 11
55.523
 21
31.8938
  0
LINE
  8
0
 10
55.523
 20
31.8938
 11
56.422
 21
31.4762
  0
LINE
  8
0
 10
56.422
 20
31.4762
 11
57.3414
 21
31.0698
  0
LINE
  8
0
 10
57.3414
 20
31.0698
 11
58.2803
 21
30.6747
  0
LINE
  8
0
 10
58.2803
 20
30.6747
 11
59.2384
 21
30.2913
  0
LINE
  8
0
 10
59.2384
 20
30.2913
 11
60.215
 21
29.9198
  0
LINE
  8
0
 10
60.215
 20
29.9198
 11
61.2096
 21
29.5604
  0
LINE
  8
0
 10
61.2096
 20
29.5604
 11
62.2215
 21
29.2133
  0
LINE
  8
0
 10
62.2215
 20
29.2133
 11
63.2501
 21
28.8786
  0
LINE
  8
0
 10
63.2501
 20
28.8786
 11
64.2949
 21
28.5568
  0
LINE
  8
0
 10
64.2949
 20
28.5568
 11
65.3551
 21
28.2478
  0
LINE
  8
0
 10
65.3551
 20
28.2478
 11
66.4302
 21
27.952
  0
LINE
  8
0
 10
66.4302
 20
27.952
 11
67.5194
 21
27.6694
  0
LINE
  8
0
 10
67.5194
 20
27.6694
 11
68.6222
 21
27.4003
  0
LINE
  8
0
 10
68.6222
 20
27.4003
 11
69.7379
 21
27.1447
  0
LINE
  8
0
 10
69.7379
 20
27.1447
 11
70.8658
 21
26.903
  0
LINE
  8
0
 10
70.8658
 20
26.903
 11
72.0052
 21
26.6752
  0
LINE
  8
0
 10
72.0052
 20
26.6752
 11
73.1555
 21
26.4614
  0
LINE
  8
0
 10
73.1555
 20
26.4614
 11
74.3159
 21
26.2618
  0
LINE
  8
0
 10
74.3159
 20
26.2618
 11
75.4858
 21
26.0765
  0
LINE
  8
0
 10
75.4858
 20
26.0765
 11
76.6644
 21
25.9056
  0
LINE
  8
0
 10
76.6644
 20
25.9056
 11
77.851
 21
25.7492
  0
LINE
  8
0
 10
77.851
 20
25.7492
 11
79.0449
 21
25.6074
  0
LINE
  8
0
 10
79.0449
 20
25.6074
 11
80.2455
 21
25.4804
  0
LINE
  8
0
 10
80.2455
 20
25.4804
 11
81.4519
 21
25.3681
  0
LINE
  8
0
 10
81.4519
 20
25.3681
 11
82.6635
 21
25.2706
  0
LINE
  8
0
 10
82.6635
 20
25.2706
 11
83.8795
 21
25.188
  0
LINE
  8
0
 10
83.8795
 20
25.188
 11
85
 21
25.1259
  0
LINE
  8
0
 10
85
 20
25.1259
 11
85
 21
5
  0
LINE
  8
0
 10
85
 20
5
 11
5
 21
5
  0
LINE
  8
0
 10
25.1718
 20
18.0021
 11
25.3435
 21
18.0084
  0
LINE
  8
0
 10
25.3435
 20
18.0084
 11
25.5149
 21
18.019
  0
LINE
  8
0
 10
25.5149
 20
18.019
 11
25.6861
 21
18.0337
  0
LINE
  8
0
 10
25.6861
 20
18.0337
 11
25.8569
 21
18.0526
  0
LINE
  8
0
 10
25.8569
 20
18.0526
 11
26.0271
 21
18.0758
  0
LINE
  8
0
 10
26.0271
 20
18.0758
 11
26.1967
 21
18.103
  0
LINE
  8
0
 10
26.1967
 20
18.103
 11
26.3656
 21
18.1345
  0
LINE
  8
0
 10
26.3656
 20
18.1345
 11
26.5337
 21
18.1701
  0
LINE
  8
0
 10
26.5337
 20
18.1701
 11
26.7009
 21
18.2098
  0
LINE
  8
0
 10
26.7009
 20
18.2098
 11
26.867
 21
18.2536
  0
LINE
  8
0
 10
26.867
 20
18.2536
 11
27.032
 21
18.3014
  0
LINE
  8
0
 10
27.032
 20
18.3014
 11
27.1958
 21
18.3533
  0
LINE
  8
0
 10
27.1958
 20
18.3533
 11
27.3582
 21
18.4092
  0
LINE
  8
0
 10
27.3582
 20
18.4092
 11
27.5193
 21
18.469
  0
LINE
  8
0
 10
27.5193
 20
18.469
 11
27.6788
 21
18.5328
  0
LINE
  8
0
 10
27.6788
 20
18.5328
 11
27.8367
 21
18.6005
  0
LINE
  8
0
 10
27.8367
 20
18.6005
 11
27.9929
 21
18.6721
  0
LINE
  8
0
 10
27.9929
 20
18.6721
 11
28.1473
 21
18.7474
  0
LINE
  8
0
 10
28.1473
 20
18.7474
 11
28.2998
 21
18.8265
  0
LINE
  8
0
 10
28.2998
 20
18.8265
 11
28.4503
 21
18.9094
  0
LINE
  8
0
 10
28.4503
 20
18.9094
 11
28.5987
 21
18.9959
  0
LINE
  8
0
 10
28.5987
 20
18.9959
 11
28.745
 21
19.086
  0
LINE
  8
0
 10
28.745
 20
19.086
 11
28.889
 21
19.1797
  0
LINE
  8
0
 10
28.889
 20
19.1797
 11
29.0307
 21
19.2769
  0
LINE
  8
0
 10
29.0307
 20
19.2769
 11
29.1699
 21
19.3775
  0
LINE
  8
0
 10
29.1699
 20
19.3775
 11
29.3066
 21
19.4816
  0
LINE
  8
0
 10
29.3066
 20
19.4816
 11
29.4408
 21
19.5889
  0
LINE
  8
0
 10
29.4408
 20
19.5889
 11
29.5722
 21
19.6995
  0
LINE
  8
0
 10
29.5722
 20
19.6995
 11
29.7009
 21
19.8133
  0
LINE
  8
0
 10
29.7009
 20
19.8133
 11
29.8268
 21
19.9303
  0
LINE
  8
0
 10
29.8268
 20
19.9303
 11
29.9497
 21
20.0502
  0
LINE
  8
0
 10
29.9497
 20
20.0502
 11
30.0697
 21
20.1732
  0
LINE
  8
0
 10
30.0697
 20
20.1732
 11
30.1866
 21
20.2991
  0
LINE
  8
0
 10
30.1866
 20
20.2991
 11
30.3005
 21
20.4278
  0
LINE
  8
0
 10
30.3005
 20
20.4278
 11
30.4111
 21
20.5592
  0
LINE
  8
0
 10
30.4111
 20
20.5592
 11
30.5184
 21
20.6934
  0
LINE
  8
0
 10
30.5184
 20
20.6934
 11
30.6225
 21
20.8301
  0
LINE
  8
0
 10
30.6225
 20
20.8301
 11
30.7231
 21
20.9693
  0
LINE
  8
0
 10
30.7231
 20
20.9693
 11
30.8203
 21
21.111
  0
LINE
  8
0
 10
30.8203
 20
21.111
 11
30.914
 21
21.255
  0
LINE
  8
0
 10
30.914
 20
21.255
 11
31.0041
 21
21.4013
  0
LINE
  8
0
 10
31.0041
 20
21.4013
 11
31.0906
 21
21.5497
  0
LINE
  8
0
 10
31.0906
 20
21.5497
 11
31.1734
 21
21.7002
  0
LINE
  8
0
 10
31.1734
 20
21.7002
 11
31.2526
 21
21.8527
  0
LINE
  8
0
 10
31.2526
 20
21.8527
 11
31.3279
 21
22.0071
  0
LINE
  8
0
 10
31.3279
 20
22.0071
 11
31.3995
 21
22.1633
  0
LINE
  8
0
 10
31.3995
 20
22.1633
 11
31.4671
 21
22.3212
  0
LINE
  8
0
 10
31.4671
 20
22.3212
 11
31.5309
 21
22.4807
  0
LINE
  8
0
 10
31.5309
 20
22.4807
 11
31.5908
 21
22.6418
  0
LINE
  8
0
 10
31.5908
 20
22.6418
 11
31.6467
 21
22.8042
  0
LINE
  8
0
 10
31.6467
 20
22.8042
 11
31.6986
 21
22.968
  0
LINE
  8
0
 10
31.6986
 20
22.968
 11
31.7464
 21
23.133
  0
LINE
  8
0
 10
31.7464
 20
23.133
 11
31.7902
 21
23.2991
  0
LINE
  8
0
 10
31.7902
 20
23.2991
 11
31.8299
 21
23.4663
  0
LINE
  8
0
 10
31.8299
 20
23.4663
 11
31.8655
 21
23.6344
  0
LINE
  8
0
 10
31.8655
 20
23.6344
 11
31.8969
 21
23.8033
  0
LINE
  8
0
 10
31.8969
 20
23.8033
 11
31.9242
 21
23.9729
  0
LINE
  8
0
 10
31.9242
 20
23.9729
 11
31.9473
 21
24.1431
  0
LINE
  8
0
 10
31.9473
 20
24.1431
 11
31.9663
 21
24.3139
  0
LINE
  8
0
 10
31.9663
 20
24.3139
 11
31.981
 21
24.485
  0
LINE
  8
0
 10
31.981
 20
24.485
 11
31.9916
 21
24.6565
  0
LINE
  8
0
 10
31.9916
 20
24.6565
 11
31.9979
 21
24.8282
  0
LINE
  8
0
 10
31.9979
 20
24.8282
 11
32
 21
25
  0
LINE
  8
0
 10
32
 20
25
 11
31.9979
 21
25.1718
  0
LINE
  8
0
 10
31.9979
 20
25.1718
 11
31.9916
 21
25.3435
  0
LINE
  8
0
 10
31.9916
 20
25.3435
 11
31.981
 21
25.5149
  0
LINE
  8
0
 10
31.981
 20
25.5149
 11
31.9663
 21
25.6861
  0
LINE
  8
0
 10
31.9663
 20
25.6861
 11
31.9473
 21
25.8569
  0
LINE
  8
0
 10
31.9473
 20
25.8569
 11
31.9242
 21
26.0271
  0
LINE
  8
0
 10
31.9242
 20
26.0271
 11
31.8969
 21
26.1967
  0
LINE
  8
0
 10
31.8969
 20
26.1967
 11
31.8655
 21
26.3656
  0
LINE
  8
0
 10
31.8655
 20
26.3656
 11
31.8299
 21
26.5337
  0
LINE
  8
0
 10
31.8299
 20
26.5337
 11
31.7902
 21
26.7009
  0
LINE
  8
0
 10
31.7902
 20
26.7009
 11
31.7464
 21
26.867
  0
LINE
  8
0
 10
31.7464
 20
26.867
 11
31.6986
 21
27.032
  0
LINE
  8
0
 10
31.6986
 20
27.032
 11
31.6467
 21
27.1958
  0
LINE
  8
0
 10
31.6467
 20
27.1958
 11
31.5908
 21
27.3582
  0
LINE
  8
0
 10
31.5908
 20
27.3582
 11
31.5309
 21
27.5193
  0
LINE
  8
0
 10
31.5309
 20
27.5193
 11
31.4671
 21
27.6788
  0
LINE
  8
0
 10
31.4671
 20
27.6788
 11
31.3995
 21
27.8367
  0
LINE
  8
0
 10
31.3995
 20
27.8367
 11
31.3279
 21
27.9929
  0
LINE
  8
0
 10
31.3279
 20
27.9929
 11
31.2526
 21
28.1473
  0
LINE
  8
0
 10
31.2526
 20
28.1473
 11
31.1734
 21
28.2998
  0
LINE
  8
0
 10
31.1734
 20
28.2998
 11
31.0906
 21
28.4503
  0
LINE
  8
0
 10
31.0906
 20
28.4503
 11
31.0041
 21
28.5987
  0
LINE
  8
0
 10
31.0041
 20
28.5987
 11
30.914
 21
28.745
  0
LINE
  8
0
 10
30.914
 20
28.745
 11
30.8203
 21
28.889
  0
LINE
  8
0
 10
30.8203
 20
28.889
 11
30.7231
 21
29.0307
  0
LINE
  8
0
 10
30.7231
 20
29.0307
 11
30.6225
 21
29.1699
  0
LINE
  8
0
 10
30.6225
 20
29.1699
 11
30.5184
 21
29.3066
  0
LINE
  8
0
 10
30.5184
 20
29.3066
 11
30.4111
 21
29.4408
  0
LINE
  8
0
 10
30.4111
 20
29.4408
 11
30.3005
 21
29.5722
  0
LINE
  8
0
 10
30.3005
 20
29.5722
 11
30.1866
 21
29.7009
  0
LINE
  8
0
 10
30.1866
 20
29.7009
 11
30.0697
 21
29.8268
  0
LINE
  8
0
 10
30.0697
 20
29.8268
 11
29.9497
 21
29.9497
  0
LINE
  8
0
 10
29.9497
 20
29.9497
 11
29.8268
 21
30.0697
  0
LINE
  8
0
 10
29.8268
 20
30.0697
 11
29.7009
 21
30.1866
  0
LINE
  8
0
 10
29.7009
 20
30.1866
 11
29.5722
 21
30.3005
  0
LINE
  8
0
 10
29.5722
 20
30.3005
 11
29.4408
 21
30.4111
  0
LINE
  8
0
 10
29.4408
 20
30.4111
 11
29.3066
 21
30.5184
  0
LINE
  8
0
 10
29.3066
 20
30.5184
 11
29.1699
 21
30.6225
  0
LINE
  8
0
 10
29.1699
 20
30.6225
 11
29.0307
 21
30.7231
  0
LINE
  8
0
 10
29.0307
 20
30.7231
 11
28.889
 21
30.8203
  0
LINE
  8
0
 10
28.889
 20
30.8203
 11
28.745
 21
30.914
  0
LINE
  8
0
 10
28.745
 20
30.914
 11
28.5987
 21
31.0041
  0
LINE
  8
0
 10
28.5987
 20
31.0041
 11
28.4503
 21
31.0906
  0
LINE
  8
0
 10
28.4503
 20
31.0906
 11
28.2998
 21
31.1734
  0
LINE
  8
0
 10
28.2998
 20
31.1734
 11
28.1473
 21
31.2526
  0
LINE
  8
0
 10
28.1473
 20
31.2526
 11
27.9929
 21
31.3279
  0
LINE
  8
0
 10
27.9929
 20
31.3279
 11
27.8367
 21
31.3995
  0
LINE
  8
0
 10
27.8367
 20
31.3995
 11
27.6788
 21
31.4671
  0
LINE
  8
0
 10
27.6788
 20
31.4671
 11
27.5193
 21
31.5309
  0
LINE
  8
0
 10
27.5193
 20
31.5309
 11
27.3582
 21
31.5908
  0
LINE
  8
0
 10
27.3582
 20
31.5908
 11
27.1958
 21
31.6467
  0
LINE
  8
0
 10
27.1958
 20
31.6467
 11
27.032
 21
31.6986
  0
LINE
  8
0
 10
27.032
 20
31.6986
 11
26.867
 21
31.7464
  0
LINE
  8
0
 10
26.867
 20
31.7464
 11
26.7009
 21
31.7902
  0
LINE
  8
0
 10
26.7009
 20
31.7902
 11
26.5337
 21
31.8299
  0
LINE
  8
0
 10
26.5337
 20
31.8299
 11
26.3656
 21
31.8655
  0
LINE
  8
0
 10
26.3656
 20
31.8655
 11
26.1967
 21
31.8969
  0
LINE
  8
0
 10
26.1967
 20
31.8969
 11
26.0271
 21
31.9242
  0
LINE
  8
0
 10
26.0271
 20
31.9242
 11
25.8569
 21
31.9473
  0
LINE
  8
0
 10
25.8569
 20
31.9473
 11
25.6861
 21
31.9663
  0
LINE
  8
0
 10
25.6861
 20
31.9663
 11
25.5149
 21
31.981
  0
LINE
  8
0
 10
25.5149
 20
31.981
 11
25.3435
 21
31.9916
  0
LINE
  8
0
 10
25.3435
 20
31.9916
 11
25.1718
 21
31.9979
  0
LINE
  8
0
 10
25.1718
 20
31.9979
 11
25
 21
32
  0
LINE
  8
0
 10
25
 20
32
 11
24.8282
 21
31.9979
  0
LINE
  8
0
 10
24.8282
 20
31.9979
 11
24.6565
 21
31.9916
  0
LINE
  8
0
 10
24.6565
 20
31.9916
 11
24.485
 21
31.981
  0
LINE
  8
0
 10
24.485
 20
31.981
 11
24.3139
 21
31.9663
  0
LINE
  8
0
 10
24.3139
 20
31.9663
 11
24.1431
 21
31.9473
  0
LINE
  8
0
 10
24.1431
 20
31.9473
 11
23.9729
 21
31.9242
  0
LINE
  8
0
 10
23.9729
 20
31.9242
 11
23.8033
 21
31.8969
  0
LINE
  8
0
 10
23.8033
 20
31.8969
 11
23.6344
 21
31.8655
  0
LINE
  8
0
 10
23.6344
 20
31.8655
 11
23.4663
 21
31.8299
  0
LINE
  8
0
 10
23.4663
 20
31.8299
 11
23.2991
 21
31.7902
  0
LINE
  8
0
 10
23.2991
 20
31.7902
 11
23.133
 21
31.7464
  0
LINE
  8
0
 10
23.133
 20
31.7464
 11
22.968
 21
31.6986
  0
LINE
  8
0
 10
22.968
 20
31.6986
 11
22.8042
 21
31.6467
  0
LINE
  8
0
 10
22.8042
 20
31.6467
 11
22.6418
 21
31.5908
  0
LINE
  8
0
 10
22.6418
 20
31.5908
 11
22.4807
 21
31.5309
  0
LINE
  8
0
 10
22.4807
 20
31.5309
 11
22.3212
 21
31.4671
  0
LINE
  8
0
 10
22.3212
 20
31.4671
 11
22.1633
 21
31.3995
  0
LINE
  8
0
 10
22.1633
 20
31.3995
 11
22.0071
 21
31.3279
  0
LINE
  8
0
 10
22.0071
 20
31.3279
 11
21.8527
 21
31.2526
  0
LINE
  8
0
 10
21.8527
 20
31.2526
 11
21.7002
 21
31.1734
  0
LINE
  8
0
 10
21.7002
 20
31.1734
 11
21.5497
 21
31.0906
  0
LINE
  8
0
 10
21.5497
 20
31.0906
 11
21.4013
 21
31.0041
  0
LINE
  8
0
 10
21.4013
 20
31.0041
 11
21.255
 21
30.914
  0
LINE
  8
0
 10
21.255
 20
30.914
 11
21.111
 21
30.8203
  0
LINE
  8
0
 10
21.111
 20
30.8203
 11
20.9693
 21
30.7231
  0
LINE
  8
0
 10
20.9693
 20
30.7231
 11
20.8301
 21
30.6225
  0
LINE
  8
0
 10
20.8301
 20
30.6225
 11
20.6934
 21
30.5184
  0
LINE
  8
0
 10
20.6934
 20
30.5184
 11
20.5592
 21
30.4111
  0
LINE
  8
0
 10
20.5592
 20
30.4111
 11
20.4278
 21
30.3005
  0
LINE
  8
0
 10
20.4278
 20
30.3005
 11
20.2991
 21
30.1866
  0
LINE
  8
0
 10
20.2991
 20
30.1866
 11
20.1732
 21
30.0697
  0
LINE
  8
0
 10
20.1732
 20
30.0697
 11
20.0502
 21
29.9497
  0
LINE
  8
0
 10
20.0502
 20
29.9497
 11
19.9303
 21
29.8268
  0
LINE
  8
0
 10
19.9303
 20
29.8268
 11
19.8133
 21
29.7009
  0
LINE
  8
0
 10
19.8133
 20
29.7009
 11
19.6995
 21
29.5722
  0
LINE
  8
0
 10
19.6995
 20
29.5722
 11
19.5889
 21
29.4408
  0
LINE
  8
0
 10
19.5889
 20
29.4408
 11
19.4816
 21
29.3066
  0
LINE
  8
0
 10
19.4816
 20
29.3066
 11
19.3775
 21
29.1699
  0
LINE
  8
0
 10
19.3775
 20
29.1699
 11
19.2769
 21
29.0307
  0
LINE
  8
0
 10
19.2769
 20
29.0307
 11
19.1797
 21
28.889
  0
LINE
  8
0
 10
19.1797
 20
28.889
 11
19.086
 21
28.745
  0
LINE
  8
0
 10
19.086
 20
28.745
 11
18.9959
 21
28.5987
  0
LINE
  8
0
 10
18.9959
 20
28.5987
 11
18.9094
 21
28.4503
  0
LINE
  8
0
 10
18.9094
 20
28.4503
 11
18.8265
 21
28.2998
  0
LINE
  8
0
 10
18.8265
 20
28.2998
 11
18.7474
 21
28.1473
  0
LINE
  8
0
 10
18.7474
 20
28.1473
 11
18.6721
 21
27.9929
  0
LINE
  8
0
 10
18.6721
 20
27.9929
 11
18.6005
 21
27.8367
  0
LINE
  8
0
 10
18.6005
 20
27.8367
 11
18.5328
 21
27.6788
  0
LINE
  8
0
 10
18.5328
 20
27.6788
 11
18.469
 21
27.5193
  0
LINE
  8
0
 10
18.469
 20
27.5193
 11
18.4092
 21
27.3582
  0
LINE
  8
0
 10
18.4092
 20
27.3582
 11
18.3533
 21
27.1958
  0
LINE
  8
0
 10
18.3533
 20
27.1958
 11
18.3014
 21
27.032
  0
LINE
  8
0
 10
18.3014
 20
27.032
 11
18.2536
 21
26.867
  0
LINE
  8
0
 10
18.2536
 20
26.867
 11
18.2098
 21
26.7009
  0
LINE
  8
0
 10
18.2098
 20
26.7009
 11
18.1701
 21
26.5337
  0
LINE
  8
0
 10
18.1701
 20
26.5337
 11
18.1345
 21
26.3656
  0
LINE
  8
0
 10
18.1345
 20
26.3656
 11
18.103
 21
26.1967
  0
LINE
  8
0
 10
18.103
 20
26.1967
 11
18.0758
 21
26.0271
  0
LINE
  8
0
 10
18.0758
 20
26.0271
 11
18.0526
 21
25.8569
  0
LINE
  8
0
 10
18.0526
 20
25.8569
 11
18.0337
 21
25.6861
  0
LINE
  8
0
 10
18.0337
 20
25.6861
 11
18.019
 21
25.5149
  0
LINE
  8
0
 10
18.019
 20
25.5149
 11
18.0084
 21
25.3435
  0
LINE
  8
0
 10
18.0084
 20
25.3435
 11
18.0021
 21
25.1718
  0
LINE
  8
0
 10
18.0021
 20
25.1718
 11
18
 21
25
  0
LINE
  8
0
 10
18
 20
25
 11
18.0021
 21
24.8282
  0
LINE
  8
0
 10
18.0021
 20
24.8282
 11
18.0084
 21
24.6565
  0
LINE
  8
0
 10
18.0084
 20
24.6565
 11
18.019
 21
24.485
  0
LINE
  8
0
 10
18.019
 20
24.485
 11
18.0337
 21
24.3139
  0
LINE
  8
0
 10
18.0337
 20
24.3139
 11
18.0526
 21
24.1431
  0
LINE
  8
0
 10
18.0526
 20
24.1431
 11
18.0758
 21
23.9729
  0
LINE
  8
0
 10
18.0758
 20
23.9729
 11
18.103
 21
23.8033
  0
LINE
  8
0
 10
18.103
 20
23.8033
 11
18.1345
 21
23.6344
  0
LINE
  8
0
 10
18.1345
 20
23.6344
 11
18.1701
 21
23.4663
  0
LINE
  8
0
 10
18.1701
 20
23.4663
 11
18.2098
 21
23.2991
  0
LINE
  8
0
 10
18.2098
 20
23.2991
 11
18.2536
 21
23.133
  0
LINE
  8
0
 10
18.2536
 20
23.133
 11
18.3014
 21
22.968
  0
LINE
  8
0
 10
18.3014
 20
22.968
 11
18.3533
 21
22.8042
  0
LINE
  8
0
 10
18.3533
 20
22.8042
 11
18.4092
 21
22.6418
  0
LINE
  8
0
 10
18.4092
 20
22.6418
 11
18.469
 21
22.4807
  0
LINE
  8
0
 10
18.469
 20
22.4807
 11
18.5328
 21
22.3212
  0
LINE
  8
0
 10
18.5328
 20
22.3212
 11
18.6005
 21
22.1633
  0
LINE
  8
0
 10
18.6005
 20
22.1633
 11
18.6721
 21
22.0071
  0
LINE
  8
0
 10
18.6721
 20
22.0071
 11
18.7474
 21
21.8527
  0
LINE
  8
0
 10
18.7474
 20
21.8527
 11
18.8265
 21
21.7002
  0
LINE
  8
0
 10
18.8265
 20
21.7002
 11
18.9094
 21
21.5497
  0
LINE
  8
0
 10
18.9094
 20
21.5497
 11
18.9959
 21
21.4013
  0
LINE
  8
0
 10
18.9959
 20
21.4013
 11
19.086
 21
21.255
  0
LINE
  8
0
 10
19.086
 20
21.255
 11
19.1797
 21
21.111
  0
LINE
  8
0
 10
19.1797
 20
21.111
 11
19.2769
 21
20.9693
  0
LINE
  8
0
 10
19.2769
 20
20.9693
 11
19.3775
 21
20.8301
  0
LINE
  8
0
 10
19.3775
 20
20.8301
 11
19.4816
 21
20.6934
  0
LINE
  8
0
 10
19.4816
 20
20.6934
 11
19.5889
 21
20.5592
  0
LINE
  8
0
 10
19.5889
 20
20.5592
 11
19.6995
 21
20.4278
  0
LINE
  8
0
 10
19.6995
 20
20.4278
 11
19.8133
 21
20.2991
  0
LINE
  8
0
 10
19.8133
 20
20.2991
 11
19.9303
 21
20.1732
  0
LINE
  8
0
 10
19.9303
 20
20.1732
 11
20.0502
 21
20.0502
  0
LINE
  8
0
 10
20.0502
 20
20.0502
 11
20.1732
 21
19.9303
  0
LINE
  8
0
 10
20.1732
 20
19.9303
 11
20.2991
 21
19.8133
  0
LINE
  8
0
 10
20.2991
 20
19.8133
 11
20.4278
 21
19.6995
  0
LINE
  8
0
 10
20.4278
 20
19.6995
 11
20.5592
 21
19.5889
  0
LINE
  8
0
 10
20.5592
 20
19.5889
 11
20.6934
 21
19.4816
  0
LINE
  8
0
 10
20.6934
 20
19.4816
 11
20.8301
 21
19.3775
  0
LINE
  8
0
 10
20.8301
 20
19.3775
 11
20.9693
 21
19.2769
  0
LINE
  8
0
 10
20.9693
 20
19.2769
 11
21.111
 21
19.1797
  0
LINE
  8
0
 10
21.111
 20
19.1797
 11
21.255
 21
19.086
  0
LINE
  8
0
 10
21.255
 20
19.086
 11
21.4013
 21
18.9959
  0
LINE
  8
0
 10
21.4013
 20
18.9959
 11
21.5497
 21
18.9094
  0
LINE
  8
0
 10
21.5497
 20
18.9094
 11
21.7002
 21
18.8265
  0
LINE
  8
0
 10
21.7002
 20
18.8265
 11
21.8527
 21
18.7474
  0
LINE
  8
0
 10
21.8527
 20
18.7474
 11
22.0071
 21
18.6721
  0
LINE
  8
0
 10
22.0071
 20
18.6721
 11
22.1633
 21
18.6005
  0
LINE
  8
0
 10
22.1633
 20
18.6005
 11
22.3212
 21
18.5328
  0
LINE
  8
0
 10
22.3212
 20
18.5328
 11
22.4807
 21
18.469
  0
LINE
  8
0
 10
22.4807
 20
18.469
 11
22.6418
 21
18.4092
  0
LINE
  8
0
 10
22.6418
 20
18.4092
 11
22.8042
 21
18.3533
  0
LINE
  8
0
 10
22.8042
 20
18.3533
 11
22.968
 21
18.3014
  0
LINE
  8
0
 10
22.968
 20
18.3014
 11
23.133
 21
18.2536
  0
LINE
  8
0
 10
23.133
 20
18.2536
 11
23.2991
 21
18.2098
  0
LINE
  8
0
 10
23.2991
 20
18.2098
 11
23.4663
 21
18.1701
  0
LINE
  8
0
 10
23.4663
 20
18.1701
 11
23.6344
 21
18.1345
  0
LINE
  8
0
 10
23.6344
 20
18.1345
 11
23.8033
 21
18.103
  0
LINE
  8
0
 10
23.8033
 20
18.103
 11
23.9729
 21
18.0758
  0
LINE
  8
0
 10
23.9729
 20
18.0758
 11
24.1431
 21
18.0526
  0
LINE
  8
0
 10
24.1431
 20
18.0526
 11
24.3139
 21
18.0337
  0
LINE
  8
0
 10
24.3139
 20
18.0337
 11
24.485
 21
18.019
  0
LINE
  8
0
 10
24.485
 20
18.019
 11
24.6565
 21
18.0084
  0
LINE
  8
0
 10
24.6565
 20
18.0084
 11
24.8282
 21
18.0021
  0
LINE
  8
0
 10
24.8282
 20
18.0021
 11
25
 21
18
  0
LINE
  8
0
 10
25
 20
18
 11
25.1718
 21
18.0021
  0
ENDSEC
  0
SECTION
  2
OBJECTS
  0
DICTIONARY
  0
ENDSEC
  0
EOF
