  0
SECTION
  2
BLOCKS
  0
ENDSEC
  0
SECTION
  2
ENTITIES
  0
LINE
  8
0
 10
15
 20
15
 11
-15
 21
15
  0
LINE
  8
0
 10
-15
 20
15
 11
-15
 21
-15
  0
LINE
  8
0
 10
-15
 20
-15
 11
15
 21
-15
  0
LINE
  8
0
 10
15
 20
-15
 11
15
 21
15
  0
LINE
  8
0
 10
6.91472
 20
-9.94235
 11
6.35194
 21
-9.77164
  0
LINE
  8
0
 10
6.35194
 20
-9.77164
 11
5.83328
 21
-9.4944
  0
LINE
  8
0
 10
5.83328
 20
-9.4944
 11
5.37868
 21
-9.12131
  0
LINE
  8
0
 10
5.37868
 20
-9.12131
 11
5.00558
 21
-8.6667
  0
LINE
  8
0
 10
5.00558
 20
-8.6667
 11
4.98148
 21
-8.62161
  0
LINE
  8
0
 10
4.98148
 20
-8.62161
 11
3.82683
 21
-9.23878
  0
LINE
  8
0
 10
3.82683
 20
-9.23878
 11
1.9509
 21
-9.80785
  0
LINE
  8
0
 10
1.9509
 20
-9.80785
 11
0
 21
-10
  0
LINE
  8
0
 10
0
 20
-10
 11
-1.9509
 21
-9.80785
  0
LINE
  8
0
 10
-1.9509
 20
-9.80785
 11
-3.82683
 21
-9.23878
  0
LINE
  8
0
 10
-3.82683
 20
-9.23878
 11
-5.55569
 21
-8.31468
  0
LINE
  8
0
 10
-5.55569
 20
-8.31468
 11
-7.07106
 21
-7.07106
  0
LINE
  8
0
 10
-7.07106
 20
-7.07106
 11
-8.31468
 21
-5.55569
  0
LINE
  8
0
 10
-8.31468
 20
-5.55569
 11
-9.23878
 21
-3.82683
  0
LINE
  8
0
 10
-9.23878
 20
-3.82683
 11
-9.80785
 21
-1.9509
  0
LINE
  8
0
 10
-9.80785
 20
-1.9509
 11
-10
 21
0
  0
LINE
  8
0
 10
-10
 20
0
 11
-10
 21
10.5
  0
LINE
  8
0
 10
-10
 20
10.5
 11
-3
 21
10.5
  0
LINE
  8
0
 10
-3
 20
10.5
 11
-3
 21
0
  0
LINE
  8
0
 10
-3
 20
0
 11
-2.92313
 21
-0.78035
  0
LINE
  8
0
 10
-2.92313
 20
-0.78035
 11
-2.69551
 21
-1.53073
  0
LINE
  8
0
 10
-2.69551
 20
-1.53073
 11
-2.32587
 21
-2.22227
  0
LINE
  8
0
 10
-2.32587
 20
-2.22227
 11
-1.82841
 21
-2.82841
  0
LINE
  8
0
 10
-1.82841
 20
-2.82841
 11
-1.22227
 21
-3.32587
  0
LINE
  8
0
 10
-1.22227
 20
-3.32587
 11
-0.530731
 21
-3.69551
  0
LINE
  8
0
 10
-0.530731
 20
-3.69551
 11
0.219635
 21
-3.92313
  0
LINE
  8
0
 10
0.219635
 20
-3.92313
 11
1
 21
-4
  0
LINE
  8
0
 10
1
 20
-4
 11
1.78035
 21
-3.92313
  0
LINE
  8
0
 10
1.78035
 20
-3.92313
 11
2.53073
 21
-3.69551
  0
LINE
  8
0
 10
2.53073
 20
-3.69551
 11
3.22227
 21
-3.32587
  0
LINE
  8
0
 10
3.22227
 20
-3.32587
 11
3.82841
 21
-2.82841
  0
LINE
  8
0
 10
3.82841
 20
-2.82841
 11
4.32587
 21
-2.22227
  0
LINE
  8
0
 10
4.32587
 20
-2.22227
 11
4.69551
 21
-1.53073
  0
LINE
  8
0
 10
4.69551
 20
-1.53073
 11
4.92313
 21
-0.78035
  0
LINE
  8
0
 10
4.92313
 20
-0.78035
 11
5
 21
0
  0
LINE
  8
0
 10
5
 20
0
 11
5
 21
10.5
  0
LINE
  8
0
 10
5
 20
10.5
 11
10
 21
10.5
  0
LINE
  8
0
 10
10
 20
10.5
 11
10
 21
0
  0
LINE
  8
0
 10
10
 20
0
 11
9.80785
 21
-1.9509
  0
LINE
  8
0
 10
9.80785
 20
-1.9509
 11
9.54391
 21
-2.82097
  0
LINE
  8
0
 10
9.54391
 20
-2.82097
 11
10.4424
 21
-6.41472
  0
LINE
  8
0
 10
10.4424
 20
-6.41472
 11
10.5
 21
-7
  0
LINE
  8
0
 10
10.5
 20
-7
 11
10.4424
 21
-7.58527
  0
LINE
  8
0
 10
10.4424
 20
-7.58527
 11
10.2716
 21
-8.14804
  0
LINE
  8
0
 10
10.2716
 20
-8.14804
 11
9.9944
 21
-8.6667
  0
LINE
  8
0
 10
9.9944
 20
-8.6667
 11
9.62131
 21
-9.12131
  0
LINE
  8
0
 10
9.62131
 20
-9.12131
 11
9.1667
 21
-9.4944
  0
LINE
  8
0
 10
9.1667
 20
-9.4944
 11
8.64804
 21
-9.77164
  0
LINE
  8
0
 10
8.64804
 20
-9.77164
 11
8.08527
 21
-9.94235
  0
LINE
  8
0
 10
8.08527
 20
-9.94235
 11
7.5
 21
-10
  0
LINE
  8
0
 10
7.5
 20
-10
 11
6.91472
 21
-9.94235
  0
ENDSEC
  0
SECTION
  2
OBJECTS
  0
DICTIONARY
  0
ENDSEC
  0
EOF
