  0
SECTION
  2
BLOCKS
  0
ENDSEC
  0
SECTION
  2
ENTITIES
  0
LINE
  8
0
 10
32.0711
 20
-32.0711
 11
35
 21
-25
  0
LINE
  8
0
 10
35
 20
-25
 11
35
 21
25
  0
LINE
  8
0
 10
35
 20
25
 11
32.0711
 21
32.0711
  0
LINE
  8
0
 10
32.0711
 20
32.0711
 11
25
 21
35
  0
LINE
  8
0
 10
25
 20
35
 11
-25
 21
35
  0
LINE
  8
0
 10
-25
 20
35
 11
-32.0711
 21
32.0711
  0
LINE
  8
0
 10
-32.0711
 20
32.0711
 11
-35
 21
25
  0
LINE
  8
0
 10
-35
 20
25
 11
-35
 21
-25
  0
LINE
  8
0
 10
-35
 20
-25
 11
-32.0711
 21
-32.0711
  0
LINE
  8
0
 10
-32.0711
 20
-32.0711
 11
-25
 21
-35
  0
LINE
  8
0
 10
-25
 20
-35
 11
25
 21
-35
  0
LINE
  8
0
 10
25
 20
-35
 11
32.0711
 21
-32.0711
  0
LINE
  8
0
 10
-25
 20
-25
 11
-25
 21
25
  0
LINE
  8
0
 10
-25
 20
25
 11
25
 21
25
  0
LINE
  8
0
 10
25
 20
25
 11
25
 21
-25
  0
LINE
  8
0
 10
25
 20
-25
 11
-25
 21
-25
  0
LINE
  8
0
 10
14.9749
 20
10.0251
 11
16
 21
12.5
  0
LINE
  8
0
 10
16
 20
12.5
 11
14.9749
 21
14.9749
  0
LINE
  8
0
 10
14.9749
 20
14.9749
 11
12.5
 21
16
  0
LINE
  8
0
 10
12.5
 20
16
 11
10.0251
 21
14.9749
  0
LINE
  8
0
 10
10.0251
 20
14.9749
 11
9
 21
12.5
  0
LINE
  8
0
 10
9
 20
12.5
 11
10.0251
 21
10.0251
  0
LINE
  8
0
 10
10.0251
 20
10.0251
 11
12.5
 21
9
  0
LINE
  8
0
 10
12.5
 20
9
 11
14.9749
 21
10.0251
  0
LINE
  8
0
 10
-10.0251
 20
-14.9749
 11
-9
 21
-12.5
  0
LINE
  8
0
 10
-9
 20
-12.5
 11
-10.0251
 21
-10.0251
  0
LINE
  8
0
 10
-10.0251
 20
-10.0251
 11
-12.5
 21
-9
  0
LINE
  8
0
 10
-12.5
 20
-9
 11
-14.9749
 21
-10.0251
  0
LINE
  8
0
 10
-14.9749
 20
-10.0251
 11
-16
 21
-12.5
  0
LINE
  8
0
 10
-16
 20
-12.5
 11
-14.9749
 21
-14.9749
  0
LINE
  8
0
 10
-14.9749
 20
-14.9749
 11
-12.5
 21
-16
  0
LINE
  8
0
 10
-12.5
 20
-16
 11
-10.0251
 21
-14.9749
  0
ENDSEC
  0
SECTION
  2
OBJECTS
  0
DICTIONARY
  0
ENDSEC
  0
EOF
