  0
SECTION
  2
BLOCKS
  0
ENDSEC
  0
SECTION
  2
ENTITIES
  0
LINE
  8
0
 10
-57.9289
 20
7.92892
 11
-55
 21
15
  0
LINE
  8
0
 10
-55
 20
15
 11
-55
 21
65
  0
LINE
  8
0
 10
-55
 20
65
 11
-57.9289
 21
72.0711
  0
LINE
  8
0
 10
-57.9289
 20
72.0711
 11
-65
 21
75
  0
LINE
  8
0
 10
-65
 20
75
 11
-115
 21
75
  0
LINE
  8
0
 10
-115
 20
75
 11
-122.071
 21
72.0711
  0
LINE
  8
0
 10
-122.071
 20
72.0711
 11
-125
 21
65
  0
LINE
  8
0
 10
-125
 20
65
 11
-125
 21
15
  0
LINE
  8
0
 10
-125
 20
15
 11
-122.071
 21
7.92892
  0
LINE
  8
0
 10
-122.071
 20
7.92892
 11
-115
 21
5
  0
LINE
  8
0
 10
-115
 20
5
 11
-65
 21
5
  0
LINE
  8
0
 10
-65
 20
5
 11
-57.9289
 21
7.92892
  0
LINE
  8
0
 10
-115
 20
15
 11
-115
 21
65
  0
LINE
  8
0
 10
-115
 20
65
 11
-65
 21
65
  0
LINE
  8
0
 10
-65
 20
65
 11
-65
 21
15
  0
LINE
  8
0
 10
-65
 20
15
 11
-115
 21
15
  0
LINE
  8
0
 10
-87.5251
 20
37.5251
 11
-86.5
 21
40
  0
LINE
  8
0
 10
-86.5
 20
40
 11
-87.5251
 21
42.4749
  0
LINE
  8
0
 10
-87.5251
 20
42.4749
 11
-90
 21
43.5
  0
LINE
  8
0
 10
-90
 20
43.5
 11
-92.4749
 21
42.4749
  0
LINE
  8
0
 10
-92.4749
 20
42.4749
 11
-93.5
 21
40
  0
LINE
  8
0
 10
-93.5
 20
40
 11
-92.4749
 21
37.5251
  0
LINE
  8
0
 10
-92.4749
 20
37.5251
 11
-90
 21
36.5
  0
LINE
  8
0
 10
-90
 20
36.5
 11
-87.5251
 21
37.5251
  0
LINE
  8
0
 10
32.0711
 20
7.92892
 11
35
 21
15
  0
LINE
  8
0
 10
35
 20
15
 11
35
 21
65
  0
LINE
  8
0
 10
35
 20
65
 11
32.0711
 21
72.0711
  0
LINE
  8
0
 10
32.0711
 20
72.0711
 11
25
 21
75
  0
LINE
  8
0
 10
25
 20
75
 11
-25
 21
75
  0
LINE
  8
0
 10
-25
 20
75
 11
-32.0711
 21
72.0711
  0
LINE
  8
0
 10
-32.0711
 20
72.0711
 11
-35
 21
65
  0
LINE
  8
0
 10
-35
 20
65
 11
-35
 21
15
  0
LINE
  8
0
 10
-35
 20
15
 11
-32.0711
 21
7.92892
  0
LINE
  8
0
 10
-32.0711
 20
7.92892
 11
-25
 21
5
  0
LINE
  8
0
 10
-25
 20
5
 11
25
 21
5
  0
LINE
  8
0
 10
25
 20
5
 11
32.0711
 21
7.92892
  0
LINE
  8
0
 10
-25
 20
15
 11
-25
 21
65
  0
LINE
  8
0
 10
-25
 20
65
 11
25
 21
65
  0
LINE
  8
0
 10
25
 20
65
 11
25
 21
15
  0
LINE
  8
0
 10
25
 20
15
 11
-25
 21
15
  0
LINE
  8
0
 10
14.9749
 20
50.0251
 11
16
 21
52.5
  0
LINE
  8
0
 10
16
 20
52.5
 11
14.9749
 21
54.9749
  0
LINE
  8
0
 10
14.9749
 20
54.9749
 11
12.5
 21
56
  0
LINE
  8
0
 10
12.5
 20
56
 11
10.0251
 21
54.9749
  0
LINE
  8
0
 10
10.0251
 20
54.9749
 11
9
 21
52.5
  0
LINE
  8
0
 10
9
 20
52.5
 11
10.0251
 21
50.0251
  0
LINE
  8
0
 10
10.0251
 20
50.0251
 11
12.5
 21
49
  0
LINE
  8
0
 10
12.5
 20
49
 11
14.9749
 21
50.0251
  0
LINE
  8
0
 10
-10.0251
 20
25.0251
 11
-9
 21
27.5
  0
LINE
  8
0
 10
-9
 20
27.5
 11
-10.0251
 21
29.9749
  0
LINE
  8
0
 10
-10.0251
 20
29.9749
 11
-12.5
 21
31
  0
LINE
  8
0
 10
-12.5
 20
31
 11
-14.9749
 21
29.9749
  0
LINE
  8
0
 10
-14.9749
 20
29.9749
 11
-16
 21
27.5
  0
LINE
  8
0
 10
-16
 20
27.5
 11
-14.9749
 21
25.0251
  0
LINE
  8
0
 10
-14.9749
 20
25.0251
 11
-12.5
 21
24
  0
LINE
  8
0
 10
-12.5
 20
24
 11
-10.0251
 21
25.0251
  0
LINE
  8
0
 10
122.071
 20
7.92892
 11
125
 21
15
  0
LINE
  8
0
 10
125
 20
15
 11
125
 21
65
  0
LINE
  8
0
 10
125
 20
65
 11
122.071
 21
72.0711
  0
LINE
  8
0
 10
122.071
 20
72.0711
 11
115
 21
75
  0
LINE
  8
0
 10
115
 20
75
 11
65
 21
75
  0
LINE
  8
0
 10
65
 20
75
 11
57.9289
 21
72.0711
  0
LINE
  8
0
 10
57.9289
 20
72.0711
 11
55
 21
65
  0
LINE
  8
0
 10
55
 20
65
 11
55
 21
15
  0
LINE
  8
0
 10
55
 20
15
 11
57.9289
 21
7.92892
  0
LINE
  8
0
 10
57.9289
 20
7.92892
 11
65
 21
5
  0
LINE
  8
0
 10
65
 20
5
 11
115
 21
5
  0
LINE
  8
0
 10
115
 20
5
 11
122.071
 21
7.92892
  0
LINE
  8
0
 10
65
 20
15
 11
65
 21
65
  0
LINE
  8
0
 10
65
 20
65
 11
115
 21
65
  0
LINE
  8
0
 10
115
 20
65
 11
115
 21
15
  0
LINE
  8
0
 10
115
 20
15
 11
65
 21
15
  0
LINE
  8
0
 10
104.975
 20
50.0251
 11
106
 21
52.5
  0
LINE
  8
0
 10
106
 20
52.5
 11
104.975
 21
54.9749
  0
LINE
  8
0
 10
104.975
 20
54.9749
 11
102.5
 21
56
  0
LINE
  8
0
 10
102.5
 20
56
 11
100.025
 21
54.9749
  0
LINE
  8
0
 10
100.025
 20
54.9749
 11
99
 21
52.5
  0
LINE
  8
0
 10
99
 20
52.5
 11
100.025
 21
50.0251
  0
LINE
  8
0
 10
100.025
 20
50.0251
 11
102.5
 21
49
  0
LINE
  8
0
 10
102.5
 20
49
 11
104.975
 21
50.0251
  0
LINE
  8
0
 10
92.4749
 20
37.5251
 11
93.5
 21
40
  0
LINE
  8
0
 10
93.5
 20
40
 11
92.4749
 21
42.4749
  0
LINE
  8
0
 10
92.4749
 20
42.4749
 11
90
 21
43.5
  0
LINE
  8
0
 10
90
 20
43.5
 11
87.5251
 21
42.4749
  0
LINE
  8
0
 10
87.5251
 20
42.4749
 11
86.5
 21
40
  0
LINE
  8
0
 10
86.5
 20
40
 11
87.5251
 21
37.5251
  0
LINE
  8
0
 10
87.5251
 20
37.5251
 11
90
 21
36.5
  0
LINE
  8
0
 10
90
 20
36.5
 11
92.4749
 21
37.5251
  0
LINE
  8
0
 10
79.9749
 20
25.0251
 11
81
 21
27.5
  0
LINE
  8
0
 10
81
 20
27.5
 11
79.9749
 21
29.9749
  0
LINE
  8
0
 10
79.9749
 20
29.9749
 11
77.5
 21
31
  0
LINE
  8
0
 10
77.5
 20
31
 11
75.0251
 21
29.9749
  0
LINE
  8
0
 10
75.0251
 20
29.9749
 11
74
 21
27.5
  0
LINE
  8
0
 10
74
 20
27.5
 11
75.0251
 21
25.0251
  0
LINE
  8
0
 10
75.0251
 20
25.0251
 11
77.5
 21
24
  0
LINE
  8
0
 10
77.5
 20
24
 11
79.9749
 21
25.0251
  0
LINE
  8
0
 10
-57.9289
 20
-72.0711
 11
-55
 21
-65
  0
LINE
  8
0
 10
-55
 20
-65
 11
-55
 21
-15
  0
LINE
  8
0
 10
-55
 20
-15
 11
-57.9289
 21
-7.92892
  0
LINE
  8
0
 10
-57.9289
 20
-7.92892
 11
-65
 21
-5
  0
LINE
  8
0
 10
-65
 20
-5
 11
-115
 21
-5
  0
LINE
  8
0
 10
-115
 20
-5
 11
-122.071
 21
-7.92892
  0
LINE
  8
0
 10
-122.071
 20
-7.92892
 11
-125
 21
-15
  0
LINE
  8
0
 10
-125
 20
-15
 11
-125
 21
-65
  0
LINE
  8
0
 10
-125
 20
-65
 11
-122.071
 21
-72.0711
  0
LINE
  8
0
 10
-122.071
 20
-72.0711
 11
-115
 21
-75
  0
LINE
  8
0
 10
-115
 20
-75
 11
-65
 21
-75
  0
LINE
  8
0
 10
-65
 20
-75
 11
-57.9289
 21
-72.0711
  0
LINE
  8
0
 10
-115
 20
-65
 11
-115
 21
-15
  0
LINE
  8
0
 10
-115
 20
-15
 11
-65
 21
-15
  0
LINE
  8
0
 10
-65
 20
-15
 11
-65
 21
-65
  0
LINE
  8
0
 10
-65
 20
-65
 11
-115
 21
-65
  0
LINE
  8
0
 10
-100.025
 20
-29.9749
 11
-99
 21
-27.5
  0
LINE
  8
0
 10
-99
 20
-27.5
 11
-100.025
 21
-25.0251
  0
LINE
  8
0
 10
-100.025
 20
-25.0251
 11
-102.5
 21
-24
  0
LINE
  8
0
 10
-102.5
 20
-24
 11
-104.975
 21
-25.0251
  0
LINE
  8
0
 10
-104.975
 20
-25.0251
 11
-106
 21
-27.5
  0
LINE
  8
0
 10
-106
 20
-27.5
 11
-104.975
 21
-29.9749
  0
LINE
  8
0
 10
-104.975
 20
-29.9749
 11
-102.5
 21
-31
  0
LINE
  8
0
 10
-102.5
 20
-31
 11
-100.025
 21
-29.9749
  0
LINE
  8
0
 10
-75.0251
 20
-29.9749
 11
-74
 21
-27.5
  0
LINE
  8
0
 10
-74
 20
-27.5
 11
-75.0251
 21
-25.0251
  0
LINE
  8
0
 10
-75.0251
 20
-25.0251
 11
-77.5
 21
-24
  0
LINE
  8
0
 10
-77.5
 20
-24
 11
-79.9749
 21
-25.0251
  0
LINE
  8
0
 10
-79.9749
 20
-25.0251
 11
-81
 21
-27.5
  0
LINE
  8
0
 10
-81
 20
-27.5
 11
-79.9749
 21
-29.9749
  0
LINE
  8
0
 10
-79.9749
 20
-29.9749
 11
-77.5
 21
-31
  0
LINE
  8
0
 10
-77.5
 20
-31
 11
-75.0251
 21
-29.9749
  0
LINE
  8
0
 10
-75.0251
 20
-54.9749
 11
-74
 21
-52.5
  0
LINE
  8
0
 10
-74
 20
-52.5
 11
-75.0251
 21
-50.0251
  0
LINE
  8
0
 10
-75.0251
 20
-50.0251
 11
-77.5
 21
-49
  0
LINE
  8
0
 10
-77.5
 20
-49
 11
-79.9749
 21
-50.0251
  0
LINE
  8
0
 10
-79.9749
 20
-50.0251
 11
-81
 21
-52.5
  0
LINE
  8
0
 10
-81
 20
-52.5
 11
-79.9749
 21
-54.9749
  0
LINE
  8
0
 10
-79.9749
 20
-54.9749
 11
-77.5
 21
-56
  0
LINE
  8
0
 10
-77.5
 20
-56
 11
-75.0251
 21
-54.9749
  0
LINE
  8
0
 10
-100.025
 20
-54.9749
 11
-99
 21
-52.5
  0
LINE
  8
0
 10
-99
 20
-52.5
 11
-100.025
 21
-50.0251
  0
LINE
  8
0
 10
-100.025
 20
-50.0251
 11
-102.5
 21
-49
  0
LINE
  8
0
 10
-102.5
 20
-49
 11
-104.975
 21
-50.0251
  0
LINE
  8
0
 10
-104.975
 20
-50.0251
 11
-106
 21
-52.5
  0
LINE
  8
0
 10
-106
 20
-52.5
 11
-104.975
 21
-54.9749
  0
LINE
  8
0
 10
-104.975
 20
-54.9749
 11
-102.5
 21
-56
  0
LINE
  8
0
 10
-102.5
 20
-56
 11
-100.025
 21
-54.9749
  0
LINE
  8
0
 10
122.071
 20
-72.0711
 11
125
 21
-65
  0
LINE
  8
0
 10
125
 20
-65
 11
125
 21
-15
  0
LINE
  8
0
 10
125
 20
-15
 11
122.071
 21
-7.92892
  0
LINE
  8
0
 10
122.071
 20
-7.92892
 11
115
 21
-5
  0
LINE
  8
0
 10
115
 20
-5
 11
65
 21
-5
  0
LINE
  8
0
 10
65
 20
-5
 11
57.9289
 21
-7.92892
  0
LINE
  8
0
 10
57.9289
 20
-7.92892
 11
55
 21
-15
  0
LINE
  8
0
 10
55
 20
-15
 11
55
 21
-65
  0
LINE
  8
0
 10
55
 20
-65
 11
57.9289
 21
-72.0711
  0
LINE
  8
0
 10
57.9289
 20
-72.0711
 11
65
 21
-75
  0
LINE
  8
0
 10
65
 20
-75
 11
115
 21
-75
  0
LINE
  8
0
 10
115
 20
-75
 11
122.071
 21
-72.0711
  0
LINE
  8
0
 10
65
 20
-65
 11
65
 21
-15
  0
LINE
  8
0
 10
65
 20
-15
 11
115
 21
-15
  0
LINE
  8
0
 10
115
 20
-15
 11
115
 21
-65
  0
LINE
  8
0
 10
115
 20
-65
 11
65
 21
-65
  0
LINE
  8
0
 10
79.9749
 20
-29.9749
 11
81
 21
-27.5
  0
LINE
  8
0
 10
81
 20
-27.5
 11
79.9749
 21
-25.0251
  0
LINE
  8
0
 10
79.9749
 20
-25.0251
 11
77.5
 21
-24
  0
LINE
  8
0
 10
77.5
 20
-24
 11
75.0251
 21
-25.0251
  0
LINE
  8
0
 10
75.0251
 20
-25.0251
 11
74
 21
-27.5
  0
LINE
  8
0
 10
74
 20
-27.5
 11
75.0251
 21
-29.9749
  0
LINE
  8
0
 10
75.0251
 20
-29.9749
 11
77.5
 21
-31
  0
LINE
  8
0
 10
77.5
 20
-31
 11
79.9749
 21
-29.9749
  0
LINE
  8
0
 10
104.975
 20
-29.9749
 11
106
 21
-27.5
  0
LINE
  8
0
 10
106
 20
-27.5
 11
104.975
 21
-25.0251
  0
LINE
  8
0
 10
104.975
 20
-25.0251
 11
102.5
 21
-24
  0
LINE
  8
0
 10
102.5
 20
-24
 11
100.025
 21
-25.0251
  0
LINE
  8
0
 10
100.025
 20
-25.0251
 11
99
 21
-27.5
  0
LINE
  8
0
 10
99
 20
-27.5
 11
100.025
 21
-29.9749
  0
LINE
  8
0
 10
100.025
 20
-29.9749
 11
102.5
 21
-31
  0
LINE
  8
0
 10
102.5
 20
-31
 11
104.975
 21
-29.9749
  0
LINE
  8
0
 10
79.9749
 20
-42.4749
 11
81
 21
-40
  0
LINE
  8
0
 10
81
 20
-40
 11
79.9749
 21
-37.5251
  0
LINE
  8
0
 10
79.9749
 20
-37.5251
 11
77.5
 21
-36.5
  0
LINE
  8
0
 10
77.5
 20
-36.5
 11
75.0251
 21
-37.5251
  0
LINE
  8
0
 10
75.0251
 20
-37.5251
 11
74
 21
-40
  0
LINE
  8
0
 10
74
 20
-40
 11
75.0251
 21
-42.4749
  0
LINE
  8
0
 10
75.0251
 20
-42.4749
 11
77.5
 21
-43.5
  0
LINE
  8
0
 10
77.5
 20
-43.5
 11
79.9749
 21
-42.4749
  0
LINE
  8
0
 10
104.975
 20
-42.4749
 11
106
 21
-40
  0
LINE
  8
0
 10
106
 20
-40
 11
104.975
 21
-37.5251
  0
LINE
  8
0
 10
104.975
 20
-37.5251
 11
102.5
 21
-36.5
  0
LINE
  8
0
 10
102.5
 20
-36.5
 11
100.025
 21
-37.5251
  0
LINE
  8
0
 10
100.025
 20
-37.5251
 11
99
 21
-40
  0
LINE
  8
0
 10
99
 20
-40
 11
100.025
 21
-42.4749
  0
LINE
  8
0
 10
100.025
 20
-42.4749
 11
102.5
 21
-43.5
  0
LINE
  8
0
 10
102.5
 20
-43.5
 11
104.975
 21
-42.4749
  0
LINE
  8
0
 10
104.975
 20
-54.9749
 11
106
 21
-52.5
  0
LINE
  8
0
 10
106
 20
-52.5
 11
104.975
 21
-50.0251
  0
LINE
  8
0
 10
104.975
 20
-50.0251
 11
102.5
 21
-49
  0
LINE
  8
0
 10
102.5
 20
-49
 11
100.025
 21
-50.0251
  0
LINE
  8
0
 10
100.025
 20
-50.0251
 11
99
 21
-52.5
  0
LINE
  8
0
 10
99
 20
-52.5
 11
100.025
 21
-54.9749
  0
LINE
  8
0
 10
100.025
 20
-54.9749
 11
102.5
 21
-56
  0
LINE
  8
0
 10
102.5
 20
-56
 11
104.975
 21
-54.9749
  0
LINE
  8
0
 10
79.9749
 20
-54.9749
 11
81
 21
-52.5
  0
LINE
  8
0
 10
81
 20
-52.5
 11
79.9749
 21
-50.0251
  0
LINE
  8
0
 10
79.9749
 20
-50.0251
 11
77.5
 21
-49
  0
LINE
  8
0
 10
77.5
 20
-49
 11
75.0251
 21
-50.0251
  0
LINE
  8
0
 10
75.0251
 20
-50.0251
 11
74
 21
-52.5
  0
LINE
  8
0
 10
74
 20
-52.5
 11
75.0251
 21
-54.9749
  0
LINE
  8
0
 10
75.0251
 20
-54.9749
 11
77.5
 21
-56
  0
LINE
  8
0
 10
77.5
 20
-56
 11
79.9749
 21
-54.9749
  0
LINE
  8
0
 10
32.0711
 20
-72.0711
 11
35
 21
-65
  0
LINE
  8
0
 10
35
 20
-65
 11
35
 21
-15
  0
LINE
  8
0
 10
35
 20
-15
 11
32.0711
 21
-7.92892
  0
LINE
  8
0
 10
32.0711
 20
-7.92892
 11
25
 21
-5
  0
LINE
  8
0
 10
25
 20
-5
 11
-25
 21
-5
  0
LINE
  8
0
 10
-25
 20
-5
 11
-32.0711
 21
-7.92892
  0
LINE
  8
0
 10
-32.0711
 20
-7.92892
 11
-35
 21
-15
  0
LINE
  8
0
 10
-35
 20
-15
 11
-35
 21
-65
  0
LINE
  8
0
 10
-35
 20
-65
 11
-32.0711
 21
-72.0711
  0
LINE
  8
0
 10
-32.0711
 20
-72.0711
 11
-25
 21
-75
  0
LINE
  8
0
 10
-25
 20
-75
 11
25
 21
-75
  0
LINE
  8
0
 10
25
 20
-75
 11
32.0711
 21
-72.0711
  0
LINE
  8
0
 10
-25
 20
-65
 11
-25
 21
-15
  0
LINE
  8
0
 10
-25
 20
-15
 11
25
 21
-15
  0
LINE
  8
0
 10
25
 20
-15
 11
25
 21
-65
  0
LINE
  8
0
 10
25
 20
-65
 11
-25
 21
-65
  0
LINE
  8
0
 10
-10.0251
 20
-29.9749
 11
-9
 21
-27.5
  0
LINE
  8
0
 10
-9
 20
-27.5
 11
-10.0251
 21
-25.0251
  0
LINE
  8
0
 10
-10.0251
 20
-25.0251
 11
-12.5
 21
-24
  0
LINE
  8
0
 10
-12.5
 20
-24
 11
-14.9749
 21
-25.0251
  0
LINE
  8
0
 10
-14.9749
 20
-25.0251
 11
-16
 21
-27.5
  0
LINE
  8
0
 10
-16
 20
-27.5
 11
-14.9749
 21
-29.9749
  0
LINE
  8
0
 10
-14.9749
 20
-29.9749
 11
-12.5
 21
-31
  0
LINE
  8
0
 10
-12.5
 20
-31
 11
-10.0251
 21
-29.9749
  0
LINE
  8
0
 10
14.9749
 20
-29.9749
 11
16
 21
-27.5
  0
LINE
  8
0
 10
16
 20
-27.5
 11
14.9749
 21
-25.0251
  0
LINE
  8
0
 10
14.9749
 20
-25.0251
 11
12.5
 21
-24
  0
LINE
  8
0
 10
12.5
 20
-24
 11
10.0251
 21
-25.0251
  0
LINE
  8
0
 10
10.0251
 20
-25.0251
 11
9
 21
-27.5
  0
LINE
  8
0
 10
9
 20
-27.5
 11
10.0251
 21
-29.9749
  0
LINE
  8
0
 10
10.0251
 20
-29.9749
 11
12.5
 21
-31
  0
LINE
  8
0
 10
12.5
 20
-31
 11
14.9749
 21
-29.9749
  0
LINE
  8
0
 10
2.47487
 20
-42.4749
 11
3.5
 21
-40
  0
LINE
  8
0
 10
3.5
 20
-40
 11
2.47487
 21
-37.5251
  0
LINE
  8
0
 10
2.47487
 20
-37.5251
 11
0
 21
-36.5
  0
LINE
  8
0
 10
0
 20
-36.5
 11
-2.47487
 21
-37.5251
  0
LINE
  8
0
 10
-2.47487
 20
-37.5251
 11
-3.5
 21
-40
  0
LINE
  8
0
 10
-3.5
 20
-40
 11
-2.47487
 21
-42.4749
  0
LINE
  8
0
 10
-2.47487
 20
-42.4749
 11
0
 21
-43.5
  0
LINE
  8
0
 10
0
 20
-43.5
 11
2.47487
 21
-42.4749
  0
LINE
  8
0
 10
14.9749
 20
-54.9749
 11
16
 21
-52.5
  0
LINE
  8
0
 10
16
 20
-52.5
 11
14.9749
 21
-50.0251
  0
LINE
  8
0
 10
14.9749
 20
-50.0251
 11
12.5
 21
-49
  0
LINE
  8
0
 10
12.5
 20
-49
 11
10.0251
 21
-50.0251
  0
LINE
  8
0
 10
10.0251
 20
-50.0251
 11
9
 21
-52.5
  0
LINE
  8
0
 10
9
 20
-52.5
 11
10.0251
 21
-54.9749
  0
LINE
  8
0
 10
10.0251
 20
-54.9749
 11
12.5
 21
-56
  0
LINE
  8
0
 10
12.5
 20
-56
 11
14.9749
 21
-54.9749
  0
LINE
  8
0
 10
-10.0251
 20
-54.9749
 11
-9
 21
-52.5
  0
LINE
  8
0
 10
-9
 20
-52.5
 11
-10.0251
 21
-50.0251
  0
LINE
  8
0
 10
-10.0251
 20
-50.0251
 11
-12.5
 21
-49
  0
LINE
  8
0
 10
-12.5
 20
-49
 11
-14.9749
 21
-50.0251
  0
LINE
  8
0
 10
-14.9749
 20
-50.0251
 11
-16
 21
-52.5
  0
LINE
  8
0
 10
-16
 20
-52.5
 11
-14.9749
 21
-54.9749
  0
LINE
  8
0
 10
-14.9749
 20
-54.9749
 11
-12.5
 21
-56
  0
LINE
  8
0
 10
-12.5
 20
-56
 11
-10.0251
 21
-54.9749
  0
ENDSEC
  0
SECTION
  2
OBJECTS
  0
DICTIONARY
  0
ENDSEC
  0
EOF
